%TF.GenerationSoftware,KiCad,Pcbnew,(5.99.0-9519-ga70106a3bd)*%
%TF.CreationDate,2021-04-02T22:42:04-07:00*%
%TF.ProjectId,UsbSound,55736253-6f75-46e6-942e-6b696361645f,rev?*%
%TF.SameCoordinates,Original*%
%TF.FileFunction,Legend,Top*%
%TF.FilePolarity,Positive*%
%FSLAX46Y46*%
G04 Gerber Fmt 4.6, Leading zero omitted, Abs format (unit mm)*
G04 Created by KiCad (PCBNEW (5.99.0-9519-ga70106a3bd)) date 2021-04-02 22:42:04*
%MOMM*%
%LPD*%
G01*
G04 APERTURE LIST*
%ADD10C,0.100000*%
%ADD11C,0.150000*%
%ADD12C,0.015000*%
%ADD13C,0.120000*%
%ADD14C,0.127000*%
%ADD15C,0.200000*%
G04 APERTURE END LIST*
D10*
X196596000Y-79756000D02*
X189484000Y-86868000D01*
X189484000Y-86868000D02*
X183388000Y-86868000D01*
X183388000Y-86868000D02*
X179832000Y-83312000D01*
X179832000Y-83312000D02*
X179832000Y-68834000D01*
X179832000Y-68834000D02*
X196596000Y-68834000D01*
X196596000Y-68834000D02*
X196596000Y-79756000D01*
X179070000Y-82550000D02*
X176299091Y-85344000D01*
X176299091Y-85344000D02*
X168402000Y-85344000D01*
X168402000Y-85344000D02*
X161798000Y-79502000D01*
X161798000Y-79502000D02*
X161798000Y-68834000D01*
X161798000Y-68834000D02*
X179070000Y-68834000D01*
X179070000Y-68834000D02*
X179070000Y-82550000D01*
X138938000Y-82550000D02*
X136652000Y-84836000D01*
X136652000Y-84836000D02*
X125730000Y-84836000D01*
X125730000Y-84836000D02*
X121920000Y-81026000D01*
X121920000Y-81026000D02*
X121920000Y-68834000D01*
X121920000Y-68834000D02*
X138938000Y-68834000D01*
X138938000Y-68834000D02*
X138938000Y-82550000D01*
X157226000Y-79756000D02*
X151638000Y-84582000D01*
X151638000Y-84582000D02*
X141732000Y-84582000D01*
X141732000Y-84582000D02*
X139700000Y-83312000D01*
X139700000Y-83312000D02*
X139700000Y-68834000D01*
X139700000Y-68834000D02*
X157226000Y-68834000D01*
X157226000Y-68834000D02*
X157226000Y-79756000D01*
D11*
X194748619Y-90163809D02*
X194748619Y-89687619D01*
X195748619Y-89687619D01*
X194748619Y-90639999D02*
X194796238Y-90544761D01*
X194843857Y-90497142D01*
X194939095Y-90449523D01*
X195224809Y-90449523D01*
X195320047Y-90497142D01*
X195367666Y-90544761D01*
X195415285Y-90639999D01*
X195415285Y-90782857D01*
X195367666Y-90878095D01*
X195320047Y-90925714D01*
X195224809Y-90973333D01*
X194939095Y-90973333D01*
X194843857Y-90925714D01*
X194796238Y-90878095D01*
X194748619Y-90782857D01*
X194748619Y-90639999D01*
X195415285Y-91306666D02*
X194748619Y-91497142D01*
X195224809Y-91687619D01*
X194748619Y-91878095D01*
X195415285Y-92068571D01*
X195272428Y-93211428D02*
X195272428Y-93544761D01*
X194748619Y-93687619D02*
X194748619Y-93211428D01*
X195748619Y-93211428D01*
X195748619Y-93687619D01*
X194748619Y-94020952D02*
X195415285Y-94544761D01*
X195415285Y-94020952D02*
X194748619Y-94544761D01*
X195415285Y-94925714D02*
X194415285Y-94925714D01*
X195367666Y-94925714D02*
X195415285Y-95020952D01*
X195415285Y-95211428D01*
X195367666Y-95306666D01*
X195320047Y-95354285D01*
X195224809Y-95401904D01*
X194939095Y-95401904D01*
X194843857Y-95354285D01*
X194796238Y-95306666D01*
X194748619Y-95211428D01*
X194748619Y-95020952D01*
X194796238Y-94925714D01*
X194796238Y-96211428D02*
X194748619Y-96116190D01*
X194748619Y-95925714D01*
X194796238Y-95830476D01*
X194891476Y-95782857D01*
X195272428Y-95782857D01*
X195367666Y-95830476D01*
X195415285Y-95925714D01*
X195415285Y-96116190D01*
X195367666Y-96211428D01*
X195272428Y-96259047D01*
X195177190Y-96259047D01*
X195081952Y-95782857D01*
X194796238Y-97116190D02*
X194748619Y-97020952D01*
X194748619Y-96830476D01*
X194796238Y-96735238D01*
X194843857Y-96687619D01*
X194939095Y-96639999D01*
X195224809Y-96639999D01*
X195320047Y-96687619D01*
X195367666Y-96735238D01*
X195415285Y-96830476D01*
X195415285Y-97020952D01*
X195367666Y-97116190D01*
X195415285Y-97401904D02*
X195415285Y-97782857D01*
X195748619Y-97544761D02*
X194891476Y-97544761D01*
X194796238Y-97592380D01*
X194748619Y-97687619D01*
X194748619Y-97782857D01*
X194748619Y-98544761D02*
X195272428Y-98544761D01*
X195367666Y-98497142D01*
X195415285Y-98401904D01*
X195415285Y-98211428D01*
X195367666Y-98116190D01*
X194796238Y-98544761D02*
X194748619Y-98449523D01*
X194748619Y-98211428D01*
X194796238Y-98116190D01*
X194891476Y-98068571D01*
X194986714Y-98068571D01*
X195081952Y-98116190D01*
X195129571Y-98211428D01*
X195129571Y-98449523D01*
X195177190Y-98544761D01*
X195415285Y-98878095D02*
X195415285Y-99259047D01*
X195748619Y-99020952D02*
X194891476Y-99020952D01*
X194796238Y-99068571D01*
X194748619Y-99163809D01*
X194748619Y-99259047D01*
X194748619Y-99592380D02*
X195415285Y-99592380D01*
X195748619Y-99592380D02*
X195701000Y-99544761D01*
X195653380Y-99592380D01*
X195701000Y-99639999D01*
X195748619Y-99592380D01*
X195653380Y-99592380D01*
X194748619Y-100211428D02*
X194796238Y-100116190D01*
X194843857Y-100068571D01*
X194939095Y-100020952D01*
X195224809Y-100020952D01*
X195320047Y-100068571D01*
X195367666Y-100116190D01*
X195415285Y-100211428D01*
X195415285Y-100354285D01*
X195367666Y-100449523D01*
X195320047Y-100497142D01*
X195224809Y-100544761D01*
X194939095Y-100544761D01*
X194843857Y-100497142D01*
X194796238Y-100449523D01*
X194748619Y-100354285D01*
X194748619Y-100211428D01*
X195415285Y-100973333D02*
X194748619Y-100973333D01*
X195320047Y-100973333D02*
X195367666Y-101020952D01*
X195415285Y-101116190D01*
X195415285Y-101259047D01*
X195367666Y-101354285D01*
X195272428Y-101401904D01*
X194748619Y-101401904D01*
X194796238Y-101830476D02*
X194748619Y-101925714D01*
X194748619Y-102116190D01*
X194796238Y-102211428D01*
X194891476Y-102259047D01*
X194939095Y-102259047D01*
X195034333Y-102211428D01*
X195081952Y-102116190D01*
X195081952Y-101973333D01*
X195129571Y-101878095D01*
X195224809Y-101830476D01*
X195272428Y-101830476D01*
X195367666Y-101878095D01*
X195415285Y-101973333D01*
X195415285Y-102116190D01*
X195367666Y-102211428D01*
X195272428Y-103449523D02*
X195272428Y-103782857D01*
X194748619Y-103925714D02*
X194748619Y-103449523D01*
X195748619Y-103449523D01*
X195748619Y-103925714D01*
X194748619Y-104259047D02*
X195415285Y-104782857D01*
X195415285Y-104259047D02*
X194748619Y-104782857D01*
X195415285Y-105020952D02*
X195415285Y-105401904D01*
X195748619Y-105163809D02*
X194891476Y-105163809D01*
X194796238Y-105211428D01*
X194748619Y-105306666D01*
X194748619Y-105401904D01*
X194796238Y-106116190D02*
X194748619Y-106020952D01*
X194748619Y-105830476D01*
X194796238Y-105735238D01*
X194891476Y-105687619D01*
X195272428Y-105687619D01*
X195367666Y-105735238D01*
X195415285Y-105830476D01*
X195415285Y-106020952D01*
X195367666Y-106116190D01*
X195272428Y-106163809D01*
X195177190Y-106163809D01*
X195081952Y-105687619D01*
X194748619Y-106592380D02*
X195415285Y-106592380D01*
X195224809Y-106592380D02*
X195320047Y-106639999D01*
X195367666Y-106687619D01*
X195415285Y-106782857D01*
X195415285Y-106878095D01*
X195415285Y-107211428D02*
X194748619Y-107211428D01*
X195320047Y-107211428D02*
X195367666Y-107259047D01*
X195415285Y-107354285D01*
X195415285Y-107497142D01*
X195367666Y-107592380D01*
X195272428Y-107639999D01*
X194748619Y-107639999D01*
X194748619Y-108544761D02*
X195272428Y-108544761D01*
X195367666Y-108497142D01*
X195415285Y-108401904D01*
X195415285Y-108211428D01*
X195367666Y-108116190D01*
X194796238Y-108544761D02*
X194748619Y-108449523D01*
X194748619Y-108211428D01*
X194796238Y-108116190D01*
X194891476Y-108068571D01*
X194986714Y-108068571D01*
X195081952Y-108116190D01*
X195129571Y-108211428D01*
X195129571Y-108449523D01*
X195177190Y-108544761D01*
X194748619Y-109163809D02*
X194796238Y-109068571D01*
X194891476Y-109020952D01*
X195748619Y-109020952D01*
X194796238Y-110259047D02*
X194748619Y-110401904D01*
X194748619Y-110639999D01*
X194796238Y-110735238D01*
X194843857Y-110782857D01*
X194939095Y-110830476D01*
X195034333Y-110830476D01*
X195129571Y-110782857D01*
X195177190Y-110735238D01*
X195224809Y-110639999D01*
X195272428Y-110449523D01*
X195320047Y-110354285D01*
X195367666Y-110306666D01*
X195462904Y-110259047D01*
X195558142Y-110259047D01*
X195653380Y-110306666D01*
X195701000Y-110354285D01*
X195748619Y-110449523D01*
X195748619Y-110687619D01*
X195701000Y-110830476D01*
X194748619Y-111401904D02*
X194796238Y-111306666D01*
X194843857Y-111259047D01*
X194939095Y-111211428D01*
X195224809Y-111211428D01*
X195320047Y-111259047D01*
X195367666Y-111306666D01*
X195415285Y-111401904D01*
X195415285Y-111544761D01*
X195367666Y-111639999D01*
X195320047Y-111687619D01*
X195224809Y-111735238D01*
X194939095Y-111735238D01*
X194843857Y-111687619D01*
X194796238Y-111639999D01*
X194748619Y-111544761D01*
X194748619Y-111401904D01*
X195415285Y-112592380D02*
X194748619Y-112592380D01*
X195415285Y-112163809D02*
X194891476Y-112163809D01*
X194796238Y-112211428D01*
X194748619Y-112306666D01*
X194748619Y-112449523D01*
X194796238Y-112544761D01*
X194843857Y-112592380D01*
X195415285Y-113068571D02*
X194748619Y-113068571D01*
X195320047Y-113068571D02*
X195367666Y-113116190D01*
X195415285Y-113211428D01*
X195415285Y-113354285D01*
X195367666Y-113449523D01*
X195272428Y-113497142D01*
X194748619Y-113497142D01*
X194748619Y-114401904D02*
X195748619Y-114401904D01*
X194796238Y-114401904D02*
X194748619Y-114306666D01*
X194748619Y-114116190D01*
X194796238Y-114020952D01*
X194843857Y-113973333D01*
X194939095Y-113925714D01*
X195224809Y-113925714D01*
X195320047Y-113973333D01*
X195367666Y-114020952D01*
X195415285Y-114116190D01*
X195415285Y-114306666D01*
X195367666Y-114401904D01*
X194843857Y-116211428D02*
X194796238Y-116163809D01*
X194748619Y-116020952D01*
X194748619Y-115925714D01*
X194796238Y-115782857D01*
X194891476Y-115687619D01*
X194986714Y-115639999D01*
X195177190Y-115592380D01*
X195320047Y-115592380D01*
X195510523Y-115639999D01*
X195605761Y-115687619D01*
X195701000Y-115782857D01*
X195748619Y-115925714D01*
X195748619Y-116020952D01*
X195701000Y-116163809D01*
X195653380Y-116211428D01*
X194748619Y-117068571D02*
X195272428Y-117068571D01*
X195367666Y-117020952D01*
X195415285Y-116925714D01*
X195415285Y-116735238D01*
X195367666Y-116639999D01*
X194796238Y-117068571D02*
X194748619Y-116973333D01*
X194748619Y-116735238D01*
X194796238Y-116639999D01*
X194891476Y-116592380D01*
X194986714Y-116592380D01*
X195081952Y-116639999D01*
X195129571Y-116735238D01*
X195129571Y-116973333D01*
X195177190Y-117068571D01*
X194748619Y-117544761D02*
X195415285Y-117544761D01*
X195224809Y-117544761D02*
X195320047Y-117592380D01*
X195367666Y-117639999D01*
X195415285Y-117735238D01*
X195415285Y-117830476D01*
X194748619Y-118592380D02*
X195748619Y-118592380D01*
X194796238Y-118592380D02*
X194748619Y-118497142D01*
X194748619Y-118306666D01*
X194796238Y-118211428D01*
X194843857Y-118163809D01*
X194939095Y-118116190D01*
X195224809Y-118116190D01*
X195320047Y-118163809D01*
X195367666Y-118211428D01*
X195415285Y-118306666D01*
X195415285Y-118497142D01*
X195367666Y-118592380D01*
X192757666Y-95997142D02*
X192805285Y-95949523D01*
X192948142Y-95854285D01*
X193043380Y-95806666D01*
X193186238Y-95759047D01*
X193424333Y-95711428D01*
X193614809Y-95711428D01*
X193852904Y-95759047D01*
X193995761Y-95806666D01*
X194091000Y-95854285D01*
X194233857Y-95949523D01*
X194281476Y-95997142D01*
X193233857Y-96949523D02*
X193186238Y-96901904D01*
X193138619Y-96759047D01*
X193138619Y-96663809D01*
X193186238Y-96520952D01*
X193281476Y-96425714D01*
X193376714Y-96378095D01*
X193567190Y-96330476D01*
X193710047Y-96330476D01*
X193900523Y-96378095D01*
X193995761Y-96425714D01*
X194091000Y-96520952D01*
X194138619Y-96663809D01*
X194138619Y-96759047D01*
X194091000Y-96901904D01*
X194043380Y-96949523D01*
X192757666Y-97282857D02*
X192805285Y-97330476D01*
X192948142Y-97425714D01*
X193043380Y-97473333D01*
X193186238Y-97520952D01*
X193424333Y-97568571D01*
X193614809Y-97568571D01*
X193852904Y-97520952D01*
X193995761Y-97473333D01*
X194091000Y-97425714D01*
X194233857Y-97330476D01*
X194281476Y-97282857D01*
X193186238Y-98759047D02*
X193138619Y-98901904D01*
X193138619Y-99140000D01*
X193186238Y-99235238D01*
X193233857Y-99282857D01*
X193329095Y-99330476D01*
X193424333Y-99330476D01*
X193519571Y-99282857D01*
X193567190Y-99235238D01*
X193614809Y-99140000D01*
X193662428Y-98949523D01*
X193710047Y-98854285D01*
X193757666Y-98806666D01*
X193852904Y-98759047D01*
X193948142Y-98759047D01*
X194043380Y-98806666D01*
X194091000Y-98854285D01*
X194138619Y-98949523D01*
X194138619Y-99187619D01*
X194091000Y-99330476D01*
X193805285Y-99616190D02*
X193805285Y-99997142D01*
X194138619Y-99759047D02*
X193281476Y-99759047D01*
X193186238Y-99806666D01*
X193138619Y-99901904D01*
X193138619Y-99997142D01*
X193186238Y-100711428D02*
X193138619Y-100616190D01*
X193138619Y-100425714D01*
X193186238Y-100330476D01*
X193281476Y-100282857D01*
X193662428Y-100282857D01*
X193757666Y-100330476D01*
X193805285Y-100425714D01*
X193805285Y-100616190D01*
X193757666Y-100711428D01*
X193662428Y-100759047D01*
X193567190Y-100759047D01*
X193471952Y-100282857D01*
X193805285Y-101092380D02*
X193138619Y-101330476D01*
X193805285Y-101568571D01*
X193186238Y-102330476D02*
X193138619Y-102235238D01*
X193138619Y-102044761D01*
X193186238Y-101949523D01*
X193281476Y-101901904D01*
X193662428Y-101901904D01*
X193757666Y-101949523D01*
X193805285Y-102044761D01*
X193805285Y-102235238D01*
X193757666Y-102330476D01*
X193662428Y-102378095D01*
X193567190Y-102378095D01*
X193471952Y-101901904D01*
X193186238Y-103520952D02*
X193138619Y-103663809D01*
X193138619Y-103901904D01*
X193186238Y-103997142D01*
X193233857Y-104044761D01*
X193329095Y-104092380D01*
X193424333Y-104092380D01*
X193519571Y-104044761D01*
X193567190Y-103997142D01*
X193614809Y-103901904D01*
X193662428Y-103711428D01*
X193710047Y-103616190D01*
X193757666Y-103568571D01*
X193852904Y-103520952D01*
X193948142Y-103520952D01*
X194043380Y-103568571D01*
X194091000Y-103616190D01*
X194138619Y-103711428D01*
X194138619Y-103949523D01*
X194091000Y-104092380D01*
X193805285Y-104425714D02*
X193138619Y-104663809D01*
X193805285Y-104901904D02*
X193138619Y-104663809D01*
X192900523Y-104568571D01*
X192852904Y-104520952D01*
X192805285Y-104425714D01*
X193805285Y-105140000D02*
X193805285Y-105520952D01*
X193138619Y-105282857D02*
X193995761Y-105282857D01*
X194091000Y-105330476D01*
X194138619Y-105425714D01*
X194138619Y-105520952D01*
X193805285Y-106282857D02*
X193138619Y-106282857D01*
X193805285Y-105854285D02*
X193281476Y-105854285D01*
X193186238Y-105901904D01*
X193138619Y-105997142D01*
X193138619Y-106140000D01*
X193186238Y-106235238D01*
X193233857Y-106282857D01*
X193138619Y-106759047D02*
X194138619Y-106759047D01*
X193138619Y-107187619D02*
X193662428Y-107187619D01*
X193757666Y-107140000D01*
X193805285Y-107044761D01*
X193805285Y-106901904D01*
X193757666Y-106806666D01*
X193710047Y-106759047D01*
X193186238Y-107616190D02*
X193138619Y-107711428D01*
X193138619Y-107901904D01*
X193186238Y-107997142D01*
X193281476Y-108044761D01*
X193329095Y-108044761D01*
X193424333Y-107997142D01*
X193471952Y-107901904D01*
X193471952Y-107759047D01*
X193519571Y-107663809D01*
X193614809Y-107616190D01*
X193662428Y-107616190D01*
X193757666Y-107663809D01*
X193805285Y-107759047D01*
X193805285Y-107901904D01*
X193757666Y-107997142D01*
X194043380Y-109187619D02*
X194091000Y-109235238D01*
X194138619Y-109330476D01*
X194138619Y-109568571D01*
X194091000Y-109663809D01*
X194043380Y-109711428D01*
X193948142Y-109759047D01*
X193852904Y-109759047D01*
X193710047Y-109711428D01*
X193138619Y-109140000D01*
X193138619Y-109759047D01*
X194138619Y-110378095D02*
X194138619Y-110473333D01*
X194091000Y-110568571D01*
X194043380Y-110616190D01*
X193948142Y-110663809D01*
X193757666Y-110711428D01*
X193519571Y-110711428D01*
X193329095Y-110663809D01*
X193233857Y-110616190D01*
X193186238Y-110568571D01*
X193138619Y-110473333D01*
X193138619Y-110378095D01*
X193186238Y-110282857D01*
X193233857Y-110235238D01*
X193329095Y-110187619D01*
X193519571Y-110140000D01*
X193757666Y-110140000D01*
X193948142Y-110187619D01*
X194043380Y-110235238D01*
X194091000Y-110282857D01*
X194138619Y-110378095D01*
X194043380Y-111092380D02*
X194091000Y-111140000D01*
X194138619Y-111235238D01*
X194138619Y-111473333D01*
X194091000Y-111568571D01*
X194043380Y-111616190D01*
X193948142Y-111663809D01*
X193852904Y-111663809D01*
X193710047Y-111616190D01*
X193138619Y-111044761D01*
X193138619Y-111663809D01*
X193138619Y-112616190D02*
X193138619Y-112044761D01*
X193138619Y-112330476D02*
X194138619Y-112330476D01*
X193995761Y-112235238D01*
X193900523Y-112140000D01*
X193852904Y-112044761D01*
X189918619Y-89568571D02*
X190394809Y-89235238D01*
X189918619Y-88997142D02*
X190918619Y-88997142D01*
X190918619Y-89378095D01*
X190871000Y-89473333D01*
X190823380Y-89520952D01*
X190728142Y-89568571D01*
X190585285Y-89568571D01*
X190490047Y-89520952D01*
X190442428Y-89473333D01*
X190394809Y-89378095D01*
X190394809Y-88997142D01*
X189966238Y-90378095D02*
X189918619Y-90282857D01*
X189918619Y-90092380D01*
X189966238Y-89997142D01*
X190061476Y-89949523D01*
X190442428Y-89949523D01*
X190537666Y-89997142D01*
X190585285Y-90092380D01*
X190585285Y-90282857D01*
X190537666Y-90378095D01*
X190442428Y-90425714D01*
X190347190Y-90425714D01*
X190251952Y-89949523D01*
X190585285Y-90759047D02*
X189918619Y-90997142D01*
X190585285Y-91235238D01*
X190918619Y-92568571D02*
X190918619Y-92663809D01*
X190871000Y-92759047D01*
X190823380Y-92806666D01*
X190728142Y-92854285D01*
X190537666Y-92901904D01*
X190299571Y-92901904D01*
X190109095Y-92854285D01*
X190013857Y-92806666D01*
X189966238Y-92759047D01*
X189918619Y-92663809D01*
X189918619Y-92568571D01*
X189966238Y-92473333D01*
X190013857Y-92425714D01*
X190109095Y-92378095D01*
X190299571Y-92330476D01*
X190537666Y-92330476D01*
X190728142Y-92378095D01*
X190823380Y-92425714D01*
X190871000Y-92473333D01*
X190918619Y-92568571D01*
X190013857Y-93330476D02*
X189966238Y-93378095D01*
X189918619Y-93330476D01*
X189966238Y-93282857D01*
X190013857Y-93330476D01*
X189918619Y-93330476D01*
X189918619Y-94330476D02*
X189918619Y-93759047D01*
X189918619Y-94044761D02*
X190918619Y-94044761D01*
X190775761Y-93949523D01*
X190680523Y-93854285D01*
X190632904Y-93759047D01*
X190299571Y-95520952D02*
X190299571Y-96282857D01*
X189918619Y-97520952D02*
X190918619Y-97520952D01*
X190585285Y-97854285D02*
X190585285Y-98235238D01*
X189918619Y-97997142D02*
X190775761Y-97997142D01*
X190871000Y-98044761D01*
X190918619Y-98140000D01*
X190918619Y-98235238D01*
X189918619Y-99759047D02*
X190442428Y-99759047D01*
X190537666Y-99711428D01*
X190585285Y-99616190D01*
X190585285Y-99425714D01*
X190537666Y-99330476D01*
X189966238Y-99759047D02*
X189918619Y-99663809D01*
X189918619Y-99425714D01*
X189966238Y-99330476D01*
X190061476Y-99282857D01*
X190156714Y-99282857D01*
X190251952Y-99330476D01*
X190299571Y-99425714D01*
X190299571Y-99663809D01*
X190347190Y-99759047D01*
X190585285Y-100092380D02*
X190585285Y-100473333D01*
X190918619Y-100235238D02*
X190061476Y-100235238D01*
X189966238Y-100282857D01*
X189918619Y-100378095D01*
X189918619Y-100473333D01*
X190585285Y-101425714D02*
X190585285Y-101806666D01*
X189918619Y-101568571D02*
X190775761Y-101568571D01*
X190871000Y-101616190D01*
X190918619Y-101711428D01*
X190918619Y-101806666D01*
X189918619Y-102140000D02*
X190585285Y-102140000D01*
X190918619Y-102140000D02*
X190871000Y-102092380D01*
X190823380Y-102140000D01*
X190871000Y-102187619D01*
X190918619Y-102140000D01*
X190823380Y-102140000D01*
X189918619Y-102616190D02*
X190585285Y-102616190D01*
X190394809Y-102616190D02*
X190490047Y-102663809D01*
X190537666Y-102711428D01*
X190585285Y-102806666D01*
X190585285Y-102901904D01*
X189966238Y-103187619D02*
X189918619Y-103282857D01*
X189918619Y-103473333D01*
X189966238Y-103568571D01*
X190061476Y-103616190D01*
X190109095Y-103616190D01*
X190204333Y-103568571D01*
X190251952Y-103473333D01*
X190251952Y-103330476D01*
X190299571Y-103235238D01*
X190394809Y-103187619D01*
X190442428Y-103187619D01*
X190537666Y-103235238D01*
X190585285Y-103330476D01*
X190585285Y-103473333D01*
X190537666Y-103568571D01*
X190585285Y-103901904D02*
X190585285Y-104282857D01*
X190918619Y-104044761D02*
X190061476Y-104044761D01*
X189966238Y-104092380D01*
X189918619Y-104187619D01*
X189918619Y-104282857D01*
X190585285Y-105282857D02*
X189918619Y-105520952D01*
X190585285Y-105759047D02*
X189918619Y-105520952D01*
X189680523Y-105425714D01*
X189632904Y-105378095D01*
X189585285Y-105282857D01*
X189918619Y-106282857D02*
X189966238Y-106187619D01*
X190013857Y-106140000D01*
X190109095Y-106092380D01*
X190394809Y-106092380D01*
X190490047Y-106140000D01*
X190537666Y-106187619D01*
X190585285Y-106282857D01*
X190585285Y-106425714D01*
X190537666Y-106520952D01*
X190490047Y-106568571D01*
X190394809Y-106616190D01*
X190109095Y-106616190D01*
X190013857Y-106568571D01*
X189966238Y-106520952D01*
X189918619Y-106425714D01*
X189918619Y-106282857D01*
X190585285Y-107473333D02*
X189918619Y-107473333D01*
X190585285Y-107044761D02*
X190061476Y-107044761D01*
X189966238Y-107092380D01*
X189918619Y-107187619D01*
X189918619Y-107330476D01*
X189966238Y-107425714D01*
X190013857Y-107473333D01*
X189918619Y-109140000D02*
X190918619Y-109140000D01*
X189966238Y-109140000D02*
X189918619Y-109044761D01*
X189918619Y-108854285D01*
X189966238Y-108759047D01*
X190013857Y-108711428D01*
X190109095Y-108663809D01*
X190394809Y-108663809D01*
X190490047Y-108711428D01*
X190537666Y-108759047D01*
X190585285Y-108854285D01*
X190585285Y-109044761D01*
X190537666Y-109140000D01*
X189918619Y-109759047D02*
X189966238Y-109663809D01*
X190013857Y-109616190D01*
X190109095Y-109568571D01*
X190394809Y-109568571D01*
X190490047Y-109616190D01*
X190537666Y-109663809D01*
X190585285Y-109759047D01*
X190585285Y-109901904D01*
X190537666Y-109997142D01*
X190490047Y-110044761D01*
X190394809Y-110092380D01*
X190109095Y-110092380D01*
X190013857Y-110044761D01*
X189966238Y-109997142D01*
X189918619Y-109901904D01*
X189918619Y-109759047D01*
X190585285Y-110520952D02*
X189918619Y-110520952D01*
X190490047Y-110520952D02*
X190537666Y-110568571D01*
X190585285Y-110663809D01*
X190585285Y-110806666D01*
X190537666Y-110901904D01*
X190442428Y-110949523D01*
X189918619Y-110949523D01*
X190918619Y-111473333D02*
X190728142Y-111378095D01*
X190585285Y-111759047D02*
X190585285Y-112139999D01*
X190918619Y-111901904D02*
X190061476Y-111901904D01*
X189966238Y-111949523D01*
X189918619Y-112044761D01*
X189918619Y-112139999D01*
X189966238Y-113187619D02*
X189918619Y-113282857D01*
X189918619Y-113473333D01*
X189966238Y-113568571D01*
X190061476Y-113616190D01*
X190109095Y-113616190D01*
X190204333Y-113568571D01*
X190251952Y-113473333D01*
X190251952Y-113330476D01*
X190299571Y-113235238D01*
X190394809Y-113187619D01*
X190442428Y-113187619D01*
X190537666Y-113235238D01*
X190585285Y-113330476D01*
X190585285Y-113473333D01*
X190537666Y-113568571D01*
X190585285Y-114473333D02*
X189918619Y-114473333D01*
X190585285Y-114044761D02*
X190061476Y-114044761D01*
X189966238Y-114092380D01*
X189918619Y-114187619D01*
X189918619Y-114330476D01*
X189966238Y-114425714D01*
X190013857Y-114473333D01*
X189966238Y-115378095D02*
X189918619Y-115282857D01*
X189918619Y-115092380D01*
X189966238Y-114997142D01*
X190013857Y-114949523D01*
X190109095Y-114901904D01*
X190394809Y-114901904D01*
X190490047Y-114949523D01*
X190537666Y-114997142D01*
X190585285Y-115092380D01*
X190585285Y-115282857D01*
X190537666Y-115378095D01*
X189966238Y-116235238D02*
X189918619Y-116139999D01*
X189918619Y-115949523D01*
X189966238Y-115854285D01*
X190013857Y-115806666D01*
X190109095Y-115759047D01*
X190394809Y-115759047D01*
X190490047Y-115806666D01*
X190537666Y-115854285D01*
X190585285Y-115949523D01*
X190585285Y-116139999D01*
X190537666Y-116235238D01*
X189966238Y-117044761D02*
X189918619Y-116949523D01*
X189918619Y-116759047D01*
X189966238Y-116663809D01*
X190061476Y-116616190D01*
X190442428Y-116616190D01*
X190537666Y-116663809D01*
X190585285Y-116759047D01*
X190585285Y-116949523D01*
X190537666Y-117044761D01*
X190442428Y-117092380D01*
X190347190Y-117092380D01*
X190251952Y-116616190D01*
X189966238Y-117901904D02*
X189918619Y-117806666D01*
X189918619Y-117616190D01*
X189966238Y-117520952D01*
X190061476Y-117473333D01*
X190442428Y-117473333D01*
X190537666Y-117520952D01*
X190585285Y-117616190D01*
X190585285Y-117806666D01*
X190537666Y-117901904D01*
X190442428Y-117949523D01*
X190347190Y-117949523D01*
X190251952Y-117473333D01*
X189918619Y-118806666D02*
X190918619Y-118806666D01*
X189966238Y-118806666D02*
X189918619Y-118711428D01*
X189918619Y-118520952D01*
X189966238Y-118425714D01*
X190013857Y-118378095D01*
X190109095Y-118330476D01*
X190394809Y-118330476D01*
X190490047Y-118378095D01*
X190537666Y-118425714D01*
X190585285Y-118520952D01*
X190585285Y-118711428D01*
X190537666Y-118806666D01*
X190013857Y-119282857D02*
X189966238Y-119330476D01*
X189918619Y-119282857D01*
X189966238Y-119235238D01*
X190013857Y-119282857D01*
X189918619Y-119282857D01*
X140422476Y-68270380D02*
X139946285Y-68270380D01*
X139946285Y-67270380D01*
X141136761Y-68222761D02*
X141041523Y-68270380D01*
X140851047Y-68270380D01*
X140755809Y-68222761D01*
X140708190Y-68127523D01*
X140708190Y-67746571D01*
X140755809Y-67651333D01*
X140851047Y-67603714D01*
X141041523Y-67603714D01*
X141136761Y-67651333D01*
X141184380Y-67746571D01*
X141184380Y-67841809D01*
X140708190Y-67937047D01*
X141470095Y-67603714D02*
X141851047Y-67603714D01*
X141612952Y-68270380D02*
X141612952Y-67413238D01*
X141660571Y-67318000D01*
X141755809Y-67270380D01*
X141851047Y-67270380D01*
X142041523Y-67603714D02*
X142422476Y-67603714D01*
X142184380Y-67270380D02*
X142184380Y-68127523D01*
X142232000Y-68222761D01*
X142327238Y-68270380D01*
X142422476Y-68270380D01*
X142755809Y-67889428D02*
X143517714Y-67889428D01*
X122753523Y-43632380D02*
X122277333Y-43632380D01*
X122277333Y-42632380D01*
X123467809Y-43584761D02*
X123372571Y-43632380D01*
X123182095Y-43632380D01*
X123086857Y-43584761D01*
X123039238Y-43489523D01*
X123039238Y-43108571D01*
X123086857Y-43013333D01*
X123182095Y-42965714D01*
X123372571Y-42965714D01*
X123467809Y-43013333D01*
X123515428Y-43108571D01*
X123515428Y-43203809D01*
X123039238Y-43299047D01*
X123801142Y-42965714D02*
X124182095Y-42965714D01*
X123944000Y-43632380D02*
X123944000Y-42775238D01*
X123991619Y-42680000D01*
X124086857Y-42632380D01*
X124182095Y-42632380D01*
X124372571Y-42965714D02*
X124753523Y-42965714D01*
X124515428Y-42632380D02*
X124515428Y-43489523D01*
X124563047Y-43584761D01*
X124658285Y-43632380D01*
X124753523Y-43632380D01*
X81446857Y-72318571D02*
X81589714Y-72366190D01*
X81637333Y-72413809D01*
X81684952Y-72509047D01*
X81684952Y-72651904D01*
X81637333Y-72747142D01*
X81589714Y-72794761D01*
X81494476Y-72842380D01*
X81113523Y-72842380D01*
X81113523Y-71842380D01*
X81446857Y-71842380D01*
X81542095Y-71890000D01*
X81589714Y-71937619D01*
X81637333Y-72032857D01*
X81637333Y-72128095D01*
X81589714Y-72223333D01*
X81542095Y-72270952D01*
X81446857Y-72318571D01*
X81113523Y-72318571D01*
X82304000Y-71842380D02*
X82494476Y-71842380D01*
X82589714Y-71890000D01*
X82684952Y-71985238D01*
X82732571Y-72175714D01*
X82732571Y-72509047D01*
X82684952Y-72699523D01*
X82589714Y-72794761D01*
X82494476Y-72842380D01*
X82304000Y-72842380D01*
X82208761Y-72794761D01*
X82113523Y-72699523D01*
X82065904Y-72509047D01*
X82065904Y-72175714D01*
X82113523Y-71985238D01*
X82208761Y-71890000D01*
X82304000Y-71842380D01*
X83351619Y-71842380D02*
X83542095Y-71842380D01*
X83637333Y-71890000D01*
X83732571Y-71985238D01*
X83780190Y-72175714D01*
X83780190Y-72509047D01*
X83732571Y-72699523D01*
X83637333Y-72794761D01*
X83542095Y-72842380D01*
X83351619Y-72842380D01*
X83256380Y-72794761D01*
X83161142Y-72699523D01*
X83113523Y-72509047D01*
X83113523Y-72175714D01*
X83161142Y-71985238D01*
X83256380Y-71890000D01*
X83351619Y-71842380D01*
X84065904Y-71842380D02*
X84637333Y-71842380D01*
X84351619Y-72842380D02*
X84351619Y-71842380D01*
X180633904Y-68270380D02*
X180300571Y-67794190D01*
X180062476Y-68270380D02*
X180062476Y-67270380D01*
X180443428Y-67270380D01*
X180538666Y-67318000D01*
X180586285Y-67365619D01*
X180633904Y-67460857D01*
X180633904Y-67603714D01*
X180586285Y-67698952D01*
X180538666Y-67746571D01*
X180443428Y-67794190D01*
X180062476Y-67794190D01*
X181062476Y-68270380D02*
X181062476Y-67603714D01*
X181062476Y-67270380D02*
X181014857Y-67318000D01*
X181062476Y-67365619D01*
X181110095Y-67318000D01*
X181062476Y-67270380D01*
X181062476Y-67365619D01*
X181967238Y-67603714D02*
X181967238Y-68413238D01*
X181919619Y-68508476D01*
X181872000Y-68556095D01*
X181776761Y-68603714D01*
X181633904Y-68603714D01*
X181538666Y-68556095D01*
X181967238Y-68222761D02*
X181872000Y-68270380D01*
X181681523Y-68270380D01*
X181586285Y-68222761D01*
X181538666Y-68175142D01*
X181491047Y-68079904D01*
X181491047Y-67794190D01*
X181538666Y-67698952D01*
X181586285Y-67651333D01*
X181681523Y-67603714D01*
X181872000Y-67603714D01*
X181967238Y-67651333D01*
X182443428Y-68270380D02*
X182443428Y-67270380D01*
X182872000Y-68270380D02*
X182872000Y-67746571D01*
X182824380Y-67651333D01*
X182729142Y-67603714D01*
X182586285Y-67603714D01*
X182491047Y-67651333D01*
X182443428Y-67698952D01*
X183205333Y-67603714D02*
X183586285Y-67603714D01*
X183348190Y-67270380D02*
X183348190Y-68127523D01*
X183395809Y-68222761D01*
X183491047Y-68270380D01*
X183586285Y-68270380D01*
X183919619Y-67889428D02*
X184681523Y-67889428D01*
X162599904Y-68270380D02*
X162266571Y-67794190D01*
X162028476Y-68270380D02*
X162028476Y-67270380D01*
X162409428Y-67270380D01*
X162504666Y-67318000D01*
X162552285Y-67365619D01*
X162599904Y-67460857D01*
X162599904Y-67603714D01*
X162552285Y-67698952D01*
X162504666Y-67746571D01*
X162409428Y-67794190D01*
X162028476Y-67794190D01*
X163028476Y-68270380D02*
X163028476Y-67603714D01*
X163028476Y-67270380D02*
X162980857Y-67318000D01*
X163028476Y-67365619D01*
X163076095Y-67318000D01*
X163028476Y-67270380D01*
X163028476Y-67365619D01*
X163933238Y-67603714D02*
X163933238Y-68413238D01*
X163885619Y-68508476D01*
X163838000Y-68556095D01*
X163742761Y-68603714D01*
X163599904Y-68603714D01*
X163504666Y-68556095D01*
X163933238Y-68222761D02*
X163838000Y-68270380D01*
X163647523Y-68270380D01*
X163552285Y-68222761D01*
X163504666Y-68175142D01*
X163457047Y-68079904D01*
X163457047Y-67794190D01*
X163504666Y-67698952D01*
X163552285Y-67651333D01*
X163647523Y-67603714D01*
X163838000Y-67603714D01*
X163933238Y-67651333D01*
X164409428Y-68270380D02*
X164409428Y-67270380D01*
X164838000Y-68270380D02*
X164838000Y-67746571D01*
X164790380Y-67651333D01*
X164695142Y-67603714D01*
X164552285Y-67603714D01*
X164457047Y-67651333D01*
X164409428Y-67698952D01*
X165171333Y-67603714D02*
X165552285Y-67603714D01*
X165314190Y-67270380D02*
X165314190Y-68127523D01*
X165361809Y-68222761D01*
X165457047Y-68270380D01*
X165552285Y-68270380D01*
X165885619Y-67889428D02*
X166647523Y-67889428D01*
X166266571Y-68270380D02*
X166266571Y-67508476D01*
X122642476Y-68270380D02*
X122166285Y-68270380D01*
X122166285Y-67270380D01*
X123356761Y-68222761D02*
X123261523Y-68270380D01*
X123071047Y-68270380D01*
X122975809Y-68222761D01*
X122928190Y-68127523D01*
X122928190Y-67746571D01*
X122975809Y-67651333D01*
X123071047Y-67603714D01*
X123261523Y-67603714D01*
X123356761Y-67651333D01*
X123404380Y-67746571D01*
X123404380Y-67841809D01*
X122928190Y-67937047D01*
X123690095Y-67603714D02*
X124071047Y-67603714D01*
X123832952Y-68270380D02*
X123832952Y-67413238D01*
X123880571Y-67318000D01*
X123975809Y-67270380D01*
X124071047Y-67270380D01*
X124261523Y-67603714D02*
X124642476Y-67603714D01*
X124404380Y-67270380D02*
X124404380Y-68127523D01*
X124452000Y-68222761D01*
X124547238Y-68270380D01*
X124642476Y-68270380D01*
X124975809Y-67889428D02*
X125737714Y-67889428D01*
X125356761Y-68270380D02*
X125356761Y-67508476D01*
X82065904Y-80208380D02*
X81732571Y-79732190D01*
X81494476Y-80208380D02*
X81494476Y-79208380D01*
X81875428Y-79208380D01*
X81970666Y-79256000D01*
X82018285Y-79303619D01*
X82065904Y-79398857D01*
X82065904Y-79541714D01*
X82018285Y-79636952D01*
X81970666Y-79684571D01*
X81875428Y-79732190D01*
X81494476Y-79732190D01*
X82494476Y-79208380D02*
X82494476Y-80017904D01*
X82542095Y-80113142D01*
X82589714Y-80160761D01*
X82684952Y-80208380D01*
X82875428Y-80208380D01*
X82970666Y-80160761D01*
X83018285Y-80113142D01*
X83065904Y-80017904D01*
X83065904Y-79208380D01*
X83542095Y-80208380D02*
X83542095Y-79208380D01*
X84113523Y-80208380D01*
X84113523Y-79208380D01*
X161186952Y-43632380D02*
X160853619Y-43156190D01*
X160615523Y-43632380D02*
X160615523Y-42632380D01*
X160996476Y-42632380D01*
X161091714Y-42680000D01*
X161139333Y-42727619D01*
X161186952Y-42822857D01*
X161186952Y-42965714D01*
X161139333Y-43060952D01*
X161091714Y-43108571D01*
X160996476Y-43156190D01*
X160615523Y-43156190D01*
X161615523Y-43632380D02*
X161615523Y-42965714D01*
X161615523Y-42632380D02*
X161567904Y-42680000D01*
X161615523Y-42727619D01*
X161663142Y-42680000D01*
X161615523Y-42632380D01*
X161615523Y-42727619D01*
X162520285Y-42965714D02*
X162520285Y-43775238D01*
X162472666Y-43870476D01*
X162425047Y-43918095D01*
X162329809Y-43965714D01*
X162186952Y-43965714D01*
X162091714Y-43918095D01*
X162520285Y-43584761D02*
X162425047Y-43632380D01*
X162234571Y-43632380D01*
X162139333Y-43584761D01*
X162091714Y-43537142D01*
X162044095Y-43441904D01*
X162044095Y-43156190D01*
X162091714Y-43060952D01*
X162139333Y-43013333D01*
X162234571Y-42965714D01*
X162425047Y-42965714D01*
X162520285Y-43013333D01*
X162996476Y-43632380D02*
X162996476Y-42632380D01*
X163425047Y-43632380D02*
X163425047Y-43108571D01*
X163377428Y-43013333D01*
X163282190Y-42965714D01*
X163139333Y-42965714D01*
X163044095Y-43013333D01*
X162996476Y-43060952D01*
X163758380Y-42965714D02*
X164139333Y-42965714D01*
X163901238Y-42632380D02*
X163901238Y-43489523D01*
X163948857Y-43584761D01*
X164044095Y-43632380D01*
X164139333Y-43632380D01*
X120048857Y-98059142D02*
X120048857Y-98702000D01*
X120006000Y-98830571D01*
X119920285Y-98916285D01*
X119791714Y-98959142D01*
X119706000Y-98959142D01*
X120906000Y-98959142D02*
X120477428Y-98959142D01*
X120477428Y-98059142D01*
X121720285Y-98873428D02*
X121677428Y-98916285D01*
X121548857Y-98959142D01*
X121463142Y-98959142D01*
X121334571Y-98916285D01*
X121248857Y-98830571D01*
X121206000Y-98744857D01*
X121163142Y-98573428D01*
X121163142Y-98444857D01*
X121206000Y-98273428D01*
X121248857Y-98187714D01*
X121334571Y-98102000D01*
X121463142Y-98059142D01*
X121548857Y-98059142D01*
X121677428Y-98102000D01*
X121720285Y-98144857D01*
X122363142Y-98059142D02*
X122363142Y-98702000D01*
X122320285Y-98830571D01*
X122234571Y-98916285D01*
X122106000Y-98959142D01*
X122020285Y-98959142D01*
X123220285Y-98959142D02*
X122791714Y-98959142D01*
X122791714Y-98059142D01*
X124034571Y-98873428D02*
X123991714Y-98916285D01*
X123863142Y-98959142D01*
X123777428Y-98959142D01*
X123648857Y-98916285D01*
X123563142Y-98830571D01*
X123520285Y-98744857D01*
X123477428Y-98573428D01*
X123477428Y-98444857D01*
X123520285Y-98273428D01*
X123563142Y-98187714D01*
X123648857Y-98102000D01*
X123777428Y-98059142D01*
X123863142Y-98059142D01*
X123991714Y-98102000D01*
X124034571Y-98144857D01*
X124677428Y-98059142D02*
X124677428Y-98702000D01*
X124634571Y-98830571D01*
X124548857Y-98916285D01*
X124420285Y-98959142D01*
X124334571Y-98959142D01*
X125534571Y-98959142D02*
X125106000Y-98959142D01*
X125106000Y-98059142D01*
X126348857Y-98873428D02*
X126306000Y-98916285D01*
X126177428Y-98959142D01*
X126091714Y-98959142D01*
X125963142Y-98916285D01*
X125877428Y-98830571D01*
X125834571Y-98744857D01*
X125791714Y-98573428D01*
X125791714Y-98444857D01*
X125834571Y-98273428D01*
X125877428Y-98187714D01*
X125963142Y-98102000D01*
X126091714Y-98059142D01*
X126177428Y-98059142D01*
X126306000Y-98102000D01*
X126348857Y-98144857D01*
X126991714Y-98059142D02*
X126991714Y-98702000D01*
X126948857Y-98830571D01*
X126863142Y-98916285D01*
X126734571Y-98959142D01*
X126648857Y-98959142D01*
X127848857Y-98959142D02*
X127420285Y-98959142D01*
X127420285Y-98059142D01*
X128663142Y-98873428D02*
X128620285Y-98916285D01*
X128491714Y-98959142D01*
X128406000Y-98959142D01*
X128277428Y-98916285D01*
X128191714Y-98830571D01*
X128148857Y-98744857D01*
X128106000Y-98573428D01*
X128106000Y-98444857D01*
X128148857Y-98273428D01*
X128191714Y-98187714D01*
X128277428Y-98102000D01*
X128406000Y-98059142D01*
X128491714Y-98059142D01*
X128620285Y-98102000D01*
X128663142Y-98144857D01*
%TO.C,C37*%
X192856142Y-77137142D02*
X192808523Y-77184761D01*
X192665666Y-77232380D01*
X192570428Y-77232380D01*
X192427571Y-77184761D01*
X192332333Y-77089523D01*
X192284714Y-76994285D01*
X192237095Y-76803809D01*
X192237095Y-76660952D01*
X192284714Y-76470476D01*
X192332333Y-76375238D01*
X192427571Y-76280000D01*
X192570428Y-76232380D01*
X192665666Y-76232380D01*
X192808523Y-76280000D01*
X192856142Y-76327619D01*
X193189476Y-76232380D02*
X193808523Y-76232380D01*
X193475190Y-76613333D01*
X193618047Y-76613333D01*
X193713285Y-76660952D01*
X193760904Y-76708571D01*
X193808523Y-76803809D01*
X193808523Y-77041904D01*
X193760904Y-77137142D01*
X193713285Y-77184761D01*
X193618047Y-77232380D01*
X193332333Y-77232380D01*
X193237095Y-77184761D01*
X193189476Y-77137142D01*
X194141857Y-76232380D02*
X194808523Y-76232380D01*
X194379952Y-77232380D01*
%TO.C,R10*%
X156427880Y-110325957D02*
X155951690Y-110659290D01*
X156427880Y-110897385D02*
X155427880Y-110897385D01*
X155427880Y-110516433D01*
X155475500Y-110421195D01*
X155523119Y-110373576D01*
X155618357Y-110325957D01*
X155761214Y-110325957D01*
X155856452Y-110373576D01*
X155904071Y-110421195D01*
X155951690Y-110516433D01*
X155951690Y-110897385D01*
X156427880Y-109373576D02*
X156427880Y-109945004D01*
X156427880Y-109659290D02*
X155427880Y-109659290D01*
X155570738Y-109754528D01*
X155665976Y-109849766D01*
X155713595Y-109945004D01*
X155427880Y-108754528D02*
X155427880Y-108659290D01*
X155475500Y-108564052D01*
X155523119Y-108516433D01*
X155618357Y-108468814D01*
X155808833Y-108421195D01*
X156046928Y-108421195D01*
X156237404Y-108468814D01*
X156332642Y-108516433D01*
X156380261Y-108564052D01*
X156427880Y-108659290D01*
X156427880Y-108754528D01*
X156380261Y-108849766D01*
X156332642Y-108897385D01*
X156237404Y-108945004D01*
X156046928Y-108992623D01*
X155808833Y-108992623D01*
X155618357Y-108945004D01*
X155523119Y-108897385D01*
X155475500Y-108849766D01*
X155427880Y-108754528D01*
%TO.C,C5*%
X150102642Y-72099266D02*
X150150261Y-72146885D01*
X150197880Y-72289742D01*
X150197880Y-72384980D01*
X150150261Y-72527838D01*
X150055023Y-72623076D01*
X149959785Y-72670695D01*
X149769309Y-72718314D01*
X149626452Y-72718314D01*
X149435976Y-72670695D01*
X149340738Y-72623076D01*
X149245500Y-72527838D01*
X149197880Y-72384980D01*
X149197880Y-72289742D01*
X149245500Y-72146885D01*
X149293119Y-72099266D01*
X149197880Y-71194504D02*
X149197880Y-71670695D01*
X149674071Y-71718314D01*
X149626452Y-71670695D01*
X149578833Y-71575457D01*
X149578833Y-71337361D01*
X149626452Y-71242123D01*
X149674071Y-71194504D01*
X149769309Y-71146885D01*
X150007404Y-71146885D01*
X150102642Y-71194504D01*
X150150261Y-71242123D01*
X150197880Y-71337361D01*
X150197880Y-71575457D01*
X150150261Y-71670695D01*
X150102642Y-71718314D01*
%TO.C,R5*%
X121104280Y-70962566D02*
X120628090Y-71295900D01*
X121104280Y-71533995D02*
X120104280Y-71533995D01*
X120104280Y-71153042D01*
X120151900Y-71057804D01*
X120199519Y-71010185D01*
X120294757Y-70962566D01*
X120437614Y-70962566D01*
X120532852Y-71010185D01*
X120580471Y-71057804D01*
X120628090Y-71153042D01*
X120628090Y-71533995D01*
X120104280Y-70057804D02*
X120104280Y-70533995D01*
X120580471Y-70581614D01*
X120532852Y-70533995D01*
X120485233Y-70438757D01*
X120485233Y-70200661D01*
X120532852Y-70105423D01*
X120580471Y-70057804D01*
X120675709Y-70010185D01*
X120913804Y-70010185D01*
X121009042Y-70057804D01*
X121056661Y-70105423D01*
X121104280Y-70200661D01*
X121104280Y-70438757D01*
X121056661Y-70533995D01*
X121009042Y-70581614D01*
%TO.C,R14*%
X123918742Y-91689180D02*
X123585409Y-91212990D01*
X123347314Y-91689180D02*
X123347314Y-90689180D01*
X123728266Y-90689180D01*
X123823504Y-90736800D01*
X123871123Y-90784419D01*
X123918742Y-90879657D01*
X123918742Y-91022514D01*
X123871123Y-91117752D01*
X123823504Y-91165371D01*
X123728266Y-91212990D01*
X123347314Y-91212990D01*
X124871123Y-91689180D02*
X124299695Y-91689180D01*
X124585409Y-91689180D02*
X124585409Y-90689180D01*
X124490171Y-90832038D01*
X124394933Y-90927276D01*
X124299695Y-90974895D01*
X125728266Y-91022514D02*
X125728266Y-91689180D01*
X125490171Y-90641561D02*
X125252076Y-91355847D01*
X125871123Y-91355847D01*
%TO.C,C25*%
X123547142Y-76588857D02*
X123594761Y-76636476D01*
X123642380Y-76779333D01*
X123642380Y-76874571D01*
X123594761Y-77017428D01*
X123499523Y-77112666D01*
X123404285Y-77160285D01*
X123213809Y-77207904D01*
X123070952Y-77207904D01*
X122880476Y-77160285D01*
X122785238Y-77112666D01*
X122690000Y-77017428D01*
X122642380Y-76874571D01*
X122642380Y-76779333D01*
X122690000Y-76636476D01*
X122737619Y-76588857D01*
X122737619Y-76207904D02*
X122690000Y-76160285D01*
X122642380Y-76065047D01*
X122642380Y-75826952D01*
X122690000Y-75731714D01*
X122737619Y-75684095D01*
X122832857Y-75636476D01*
X122928095Y-75636476D01*
X123070952Y-75684095D01*
X123642380Y-76255523D01*
X123642380Y-75636476D01*
X122642380Y-74731714D02*
X122642380Y-75207904D01*
X123118571Y-75255523D01*
X123070952Y-75207904D01*
X123023333Y-75112666D01*
X123023333Y-74874571D01*
X123070952Y-74779333D01*
X123118571Y-74731714D01*
X123213809Y-74684095D01*
X123451904Y-74684095D01*
X123547142Y-74731714D01*
X123594761Y-74779333D01*
X123642380Y-74874571D01*
X123642380Y-75112666D01*
X123594761Y-75207904D01*
X123547142Y-75255523D01*
%TO.C,C24*%
X109236442Y-85900057D02*
X109284061Y-85947676D01*
X109331680Y-86090533D01*
X109331680Y-86185771D01*
X109284061Y-86328628D01*
X109188823Y-86423866D01*
X109093585Y-86471485D01*
X108903109Y-86519104D01*
X108760252Y-86519104D01*
X108569776Y-86471485D01*
X108474538Y-86423866D01*
X108379300Y-86328628D01*
X108331680Y-86185771D01*
X108331680Y-86090533D01*
X108379300Y-85947676D01*
X108426919Y-85900057D01*
X108426919Y-85519104D02*
X108379300Y-85471485D01*
X108331680Y-85376247D01*
X108331680Y-85138152D01*
X108379300Y-85042914D01*
X108426919Y-84995295D01*
X108522157Y-84947676D01*
X108617395Y-84947676D01*
X108760252Y-84995295D01*
X109331680Y-85566723D01*
X109331680Y-84947676D01*
X108665014Y-84090533D02*
X109331680Y-84090533D01*
X108284061Y-84328628D02*
X108998347Y-84566723D01*
X108998347Y-83947676D01*
%TO.C,R12*%
X166257680Y-95107357D02*
X165781490Y-95440690D01*
X166257680Y-95678785D02*
X165257680Y-95678785D01*
X165257680Y-95297833D01*
X165305300Y-95202595D01*
X165352919Y-95154976D01*
X165448157Y-95107357D01*
X165591014Y-95107357D01*
X165686252Y-95154976D01*
X165733871Y-95202595D01*
X165781490Y-95297833D01*
X165781490Y-95678785D01*
X166257680Y-94154976D02*
X166257680Y-94726404D01*
X166257680Y-94440690D02*
X165257680Y-94440690D01*
X165400538Y-94535928D01*
X165495776Y-94631166D01*
X165543395Y-94726404D01*
X165352919Y-93774023D02*
X165305300Y-93726404D01*
X165257680Y-93631166D01*
X165257680Y-93393071D01*
X165305300Y-93297833D01*
X165352919Y-93250214D01*
X165448157Y-93202595D01*
X165543395Y-93202595D01*
X165686252Y-93250214D01*
X166257680Y-93821642D01*
X166257680Y-93202595D01*
%TO.C,R7*%
X105192533Y-120331580D02*
X104859200Y-119855390D01*
X104621104Y-120331580D02*
X104621104Y-119331580D01*
X105002057Y-119331580D01*
X105097295Y-119379200D01*
X105144914Y-119426819D01*
X105192533Y-119522057D01*
X105192533Y-119664914D01*
X105144914Y-119760152D01*
X105097295Y-119807771D01*
X105002057Y-119855390D01*
X104621104Y-119855390D01*
X105525866Y-119331580D02*
X106192533Y-119331580D01*
X105763961Y-120331580D01*
D12*
%TO.C,U4*%
X153117880Y-95244504D02*
X153927404Y-95244504D01*
X154022642Y-95196885D01*
X154070261Y-95149266D01*
X154117880Y-95054028D01*
X154117880Y-94863552D01*
X154070261Y-94768314D01*
X154022642Y-94720695D01*
X153927404Y-94673076D01*
X153117880Y-94673076D01*
X153451214Y-93768314D02*
X154117880Y-93768314D01*
X153070261Y-94006409D02*
X153784547Y-94244504D01*
X153784547Y-93625457D01*
D11*
%TO.C,C14*%
X147829042Y-93523342D02*
X147781423Y-93570961D01*
X147638566Y-93618580D01*
X147543328Y-93618580D01*
X147400471Y-93570961D01*
X147305233Y-93475723D01*
X147257614Y-93380485D01*
X147209995Y-93190009D01*
X147209995Y-93047152D01*
X147257614Y-92856676D01*
X147305233Y-92761438D01*
X147400471Y-92666200D01*
X147543328Y-92618580D01*
X147638566Y-92618580D01*
X147781423Y-92666200D01*
X147829042Y-92713819D01*
X148781423Y-93618580D02*
X148209995Y-93618580D01*
X148495709Y-93618580D02*
X148495709Y-92618580D01*
X148400471Y-92761438D01*
X148305233Y-92856676D01*
X148209995Y-92904295D01*
X149638566Y-92951914D02*
X149638566Y-93618580D01*
X149400471Y-92570961D02*
X149162376Y-93285247D01*
X149781423Y-93285247D01*
%TO.C,C2*%
X114149142Y-61888666D02*
X114196761Y-61936285D01*
X114244380Y-62079142D01*
X114244380Y-62174380D01*
X114196761Y-62317238D01*
X114101523Y-62412476D01*
X114006285Y-62460095D01*
X113815809Y-62507714D01*
X113672952Y-62507714D01*
X113482476Y-62460095D01*
X113387238Y-62412476D01*
X113292000Y-62317238D01*
X113244380Y-62174380D01*
X113244380Y-62079142D01*
X113292000Y-61936285D01*
X113339619Y-61888666D01*
X113339619Y-61507714D02*
X113292000Y-61460095D01*
X113244380Y-61364857D01*
X113244380Y-61126761D01*
X113292000Y-61031523D01*
X113339619Y-60983904D01*
X113434857Y-60936285D01*
X113530095Y-60936285D01*
X113672952Y-60983904D01*
X114244380Y-61555333D01*
X114244380Y-60936285D01*
%TO.C,J2*%
X92666766Y-56262380D02*
X92666766Y-56976666D01*
X92619147Y-57119523D01*
X92523909Y-57214761D01*
X92381052Y-57262380D01*
X92285814Y-57262380D01*
X93095338Y-56357619D02*
X93142957Y-56310000D01*
X93238195Y-56262380D01*
X93476290Y-56262380D01*
X93571528Y-56310000D01*
X93619147Y-56357619D01*
X93666766Y-56452857D01*
X93666766Y-56548095D01*
X93619147Y-56690952D01*
X93047719Y-57262380D01*
X93666766Y-57262380D01*
%TO.C,C16*%
X162425142Y-87225142D02*
X162377523Y-87272761D01*
X162234666Y-87320380D01*
X162139428Y-87320380D01*
X161996571Y-87272761D01*
X161901333Y-87177523D01*
X161853714Y-87082285D01*
X161806095Y-86891809D01*
X161806095Y-86748952D01*
X161853714Y-86558476D01*
X161901333Y-86463238D01*
X161996571Y-86368000D01*
X162139428Y-86320380D01*
X162234666Y-86320380D01*
X162377523Y-86368000D01*
X162425142Y-86415619D01*
X163377523Y-87320380D02*
X162806095Y-87320380D01*
X163091809Y-87320380D02*
X163091809Y-86320380D01*
X162996571Y-86463238D01*
X162901333Y-86558476D01*
X162806095Y-86606095D01*
X164234666Y-86320380D02*
X164044190Y-86320380D01*
X163948952Y-86368000D01*
X163901333Y-86415619D01*
X163806095Y-86558476D01*
X163758476Y-86748952D01*
X163758476Y-87129904D01*
X163806095Y-87225142D01*
X163853714Y-87272761D01*
X163948952Y-87320380D01*
X164139428Y-87320380D01*
X164234666Y-87272761D01*
X164282285Y-87225142D01*
X164329904Y-87129904D01*
X164329904Y-86891809D01*
X164282285Y-86796571D01*
X164234666Y-86748952D01*
X164139428Y-86701333D01*
X163948952Y-86701333D01*
X163853714Y-86748952D01*
X163806095Y-86796571D01*
X163758476Y-86891809D01*
%TO.C,C33*%
X169201642Y-88543457D02*
X169249261Y-88591076D01*
X169296880Y-88733933D01*
X169296880Y-88829171D01*
X169249261Y-88972028D01*
X169154023Y-89067266D01*
X169058785Y-89114885D01*
X168868309Y-89162504D01*
X168725452Y-89162504D01*
X168534976Y-89114885D01*
X168439738Y-89067266D01*
X168344500Y-88972028D01*
X168296880Y-88829171D01*
X168296880Y-88733933D01*
X168344500Y-88591076D01*
X168392119Y-88543457D01*
X168296880Y-88210123D02*
X168296880Y-87591076D01*
X168677833Y-87924409D01*
X168677833Y-87781552D01*
X168725452Y-87686314D01*
X168773071Y-87638695D01*
X168868309Y-87591076D01*
X169106404Y-87591076D01*
X169201642Y-87638695D01*
X169249261Y-87686314D01*
X169296880Y-87781552D01*
X169296880Y-88067266D01*
X169249261Y-88162504D01*
X169201642Y-88210123D01*
X168296880Y-87257742D02*
X168296880Y-86638695D01*
X168677833Y-86972028D01*
X168677833Y-86829171D01*
X168725452Y-86733933D01*
X168773071Y-86686314D01*
X168868309Y-86638695D01*
X169106404Y-86638695D01*
X169201642Y-86686314D01*
X169249261Y-86733933D01*
X169296880Y-86829171D01*
X169296880Y-87114885D01*
X169249261Y-87210123D01*
X169201642Y-87257742D01*
%TO.C,R19*%
X175077642Y-76154980D02*
X174744309Y-75678790D01*
X174506214Y-76154980D02*
X174506214Y-75154980D01*
X174887166Y-75154980D01*
X174982404Y-75202600D01*
X175030023Y-75250219D01*
X175077642Y-75345457D01*
X175077642Y-75488314D01*
X175030023Y-75583552D01*
X174982404Y-75631171D01*
X174887166Y-75678790D01*
X174506214Y-75678790D01*
X176030023Y-76154980D02*
X175458595Y-76154980D01*
X175744309Y-76154980D02*
X175744309Y-75154980D01*
X175649071Y-75297838D01*
X175553833Y-75393076D01*
X175458595Y-75440695D01*
X176506214Y-76154980D02*
X176696690Y-76154980D01*
X176791928Y-76107361D01*
X176839547Y-76059742D01*
X176934785Y-75916885D01*
X176982404Y-75726409D01*
X176982404Y-75345457D01*
X176934785Y-75250219D01*
X176887166Y-75202600D01*
X176791928Y-75154980D01*
X176601452Y-75154980D01*
X176506214Y-75202600D01*
X176458595Y-75250219D01*
X176410976Y-75345457D01*
X176410976Y-75583552D01*
X176458595Y-75678790D01*
X176506214Y-75726409D01*
X176601452Y-75774028D01*
X176791928Y-75774028D01*
X176887166Y-75726409D01*
X176934785Y-75678790D01*
X176982404Y-75583552D01*
%TO.C,R17*%
X136553242Y-90791380D02*
X136219909Y-90315190D01*
X135981814Y-90791380D02*
X135981814Y-89791380D01*
X136362766Y-89791380D01*
X136458004Y-89839000D01*
X136505623Y-89886619D01*
X136553242Y-89981857D01*
X136553242Y-90124714D01*
X136505623Y-90219952D01*
X136458004Y-90267571D01*
X136362766Y-90315190D01*
X135981814Y-90315190D01*
X137505623Y-90791380D02*
X136934195Y-90791380D01*
X137219909Y-90791380D02*
X137219909Y-89791380D01*
X137124671Y-89934238D01*
X137029433Y-90029476D01*
X136934195Y-90077095D01*
X137838957Y-89791380D02*
X138505623Y-89791380D01*
X138077052Y-90791380D01*
%TO.C,U7*%
X191856995Y-80647380D02*
X191856995Y-81456904D01*
X191904614Y-81552142D01*
X191952233Y-81599761D01*
X192047471Y-81647380D01*
X192237947Y-81647380D01*
X192333185Y-81599761D01*
X192380804Y-81552142D01*
X192428423Y-81456904D01*
X192428423Y-80647380D01*
X192809376Y-80647380D02*
X193476042Y-80647380D01*
X193047471Y-81647380D01*
%TO.C,R2*%
X119655833Y-80174180D02*
X119322500Y-79697990D01*
X119084404Y-80174180D02*
X119084404Y-79174180D01*
X119465357Y-79174180D01*
X119560595Y-79221800D01*
X119608214Y-79269419D01*
X119655833Y-79364657D01*
X119655833Y-79507514D01*
X119608214Y-79602752D01*
X119560595Y-79650371D01*
X119465357Y-79697990D01*
X119084404Y-79697990D01*
X120036785Y-79269419D02*
X120084404Y-79221800D01*
X120179642Y-79174180D01*
X120417738Y-79174180D01*
X120512976Y-79221800D01*
X120560595Y-79269419D01*
X120608214Y-79364657D01*
X120608214Y-79459895D01*
X120560595Y-79602752D01*
X119989166Y-80174180D01*
X120608214Y-80174180D01*
%TO.C,C9*%
X132609833Y-86835342D02*
X132562214Y-86882961D01*
X132419357Y-86930580D01*
X132324119Y-86930580D01*
X132181261Y-86882961D01*
X132086023Y-86787723D01*
X132038404Y-86692485D01*
X131990785Y-86502009D01*
X131990785Y-86359152D01*
X132038404Y-86168676D01*
X132086023Y-86073438D01*
X132181261Y-85978200D01*
X132324119Y-85930580D01*
X132419357Y-85930580D01*
X132562214Y-85978200D01*
X132609833Y-86025819D01*
X133086023Y-86930580D02*
X133276500Y-86930580D01*
X133371738Y-86882961D01*
X133419357Y-86835342D01*
X133514595Y-86692485D01*
X133562214Y-86502009D01*
X133562214Y-86121057D01*
X133514595Y-86025819D01*
X133466976Y-85978200D01*
X133371738Y-85930580D01*
X133181261Y-85930580D01*
X133086023Y-85978200D01*
X133038404Y-86025819D01*
X132990785Y-86121057D01*
X132990785Y-86359152D01*
X133038404Y-86454390D01*
X133086023Y-86502009D01*
X133181261Y-86549628D01*
X133371738Y-86549628D01*
X133466976Y-86502009D01*
X133514595Y-86454390D01*
X133562214Y-86359152D01*
%TO.C,C1*%
X105045442Y-73896066D02*
X105093061Y-73943685D01*
X105140680Y-74086542D01*
X105140680Y-74181780D01*
X105093061Y-74324638D01*
X104997823Y-74419876D01*
X104902585Y-74467495D01*
X104712109Y-74515114D01*
X104569252Y-74515114D01*
X104378776Y-74467495D01*
X104283538Y-74419876D01*
X104188300Y-74324638D01*
X104140680Y-74181780D01*
X104140680Y-74086542D01*
X104188300Y-73943685D01*
X104235919Y-73896066D01*
X105140680Y-72943685D02*
X105140680Y-73515114D01*
X105140680Y-73229400D02*
X104140680Y-73229400D01*
X104283538Y-73324638D01*
X104378776Y-73419876D01*
X104426395Y-73515114D01*
%TO.C,C13*%
X129441242Y-109323142D02*
X129393623Y-109370761D01*
X129250766Y-109418380D01*
X129155528Y-109418380D01*
X129012671Y-109370761D01*
X128917433Y-109275523D01*
X128869814Y-109180285D01*
X128822195Y-108989809D01*
X128822195Y-108846952D01*
X128869814Y-108656476D01*
X128917433Y-108561238D01*
X129012671Y-108466000D01*
X129155528Y-108418380D01*
X129250766Y-108418380D01*
X129393623Y-108466000D01*
X129441242Y-108513619D01*
X130393623Y-109418380D02*
X129822195Y-109418380D01*
X130107909Y-109418380D02*
X130107909Y-108418380D01*
X130012671Y-108561238D01*
X129917433Y-108656476D01*
X129822195Y-108704095D01*
X130726957Y-108418380D02*
X131346004Y-108418380D01*
X131012671Y-108799333D01*
X131155528Y-108799333D01*
X131250766Y-108846952D01*
X131298385Y-108894571D01*
X131346004Y-108989809D01*
X131346004Y-109227904D01*
X131298385Y-109323142D01*
X131250766Y-109370761D01*
X131155528Y-109418380D01*
X130869814Y-109418380D01*
X130774576Y-109370761D01*
X130726957Y-109323142D01*
%TO.C,C22*%
X132003242Y-83361857D02*
X132050861Y-83409476D01*
X132098480Y-83552333D01*
X132098480Y-83647571D01*
X132050861Y-83790428D01*
X131955623Y-83885666D01*
X131860385Y-83933285D01*
X131669909Y-83980904D01*
X131527052Y-83980904D01*
X131336576Y-83933285D01*
X131241338Y-83885666D01*
X131146100Y-83790428D01*
X131098480Y-83647571D01*
X131098480Y-83552333D01*
X131146100Y-83409476D01*
X131193719Y-83361857D01*
X131193719Y-82980904D02*
X131146100Y-82933285D01*
X131098480Y-82838047D01*
X131098480Y-82599952D01*
X131146100Y-82504714D01*
X131193719Y-82457095D01*
X131288957Y-82409476D01*
X131384195Y-82409476D01*
X131527052Y-82457095D01*
X132098480Y-83028523D01*
X132098480Y-82409476D01*
X131193719Y-82028523D02*
X131146100Y-81980904D01*
X131098480Y-81885666D01*
X131098480Y-81647571D01*
X131146100Y-81552333D01*
X131193719Y-81504714D01*
X131288957Y-81457095D01*
X131384195Y-81457095D01*
X131527052Y-81504714D01*
X132098480Y-82076142D01*
X132098480Y-81457095D01*
%TO.C,C6*%
X112436842Y-90507466D02*
X112484461Y-90555085D01*
X112532080Y-90697942D01*
X112532080Y-90793180D01*
X112484461Y-90936038D01*
X112389223Y-91031276D01*
X112293985Y-91078895D01*
X112103509Y-91126514D01*
X111960652Y-91126514D01*
X111770176Y-91078895D01*
X111674938Y-91031276D01*
X111579700Y-90936038D01*
X111532080Y-90793180D01*
X111532080Y-90697942D01*
X111579700Y-90555085D01*
X111627319Y-90507466D01*
X111532080Y-89650323D02*
X111532080Y-89840800D01*
X111579700Y-89936038D01*
X111627319Y-89983657D01*
X111770176Y-90078895D01*
X111960652Y-90126514D01*
X112341604Y-90126514D01*
X112436842Y-90078895D01*
X112484461Y-90031276D01*
X112532080Y-89936038D01*
X112532080Y-89745561D01*
X112484461Y-89650323D01*
X112436842Y-89602704D01*
X112341604Y-89555085D01*
X112103509Y-89555085D01*
X112008271Y-89602704D01*
X111960652Y-89650323D01*
X111913033Y-89745561D01*
X111913033Y-89936038D01*
X111960652Y-90031276D01*
X112008271Y-90078895D01*
X112103509Y-90126514D01*
%TO.C,C17*%
X145661142Y-85701142D02*
X145613523Y-85748761D01*
X145470666Y-85796380D01*
X145375428Y-85796380D01*
X145232571Y-85748761D01*
X145137333Y-85653523D01*
X145089714Y-85558285D01*
X145042095Y-85367809D01*
X145042095Y-85224952D01*
X145089714Y-85034476D01*
X145137333Y-84939238D01*
X145232571Y-84844000D01*
X145375428Y-84796380D01*
X145470666Y-84796380D01*
X145613523Y-84844000D01*
X145661142Y-84891619D01*
X146613523Y-85796380D02*
X146042095Y-85796380D01*
X146327809Y-85796380D02*
X146327809Y-84796380D01*
X146232571Y-84939238D01*
X146137333Y-85034476D01*
X146042095Y-85082095D01*
X146946857Y-84796380D02*
X147613523Y-84796380D01*
X147184952Y-85796380D01*
%TO.C,C19*%
X114201242Y-99154342D02*
X114153623Y-99201961D01*
X114010766Y-99249580D01*
X113915528Y-99249580D01*
X113772671Y-99201961D01*
X113677433Y-99106723D01*
X113629814Y-99011485D01*
X113582195Y-98821009D01*
X113582195Y-98678152D01*
X113629814Y-98487676D01*
X113677433Y-98392438D01*
X113772671Y-98297200D01*
X113915528Y-98249580D01*
X114010766Y-98249580D01*
X114153623Y-98297200D01*
X114201242Y-98344819D01*
X115153623Y-99249580D02*
X114582195Y-99249580D01*
X114867909Y-99249580D02*
X114867909Y-98249580D01*
X114772671Y-98392438D01*
X114677433Y-98487676D01*
X114582195Y-98535295D01*
X115629814Y-99249580D02*
X115820290Y-99249580D01*
X115915528Y-99201961D01*
X115963147Y-99154342D01*
X116058385Y-99011485D01*
X116106004Y-98821009D01*
X116106004Y-98440057D01*
X116058385Y-98344819D01*
X116010766Y-98297200D01*
X115915528Y-98249580D01*
X115725052Y-98249580D01*
X115629814Y-98297200D01*
X115582195Y-98344819D01*
X115534576Y-98440057D01*
X115534576Y-98678152D01*
X115582195Y-98773390D01*
X115629814Y-98821009D01*
X115725052Y-98868628D01*
X115915528Y-98868628D01*
X116010766Y-98821009D01*
X116058385Y-98773390D01*
X116106004Y-98678152D01*
%TO.C,C26*%
X177761642Y-114918457D02*
X177809261Y-114966076D01*
X177856880Y-115108933D01*
X177856880Y-115204171D01*
X177809261Y-115347028D01*
X177714023Y-115442266D01*
X177618785Y-115489885D01*
X177428309Y-115537504D01*
X177285452Y-115537504D01*
X177094976Y-115489885D01*
X176999738Y-115442266D01*
X176904500Y-115347028D01*
X176856880Y-115204171D01*
X176856880Y-115108933D01*
X176904500Y-114966076D01*
X176952119Y-114918457D01*
X176952119Y-114537504D02*
X176904500Y-114489885D01*
X176856880Y-114394647D01*
X176856880Y-114156552D01*
X176904500Y-114061314D01*
X176952119Y-114013695D01*
X177047357Y-113966076D01*
X177142595Y-113966076D01*
X177285452Y-114013695D01*
X177856880Y-114585123D01*
X177856880Y-113966076D01*
X176856880Y-113108933D02*
X176856880Y-113299409D01*
X176904500Y-113394647D01*
X176952119Y-113442266D01*
X177094976Y-113537504D01*
X177285452Y-113585123D01*
X177666404Y-113585123D01*
X177761642Y-113537504D01*
X177809261Y-113489885D01*
X177856880Y-113394647D01*
X177856880Y-113204171D01*
X177809261Y-113108933D01*
X177761642Y-113061314D01*
X177666404Y-113013695D01*
X177428309Y-113013695D01*
X177333071Y-113061314D01*
X177285452Y-113108933D01*
X177237833Y-113204171D01*
X177237833Y-113394647D01*
X177285452Y-113489885D01*
X177333071Y-113537504D01*
X177428309Y-113585123D01*
%TO.C,C11*%
X109847142Y-95353142D02*
X109799523Y-95400761D01*
X109656666Y-95448380D01*
X109561428Y-95448380D01*
X109418571Y-95400761D01*
X109323333Y-95305523D01*
X109275714Y-95210285D01*
X109228095Y-95019809D01*
X109228095Y-94876952D01*
X109275714Y-94686476D01*
X109323333Y-94591238D01*
X109418571Y-94496000D01*
X109561428Y-94448380D01*
X109656666Y-94448380D01*
X109799523Y-94496000D01*
X109847142Y-94543619D01*
X110799523Y-95448380D02*
X110228095Y-95448380D01*
X110513809Y-95448380D02*
X110513809Y-94448380D01*
X110418571Y-94591238D01*
X110323333Y-94686476D01*
X110228095Y-94734095D01*
X111751904Y-95448380D02*
X111180476Y-95448380D01*
X111466190Y-95448380D02*
X111466190Y-94448380D01*
X111370952Y-94591238D01*
X111275714Y-94686476D01*
X111180476Y-94734095D01*
%TO.C,C29*%
X166068042Y-100398942D02*
X166020423Y-100446561D01*
X165877566Y-100494180D01*
X165782328Y-100494180D01*
X165639471Y-100446561D01*
X165544233Y-100351323D01*
X165496614Y-100256085D01*
X165448995Y-100065609D01*
X165448995Y-99922752D01*
X165496614Y-99732276D01*
X165544233Y-99637038D01*
X165639471Y-99541800D01*
X165782328Y-99494180D01*
X165877566Y-99494180D01*
X166020423Y-99541800D01*
X166068042Y-99589419D01*
X166448995Y-99589419D02*
X166496614Y-99541800D01*
X166591852Y-99494180D01*
X166829947Y-99494180D01*
X166925185Y-99541800D01*
X166972804Y-99589419D01*
X167020423Y-99684657D01*
X167020423Y-99779895D01*
X166972804Y-99922752D01*
X166401376Y-100494180D01*
X167020423Y-100494180D01*
X167496614Y-100494180D02*
X167687090Y-100494180D01*
X167782328Y-100446561D01*
X167829947Y-100398942D01*
X167925185Y-100256085D01*
X167972804Y-100065609D01*
X167972804Y-99684657D01*
X167925185Y-99589419D01*
X167877566Y-99541800D01*
X167782328Y-99494180D01*
X167591852Y-99494180D01*
X167496614Y-99541800D01*
X167448995Y-99589419D01*
X167401376Y-99684657D01*
X167401376Y-99922752D01*
X167448995Y-100017990D01*
X167496614Y-100065609D01*
X167591852Y-100113228D01*
X167782328Y-100113228D01*
X167877566Y-100065609D01*
X167925185Y-100017990D01*
X167972804Y-99922752D01*
%TO.C,J1*%
X90234166Y-100376380D02*
X90234166Y-101090666D01*
X90186547Y-101233523D01*
X90091309Y-101328761D01*
X89948452Y-101376380D01*
X89853214Y-101376380D01*
X91234166Y-101376380D02*
X90662738Y-101376380D01*
X90948452Y-101376380D02*
X90948452Y-100376380D01*
X90853214Y-100519238D01*
X90757976Y-100614476D01*
X90662738Y-100662095D01*
%TO.C,R8*%
X85253533Y-75560180D02*
X84920200Y-75083990D01*
X84682104Y-75560180D02*
X84682104Y-74560180D01*
X85063057Y-74560180D01*
X85158295Y-74607800D01*
X85205914Y-74655419D01*
X85253533Y-74750657D01*
X85253533Y-74893514D01*
X85205914Y-74988752D01*
X85158295Y-75036371D01*
X85063057Y-75083990D01*
X84682104Y-75083990D01*
X85824961Y-74988752D02*
X85729723Y-74941133D01*
X85682104Y-74893514D01*
X85634485Y-74798276D01*
X85634485Y-74750657D01*
X85682104Y-74655419D01*
X85729723Y-74607800D01*
X85824961Y-74560180D01*
X86015438Y-74560180D01*
X86110676Y-74607800D01*
X86158295Y-74655419D01*
X86205914Y-74750657D01*
X86205914Y-74798276D01*
X86158295Y-74893514D01*
X86110676Y-74941133D01*
X86015438Y-74988752D01*
X85824961Y-74988752D01*
X85729723Y-75036371D01*
X85682104Y-75083990D01*
X85634485Y-75179228D01*
X85634485Y-75369704D01*
X85682104Y-75464942D01*
X85729723Y-75512561D01*
X85824961Y-75560180D01*
X86015438Y-75560180D01*
X86110676Y-75512561D01*
X86158295Y-75464942D01*
X86205914Y-75369704D01*
X86205914Y-75179228D01*
X86158295Y-75083990D01*
X86110676Y-75036371D01*
X86015438Y-74988752D01*
%TO.C,U3*%
X151733595Y-80509980D02*
X151733595Y-81319504D01*
X151781214Y-81414742D01*
X151828833Y-81462361D01*
X151924071Y-81509980D01*
X152114547Y-81509980D01*
X152209785Y-81462361D01*
X152257404Y-81414742D01*
X152305023Y-81319504D01*
X152305023Y-80509980D01*
X152685976Y-80509980D02*
X153305023Y-80509980D01*
X152971690Y-80890933D01*
X153114547Y-80890933D01*
X153209785Y-80938552D01*
X153257404Y-80986171D01*
X153305023Y-81081409D01*
X153305023Y-81319504D01*
X153257404Y-81414742D01*
X153209785Y-81462361D01*
X153114547Y-81509980D01*
X152828833Y-81509980D01*
X152733595Y-81462361D01*
X152685976Y-81414742D01*
%TO.C,Y1*%
X115417109Y-87952790D02*
X115417109Y-88428980D01*
X115083776Y-87428980D02*
X115417109Y-87952790D01*
X115750442Y-87428980D01*
X116607585Y-88428980D02*
X116036157Y-88428980D01*
X116321871Y-88428980D02*
X116321871Y-87428980D01*
X116226633Y-87571838D01*
X116131395Y-87667076D01*
X116036157Y-87714695D01*
%TO.C,C7*%
X118401642Y-93807666D02*
X118449261Y-93855285D01*
X118496880Y-93998142D01*
X118496880Y-94093380D01*
X118449261Y-94236238D01*
X118354023Y-94331476D01*
X118258785Y-94379095D01*
X118068309Y-94426714D01*
X117925452Y-94426714D01*
X117734976Y-94379095D01*
X117639738Y-94331476D01*
X117544500Y-94236238D01*
X117496880Y-94093380D01*
X117496880Y-93998142D01*
X117544500Y-93855285D01*
X117592119Y-93807666D01*
X117496880Y-93474333D02*
X117496880Y-92807666D01*
X118496880Y-93236238D01*
%TO.C,U1*%
X109442880Y-74458604D02*
X110252404Y-74458604D01*
X110347642Y-74410985D01*
X110395261Y-74363366D01*
X110442880Y-74268128D01*
X110442880Y-74077652D01*
X110395261Y-73982414D01*
X110347642Y-73934795D01*
X110252404Y-73887176D01*
X109442880Y-73887176D01*
X110442880Y-72887176D02*
X110442880Y-73458604D01*
X110442880Y-73172890D02*
X109442880Y-73172890D01*
X109585738Y-73268128D01*
X109680976Y-73363366D01*
X109728595Y-73458604D01*
%TO.C,J4*%
X182038666Y-65492380D02*
X182038666Y-66206666D01*
X181991047Y-66349523D01*
X181895809Y-66444761D01*
X181752952Y-66492380D01*
X181657714Y-66492380D01*
X182943428Y-65825714D02*
X182943428Y-66492380D01*
X182705333Y-65444761D02*
X182467238Y-66159047D01*
X183086285Y-66159047D01*
%TO.C,R9*%
X160237880Y-109849766D02*
X159761690Y-110183100D01*
X160237880Y-110421195D02*
X159237880Y-110421195D01*
X159237880Y-110040242D01*
X159285500Y-109945004D01*
X159333119Y-109897385D01*
X159428357Y-109849766D01*
X159571214Y-109849766D01*
X159666452Y-109897385D01*
X159714071Y-109945004D01*
X159761690Y-110040242D01*
X159761690Y-110421195D01*
X160237880Y-109373576D02*
X160237880Y-109183100D01*
X160190261Y-109087861D01*
X160142642Y-109040242D01*
X159999785Y-108945004D01*
X159809309Y-108897385D01*
X159428357Y-108897385D01*
X159333119Y-108945004D01*
X159285500Y-108992623D01*
X159237880Y-109087861D01*
X159237880Y-109278338D01*
X159285500Y-109373576D01*
X159333119Y-109421195D01*
X159428357Y-109468814D01*
X159666452Y-109468814D01*
X159761690Y-109421195D01*
X159809309Y-109373576D01*
X159856928Y-109278338D01*
X159856928Y-109087861D01*
X159809309Y-108992623D01*
X159761690Y-108945004D01*
X159666452Y-108897385D01*
%TO.C,J3*%
X142922666Y-65492380D02*
X142922666Y-66206666D01*
X142875047Y-66349523D01*
X142779809Y-66444761D01*
X142636952Y-66492380D01*
X142541714Y-66492380D01*
X143303619Y-65492380D02*
X143922666Y-65492380D01*
X143589333Y-65873333D01*
X143732190Y-65873333D01*
X143827428Y-65920952D01*
X143875047Y-65968571D01*
X143922666Y-66063809D01*
X143922666Y-66301904D01*
X143875047Y-66397142D01*
X143827428Y-66444761D01*
X143732190Y-66492380D01*
X143446476Y-66492380D01*
X143351238Y-66444761D01*
X143303619Y-66397142D01*
%TO.C,C36*%
X148947142Y-88272857D02*
X148994761Y-88320476D01*
X149042380Y-88463333D01*
X149042380Y-88558571D01*
X148994761Y-88701428D01*
X148899523Y-88796666D01*
X148804285Y-88844285D01*
X148613809Y-88891904D01*
X148470952Y-88891904D01*
X148280476Y-88844285D01*
X148185238Y-88796666D01*
X148090000Y-88701428D01*
X148042380Y-88558571D01*
X148042380Y-88463333D01*
X148090000Y-88320476D01*
X148137619Y-88272857D01*
X148042380Y-87939523D02*
X148042380Y-87320476D01*
X148423333Y-87653809D01*
X148423333Y-87510952D01*
X148470952Y-87415714D01*
X148518571Y-87368095D01*
X148613809Y-87320476D01*
X148851904Y-87320476D01*
X148947142Y-87368095D01*
X148994761Y-87415714D01*
X149042380Y-87510952D01*
X149042380Y-87796666D01*
X148994761Y-87891904D01*
X148947142Y-87939523D01*
X148042380Y-86463333D02*
X148042380Y-86653809D01*
X148090000Y-86749047D01*
X148137619Y-86796666D01*
X148280476Y-86891904D01*
X148470952Y-86939523D01*
X148851904Y-86939523D01*
X148947142Y-86891904D01*
X148994761Y-86844285D01*
X149042380Y-86749047D01*
X149042380Y-86558571D01*
X148994761Y-86463333D01*
X148947142Y-86415714D01*
X148851904Y-86368095D01*
X148613809Y-86368095D01*
X148518571Y-86415714D01*
X148470952Y-86463333D01*
X148423333Y-86558571D01*
X148423333Y-86749047D01*
X148470952Y-86844285D01*
X148518571Y-86891904D01*
X148613809Y-86939523D01*
%TO.C,D3*%
X110386904Y-116691580D02*
X110386904Y-115691580D01*
X110625000Y-115691580D01*
X110767857Y-115739200D01*
X110863095Y-115834438D01*
X110910714Y-115929676D01*
X110958333Y-116120152D01*
X110958333Y-116263009D01*
X110910714Y-116453485D01*
X110863095Y-116548723D01*
X110767857Y-116643961D01*
X110625000Y-116691580D01*
X110386904Y-116691580D01*
X111291666Y-115691580D02*
X111910714Y-115691580D01*
X111577380Y-116072533D01*
X111720238Y-116072533D01*
X111815476Y-116120152D01*
X111863095Y-116167771D01*
X111910714Y-116263009D01*
X111910714Y-116501104D01*
X111863095Y-116596342D01*
X111815476Y-116643961D01*
X111720238Y-116691580D01*
X111434523Y-116691580D01*
X111339285Y-116643961D01*
X111291666Y-116596342D01*
%TO.C,Y2*%
X170633309Y-108581790D02*
X170633309Y-109057980D01*
X170299976Y-108057980D02*
X170633309Y-108581790D01*
X170966642Y-108057980D01*
X171252357Y-108153219D02*
X171299976Y-108105600D01*
X171395214Y-108057980D01*
X171633309Y-108057980D01*
X171728547Y-108105600D01*
X171776166Y-108153219D01*
X171823785Y-108248457D01*
X171823785Y-108343695D01*
X171776166Y-108486552D01*
X171204738Y-109057980D01*
X171823785Y-109057980D01*
%TO.C,U6*%
X126985395Y-80952180D02*
X126985395Y-81761704D01*
X127033014Y-81856942D01*
X127080633Y-81904561D01*
X127175871Y-81952180D01*
X127366347Y-81952180D01*
X127461585Y-81904561D01*
X127509204Y-81856942D01*
X127556823Y-81761704D01*
X127556823Y-80952180D01*
X128461585Y-80952180D02*
X128271109Y-80952180D01*
X128175871Y-80999800D01*
X128128252Y-81047419D01*
X128033014Y-81190276D01*
X127985395Y-81380752D01*
X127985395Y-81761704D01*
X128033014Y-81856942D01*
X128080633Y-81904561D01*
X128175871Y-81952180D01*
X128366347Y-81952180D01*
X128461585Y-81904561D01*
X128509204Y-81856942D01*
X128556823Y-81761704D01*
X128556823Y-81523609D01*
X128509204Y-81428371D01*
X128461585Y-81380752D01*
X128366347Y-81333133D01*
X128175871Y-81333133D01*
X128080633Y-81380752D01*
X128033014Y-81428371D01*
X127985395Y-81523609D01*
%TO.C,C10*%
X132514642Y-88232342D02*
X132467023Y-88279961D01*
X132324166Y-88327580D01*
X132228928Y-88327580D01*
X132086071Y-88279961D01*
X131990833Y-88184723D01*
X131943214Y-88089485D01*
X131895595Y-87899009D01*
X131895595Y-87756152D01*
X131943214Y-87565676D01*
X131990833Y-87470438D01*
X132086071Y-87375200D01*
X132228928Y-87327580D01*
X132324166Y-87327580D01*
X132467023Y-87375200D01*
X132514642Y-87422819D01*
X133467023Y-88327580D02*
X132895595Y-88327580D01*
X133181309Y-88327580D02*
X133181309Y-87327580D01*
X133086071Y-87470438D01*
X132990833Y-87565676D01*
X132895595Y-87613295D01*
X134086071Y-87327580D02*
X134181309Y-87327580D01*
X134276547Y-87375200D01*
X134324166Y-87422819D01*
X134371785Y-87518057D01*
X134419404Y-87708533D01*
X134419404Y-87946628D01*
X134371785Y-88137104D01*
X134324166Y-88232342D01*
X134276547Y-88279961D01*
X134181309Y-88327580D01*
X134086071Y-88327580D01*
X133990833Y-88279961D01*
X133943214Y-88232342D01*
X133895595Y-88137104D01*
X133847976Y-87946628D01*
X133847976Y-87708533D01*
X133895595Y-87518057D01*
X133943214Y-87422819D01*
X133990833Y-87375200D01*
X134086071Y-87327580D01*
%TO.C,C30*%
X162207242Y-103142142D02*
X162159623Y-103189761D01*
X162016766Y-103237380D01*
X161921528Y-103237380D01*
X161778671Y-103189761D01*
X161683433Y-103094523D01*
X161635814Y-102999285D01*
X161588195Y-102808809D01*
X161588195Y-102665952D01*
X161635814Y-102475476D01*
X161683433Y-102380238D01*
X161778671Y-102285000D01*
X161921528Y-102237380D01*
X162016766Y-102237380D01*
X162159623Y-102285000D01*
X162207242Y-102332619D01*
X162540576Y-102237380D02*
X163159623Y-102237380D01*
X162826290Y-102618333D01*
X162969147Y-102618333D01*
X163064385Y-102665952D01*
X163112004Y-102713571D01*
X163159623Y-102808809D01*
X163159623Y-103046904D01*
X163112004Y-103142142D01*
X163064385Y-103189761D01*
X162969147Y-103237380D01*
X162683433Y-103237380D01*
X162588195Y-103189761D01*
X162540576Y-103142142D01*
X163778671Y-102237380D02*
X163873909Y-102237380D01*
X163969147Y-102285000D01*
X164016766Y-102332619D01*
X164064385Y-102427857D01*
X164112004Y-102618333D01*
X164112004Y-102856428D01*
X164064385Y-103046904D01*
X164016766Y-103142142D01*
X163969147Y-103189761D01*
X163873909Y-103237380D01*
X163778671Y-103237380D01*
X163683433Y-103189761D01*
X163635814Y-103142142D01*
X163588195Y-103046904D01*
X163540576Y-102856428D01*
X163540576Y-102618333D01*
X163588195Y-102427857D01*
X163635814Y-102332619D01*
X163683433Y-102285000D01*
X163778671Y-102237380D01*
%TO.C,D2*%
X107374004Y-70871180D02*
X107374004Y-69871180D01*
X107612100Y-69871180D01*
X107754957Y-69918800D01*
X107850195Y-70014038D01*
X107897814Y-70109276D01*
X107945433Y-70299752D01*
X107945433Y-70442609D01*
X107897814Y-70633085D01*
X107850195Y-70728323D01*
X107754957Y-70823561D01*
X107612100Y-70871180D01*
X107374004Y-70871180D01*
X108326385Y-69966419D02*
X108374004Y-69918800D01*
X108469242Y-69871180D01*
X108707338Y-69871180D01*
X108802576Y-69918800D01*
X108850195Y-69966419D01*
X108897814Y-70061657D01*
X108897814Y-70156895D01*
X108850195Y-70299752D01*
X108278766Y-70871180D01*
X108897814Y-70871180D01*
%TO.C,D1*%
X100820804Y-67508380D02*
X100820804Y-66508380D01*
X101058900Y-66508380D01*
X101201757Y-66556000D01*
X101296995Y-66651238D01*
X101344614Y-66746476D01*
X101392233Y-66936952D01*
X101392233Y-67079809D01*
X101344614Y-67270285D01*
X101296995Y-67365523D01*
X101201757Y-67460761D01*
X101058900Y-67508380D01*
X100820804Y-67508380D01*
X102344614Y-67508380D02*
X101773185Y-67508380D01*
X102058900Y-67508380D02*
X102058900Y-66508380D01*
X101963661Y-66651238D01*
X101868423Y-66746476D01*
X101773185Y-66794095D01*
%TO.C,R16*%
X186792880Y-72950457D02*
X186316690Y-73283790D01*
X186792880Y-73521885D02*
X185792880Y-73521885D01*
X185792880Y-73140933D01*
X185840500Y-73045695D01*
X185888119Y-72998076D01*
X185983357Y-72950457D01*
X186126214Y-72950457D01*
X186221452Y-72998076D01*
X186269071Y-73045695D01*
X186316690Y-73140933D01*
X186316690Y-73521885D01*
X186792880Y-71998076D02*
X186792880Y-72569504D01*
X186792880Y-72283790D02*
X185792880Y-72283790D01*
X185935738Y-72379028D01*
X186030976Y-72474266D01*
X186078595Y-72569504D01*
X185792880Y-71140933D02*
X185792880Y-71331409D01*
X185840500Y-71426647D01*
X185888119Y-71474266D01*
X186030976Y-71569504D01*
X186221452Y-71617123D01*
X186602404Y-71617123D01*
X186697642Y-71569504D01*
X186745261Y-71521885D01*
X186792880Y-71426647D01*
X186792880Y-71236171D01*
X186745261Y-71140933D01*
X186697642Y-71093314D01*
X186602404Y-71045695D01*
X186364309Y-71045695D01*
X186269071Y-71093314D01*
X186221452Y-71140933D01*
X186173833Y-71236171D01*
X186173833Y-71426647D01*
X186221452Y-71521885D01*
X186269071Y-71569504D01*
X186364309Y-71617123D01*
%TO.C,R3*%
X112315233Y-82053780D02*
X111981900Y-81577590D01*
X111743804Y-82053780D02*
X111743804Y-81053780D01*
X112124757Y-81053780D01*
X112219995Y-81101400D01*
X112267614Y-81149019D01*
X112315233Y-81244257D01*
X112315233Y-81387114D01*
X112267614Y-81482352D01*
X112219995Y-81529971D01*
X112124757Y-81577590D01*
X111743804Y-81577590D01*
X112648566Y-81053780D02*
X113267614Y-81053780D01*
X112934280Y-81434733D01*
X113077138Y-81434733D01*
X113172376Y-81482352D01*
X113219995Y-81529971D01*
X113267614Y-81625209D01*
X113267614Y-81863304D01*
X113219995Y-81958542D01*
X113172376Y-82006161D01*
X113077138Y-82053780D01*
X112791423Y-82053780D01*
X112696185Y-82006161D01*
X112648566Y-81958542D01*
%TO.C,C18*%
X140819142Y-81668857D02*
X140866761Y-81716476D01*
X140914380Y-81859333D01*
X140914380Y-81954571D01*
X140866761Y-82097428D01*
X140771523Y-82192666D01*
X140676285Y-82240285D01*
X140485809Y-82287904D01*
X140342952Y-82287904D01*
X140152476Y-82240285D01*
X140057238Y-82192666D01*
X139962000Y-82097428D01*
X139914380Y-81954571D01*
X139914380Y-81859333D01*
X139962000Y-81716476D01*
X140009619Y-81668857D01*
X140914380Y-80716476D02*
X140914380Y-81287904D01*
X140914380Y-81002190D02*
X139914380Y-81002190D01*
X140057238Y-81097428D01*
X140152476Y-81192666D01*
X140200095Y-81287904D01*
X140342952Y-80145047D02*
X140295333Y-80240285D01*
X140247714Y-80287904D01*
X140152476Y-80335523D01*
X140104857Y-80335523D01*
X140009619Y-80287904D01*
X139962000Y-80240285D01*
X139914380Y-80145047D01*
X139914380Y-79954571D01*
X139962000Y-79859333D01*
X140009619Y-79811714D01*
X140104857Y-79764095D01*
X140152476Y-79764095D01*
X140247714Y-79811714D01*
X140295333Y-79859333D01*
X140342952Y-79954571D01*
X140342952Y-80145047D01*
X140390571Y-80240285D01*
X140438190Y-80287904D01*
X140533428Y-80335523D01*
X140723904Y-80335523D01*
X140819142Y-80287904D01*
X140866761Y-80240285D01*
X140914380Y-80145047D01*
X140914380Y-79954571D01*
X140866761Y-79859333D01*
X140819142Y-79811714D01*
X140723904Y-79764095D01*
X140533428Y-79764095D01*
X140438190Y-79811714D01*
X140390571Y-79859333D01*
X140342952Y-79954571D01*
%TO.C,L3*%
X141458480Y-96754066D02*
X141458480Y-97230257D01*
X140458480Y-97230257D01*
X140458480Y-96515971D02*
X140458480Y-95896923D01*
X140839433Y-96230257D01*
X140839433Y-96087400D01*
X140887052Y-95992161D01*
X140934671Y-95944542D01*
X141029909Y-95896923D01*
X141268004Y-95896923D01*
X141363242Y-95944542D01*
X141410861Y-95992161D01*
X141458480Y-96087400D01*
X141458480Y-96373114D01*
X141410861Y-96468352D01*
X141363242Y-96515971D01*
%TO.C,C20*%
X135740442Y-103608142D02*
X135692823Y-103655761D01*
X135549966Y-103703380D01*
X135454728Y-103703380D01*
X135311871Y-103655761D01*
X135216633Y-103560523D01*
X135169014Y-103465285D01*
X135121395Y-103274809D01*
X135121395Y-103131952D01*
X135169014Y-102941476D01*
X135216633Y-102846238D01*
X135311871Y-102751000D01*
X135454728Y-102703380D01*
X135549966Y-102703380D01*
X135692823Y-102751000D01*
X135740442Y-102798619D01*
X136121395Y-102798619D02*
X136169014Y-102751000D01*
X136264252Y-102703380D01*
X136502347Y-102703380D01*
X136597585Y-102751000D01*
X136645204Y-102798619D01*
X136692823Y-102893857D01*
X136692823Y-102989095D01*
X136645204Y-103131952D01*
X136073776Y-103703380D01*
X136692823Y-103703380D01*
X137311871Y-102703380D02*
X137407109Y-102703380D01*
X137502347Y-102751000D01*
X137549966Y-102798619D01*
X137597585Y-102893857D01*
X137645204Y-103084333D01*
X137645204Y-103322428D01*
X137597585Y-103512904D01*
X137549966Y-103608142D01*
X137502347Y-103655761D01*
X137407109Y-103703380D01*
X137311871Y-103703380D01*
X137216633Y-103655761D01*
X137169014Y-103608142D01*
X137121395Y-103512904D01*
X137073776Y-103322428D01*
X137073776Y-103084333D01*
X137121395Y-102893857D01*
X137169014Y-102798619D01*
X137216633Y-102751000D01*
X137311871Y-102703380D01*
%TO.C,C41*%
X171741142Y-83700857D02*
X171788761Y-83748476D01*
X171836380Y-83891333D01*
X171836380Y-83986571D01*
X171788761Y-84129428D01*
X171693523Y-84224666D01*
X171598285Y-84272285D01*
X171407809Y-84319904D01*
X171264952Y-84319904D01*
X171074476Y-84272285D01*
X170979238Y-84224666D01*
X170884000Y-84129428D01*
X170836380Y-83986571D01*
X170836380Y-83891333D01*
X170884000Y-83748476D01*
X170931619Y-83700857D01*
X171169714Y-82843714D02*
X171836380Y-82843714D01*
X170788761Y-83081809D02*
X171503047Y-83319904D01*
X171503047Y-82700857D01*
X171836380Y-81796095D02*
X171836380Y-82367523D01*
X171836380Y-82081809D02*
X170836380Y-82081809D01*
X170979238Y-82177047D01*
X171074476Y-82272285D01*
X171122095Y-82367523D01*
%TO.C,C27*%
X168871642Y-114660457D02*
X168919261Y-114708076D01*
X168966880Y-114850933D01*
X168966880Y-114946171D01*
X168919261Y-115089028D01*
X168824023Y-115184266D01*
X168728785Y-115231885D01*
X168538309Y-115279504D01*
X168395452Y-115279504D01*
X168204976Y-115231885D01*
X168109738Y-115184266D01*
X168014500Y-115089028D01*
X167966880Y-114946171D01*
X167966880Y-114850933D01*
X168014500Y-114708076D01*
X168062119Y-114660457D01*
X168062119Y-114279504D02*
X168014500Y-114231885D01*
X167966880Y-114136647D01*
X167966880Y-113898552D01*
X168014500Y-113803314D01*
X168062119Y-113755695D01*
X168157357Y-113708076D01*
X168252595Y-113708076D01*
X168395452Y-113755695D01*
X168966880Y-114327123D01*
X168966880Y-113708076D01*
X167966880Y-113374742D02*
X167966880Y-112708076D01*
X168966880Y-113136647D01*
%TO.C,R15*%
X164817142Y-109142980D02*
X164483809Y-108666790D01*
X164245714Y-109142980D02*
X164245714Y-108142980D01*
X164626666Y-108142980D01*
X164721904Y-108190600D01*
X164769523Y-108238219D01*
X164817142Y-108333457D01*
X164817142Y-108476314D01*
X164769523Y-108571552D01*
X164721904Y-108619171D01*
X164626666Y-108666790D01*
X164245714Y-108666790D01*
X165769523Y-109142980D02*
X165198095Y-109142980D01*
X165483809Y-109142980D02*
X165483809Y-108142980D01*
X165388571Y-108285838D01*
X165293333Y-108381076D01*
X165198095Y-108428695D01*
X166674285Y-108142980D02*
X166198095Y-108142980D01*
X166150476Y-108619171D01*
X166198095Y-108571552D01*
X166293333Y-108523933D01*
X166531428Y-108523933D01*
X166626666Y-108571552D01*
X166674285Y-108619171D01*
X166721904Y-108714409D01*
X166721904Y-108952504D01*
X166674285Y-109047742D01*
X166626666Y-109095361D01*
X166531428Y-109142980D01*
X166293333Y-109142980D01*
X166198095Y-109095361D01*
X166150476Y-109047742D01*
%TO.C,C34*%
X174789642Y-88543457D02*
X174837261Y-88591076D01*
X174884880Y-88733933D01*
X174884880Y-88829171D01*
X174837261Y-88972028D01*
X174742023Y-89067266D01*
X174646785Y-89114885D01*
X174456309Y-89162504D01*
X174313452Y-89162504D01*
X174122976Y-89114885D01*
X174027738Y-89067266D01*
X173932500Y-88972028D01*
X173884880Y-88829171D01*
X173884880Y-88733933D01*
X173932500Y-88591076D01*
X173980119Y-88543457D01*
X173884880Y-88210123D02*
X173884880Y-87591076D01*
X174265833Y-87924409D01*
X174265833Y-87781552D01*
X174313452Y-87686314D01*
X174361071Y-87638695D01*
X174456309Y-87591076D01*
X174694404Y-87591076D01*
X174789642Y-87638695D01*
X174837261Y-87686314D01*
X174884880Y-87781552D01*
X174884880Y-88067266D01*
X174837261Y-88162504D01*
X174789642Y-88210123D01*
X174218214Y-86733933D02*
X174884880Y-86733933D01*
X173837261Y-86972028D02*
X174551547Y-87210123D01*
X174551547Y-86591076D01*
%TO.C,C15*%
X147832642Y-98755742D02*
X147785023Y-98803361D01*
X147642166Y-98850980D01*
X147546928Y-98850980D01*
X147404071Y-98803361D01*
X147308833Y-98708123D01*
X147261214Y-98612885D01*
X147213595Y-98422409D01*
X147213595Y-98279552D01*
X147261214Y-98089076D01*
X147308833Y-97993838D01*
X147404071Y-97898600D01*
X147546928Y-97850980D01*
X147642166Y-97850980D01*
X147785023Y-97898600D01*
X147832642Y-97946219D01*
X148785023Y-98850980D02*
X148213595Y-98850980D01*
X148499309Y-98850980D02*
X148499309Y-97850980D01*
X148404071Y-97993838D01*
X148308833Y-98089076D01*
X148213595Y-98136695D01*
X149689785Y-97850980D02*
X149213595Y-97850980D01*
X149165976Y-98327171D01*
X149213595Y-98279552D01*
X149308833Y-98231933D01*
X149546928Y-98231933D01*
X149642166Y-98279552D01*
X149689785Y-98327171D01*
X149737404Y-98422409D01*
X149737404Y-98660504D01*
X149689785Y-98755742D01*
X149642166Y-98803361D01*
X149546928Y-98850980D01*
X149308833Y-98850980D01*
X149213595Y-98803361D01*
X149165976Y-98755742D01*
%TO.C,C38*%
X185902642Y-86209142D02*
X185855023Y-86256761D01*
X185712166Y-86304380D01*
X185616928Y-86304380D01*
X185474071Y-86256761D01*
X185378833Y-86161523D01*
X185331214Y-86066285D01*
X185283595Y-85875809D01*
X185283595Y-85732952D01*
X185331214Y-85542476D01*
X185378833Y-85447238D01*
X185474071Y-85352000D01*
X185616928Y-85304380D01*
X185712166Y-85304380D01*
X185855023Y-85352000D01*
X185902642Y-85399619D01*
X186235976Y-85304380D02*
X186855023Y-85304380D01*
X186521690Y-85685333D01*
X186664547Y-85685333D01*
X186759785Y-85732952D01*
X186807404Y-85780571D01*
X186855023Y-85875809D01*
X186855023Y-86113904D01*
X186807404Y-86209142D01*
X186759785Y-86256761D01*
X186664547Y-86304380D01*
X186378833Y-86304380D01*
X186283595Y-86256761D01*
X186235976Y-86209142D01*
X187426452Y-85732952D02*
X187331214Y-85685333D01*
X187283595Y-85637714D01*
X187235976Y-85542476D01*
X187235976Y-85494857D01*
X187283595Y-85399619D01*
X187331214Y-85352000D01*
X187426452Y-85304380D01*
X187616928Y-85304380D01*
X187712166Y-85352000D01*
X187759785Y-85399619D01*
X187807404Y-85494857D01*
X187807404Y-85542476D01*
X187759785Y-85637714D01*
X187712166Y-85685333D01*
X187616928Y-85732952D01*
X187426452Y-85732952D01*
X187331214Y-85780571D01*
X187283595Y-85828190D01*
X187235976Y-85923428D01*
X187235976Y-86113904D01*
X187283595Y-86209142D01*
X187331214Y-86256761D01*
X187426452Y-86304380D01*
X187616928Y-86304380D01*
X187712166Y-86256761D01*
X187759785Y-86209142D01*
X187807404Y-86113904D01*
X187807404Y-85923428D01*
X187759785Y-85828190D01*
X187712166Y-85780571D01*
X187616928Y-85732952D01*
%TO.C,C32*%
X157853142Y-82733242D02*
X157805523Y-82780861D01*
X157662666Y-82828480D01*
X157567428Y-82828480D01*
X157424571Y-82780861D01*
X157329333Y-82685623D01*
X157281714Y-82590385D01*
X157234095Y-82399909D01*
X157234095Y-82257052D01*
X157281714Y-82066576D01*
X157329333Y-81971338D01*
X157424571Y-81876100D01*
X157567428Y-81828480D01*
X157662666Y-81828480D01*
X157805523Y-81876100D01*
X157853142Y-81923719D01*
X158186476Y-81828480D02*
X158805523Y-81828480D01*
X158472190Y-82209433D01*
X158615047Y-82209433D01*
X158710285Y-82257052D01*
X158757904Y-82304671D01*
X158805523Y-82399909D01*
X158805523Y-82638004D01*
X158757904Y-82733242D01*
X158710285Y-82780861D01*
X158615047Y-82828480D01*
X158329333Y-82828480D01*
X158234095Y-82780861D01*
X158186476Y-82733242D01*
X159186476Y-81923719D02*
X159234095Y-81876100D01*
X159329333Y-81828480D01*
X159567428Y-81828480D01*
X159662666Y-81876100D01*
X159710285Y-81923719D01*
X159757904Y-82018957D01*
X159757904Y-82114195D01*
X159710285Y-82257052D01*
X159138857Y-82828480D01*
X159757904Y-82828480D01*
%TO.C,C39*%
X180951142Y-82176857D02*
X180998761Y-82224476D01*
X181046380Y-82367333D01*
X181046380Y-82462571D01*
X180998761Y-82605428D01*
X180903523Y-82700666D01*
X180808285Y-82748285D01*
X180617809Y-82795904D01*
X180474952Y-82795904D01*
X180284476Y-82748285D01*
X180189238Y-82700666D01*
X180094000Y-82605428D01*
X180046380Y-82462571D01*
X180046380Y-82367333D01*
X180094000Y-82224476D01*
X180141619Y-82176857D01*
X180046380Y-81843523D02*
X180046380Y-81224476D01*
X180427333Y-81557809D01*
X180427333Y-81414952D01*
X180474952Y-81319714D01*
X180522571Y-81272095D01*
X180617809Y-81224476D01*
X180855904Y-81224476D01*
X180951142Y-81272095D01*
X180998761Y-81319714D01*
X181046380Y-81414952D01*
X181046380Y-81700666D01*
X180998761Y-81795904D01*
X180951142Y-81843523D01*
X181046380Y-80748285D02*
X181046380Y-80557809D01*
X180998761Y-80462571D01*
X180951142Y-80414952D01*
X180808285Y-80319714D01*
X180617809Y-80272095D01*
X180236857Y-80272095D01*
X180141619Y-80319714D01*
X180094000Y-80367333D01*
X180046380Y-80462571D01*
X180046380Y-80653047D01*
X180094000Y-80748285D01*
X180141619Y-80795904D01*
X180236857Y-80843523D01*
X180474952Y-80843523D01*
X180570190Y-80795904D01*
X180617809Y-80748285D01*
X180665428Y-80653047D01*
X180665428Y-80462571D01*
X180617809Y-80367333D01*
X180570190Y-80319714D01*
X180474952Y-80272095D01*
%TO.C,C23*%
X123248842Y-85903657D02*
X123296461Y-85951276D01*
X123344080Y-86094133D01*
X123344080Y-86189371D01*
X123296461Y-86332228D01*
X123201223Y-86427466D01*
X123105985Y-86475085D01*
X122915509Y-86522704D01*
X122772652Y-86522704D01*
X122582176Y-86475085D01*
X122486938Y-86427466D01*
X122391700Y-86332228D01*
X122344080Y-86189371D01*
X122344080Y-86094133D01*
X122391700Y-85951276D01*
X122439319Y-85903657D01*
X122439319Y-85522704D02*
X122391700Y-85475085D01*
X122344080Y-85379847D01*
X122344080Y-85141752D01*
X122391700Y-85046514D01*
X122439319Y-84998895D01*
X122534557Y-84951276D01*
X122629795Y-84951276D01*
X122772652Y-84998895D01*
X123344080Y-85570323D01*
X123344080Y-84951276D01*
X122344080Y-84617942D02*
X122344080Y-83998895D01*
X122725033Y-84332228D01*
X122725033Y-84189371D01*
X122772652Y-84094133D01*
X122820271Y-84046514D01*
X122915509Y-83998895D01*
X123153604Y-83998895D01*
X123248842Y-84046514D01*
X123296461Y-84094133D01*
X123344080Y-84189371D01*
X123344080Y-84475085D01*
X123296461Y-84570323D01*
X123248842Y-84617942D01*
%TO.C,F1*%
X101020571Y-63516733D02*
X101020571Y-63850066D01*
X101544380Y-63850066D02*
X100544380Y-63850066D01*
X100544380Y-63373876D01*
X101544380Y-62469114D02*
X101544380Y-63040542D01*
X101544380Y-62754828D02*
X100544380Y-62754828D01*
X100687238Y-62850066D01*
X100782476Y-62945304D01*
X100830095Y-63040542D01*
%TO.C,U8*%
X166456995Y-80952180D02*
X166456995Y-81761704D01*
X166504614Y-81856942D01*
X166552233Y-81904561D01*
X166647471Y-81952180D01*
X166837947Y-81952180D01*
X166933185Y-81904561D01*
X166980804Y-81856942D01*
X167028423Y-81761704D01*
X167028423Y-80952180D01*
X167647471Y-81380752D02*
X167552233Y-81333133D01*
X167504614Y-81285514D01*
X167456995Y-81190276D01*
X167456995Y-81142657D01*
X167504614Y-81047419D01*
X167552233Y-80999800D01*
X167647471Y-80952180D01*
X167837947Y-80952180D01*
X167933185Y-80999800D01*
X167980804Y-81047419D01*
X168028423Y-81142657D01*
X168028423Y-81190276D01*
X167980804Y-81285514D01*
X167933185Y-81333133D01*
X167837947Y-81380752D01*
X167647471Y-81380752D01*
X167552233Y-81428371D01*
X167504614Y-81475990D01*
X167456995Y-81571228D01*
X167456995Y-81761704D01*
X167504614Y-81856942D01*
X167552233Y-81904561D01*
X167647471Y-81952180D01*
X167837947Y-81952180D01*
X167933185Y-81904561D01*
X167980804Y-81856942D01*
X168028423Y-81761704D01*
X168028423Y-81571228D01*
X167980804Y-81475990D01*
X167933185Y-81428371D01*
X167837947Y-81380752D01*
%TO.C,C42*%
X163171142Y-76525457D02*
X163218761Y-76573076D01*
X163266380Y-76715933D01*
X163266380Y-76811171D01*
X163218761Y-76954028D01*
X163123523Y-77049266D01*
X163028285Y-77096885D01*
X162837809Y-77144504D01*
X162694952Y-77144504D01*
X162504476Y-77096885D01*
X162409238Y-77049266D01*
X162314000Y-76954028D01*
X162266380Y-76811171D01*
X162266380Y-76715933D01*
X162314000Y-76573076D01*
X162361619Y-76525457D01*
X162599714Y-75668314D02*
X163266380Y-75668314D01*
X162218761Y-75906409D02*
X162933047Y-76144504D01*
X162933047Y-75525457D01*
X162361619Y-75192123D02*
X162314000Y-75144504D01*
X162266380Y-75049266D01*
X162266380Y-74811171D01*
X162314000Y-74715933D01*
X162361619Y-74668314D01*
X162456857Y-74620695D01*
X162552095Y-74620695D01*
X162694952Y-74668314D01*
X163266380Y-75239742D01*
X163266380Y-74620695D01*
%TO.C,R13*%
X135902642Y-76104980D02*
X135569309Y-75628790D01*
X135331214Y-76104980D02*
X135331214Y-75104980D01*
X135712166Y-75104980D01*
X135807404Y-75152600D01*
X135855023Y-75200219D01*
X135902642Y-75295457D01*
X135902642Y-75438314D01*
X135855023Y-75533552D01*
X135807404Y-75581171D01*
X135712166Y-75628790D01*
X135331214Y-75628790D01*
X136855023Y-76104980D02*
X136283595Y-76104980D01*
X136569309Y-76104980D02*
X136569309Y-75104980D01*
X136474071Y-75247838D01*
X136378833Y-75343076D01*
X136283595Y-75390695D01*
X137188357Y-75104980D02*
X137807404Y-75104980D01*
X137474071Y-75485933D01*
X137616928Y-75485933D01*
X137712166Y-75533552D01*
X137759785Y-75581171D01*
X137807404Y-75676409D01*
X137807404Y-75914504D01*
X137759785Y-76009742D01*
X137712166Y-76057361D01*
X137616928Y-76104980D01*
X137331214Y-76104980D01*
X137235976Y-76057361D01*
X137188357Y-76009742D01*
%TO.C,R18*%
X132743242Y-90842180D02*
X132409909Y-90365990D01*
X132171814Y-90842180D02*
X132171814Y-89842180D01*
X132552766Y-89842180D01*
X132648004Y-89889800D01*
X132695623Y-89937419D01*
X132743242Y-90032657D01*
X132743242Y-90175514D01*
X132695623Y-90270752D01*
X132648004Y-90318371D01*
X132552766Y-90365990D01*
X132171814Y-90365990D01*
X133695623Y-90842180D02*
X133124195Y-90842180D01*
X133409909Y-90842180D02*
X133409909Y-89842180D01*
X133314671Y-89985038D01*
X133219433Y-90080276D01*
X133124195Y-90127895D01*
X134267052Y-90270752D02*
X134171814Y-90223133D01*
X134124195Y-90175514D01*
X134076576Y-90080276D01*
X134076576Y-90032657D01*
X134124195Y-89937419D01*
X134171814Y-89889800D01*
X134267052Y-89842180D01*
X134457528Y-89842180D01*
X134552766Y-89889800D01*
X134600385Y-89937419D01*
X134648004Y-90032657D01*
X134648004Y-90080276D01*
X134600385Y-90175514D01*
X134552766Y-90223133D01*
X134457528Y-90270752D01*
X134267052Y-90270752D01*
X134171814Y-90318371D01*
X134124195Y-90365990D01*
X134076576Y-90461228D01*
X134076576Y-90651704D01*
X134124195Y-90746942D01*
X134171814Y-90794561D01*
X134267052Y-90842180D01*
X134457528Y-90842180D01*
X134552766Y-90794561D01*
X134600385Y-90746942D01*
X134648004Y-90651704D01*
X134648004Y-90461228D01*
X134600385Y-90365990D01*
X134552766Y-90318371D01*
X134457528Y-90270752D01*
%TO.C,C12*%
X116166442Y-105790057D02*
X116214061Y-105837676D01*
X116261680Y-105980533D01*
X116261680Y-106075771D01*
X116214061Y-106218628D01*
X116118823Y-106313866D01*
X116023585Y-106361485D01*
X115833109Y-106409104D01*
X115690252Y-106409104D01*
X115499776Y-106361485D01*
X115404538Y-106313866D01*
X115309300Y-106218628D01*
X115261680Y-106075771D01*
X115261680Y-105980533D01*
X115309300Y-105837676D01*
X115356919Y-105790057D01*
X116261680Y-104837676D02*
X116261680Y-105409104D01*
X116261680Y-105123390D02*
X115261680Y-105123390D01*
X115404538Y-105218628D01*
X115499776Y-105313866D01*
X115547395Y-105409104D01*
X115356919Y-104456723D02*
X115309300Y-104409104D01*
X115261680Y-104313866D01*
X115261680Y-104075771D01*
X115309300Y-103980533D01*
X115356919Y-103932914D01*
X115452157Y-103885295D01*
X115547395Y-103885295D01*
X115690252Y-103932914D01*
X116261680Y-104504342D01*
X116261680Y-103885295D01*
%TO.C,R6*%
X146642880Y-72099266D02*
X146166690Y-72432600D01*
X146642880Y-72670695D02*
X145642880Y-72670695D01*
X145642880Y-72289742D01*
X145690500Y-72194504D01*
X145738119Y-72146885D01*
X145833357Y-72099266D01*
X145976214Y-72099266D01*
X146071452Y-72146885D01*
X146119071Y-72194504D01*
X146166690Y-72289742D01*
X146166690Y-72670695D01*
X145642880Y-71242123D02*
X145642880Y-71432600D01*
X145690500Y-71527838D01*
X145738119Y-71575457D01*
X145880976Y-71670695D01*
X146071452Y-71718314D01*
X146452404Y-71718314D01*
X146547642Y-71670695D01*
X146595261Y-71623076D01*
X146642880Y-71527838D01*
X146642880Y-71337361D01*
X146595261Y-71242123D01*
X146547642Y-71194504D01*
X146452404Y-71146885D01*
X146214309Y-71146885D01*
X146119071Y-71194504D01*
X146071452Y-71242123D01*
X146023833Y-71337361D01*
X146023833Y-71527838D01*
X146071452Y-71623076D01*
X146119071Y-71670695D01*
X146214309Y-71718314D01*
%TO.C,C3*%
X100287242Y-77477266D02*
X100334861Y-77524885D01*
X100382480Y-77667742D01*
X100382480Y-77762980D01*
X100334861Y-77905838D01*
X100239623Y-78001076D01*
X100144385Y-78048695D01*
X99953909Y-78096314D01*
X99811052Y-78096314D01*
X99620576Y-78048695D01*
X99525338Y-78001076D01*
X99430100Y-77905838D01*
X99382480Y-77762980D01*
X99382480Y-77667742D01*
X99430100Y-77524885D01*
X99477719Y-77477266D01*
X99382480Y-77143933D02*
X99382480Y-76524885D01*
X99763433Y-76858219D01*
X99763433Y-76715361D01*
X99811052Y-76620123D01*
X99858671Y-76572504D01*
X99953909Y-76524885D01*
X100192004Y-76524885D01*
X100287242Y-76572504D01*
X100334861Y-76620123D01*
X100382480Y-76715361D01*
X100382480Y-77001076D01*
X100334861Y-77096314D01*
X100287242Y-77143933D01*
%TO.C,C8*%
X153757333Y-73763142D02*
X153709714Y-73810761D01*
X153566857Y-73858380D01*
X153471619Y-73858380D01*
X153328761Y-73810761D01*
X153233523Y-73715523D01*
X153185904Y-73620285D01*
X153138285Y-73429809D01*
X153138285Y-73286952D01*
X153185904Y-73096476D01*
X153233523Y-73001238D01*
X153328761Y-72906000D01*
X153471619Y-72858380D01*
X153566857Y-72858380D01*
X153709714Y-72906000D01*
X153757333Y-72953619D01*
X154328761Y-73286952D02*
X154233523Y-73239333D01*
X154185904Y-73191714D01*
X154138285Y-73096476D01*
X154138285Y-73048857D01*
X154185904Y-72953619D01*
X154233523Y-72906000D01*
X154328761Y-72858380D01*
X154519238Y-72858380D01*
X154614476Y-72906000D01*
X154662095Y-72953619D01*
X154709714Y-73048857D01*
X154709714Y-73096476D01*
X154662095Y-73191714D01*
X154614476Y-73239333D01*
X154519238Y-73286952D01*
X154328761Y-73286952D01*
X154233523Y-73334571D01*
X154185904Y-73382190D01*
X154138285Y-73477428D01*
X154138285Y-73667904D01*
X154185904Y-73763142D01*
X154233523Y-73810761D01*
X154328761Y-73858380D01*
X154519238Y-73858380D01*
X154614476Y-73810761D01*
X154662095Y-73763142D01*
X154709714Y-73667904D01*
X154709714Y-73477428D01*
X154662095Y-73382190D01*
X154614476Y-73334571D01*
X154519238Y-73286952D01*
%TO.C,SW1*%
X81763661Y-77549933D02*
X81811280Y-77407076D01*
X81811280Y-77168980D01*
X81763661Y-77073742D01*
X81716042Y-77026123D01*
X81620804Y-76978504D01*
X81525566Y-76978504D01*
X81430328Y-77026123D01*
X81382709Y-77073742D01*
X81335090Y-77168980D01*
X81287471Y-77359457D01*
X81239852Y-77454695D01*
X81192233Y-77502314D01*
X81096995Y-77549933D01*
X81001757Y-77549933D01*
X80906519Y-77502314D01*
X80858900Y-77454695D01*
X80811280Y-77359457D01*
X80811280Y-77121361D01*
X80858900Y-76978504D01*
X80811280Y-76645171D02*
X81811280Y-76407076D01*
X81096995Y-76216600D01*
X81811280Y-76026123D01*
X80811280Y-75788028D01*
X81811280Y-74883266D02*
X81811280Y-75454695D01*
X81811280Y-75168980D02*
X80811280Y-75168980D01*
X80954138Y-75264219D01*
X81049376Y-75359457D01*
X81096995Y-75454695D01*
%TO.C,C31*%
X190627642Y-72937957D02*
X190675261Y-72985576D01*
X190722880Y-73128433D01*
X190722880Y-73223671D01*
X190675261Y-73366528D01*
X190580023Y-73461766D01*
X190484785Y-73509385D01*
X190294309Y-73557004D01*
X190151452Y-73557004D01*
X189960976Y-73509385D01*
X189865738Y-73461766D01*
X189770500Y-73366528D01*
X189722880Y-73223671D01*
X189722880Y-73128433D01*
X189770500Y-72985576D01*
X189818119Y-72937957D01*
X189722880Y-72604623D02*
X189722880Y-71985576D01*
X190103833Y-72318909D01*
X190103833Y-72176052D01*
X190151452Y-72080814D01*
X190199071Y-72033195D01*
X190294309Y-71985576D01*
X190532404Y-71985576D01*
X190627642Y-72033195D01*
X190675261Y-72080814D01*
X190722880Y-72176052D01*
X190722880Y-72461766D01*
X190675261Y-72557004D01*
X190627642Y-72604623D01*
X190722880Y-71033195D02*
X190722880Y-71604623D01*
X190722880Y-71318909D02*
X189722880Y-71318909D01*
X189865738Y-71414147D01*
X189960976Y-71509385D01*
X190008595Y-71604623D01*
%TO.C,R4*%
X113701533Y-68270580D02*
X113368200Y-67794390D01*
X113130104Y-68270580D02*
X113130104Y-67270580D01*
X113511057Y-67270580D01*
X113606295Y-67318200D01*
X113653914Y-67365819D01*
X113701533Y-67461057D01*
X113701533Y-67603914D01*
X113653914Y-67699152D01*
X113606295Y-67746771D01*
X113511057Y-67794390D01*
X113130104Y-67794390D01*
X114558676Y-67603914D02*
X114558676Y-68270580D01*
X114320580Y-67222961D02*
X114082485Y-67937247D01*
X114701533Y-67937247D01*
%TO.C,U5*%
X131145280Y-99635304D02*
X131954804Y-99635304D01*
X132050042Y-99587685D01*
X132097661Y-99540066D01*
X132145280Y-99444828D01*
X132145280Y-99254352D01*
X132097661Y-99159114D01*
X132050042Y-99111495D01*
X131954804Y-99063876D01*
X131145280Y-99063876D01*
X131145280Y-98111495D02*
X131145280Y-98587685D01*
X131621471Y-98635304D01*
X131573852Y-98587685D01*
X131526233Y-98492447D01*
X131526233Y-98254352D01*
X131573852Y-98159114D01*
X131621471Y-98111495D01*
X131716709Y-98063876D01*
X131954804Y-98063876D01*
X132050042Y-98111495D01*
X132097661Y-98159114D01*
X132145280Y-98254352D01*
X132145280Y-98492447D01*
X132097661Y-98587685D01*
X132050042Y-98635304D01*
%TO.C,C40*%
X175102642Y-80089742D02*
X175055023Y-80137361D01*
X174912166Y-80184980D01*
X174816928Y-80184980D01*
X174674071Y-80137361D01*
X174578833Y-80042123D01*
X174531214Y-79946885D01*
X174483595Y-79756409D01*
X174483595Y-79613552D01*
X174531214Y-79423076D01*
X174578833Y-79327838D01*
X174674071Y-79232600D01*
X174816928Y-79184980D01*
X174912166Y-79184980D01*
X175055023Y-79232600D01*
X175102642Y-79280219D01*
X175959785Y-79518314D02*
X175959785Y-80184980D01*
X175721690Y-79137361D02*
X175483595Y-79851647D01*
X176102642Y-79851647D01*
X176674071Y-79184980D02*
X176769309Y-79184980D01*
X176864547Y-79232600D01*
X176912166Y-79280219D01*
X176959785Y-79375457D01*
X177007404Y-79565933D01*
X177007404Y-79804028D01*
X176959785Y-79994504D01*
X176912166Y-80089742D01*
X176864547Y-80137361D01*
X176769309Y-80184980D01*
X176674071Y-80184980D01*
X176578833Y-80137361D01*
X176531214Y-80089742D01*
X176483595Y-79994504D01*
X176435976Y-79804028D01*
X176435976Y-79565933D01*
X176483595Y-79375457D01*
X176531214Y-79280219D01*
X176578833Y-79232600D01*
X176674071Y-79184980D01*
%TO.C,L2*%
X110204633Y-91119980D02*
X109728442Y-91119980D01*
X109728442Y-90119980D01*
X110490347Y-90215219D02*
X110537966Y-90167600D01*
X110633204Y-90119980D01*
X110871300Y-90119980D01*
X110966538Y-90167600D01*
X111014157Y-90215219D01*
X111061776Y-90310457D01*
X111061776Y-90405695D01*
X111014157Y-90548552D01*
X110442728Y-91119980D01*
X111061776Y-91119980D01*
%TO.C,R1*%
X116393933Y-77803380D02*
X116060600Y-77327190D01*
X115822504Y-77803380D02*
X115822504Y-76803380D01*
X116203457Y-76803380D01*
X116298695Y-76851000D01*
X116346314Y-76898619D01*
X116393933Y-76993857D01*
X116393933Y-77136714D01*
X116346314Y-77231952D01*
X116298695Y-77279571D01*
X116203457Y-77327190D01*
X115822504Y-77327190D01*
X117346314Y-77803380D02*
X116774885Y-77803380D01*
X117060600Y-77803380D02*
X117060600Y-76803380D01*
X116965361Y-76946238D01*
X116870123Y-77041476D01*
X116774885Y-77089095D01*
%TO.C,C28*%
X125341142Y-70207142D02*
X125293523Y-70254761D01*
X125150666Y-70302380D01*
X125055428Y-70302380D01*
X124912571Y-70254761D01*
X124817333Y-70159523D01*
X124769714Y-70064285D01*
X124722095Y-69873809D01*
X124722095Y-69730952D01*
X124769714Y-69540476D01*
X124817333Y-69445238D01*
X124912571Y-69350000D01*
X125055428Y-69302380D01*
X125150666Y-69302380D01*
X125293523Y-69350000D01*
X125341142Y-69397619D01*
X125722095Y-69397619D02*
X125769714Y-69350000D01*
X125864952Y-69302380D01*
X126103047Y-69302380D01*
X126198285Y-69350000D01*
X126245904Y-69397619D01*
X126293523Y-69492857D01*
X126293523Y-69588095D01*
X126245904Y-69730952D01*
X125674476Y-70302380D01*
X126293523Y-70302380D01*
X126864952Y-69730952D02*
X126769714Y-69683333D01*
X126722095Y-69635714D01*
X126674476Y-69540476D01*
X126674476Y-69492857D01*
X126722095Y-69397619D01*
X126769714Y-69350000D01*
X126864952Y-69302380D01*
X127055428Y-69302380D01*
X127150666Y-69350000D01*
X127198285Y-69397619D01*
X127245904Y-69492857D01*
X127245904Y-69540476D01*
X127198285Y-69635714D01*
X127150666Y-69683333D01*
X127055428Y-69730952D01*
X126864952Y-69730952D01*
X126769714Y-69778571D01*
X126722095Y-69826190D01*
X126674476Y-69921428D01*
X126674476Y-70111904D01*
X126722095Y-70207142D01*
X126769714Y-70254761D01*
X126864952Y-70302380D01*
X127055428Y-70302380D01*
X127150666Y-70254761D01*
X127198285Y-70207142D01*
X127245904Y-70111904D01*
X127245904Y-69921428D01*
X127198285Y-69826190D01*
X127150666Y-69778571D01*
X127055428Y-69730952D01*
%TO.C,R11*%
X152617880Y-110325957D02*
X152141690Y-110659290D01*
X152617880Y-110897385D02*
X151617880Y-110897385D01*
X151617880Y-110516433D01*
X151665500Y-110421195D01*
X151713119Y-110373576D01*
X151808357Y-110325957D01*
X151951214Y-110325957D01*
X152046452Y-110373576D01*
X152094071Y-110421195D01*
X152141690Y-110516433D01*
X152141690Y-110897385D01*
X152617880Y-109373576D02*
X152617880Y-109945004D01*
X152617880Y-109659290D02*
X151617880Y-109659290D01*
X151760738Y-109754528D01*
X151855976Y-109849766D01*
X151903595Y-109945004D01*
X152617880Y-108421195D02*
X152617880Y-108992623D01*
X152617880Y-108706909D02*
X151617880Y-108706909D01*
X151760738Y-108802147D01*
X151855976Y-108897385D01*
X151903595Y-108992623D01*
%TO.C,C43*%
X165981142Y-70207142D02*
X165933523Y-70254761D01*
X165790666Y-70302380D01*
X165695428Y-70302380D01*
X165552571Y-70254761D01*
X165457333Y-70159523D01*
X165409714Y-70064285D01*
X165362095Y-69873809D01*
X165362095Y-69730952D01*
X165409714Y-69540476D01*
X165457333Y-69445238D01*
X165552571Y-69350000D01*
X165695428Y-69302380D01*
X165790666Y-69302380D01*
X165933523Y-69350000D01*
X165981142Y-69397619D01*
X166838285Y-69635714D02*
X166838285Y-70302380D01*
X166600190Y-69254761D02*
X166362095Y-69969047D01*
X166981142Y-69969047D01*
X167266857Y-69302380D02*
X167885904Y-69302380D01*
X167552571Y-69683333D01*
X167695428Y-69683333D01*
X167790666Y-69730952D01*
X167838285Y-69778571D01*
X167885904Y-69873809D01*
X167885904Y-70111904D01*
X167838285Y-70207142D01*
X167790666Y-70254761D01*
X167695428Y-70302380D01*
X167409714Y-70302380D01*
X167314476Y-70254761D01*
X167266857Y-70207142D01*
%TO.C,U2*%
X94852480Y-68337004D02*
X95662004Y-68337004D01*
X95757242Y-68289385D01*
X95804861Y-68241766D01*
X95852480Y-68146528D01*
X95852480Y-67956052D01*
X95804861Y-67860814D01*
X95757242Y-67813195D01*
X95662004Y-67765576D01*
X94852480Y-67765576D01*
X94947719Y-67337004D02*
X94900100Y-67289385D01*
X94852480Y-67194147D01*
X94852480Y-66956052D01*
X94900100Y-66860814D01*
X94947719Y-66813195D01*
X95042957Y-66765576D01*
X95138195Y-66765576D01*
X95281052Y-66813195D01*
X95852480Y-67384623D01*
X95852480Y-66765576D01*
%TO.C,C35*%
X153789142Y-84939142D02*
X153741523Y-84986761D01*
X153598666Y-85034380D01*
X153503428Y-85034380D01*
X153360571Y-84986761D01*
X153265333Y-84891523D01*
X153217714Y-84796285D01*
X153170095Y-84605809D01*
X153170095Y-84462952D01*
X153217714Y-84272476D01*
X153265333Y-84177238D01*
X153360571Y-84082000D01*
X153503428Y-84034380D01*
X153598666Y-84034380D01*
X153741523Y-84082000D01*
X153789142Y-84129619D01*
X154122476Y-84034380D02*
X154741523Y-84034380D01*
X154408190Y-84415333D01*
X154551047Y-84415333D01*
X154646285Y-84462952D01*
X154693904Y-84510571D01*
X154741523Y-84605809D01*
X154741523Y-84843904D01*
X154693904Y-84939142D01*
X154646285Y-84986761D01*
X154551047Y-85034380D01*
X154265333Y-85034380D01*
X154170095Y-84986761D01*
X154122476Y-84939142D01*
X155646285Y-84034380D02*
X155170095Y-84034380D01*
X155122476Y-84510571D01*
X155170095Y-84462952D01*
X155265333Y-84415333D01*
X155503428Y-84415333D01*
X155598666Y-84462952D01*
X155646285Y-84510571D01*
X155693904Y-84605809D01*
X155693904Y-84843904D01*
X155646285Y-84939142D01*
X155598666Y-84986761D01*
X155503428Y-85034380D01*
X155265333Y-85034380D01*
X155170095Y-84986761D01*
X155122476Y-84939142D01*
%TO.C,FB1*%
X106415271Y-63786833D02*
X106415271Y-64120166D01*
X106939080Y-64120166D02*
X105939080Y-64120166D01*
X105939080Y-63643976D01*
X106415271Y-62929690D02*
X106462890Y-62786833D01*
X106510509Y-62739214D01*
X106605747Y-62691595D01*
X106748604Y-62691595D01*
X106843842Y-62739214D01*
X106891461Y-62786833D01*
X106939080Y-62882071D01*
X106939080Y-63263023D01*
X105939080Y-63263023D01*
X105939080Y-62929690D01*
X105986700Y-62834452D01*
X106034319Y-62786833D01*
X106129557Y-62739214D01*
X106224795Y-62739214D01*
X106320033Y-62786833D01*
X106367652Y-62834452D01*
X106415271Y-62929690D01*
X106415271Y-63263023D01*
X106939080Y-61739214D02*
X106939080Y-62310642D01*
X106939080Y-62024928D02*
X105939080Y-62024928D01*
X106081938Y-62120166D01*
X106177176Y-62215404D01*
X106224795Y-62310642D01*
%TO.C,C4*%
X105988833Y-81129142D02*
X105941214Y-81176761D01*
X105798357Y-81224380D01*
X105703119Y-81224380D01*
X105560261Y-81176761D01*
X105465023Y-81081523D01*
X105417404Y-80986285D01*
X105369785Y-80795809D01*
X105369785Y-80652952D01*
X105417404Y-80462476D01*
X105465023Y-80367238D01*
X105560261Y-80272000D01*
X105703119Y-80224380D01*
X105798357Y-80224380D01*
X105941214Y-80272000D01*
X105988833Y-80319619D01*
X106845976Y-80557714D02*
X106845976Y-81224380D01*
X106607880Y-80176761D02*
X106369785Y-80891047D01*
X106988833Y-80891047D01*
%TO.C,L1*%
X99766380Y-73995666D02*
X99766380Y-74471857D01*
X98766380Y-74471857D01*
X99766380Y-73138523D02*
X99766380Y-73709952D01*
X99766380Y-73424238D02*
X98766380Y-73424238D01*
X98909238Y-73519476D01*
X99004476Y-73614714D01*
X99052095Y-73709952D01*
%TO.C,C21*%
X135840142Y-79639742D02*
X135792523Y-79687361D01*
X135649666Y-79734980D01*
X135554428Y-79734980D01*
X135411571Y-79687361D01*
X135316333Y-79592123D01*
X135268714Y-79496885D01*
X135221095Y-79306409D01*
X135221095Y-79163552D01*
X135268714Y-78973076D01*
X135316333Y-78877838D01*
X135411571Y-78782600D01*
X135554428Y-78734980D01*
X135649666Y-78734980D01*
X135792523Y-78782600D01*
X135840142Y-78830219D01*
X136221095Y-78830219D02*
X136268714Y-78782600D01*
X136363952Y-78734980D01*
X136602047Y-78734980D01*
X136697285Y-78782600D01*
X136744904Y-78830219D01*
X136792523Y-78925457D01*
X136792523Y-79020695D01*
X136744904Y-79163552D01*
X136173476Y-79734980D01*
X136792523Y-79734980D01*
X137744904Y-79734980D02*
X137173476Y-79734980D01*
X137459190Y-79734980D02*
X137459190Y-78734980D01*
X137363952Y-78877838D01*
X137268714Y-78973076D01*
X137173476Y-79020695D01*
D13*
%TO.C,C37*%
X194210252Y-75840000D02*
X192787748Y-75840000D01*
X194210252Y-74020000D02*
X192787748Y-74020000D01*
%TO.C,R10*%
X156885500Y-110410164D02*
X156885500Y-108956036D01*
X158705500Y-110410164D02*
X158705500Y-108956036D01*
%TO.C,C5*%
X146985500Y-71221348D02*
X146985500Y-72643852D01*
X148805500Y-71221348D02*
X148805500Y-72643852D01*
%TO.C,R5*%
X117921900Y-70068836D02*
X117921900Y-71522964D01*
X119741900Y-70068836D02*
X119741900Y-71522964D01*
%TO.C,R14*%
X124192464Y-88413000D02*
X122738336Y-88413000D01*
X124192464Y-90233000D02*
X122738336Y-90233000D01*
%TO.C,C25*%
X124348000Y-75121348D02*
X124348000Y-76543852D01*
X126168000Y-75121348D02*
X126168000Y-76543852D01*
%TO.C,C24*%
X111639300Y-85968452D02*
X111639300Y-84545948D01*
X109819300Y-85968452D02*
X109819300Y-84545948D01*
%TO.C,R12*%
X168535300Y-95191564D02*
X168535300Y-93737436D01*
X166715300Y-95191564D02*
X166715300Y-93737436D01*
%TO.C,R7*%
X106086264Y-117149200D02*
X104632136Y-117149200D01*
X106086264Y-118969200D02*
X104632136Y-118969200D01*
D14*
%TO.C,U4*%
X164800500Y-95757600D02*
X164800500Y-90457600D01*
X154600500Y-95757600D02*
X154600500Y-90457600D01*
D15*
X155195500Y-98212600D02*
G75*
G03*
X155195500Y-98212600I-100000J0D01*
G01*
D13*
%TO.C,C14*%
X147760648Y-95926200D02*
X149183152Y-95926200D01*
X147760648Y-94106200D02*
X149183152Y-94106200D01*
%TO.C,C2*%
X112477500Y-62346348D02*
X112477500Y-63768852D01*
X110657500Y-62346348D02*
X110657500Y-63768852D01*
%TO.C,J2*%
X99660100Y-56000000D02*
X99660100Y-52670000D01*
X86340100Y-56000000D02*
X86340100Y-52670000D01*
X100310100Y-40520000D02*
X85690100Y-40520000D01*
X85690100Y-40520000D02*
X85690100Y-41040000D01*
X97400100Y-56220000D02*
X95600100Y-56220000D01*
X85690100Y-41040000D02*
X86340100Y-41040000D01*
X86340100Y-49150000D02*
X86340100Y-41040000D01*
X99660100Y-41040000D02*
X100310100Y-41040000D01*
X99660100Y-56000000D02*
X86340100Y-56000000D01*
X99660100Y-41040000D02*
X99660100Y-49150000D01*
X100310100Y-41040000D02*
X100310100Y-40520000D01*
%TO.C,C16*%
X158581048Y-87629500D02*
X160003552Y-87629500D01*
X158581048Y-85809500D02*
X160003552Y-85809500D01*
%TO.C,C33*%
X167722500Y-88660852D02*
X167722500Y-87238348D01*
X165902500Y-88660852D02*
X165902500Y-87238348D01*
%TO.C,R19*%
X176447564Y-72972600D02*
X174993436Y-72972600D01*
X176447564Y-74792600D02*
X174993436Y-74792600D01*
%TO.C,R17*%
X138106100Y-94124764D02*
X138106100Y-92670636D01*
X136286100Y-94124764D02*
X136286100Y-92670636D01*
%TO.C,U7*%
X187520500Y-81630100D02*
X185570500Y-81630100D01*
X187520500Y-76510100D02*
X189470500Y-76510100D01*
X187520500Y-81630100D02*
X190970500Y-81630100D01*
X187520500Y-76510100D02*
X185570500Y-76510100D01*
%TO.C,R2*%
X117186064Y-78761000D02*
X115731936Y-78761000D01*
X117186064Y-80581000D02*
X115731936Y-80581000D01*
%TO.C,C9*%
X128765048Y-88074000D02*
X130187552Y-88074000D01*
X128765048Y-86254000D02*
X130187552Y-86254000D01*
%TO.C,C1*%
X105628300Y-74440652D02*
X105628300Y-73018148D01*
X107448300Y-74440652D02*
X107448300Y-73018148D01*
%TO.C,C13*%
X131657048Y-105346000D02*
X133079552Y-105346000D01*
X131657048Y-103526000D02*
X133079552Y-103526000D01*
%TO.C,C22*%
X132694000Y-82818852D02*
X132694000Y-81396348D01*
X134514000Y-82818852D02*
X134514000Y-81396348D01*
%TO.C,C6*%
X114839700Y-91052052D02*
X114839700Y-89629548D01*
X113019700Y-91052052D02*
X113019700Y-89629548D01*
%TO.C,C17*%
X145659248Y-82147600D02*
X147081752Y-82147600D01*
X145659248Y-83967600D02*
X147081752Y-83967600D01*
%TO.C,C19*%
X115553552Y-101062200D02*
X114131048Y-101062200D01*
X115553552Y-102882200D02*
X114131048Y-102882200D01*
%TO.C,C26*%
X174644500Y-113564348D02*
X174644500Y-114986852D01*
X176464500Y-113564348D02*
X176464500Y-114986852D01*
%TO.C,C11*%
X115578952Y-95220200D02*
X114156448Y-95220200D01*
X115578952Y-97040200D02*
X114156448Y-97040200D01*
%TO.C,C29*%
X162089848Y-101663000D02*
X163512352Y-101663000D01*
X162089848Y-99843000D02*
X163512352Y-99843000D01*
%TO.C,J1*%
X88802500Y-99924000D02*
X88802500Y-99859000D01*
X92332500Y-93519000D02*
X92332500Y-93454000D01*
X93657500Y-99859000D02*
X92332500Y-99859000D01*
X92332500Y-99924000D02*
X88802500Y-99924000D01*
X92332500Y-93454000D02*
X88802500Y-93454000D01*
X88802500Y-93519000D02*
X88802500Y-93454000D01*
X92332500Y-99924000D02*
X92332500Y-99859000D01*
%TO.C,R8*%
X84693136Y-76017800D02*
X86147264Y-76017800D01*
X84693136Y-77837800D02*
X86147264Y-77837800D01*
%TO.C,U3*%
X147220500Y-76197600D02*
X145270500Y-76197600D01*
X147220500Y-81317600D02*
X145270500Y-81317600D01*
X147220500Y-76197600D02*
X149170500Y-76197600D01*
X147220500Y-81317600D02*
X150670500Y-81317600D01*
%TO.C,Y1*%
X117893300Y-87176600D02*
X117893300Y-83876600D01*
X117893300Y-83876600D02*
X113893300Y-83876600D01*
%TO.C,C7*%
X117134500Y-91048452D02*
X117134500Y-89625948D01*
X118954500Y-91048452D02*
X118954500Y-89625948D01*
%TO.C,U1*%
X113950500Y-73696700D02*
X113950500Y-74496700D01*
X110830500Y-73696700D02*
X110830500Y-75496700D01*
X110830500Y-73696700D02*
X110830500Y-72896700D01*
X113950500Y-73696700D02*
X113950500Y-72896700D01*
%TO.C,J4*%
X165980500Y-44727600D02*
X167480500Y-44727600D01*
X177900500Y-64167600D02*
X176000500Y-64167600D01*
X179300500Y-64167600D02*
X181200500Y-64167600D01*
X172180500Y-64167600D02*
X173600500Y-64167600D01*
X191520500Y-44727600D02*
X191520500Y-51317600D01*
X169380500Y-51317600D02*
X169380500Y-56967600D01*
X172180500Y-56967600D02*
X169380500Y-56967600D01*
X183600500Y-64167600D02*
X185020500Y-64167600D01*
X185020500Y-56967600D02*
X185020500Y-64167600D01*
X191520500Y-51317600D02*
X187820500Y-51317600D01*
X172180500Y-56967600D02*
X172180500Y-64167600D01*
X189720500Y-44727600D02*
X189720500Y-42027600D01*
X187820500Y-51317600D02*
X187820500Y-56967600D01*
X167480500Y-42027600D02*
X189720500Y-42027600D01*
X185020500Y-56967600D02*
X187820500Y-56967600D01*
X189720500Y-44727600D02*
X191520500Y-44727600D01*
X167480500Y-44727600D02*
X167480500Y-42027600D01*
X165980500Y-44727600D02*
X165980500Y-51317600D01*
X169380500Y-51317600D02*
X165980500Y-51317600D01*
%TO.C,R9*%
X160695500Y-110410164D02*
X160695500Y-108956036D01*
X162515500Y-110410164D02*
X162515500Y-108956036D01*
%TO.C,J3*%
X132960500Y-56967600D02*
X132960500Y-64167600D01*
X126760500Y-44727600D02*
X126760500Y-51317600D01*
X144380500Y-64167600D02*
X145800500Y-64167600D01*
X145800500Y-56967600D02*
X145800500Y-64167600D01*
X150500500Y-44727600D02*
X150500500Y-42027600D01*
X150500500Y-44727600D02*
X152300500Y-44727600D01*
X152300500Y-51317600D02*
X148600500Y-51317600D01*
X148600500Y-51317600D02*
X148600500Y-56967600D01*
X130160500Y-51317600D02*
X130160500Y-56967600D01*
X128260500Y-44727600D02*
X128260500Y-42027600D01*
X128260500Y-42027600D02*
X150500500Y-42027600D01*
X152300500Y-44727600D02*
X152300500Y-51317600D01*
X138680500Y-64167600D02*
X136780500Y-64167600D01*
X145800500Y-56967600D02*
X148600500Y-56967600D01*
X126760500Y-44727600D02*
X128260500Y-44727600D01*
X132960500Y-64167600D02*
X134380500Y-64167600D01*
X130160500Y-51317600D02*
X126760500Y-51317600D01*
X132960500Y-56967600D02*
X130160500Y-56967600D01*
X140080500Y-64167600D02*
X141980500Y-64167600D01*
%TO.C,C36*%
X149646500Y-88562852D02*
X149646500Y-87140348D01*
X151466500Y-88562852D02*
X151466500Y-87140348D01*
%TO.C,D3*%
X108840000Y-116924200D02*
X108840000Y-119194200D01*
X108840000Y-119194200D02*
X112725000Y-119194200D01*
X112725000Y-116924200D02*
X108840000Y-116924200D01*
%TO.C,Y2*%
X172974500Y-113610600D02*
X172974500Y-109610600D01*
X169674500Y-113610600D02*
X172974500Y-113610600D01*
%TO.C,U6*%
X126998000Y-76832600D02*
X126998000Y-74882600D01*
X132118000Y-76832600D02*
X132118000Y-74882600D01*
X132118000Y-76832600D02*
X132118000Y-78782600D01*
X126998000Y-76832600D02*
X126998000Y-80282600D01*
%TO.C,C10*%
X128790448Y-90614000D02*
X130212952Y-90614000D01*
X128790448Y-88794000D02*
X130212952Y-88794000D01*
%TO.C,C30*%
X162089848Y-105727000D02*
X163512352Y-105727000D01*
X162089848Y-103907000D02*
X163512352Y-103907000D01*
%TO.C,D2*%
X110362100Y-69418800D02*
X106462100Y-69418800D01*
X110362100Y-69418800D02*
X110362100Y-67418800D01*
X110362100Y-67418800D02*
X106462100Y-67418800D01*
%TO.C,D1*%
X103808900Y-67876000D02*
X99908900Y-67876000D01*
X103808900Y-69876000D02*
X103808900Y-67876000D01*
X103808900Y-69876000D02*
X99908900Y-69876000D01*
%TO.C,R16*%
X185430500Y-71580536D02*
X185430500Y-73034664D01*
X183610500Y-71580536D02*
X183610500Y-73034664D01*
%TO.C,R3*%
X112029864Y-78786400D02*
X110575736Y-78786400D01*
X112029864Y-80606400D02*
X110575736Y-80606400D01*
%TO.C,C18*%
X141410500Y-81718852D02*
X141410500Y-80296348D01*
X143230500Y-81718852D02*
X143230500Y-80296348D01*
%TO.C,L3*%
X144100500Y-97422842D02*
X144100500Y-95752358D01*
X142280500Y-97422842D02*
X142280500Y-95752358D01*
%TO.C,C20*%
X129400048Y-106024000D02*
X130822552Y-106024000D01*
X129400048Y-107844000D02*
X130822552Y-107844000D01*
%TO.C,C41*%
X172318000Y-83007252D02*
X172318000Y-81584748D01*
X174138000Y-83007252D02*
X174138000Y-81584748D01*
%TO.C,C27*%
X165754500Y-113306348D02*
X165754500Y-114728852D01*
X167574500Y-113306348D02*
X167574500Y-114728852D01*
%TO.C,R15*%
X164732936Y-109600600D02*
X166187064Y-109600600D01*
X164732936Y-111420600D02*
X166187064Y-111420600D01*
%TO.C,C34*%
X173310500Y-88660852D02*
X173310500Y-87238348D01*
X171490500Y-88660852D02*
X171490500Y-87238348D01*
%TO.C,C15*%
X147764248Y-101158600D02*
X149186752Y-101158600D01*
X147764248Y-99338600D02*
X149186752Y-99338600D01*
%TO.C,C38*%
X185834248Y-84480100D02*
X187256752Y-84480100D01*
X185834248Y-82660100D02*
X187256752Y-82660100D01*
%TO.C,C32*%
X160003552Y-83396500D02*
X158581048Y-83396500D01*
X160003552Y-85216500D02*
X158581048Y-85216500D01*
%TO.C,C39*%
X183530500Y-81931352D02*
X183530500Y-80508848D01*
X181710500Y-81931352D02*
X181710500Y-80508848D01*
%TO.C,C23*%
X121951700Y-84549548D02*
X121951700Y-85972052D01*
X120131700Y-84549548D02*
X120131700Y-85972052D01*
%TO.C,F1*%
X102326300Y-62581336D02*
X102326300Y-63785464D01*
X104146300Y-62581336D02*
X104146300Y-63785464D01*
%TO.C,U8*%
X171680500Y-76812600D02*
X171680500Y-78762600D01*
X166560500Y-76812600D02*
X166560500Y-74862600D01*
X166560500Y-76812600D02*
X166560500Y-80262600D01*
X171680500Y-76812600D02*
X171680500Y-74862600D01*
%TO.C,C42*%
X165630500Y-75196348D02*
X165630500Y-76618852D01*
X163810500Y-75196348D02*
X163810500Y-76618852D01*
%TO.C,R13*%
X137272564Y-72922600D02*
X135818436Y-72922600D01*
X137272564Y-74742600D02*
X135818436Y-74742600D01*
%TO.C,R18*%
X134296100Y-94103364D02*
X134296100Y-92649236D01*
X132476100Y-94103364D02*
X132476100Y-92649236D01*
%TO.C,C12*%
X116753500Y-104844148D02*
X116753500Y-106266652D01*
X118573500Y-104844148D02*
X118573500Y-106266652D01*
%TO.C,R6*%
X145280500Y-71205536D02*
X145280500Y-72659664D01*
X143460500Y-71205536D02*
X143460500Y-72659664D01*
%TO.C,C3*%
X98990100Y-76599348D02*
X98990100Y-78021852D01*
X97170100Y-76599348D02*
X97170100Y-78021852D01*
%TO.C,C8*%
X154635252Y-76167600D02*
X153212748Y-76167600D01*
X154635252Y-74347600D02*
X153212748Y-74347600D01*
%TO.C,SW1*%
X75138900Y-74816600D02*
X74928900Y-75016600D01*
X75138900Y-76116600D02*
X76428900Y-76116600D01*
X75138900Y-76116600D02*
X74928900Y-75916600D01*
X79278900Y-77616600D02*
X79278900Y-77816600D01*
X77438900Y-79666600D02*
X78228900Y-79666600D01*
X74928900Y-75016600D02*
X74928900Y-75916600D01*
X76428900Y-74816600D02*
X75138900Y-74816600D01*
X78228900Y-72766600D02*
X77438900Y-72766600D01*
X76428900Y-73366600D02*
X76428900Y-79066600D01*
X79278900Y-74616600D02*
X79278900Y-76316600D01*
%TO.C,C31*%
X187510500Y-71583848D02*
X187510500Y-73006352D01*
X189330500Y-71583848D02*
X189330500Y-73006352D01*
%TO.C,R4*%
X113141136Y-70548200D02*
X114595264Y-70548200D01*
X113141136Y-68728200D02*
X114595264Y-68728200D01*
%TO.C,U5*%
X119182900Y-103033400D02*
X119182900Y-103983400D01*
X129402900Y-103983400D02*
X128452900Y-103983400D01*
X119182900Y-93763400D02*
X120132900Y-93763400D01*
X119182900Y-103983400D02*
X120132900Y-103983400D01*
X119182900Y-94713400D02*
X119182900Y-93763400D01*
X129402900Y-93763400D02*
X128452900Y-93763400D01*
X129402900Y-94713400D02*
X129402900Y-93763400D01*
X128452900Y-93763400D02*
X128452900Y-92423400D01*
X129402900Y-103033400D02*
X129402900Y-103983400D01*
%TO.C,C40*%
X176456752Y-76972600D02*
X175034248Y-76972600D01*
X176456752Y-78792600D02*
X175034248Y-78792600D01*
%TO.C,R1*%
X117287664Y-76441000D02*
X115833536Y-76441000D01*
X117287664Y-74621000D02*
X115833536Y-74621000D01*
%TO.C,C28*%
X126671748Y-72842600D02*
X128094252Y-72842600D01*
X126671748Y-71022600D02*
X128094252Y-71022600D01*
%TO.C,R11*%
X153075500Y-110410164D02*
X153075500Y-108956036D01*
X154895500Y-110410164D02*
X154895500Y-108956036D01*
%TO.C,C43*%
X166209248Y-72842600D02*
X167631752Y-72842600D01*
X166209248Y-71022600D02*
X167631752Y-71022600D01*
%TO.C,U2*%
X94560100Y-67575100D02*
X94560100Y-65775100D01*
X91440100Y-67575100D02*
X91440100Y-68375100D01*
X94560100Y-67575100D02*
X94560100Y-68375100D01*
X91440100Y-67575100D02*
X91440100Y-66775100D01*
%TO.C,C35*%
X154006500Y-88562852D02*
X154006500Y-87140348D01*
X152186500Y-88562852D02*
X152186500Y-87140348D01*
%TO.C,FB1*%
X108546100Y-63378522D02*
X108546100Y-62579278D01*
X107426100Y-63378522D02*
X107426100Y-62579278D01*
%TO.C,C4*%
X105444248Y-77745000D02*
X106866752Y-77745000D01*
X105444248Y-79565000D02*
X106866752Y-79565000D01*
%TO.C,L1*%
X102266700Y-72993758D02*
X102266700Y-74664242D01*
X100446700Y-72993758D02*
X100446700Y-74664242D01*
%TO.C,C21*%
X137194252Y-76522600D02*
X135771748Y-76522600D01*
X137194252Y-78342600D02*
X135771748Y-78342600D01*
%TD*%
M02*
