M48
; DRILL file {KiCad (5.99.0-9519-ga70106a3bd)} date 04/02/21 22:42:12
; FORMAT={-:-/ absolute / inch / decimal}
; #@! TF.CreationDate,2021-04-02T22:42:12-07:00
; #@! TF.GenerationSoftware,Kicad,Pcbnew,(5.99.0-9519-ga70106a3bd)
; #@! TF.FileFunction,Plated,1,4,PTH
FMAT,2
INCH
T1C0.0157
T2C0.0374
T3C0.0472
T4C0.0630
T5C0.0906
%
G90
G05
T1
X3.2294Y-2.9117
X3.536Y-2.663
X3.5714Y-3.0307
X3.7434Y-3.0307
X3.7638Y-3.6024
X3.7638Y-3.7047
X3.7814Y-3.9057
X3.7984Y-2.6607
X3.8071Y-3.6024
X3.8071Y-3.7047
X3.8504Y-3.6024
X3.8504Y-3.7047
X3.858Y-2.914
X3.8937Y-3.6024
X3.8937Y-3.7047
X3.937Y-3.6024
X3.937Y-3.7047
X3.9803Y-3.6024
X3.9803Y-3.7047
X4.0074Y-3.0237
X4.0354Y-3.6587
X4.1339Y-3.2677
X4.1575Y-3.8307
X4.1575Y-3.878
X4.1575Y-3.9252
X4.1575Y-3.9724
X4.1772Y-3.2677
X4.2205Y-3.2677
X4.2638Y-3.2677
X4.2734Y-3.6147
X4.2992Y-3.0157
X4.3425Y-3.0157
X4.3858Y-3.0157
X4.4094Y-3.8543
X4.4094Y-3.8976
X4.4094Y-3.9409
X4.429Y-4.265
X4.4291Y-3.0157
X4.43Y-4.516
X4.49Y-4.1
X4.542Y-3.706
X4.5934Y-3.6767
X4.6Y-3.87
X4.6464Y-3.0437
X4.752Y-3.7953
X4.7559Y-2.878
X4.7559Y-2.9213
X4.7559Y-2.9646
X4.7559Y-3.0079
X4.7953Y-3.5827
X4.8346Y-3.6024
X4.9334Y-3.1115
X4.9909Y-3.558
X5.03Y-3.77
X5.0374Y-3.3637
X5.0874Y-2.7407
X5.1033Y-3.29
X5.1248Y-3.6692
X5.212Y-4.108
X5.2384Y-3.5067
X5.24Y-4.18
X5.24Y-4.22
X5.24Y-4.26
X5.2405Y-2.891
X5.28Y-4.18
X5.28Y-4.22
X5.3124Y-3.931
X5.32Y-4.18
X5.3425Y-3.4488
X5.3474Y-3.1807
X5.38Y-3.29
X5.4014Y-3.5027
X5.4074Y-3.8067
X5.4154Y-3.8847
X5.4424Y-4.0295
X5.4449Y-3.3504
X5.4764Y-3.3819
X5.5039Y-3.4134
X5.5354Y-3.4449
X5.5474Y-3.0407
X5.5669Y-3.4764
X5.5984Y-3.5079
X5.6Y-3.39
X5.6299Y-3.5394
X5.63Y-3.42
X5.6374Y-3.9347
X5.6575Y-3.5709
X5.6612Y-3.4563
X5.6652Y-2.9629
X5.6935Y-3.4886
X5.7594Y-3.6587
X5.7874Y-3.5207
X5.8935Y-3.27
X5.9173Y-2.8898
X5.9252Y-3.2283
X5.9567Y-3.6575
X5.9764Y-3.0827
X5.9882Y-2.7283
X5.9882Y-2.815
X5.9882Y-3.2795
X5.9961Y-3.6575
X6.0197Y-3.248
X6.0236Y-3.0827
X6.0354Y-3.6575
X6.0394Y-2.7283
X6.0394Y-2.815
X6.0551Y-3.2126
X6.0787Y-3.0827
X6.0906Y-2.7283
X6.0906Y-2.815
X6.0945Y-3.1693
X6.1102Y-3.6693
X6.122Y-3.374
X6.122Y-3.4134
X6.1535Y-3.6693
X6.1614Y-3.374
X6.1614Y-3.4134
X6.163Y-4.032
X6.1969Y-3.6693
X6.2402Y-3.6299
X6.2402Y-3.6693
X6.2835Y-3.6299
X6.2835Y-3.6693
X6.304Y-4.034
X6.3071Y-3.8858
X6.3194Y-3.2192
X6.3268Y-3.6299
X6.3268Y-3.6693
X6.3514Y-4.1847
X6.3661Y-3.685
X6.3858Y-3.4567
X6.3937Y-3.878
X6.43Y-3.46
X6.4331Y-3.878
X6.4646Y-3.6496
X6.4724Y-3.878
X6.4851Y-3.1253
X6.5236Y-3.6496
X6.5236Y-3.815
X6.5236Y-3.8543
X6.6474Y-2.7407
X6.6693Y-3.3071
X6.6693Y-3.3898
X6.67Y-3.24
X6.7126Y-3.3898
X6.8Y-2.8891
X6.82Y-3.88
X6.82Y-3.92
X6.82Y-3.96
X6.82Y-4.0
X6.82Y-4.04
X6.82Y-4.08
X6.82Y-4.12
X6.86Y-3.88
X6.86Y-3.92
X6.86Y-3.96
X6.86Y-4.0
X6.86Y-4.04
X6.86Y-4.08
X6.86Y-4.12
X6.8661Y-3.3819
X6.8674Y-3.5407
X6.9Y-3.88
X6.9Y-3.92
X6.9Y-3.96
X6.9Y-4.0
X6.9Y-4.04
X6.9Y-4.08
X6.9Y-4.12
X6.9074Y-3.1807
X6.9116Y-4.3958
X6.9252Y-3.3819
X6.94Y-3.24
X6.94Y-3.311
X6.94Y-3.88
X6.94Y-3.92
X6.94Y-3.96
X6.94Y-4.0
X6.94Y-4.04
X6.94Y-4.08
X6.94Y-4.12
X6.98Y-3.88
X6.98Y-3.92
X6.98Y-3.96
X6.98Y-4.0
X6.98Y-4.04
X6.98Y-4.08
X6.98Y-4.12
X6.9882Y-3.3543
X6.9882Y-3.4055
X6.9882Y-3.4567
X6.9882Y-3.5079
X6.9882Y-3.5591
X7.0787Y-3.3543
X7.0787Y-3.4055
X7.0787Y-3.4567
X7.0787Y-3.5079
X7.0787Y-3.5591
X7.1074Y-3.1007
X7.2449Y-2.9752
X7.4811Y-3.2902
X7.5274Y-2.8807
X7.5748Y-2.8307
X7.5787Y-2.7402
X7.6654Y-2.7402
X7.6654Y-2.8307
T2
X3.5236Y-2.111
X3.6221Y-2.111
X3.7008Y-2.111
X3.7992Y-2.111
T3
X5.4874Y-2.2657
X5.4874Y-2.4657
X7.0315Y-2.2657
X7.0315Y-2.4657
T4
X5.3374Y-2.4657
X5.6374Y-2.4657
X6.8815Y-2.4657
X7.1815Y-2.4657
T5
X3.4028Y-2.0043
X3.9201Y-2.0043
T0
M30
