%TF.GenerationSoftware,KiCad,Pcbnew,(5.99.0-9519-ga70106a3bd)*%
%TF.CreationDate,2021-04-02T22:42:04-07:00*%
%TF.ProjectId,UsbSound,55736253-6f75-46e6-942e-6b696361645f,rev?*%
%TF.SameCoordinates,Original*%
%TF.FileFunction,Copper,L2,Inr*%
%TF.FilePolarity,Positive*%
%FSLAX46Y46*%
G04 Gerber Fmt 4.6, Leading zero omitted, Abs format (unit mm)*
G04 Created by KiCad (PCBNEW (5.99.0-9519-ga70106a3bd)) date 2021-04-02 22:42:04*
%MOMM*%
%LPD*%
G01*
G04 APERTURE LIST*
%TA.AperFunction,ComponentPad*%
%ADD10R,1.600000X1.500000*%
%TD*%
%TA.AperFunction,ComponentPad*%
%ADD11C,1.600000*%
%TD*%
%TA.AperFunction,ComponentPad*%
%ADD12C,3.000000*%
%TD*%
%TA.AperFunction,ComponentPad*%
%ADD13C,3.400000*%
%TD*%
%TA.AperFunction,ComponentPad*%
%ADD14C,2.900000*%
%TD*%
%TA.AperFunction,ViaPad*%
%ADD15C,0.800000*%
%TD*%
G04 APERTURE END LIST*
D10*
%TO.N,+5V*%
%TO.C,J2*%
X96500100Y-53620000D03*
D11*
%TO.N,USB_CONN_D-*%
X94000100Y-53620000D03*
%TO.N,USB_CONN_D+*%
X92000100Y-53620000D03*
%TO.N,unconnected-(J2-Pad4)*%
X89500100Y-53620000D03*
D12*
%TO.N,GND*%
X86430100Y-50910000D03*
X99570100Y-50910000D03*
%TD*%
D13*
%TO.N,GND*%
%TO.C,J4*%
X182410500Y-62627600D03*
%TO.N,XLR_R+*%
X174790500Y-62627600D03*
D14*
%TO.N,XLR_R-*%
X178600500Y-62627600D03*
%TO.N,N/C*%
X178600500Y-57547600D03*
%TD*%
D13*
%TO.N,GND*%
%TO.C,J3*%
X143190500Y-62627600D03*
%TO.N,XLR_L+*%
X135570500Y-62627600D03*
D14*
%TO.N,XLR_L-*%
X139380500Y-62627600D03*
%TO.N,N/C*%
X139380500Y-57547600D03*
%TD*%
D15*
%TO.N,GND*%
X143000000Y-89900000D03*
X175260000Y-98552000D03*
X127762000Y-95758000D03*
X177292000Y-102616000D03*
X97800000Y-94100000D03*
X173228000Y-102616000D03*
X177292000Y-104648000D03*
X112000000Y-100100000D03*
X158500000Y-93200000D03*
X98900000Y-91500000D03*
X142200000Y-89100000D03*
X133096000Y-108204000D03*
X177500000Y-85200000D03*
X174244000Y-102616000D03*
X153400000Y-71500000D03*
X169400000Y-84000000D03*
X112000000Y-97900000D03*
X136652000Y-83566000D03*
X179800000Y-86500000D03*
X112500000Y-76600000D03*
X141400000Y-88300000D03*
X159600000Y-92200000D03*
X165700000Y-92700000D03*
X152100000Y-71500000D03*
X150500000Y-82000000D03*
X175260000Y-102616000D03*
X176276000Y-99568000D03*
X160200000Y-98700000D03*
X175900000Y-85900000D03*
X133096000Y-107188000D03*
X135700000Y-87600000D03*
X174400000Y-85900000D03*
X175260000Y-104648000D03*
X175260000Y-100584000D03*
X153300000Y-92900000D03*
X173228000Y-103632000D03*
X155500000Y-85700000D03*
X154800000Y-80500000D03*
X144615094Y-88610906D03*
X143002000Y-86868000D03*
X143795047Y-87790858D03*
X151300000Y-92900000D03*
X137196100Y-88967400D03*
X152100000Y-83300000D03*
X177500000Y-89100000D03*
X96700000Y-91500000D03*
X122800000Y-91500000D03*
X140600000Y-87500000D03*
X134112000Y-107188000D03*
X176276000Y-100584000D03*
X175260000Y-101600000D03*
X107200000Y-83000000D03*
X169400000Y-86100000D03*
X154400000Y-78300000D03*
X110300000Y-76600000D03*
X153400000Y-69300000D03*
X192500000Y-69600000D03*
X109200000Y-76600000D03*
X177292000Y-98552000D03*
X105600000Y-99700000D03*
X89814400Y-67640200D03*
X154700000Y-69300000D03*
X164200000Y-92700000D03*
X139100000Y-85900000D03*
X173228000Y-100584000D03*
X160700000Y-93200000D03*
X175260000Y-103632000D03*
X179800000Y-89100000D03*
X133055900Y-89069000D03*
X95600000Y-94100000D03*
X156500000Y-85700000D03*
X177292000Y-100584000D03*
X152300000Y-92900000D03*
X105600000Y-100900000D03*
X176276000Y-104648000D03*
X176276000Y-101600000D03*
X143700000Y-90700000D03*
X129623000Y-83566000D03*
X165700000Y-97900000D03*
X98900000Y-94100000D03*
X155500000Y-86700000D03*
X165700000Y-96900000D03*
X164400000Y-98500000D03*
X95600000Y-91500000D03*
X176276000Y-84100000D03*
X106100000Y-83000000D03*
X120700000Y-96400000D03*
X173228000Y-98552000D03*
X135128000Y-106172000D03*
X120800000Y-73100000D03*
X105000000Y-83000000D03*
X152100000Y-69300000D03*
X177292000Y-99568000D03*
X120800000Y-75300000D03*
X169418000Y-82296000D03*
X177500000Y-87800000D03*
X157400000Y-93200000D03*
X174244000Y-103632000D03*
X111400000Y-76600000D03*
X179800000Y-85200000D03*
X174244000Y-98552000D03*
X121800000Y-91000000D03*
X96700000Y-94100000D03*
X176276000Y-98552000D03*
X154700000Y-71500000D03*
X177500000Y-86500000D03*
X97800000Y-91500000D03*
X176276000Y-102616000D03*
X163322000Y-87884000D03*
X163400000Y-98500000D03*
X156500000Y-86700000D03*
X176276000Y-103632000D03*
X176276000Y-82296000D03*
X173228000Y-101600000D03*
X192400000Y-71900000D03*
X194700000Y-69600000D03*
X112000000Y-99000000D03*
X160700000Y-92200000D03*
X156300000Y-93200000D03*
X174244000Y-99568000D03*
X108300000Y-83000000D03*
X173228000Y-99568000D03*
X152900000Y-82500000D03*
X120800000Y-74200000D03*
X173228000Y-104648000D03*
X101100000Y-94100000D03*
X179800000Y-87800000D03*
X120800000Y-76400000D03*
X100000000Y-91500000D03*
X138300000Y-85100000D03*
X139800000Y-86700000D03*
X179800000Y-90400000D03*
X105600000Y-98500000D03*
X174244000Y-104648000D03*
X134112000Y-106172000D03*
X174244000Y-100584000D03*
X174244000Y-101600000D03*
X153800000Y-81600000D03*
X151800000Y-78300000D03*
X161700000Y-93600000D03*
X155200000Y-93200000D03*
X162200000Y-87800000D03*
X162400000Y-98500000D03*
X159600000Y-93200000D03*
X177500000Y-90400000D03*
X153000000Y-78300000D03*
X101100000Y-91500000D03*
X133096000Y-106172000D03*
X142240000Y-86106000D03*
X158500000Y-92200000D03*
X175260000Y-99568000D03*
X170500000Y-86100000D03*
X105600000Y-97300000D03*
X100000000Y-94100000D03*
X177292000Y-101600000D03*
X194700000Y-71900000D03*
X177292000Y-103632000D03*
%TO.N,+3V3*%
X127950500Y-85436800D03*
X161326100Y-106290200D03*
X132384800Y-104343200D03*
X114046000Y-104140000D03*
X156540200Y-102412800D03*
X115366800Y-94132400D03*
X96048100Y-99203600D03*
X101788500Y-76801000D03*
X108544900Y-91812200D03*
X126767900Y-90373200D03*
X175554500Y-111653600D03*
X130169200Y-93198400D03*
X97993200Y-74015600D03*
X160121600Y-102463600D03*
X82027300Y-73956000D03*
X118019100Y-77309000D03*
X116840000Y-98298000D03*
%TO.N,Net-(C17-Pad2)*%
X143895500Y-75257600D03*
X149695500Y-83057600D03*
%TO.N,+5VA*%
X175448500Y-80788600D03*
X191196500Y-73168600D03*
X147000500Y-89424600D03*
X135824500Y-80788600D03*
X174432500Y-89932600D03*
X150300000Y-73400000D03*
X146289300Y-92929800D03*
X160513300Y-81766500D03*
%TO.N,-5VA*%
X168844500Y-69612600D03*
X129220500Y-69612600D03*
X180528500Y-78756600D03*
X140904500Y-77232600D03*
%TO.N,Net-(C25-Pad2)*%
X125308000Y-79032600D03*
X133108000Y-73432600D03*
%TO.N,Net-(C42-Pad2)*%
X164720500Y-79382600D03*
X172720500Y-73382600D03*
%TO.N,Net-(C38-Pad2)*%
X184020500Y-75570100D03*
X190020500Y-83570100D03*
%TO.N,LED_STATUS*%
X112522000Y-114706400D03*
X112496600Y-108331000D03*
%TO.N,+5V*%
X143190500Y-99940200D03*
X96479900Y-67580600D03*
%TO.N,NRST*%
X116672900Y-93387000D03*
X102499700Y-92929800D03*
%TO.N,SWO*%
X138237500Y-102348400D03*
X134935500Y-99848400D03*
%TO.N,BOOT0*%
X95082900Y-76978600D03*
X90714100Y-76978600D03*
%TO.N,I2C1_SCL*%
X137551700Y-98670200D03*
X137348500Y-96689000D03*
%TD*%
%TA.AperFunction,Conductor*%
%TO.N,GND*%
G36*
X197300121Y-41980802D02*
G01*
X197346614Y-42034458D01*
X197358000Y-42086800D01*
X197358000Y-120625600D01*
X197337998Y-120693721D01*
X197284342Y-120740214D01*
X197232000Y-120751600D01*
X76859400Y-120751600D01*
X76791279Y-120731598D01*
X76744786Y-120677942D01*
X76733400Y-120625600D01*
X76733400Y-114706400D01*
X111608500Y-114706400D01*
X111628462Y-114896327D01*
X111687476Y-115077954D01*
X111782963Y-115243342D01*
X111910749Y-115385263D01*
X111916091Y-115389144D01*
X111916093Y-115389146D01*
X112059908Y-115493633D01*
X112065250Y-115497514D01*
X112071278Y-115500198D01*
X112071280Y-115500199D01*
X112233682Y-115572505D01*
X112239713Y-115575190D01*
X112333113Y-115595043D01*
X112420056Y-115613524D01*
X112420061Y-115613524D01*
X112426513Y-115614896D01*
X112617487Y-115614896D01*
X112623939Y-115613524D01*
X112623944Y-115613524D01*
X112710887Y-115595043D01*
X112804287Y-115575190D01*
X112810318Y-115572505D01*
X112972720Y-115500199D01*
X112972722Y-115500198D01*
X112978750Y-115497514D01*
X112984092Y-115493633D01*
X113127907Y-115389146D01*
X113127909Y-115389144D01*
X113133251Y-115385263D01*
X113261037Y-115243342D01*
X113356524Y-115077954D01*
X113415538Y-114896327D01*
X113435500Y-114706400D01*
X113415538Y-114516473D01*
X113356524Y-114334846D01*
X113261037Y-114169458D01*
X113133251Y-114027537D01*
X113127909Y-114023656D01*
X113127907Y-114023654D01*
X112984092Y-113919167D01*
X112984091Y-113919166D01*
X112978750Y-113915286D01*
X112972722Y-113912602D01*
X112972720Y-113912601D01*
X112810318Y-113840295D01*
X112810317Y-113840295D01*
X112804287Y-113837610D01*
X112710887Y-113817757D01*
X112623944Y-113799276D01*
X112623939Y-113799276D01*
X112617487Y-113797904D01*
X112426513Y-113797904D01*
X112420061Y-113799276D01*
X112420056Y-113799276D01*
X112333113Y-113817757D01*
X112239713Y-113837610D01*
X112233683Y-113840295D01*
X112233682Y-113840295D01*
X112071280Y-113912601D01*
X112071278Y-113912602D01*
X112065250Y-113915286D01*
X112059909Y-113919166D01*
X112059908Y-113919167D01*
X111916093Y-114023654D01*
X111916091Y-114023656D01*
X111910749Y-114027537D01*
X111782963Y-114169458D01*
X111687476Y-114334846D01*
X111628462Y-114516473D01*
X111608500Y-114706400D01*
X76733400Y-114706400D01*
X76733400Y-111653600D01*
X174641000Y-111653600D01*
X174660962Y-111843527D01*
X174719976Y-112025154D01*
X174815463Y-112190542D01*
X174943249Y-112332463D01*
X174948591Y-112336344D01*
X174948593Y-112336346D01*
X175092408Y-112440833D01*
X175097750Y-112444714D01*
X175103778Y-112447398D01*
X175103780Y-112447399D01*
X175266182Y-112519705D01*
X175272213Y-112522390D01*
X175365613Y-112542243D01*
X175452556Y-112560724D01*
X175452561Y-112560724D01*
X175459013Y-112562096D01*
X175649987Y-112562096D01*
X175656439Y-112560724D01*
X175656444Y-112560724D01*
X175743387Y-112542243D01*
X175836787Y-112522390D01*
X175842818Y-112519705D01*
X176005220Y-112447399D01*
X176005222Y-112447398D01*
X176011250Y-112444714D01*
X176016592Y-112440833D01*
X176160407Y-112336346D01*
X176160409Y-112336344D01*
X176165751Y-112332463D01*
X176293537Y-112190542D01*
X176389024Y-112025154D01*
X176448038Y-111843527D01*
X176468000Y-111653600D01*
X176448038Y-111463673D01*
X176389024Y-111282046D01*
X176293537Y-111116658D01*
X176165751Y-110974737D01*
X176160409Y-110970856D01*
X176160407Y-110970854D01*
X176016592Y-110866367D01*
X176016591Y-110866366D01*
X176011250Y-110862486D01*
X176005222Y-110859802D01*
X176005220Y-110859801D01*
X175842818Y-110787495D01*
X175842817Y-110787495D01*
X175836787Y-110784810D01*
X175743387Y-110764957D01*
X175656444Y-110746476D01*
X175656439Y-110746476D01*
X175649987Y-110745104D01*
X175459013Y-110745104D01*
X175452561Y-110746476D01*
X175452556Y-110746476D01*
X175365613Y-110764957D01*
X175272213Y-110784810D01*
X175266183Y-110787495D01*
X175266182Y-110787495D01*
X175103780Y-110859801D01*
X175103778Y-110859802D01*
X175097750Y-110862486D01*
X175092409Y-110866366D01*
X175092408Y-110866367D01*
X174948593Y-110970854D01*
X174948591Y-110970856D01*
X174943249Y-110974737D01*
X174815463Y-111116658D01*
X174719976Y-111282046D01*
X174660962Y-111463673D01*
X174641000Y-111653600D01*
X76733400Y-111653600D01*
X76733400Y-108331000D01*
X111583100Y-108331000D01*
X111603062Y-108520927D01*
X111662076Y-108702554D01*
X111757563Y-108867942D01*
X111885349Y-109009863D01*
X111890691Y-109013744D01*
X111890693Y-109013746D01*
X112034508Y-109118233D01*
X112039850Y-109122114D01*
X112045878Y-109124798D01*
X112045880Y-109124799D01*
X112208282Y-109197105D01*
X112214313Y-109199790D01*
X112307713Y-109219643D01*
X112394656Y-109238124D01*
X112394661Y-109238124D01*
X112401113Y-109239496D01*
X112592087Y-109239496D01*
X112598539Y-109238124D01*
X112598544Y-109238124D01*
X112685487Y-109219643D01*
X112778887Y-109199790D01*
X112784918Y-109197105D01*
X112947320Y-109124799D01*
X112947322Y-109124798D01*
X112953350Y-109122114D01*
X112958692Y-109118233D01*
X113102507Y-109013746D01*
X113102509Y-109013744D01*
X113107851Y-109009863D01*
X113235637Y-108867942D01*
X113331124Y-108702554D01*
X113390138Y-108520927D01*
X113410100Y-108331000D01*
X113390138Y-108141073D01*
X113331124Y-107959446D01*
X113235637Y-107794058D01*
X113107851Y-107652137D01*
X113102509Y-107648256D01*
X113102507Y-107648254D01*
X112958692Y-107543767D01*
X112958691Y-107543766D01*
X112953350Y-107539886D01*
X112947322Y-107537202D01*
X112947320Y-107537201D01*
X112784918Y-107464895D01*
X112784917Y-107464895D01*
X112778887Y-107462210D01*
X112685487Y-107442357D01*
X112598544Y-107423876D01*
X112598539Y-107423876D01*
X112592087Y-107422504D01*
X112401113Y-107422504D01*
X112394661Y-107423876D01*
X112394656Y-107423876D01*
X112307713Y-107442357D01*
X112214313Y-107462210D01*
X112208283Y-107464895D01*
X112208282Y-107464895D01*
X112045880Y-107537201D01*
X112045878Y-107537202D01*
X112039850Y-107539886D01*
X112034509Y-107543766D01*
X112034508Y-107543767D01*
X111890693Y-107648254D01*
X111890691Y-107648256D01*
X111885349Y-107652137D01*
X111757563Y-107794058D01*
X111662076Y-107959446D01*
X111603062Y-108141073D01*
X111583100Y-108331000D01*
X76733400Y-108331000D01*
X76733400Y-106290200D01*
X160412600Y-106290200D01*
X160432562Y-106480127D01*
X160491576Y-106661754D01*
X160587063Y-106827142D01*
X160714849Y-106969063D01*
X160720191Y-106972944D01*
X160720193Y-106972946D01*
X160864008Y-107077433D01*
X160869350Y-107081314D01*
X160875378Y-107083998D01*
X160875380Y-107083999D01*
X161037782Y-107156305D01*
X161043813Y-107158990D01*
X161137213Y-107178843D01*
X161224156Y-107197324D01*
X161224161Y-107197324D01*
X161230613Y-107198696D01*
X161421587Y-107198696D01*
X161428039Y-107197324D01*
X161428044Y-107197324D01*
X161514987Y-107178843D01*
X161608387Y-107158990D01*
X161614418Y-107156305D01*
X161776820Y-107083999D01*
X161776822Y-107083998D01*
X161782850Y-107081314D01*
X161788192Y-107077433D01*
X161932007Y-106972946D01*
X161932009Y-106972944D01*
X161937351Y-106969063D01*
X162065137Y-106827142D01*
X162160624Y-106661754D01*
X162219638Y-106480127D01*
X162239600Y-106290200D01*
X162219638Y-106100273D01*
X162160624Y-105918646D01*
X162065137Y-105753258D01*
X161937351Y-105611337D01*
X161932009Y-105607456D01*
X161932007Y-105607454D01*
X161788192Y-105502967D01*
X161788191Y-105502966D01*
X161782850Y-105499086D01*
X161776822Y-105496402D01*
X161776820Y-105496401D01*
X161614418Y-105424095D01*
X161614417Y-105424095D01*
X161608387Y-105421410D01*
X161514987Y-105401557D01*
X161428044Y-105383076D01*
X161428039Y-105383076D01*
X161421587Y-105381704D01*
X161230613Y-105381704D01*
X161224161Y-105383076D01*
X161224156Y-105383076D01*
X161137213Y-105401557D01*
X161043813Y-105421410D01*
X161037783Y-105424095D01*
X161037782Y-105424095D01*
X160875380Y-105496401D01*
X160875378Y-105496402D01*
X160869350Y-105499086D01*
X160864009Y-105502966D01*
X160864008Y-105502967D01*
X160720193Y-105607454D01*
X160720191Y-105607456D01*
X160714849Y-105611337D01*
X160587063Y-105753258D01*
X160491576Y-105918646D01*
X160432562Y-106100273D01*
X160412600Y-106290200D01*
X76733400Y-106290200D01*
X76733400Y-104140000D01*
X113132500Y-104140000D01*
X113152462Y-104329927D01*
X113154502Y-104336205D01*
X113154502Y-104336206D01*
X113158908Y-104349765D01*
X113211476Y-104511554D01*
X113306963Y-104676942D01*
X113434749Y-104818863D01*
X113440091Y-104822744D01*
X113440093Y-104822746D01*
X113525848Y-104885050D01*
X113589250Y-104931114D01*
X113595278Y-104933798D01*
X113595280Y-104933799D01*
X113757682Y-105006105D01*
X113763713Y-105008790D01*
X113844425Y-105025946D01*
X113944056Y-105047124D01*
X113944061Y-105047124D01*
X113950513Y-105048496D01*
X114141487Y-105048496D01*
X114147939Y-105047124D01*
X114147944Y-105047124D01*
X114247575Y-105025946D01*
X114328287Y-105008790D01*
X114334318Y-105006105D01*
X114496720Y-104933799D01*
X114496722Y-104933798D01*
X114502750Y-104931114D01*
X114566152Y-104885050D01*
X114651907Y-104822746D01*
X114651909Y-104822744D01*
X114657251Y-104818863D01*
X114785037Y-104676942D01*
X114880524Y-104511554D01*
X114933092Y-104349765D01*
X114935225Y-104343200D01*
X131471300Y-104343200D01*
X131491262Y-104533127D01*
X131550276Y-104714754D01*
X131645763Y-104880142D01*
X131773549Y-105022063D01*
X131778891Y-105025944D01*
X131778893Y-105025946D01*
X131809931Y-105048496D01*
X131928050Y-105134314D01*
X131934078Y-105136998D01*
X131934080Y-105136999D01*
X132096482Y-105209305D01*
X132102513Y-105211990D01*
X132195913Y-105231843D01*
X132282856Y-105250324D01*
X132282861Y-105250324D01*
X132289313Y-105251696D01*
X132480287Y-105251696D01*
X132486739Y-105250324D01*
X132486744Y-105250324D01*
X132573687Y-105231843D01*
X132667087Y-105211990D01*
X132673118Y-105209305D01*
X132835520Y-105136999D01*
X132835522Y-105136998D01*
X132841550Y-105134314D01*
X132959669Y-105048496D01*
X132990707Y-105025946D01*
X132990709Y-105025944D01*
X132996051Y-105022063D01*
X133123837Y-104880142D01*
X133219324Y-104714754D01*
X133278338Y-104533127D01*
X133298300Y-104343200D01*
X133278338Y-104153273D01*
X133276159Y-104146565D01*
X133221366Y-103977931D01*
X133219324Y-103971646D01*
X133123837Y-103806258D01*
X132996051Y-103664337D01*
X132990709Y-103660456D01*
X132990707Y-103660454D01*
X132846892Y-103555967D01*
X132846891Y-103555966D01*
X132841550Y-103552086D01*
X132835522Y-103549402D01*
X132835520Y-103549401D01*
X132673118Y-103477095D01*
X132673117Y-103477095D01*
X132667087Y-103474410D01*
X132573687Y-103454557D01*
X132486744Y-103436076D01*
X132486739Y-103436076D01*
X132480287Y-103434704D01*
X132289313Y-103434704D01*
X132282861Y-103436076D01*
X132282856Y-103436076D01*
X132195913Y-103454557D01*
X132102513Y-103474410D01*
X132096483Y-103477095D01*
X132096482Y-103477095D01*
X131934080Y-103549401D01*
X131934078Y-103549402D01*
X131928050Y-103552086D01*
X131922709Y-103555966D01*
X131922708Y-103555967D01*
X131778893Y-103660454D01*
X131778891Y-103660456D01*
X131773549Y-103664337D01*
X131645763Y-103806258D01*
X131550276Y-103971646D01*
X131548234Y-103977931D01*
X131493442Y-104146565D01*
X131491262Y-104153273D01*
X131471300Y-104343200D01*
X114935225Y-104343200D01*
X114937498Y-104336206D01*
X114937498Y-104336205D01*
X114939538Y-104329927D01*
X114959500Y-104140000D01*
X114939538Y-103950073D01*
X114880524Y-103768446D01*
X114785037Y-103603058D01*
X114657251Y-103461137D01*
X114651909Y-103457256D01*
X114651907Y-103457254D01*
X114508092Y-103352767D01*
X114508091Y-103352766D01*
X114502750Y-103348886D01*
X114496722Y-103346202D01*
X114496720Y-103346201D01*
X114334318Y-103273895D01*
X114334317Y-103273895D01*
X114328287Y-103271210D01*
X114232422Y-103250833D01*
X114147944Y-103232876D01*
X114147939Y-103232876D01*
X114141487Y-103231504D01*
X113950513Y-103231504D01*
X113944061Y-103232876D01*
X113944056Y-103232876D01*
X113859578Y-103250833D01*
X113763713Y-103271210D01*
X113757683Y-103273895D01*
X113757682Y-103273895D01*
X113595280Y-103346201D01*
X113595278Y-103346202D01*
X113589250Y-103348886D01*
X113583909Y-103352766D01*
X113583908Y-103352767D01*
X113440093Y-103457254D01*
X113440091Y-103457256D01*
X113434749Y-103461137D01*
X113306963Y-103603058D01*
X113211476Y-103768446D01*
X113152462Y-103950073D01*
X113132500Y-104140000D01*
X76733400Y-104140000D01*
X76733400Y-102348400D01*
X137324000Y-102348400D01*
X137343962Y-102538327D01*
X137402976Y-102719954D01*
X137498463Y-102885342D01*
X137502881Y-102890249D01*
X137502882Y-102890250D01*
X137621827Y-103022352D01*
X137626249Y-103027263D01*
X137631591Y-103031144D01*
X137631593Y-103031146D01*
X137708129Y-103086752D01*
X137780750Y-103139514D01*
X137786778Y-103142198D01*
X137786780Y-103142199D01*
X137931425Y-103206599D01*
X137955213Y-103217190D01*
X138048613Y-103237043D01*
X138135556Y-103255524D01*
X138135561Y-103255524D01*
X138142013Y-103256896D01*
X138332987Y-103256896D01*
X138339439Y-103255524D01*
X138339444Y-103255524D01*
X138426387Y-103237043D01*
X138519787Y-103217190D01*
X138543575Y-103206599D01*
X138688220Y-103142199D01*
X138688222Y-103142198D01*
X138694250Y-103139514D01*
X138766871Y-103086752D01*
X138843407Y-103031146D01*
X138843409Y-103031144D01*
X138848751Y-103027263D01*
X138853173Y-103022352D01*
X138972118Y-102890250D01*
X138972119Y-102890249D01*
X138976537Y-102885342D01*
X139072024Y-102719954D01*
X139131038Y-102538327D01*
X139144231Y-102412800D01*
X155626700Y-102412800D01*
X155646662Y-102602727D01*
X155705676Y-102784354D01*
X155801163Y-102949742D01*
X155805581Y-102954649D01*
X155805582Y-102954650D01*
X155866541Y-103022352D01*
X155928949Y-103091663D01*
X155934291Y-103095544D01*
X155934293Y-103095546D01*
X156004214Y-103146346D01*
X156083450Y-103203914D01*
X156089478Y-103206598D01*
X156089480Y-103206599D01*
X156251882Y-103278905D01*
X156257913Y-103281590D01*
X156351313Y-103301443D01*
X156438256Y-103319924D01*
X156438261Y-103319924D01*
X156444713Y-103321296D01*
X156635687Y-103321296D01*
X156642139Y-103319924D01*
X156642144Y-103319924D01*
X156729087Y-103301443D01*
X156822487Y-103281590D01*
X156828518Y-103278905D01*
X156990920Y-103206599D01*
X156990922Y-103206598D01*
X156996950Y-103203914D01*
X157076186Y-103146346D01*
X157146107Y-103095546D01*
X157146109Y-103095544D01*
X157151451Y-103091663D01*
X157213859Y-103022352D01*
X157274818Y-102954650D01*
X157274819Y-102954649D01*
X157279237Y-102949742D01*
X157374724Y-102784354D01*
X157433738Y-102602727D01*
X157448361Y-102463600D01*
X159208100Y-102463600D01*
X159228062Y-102653527D01*
X159287076Y-102835154D01*
X159382563Y-103000542D01*
X159386981Y-103005449D01*
X159386982Y-103005450D01*
X159468105Y-103095546D01*
X159510349Y-103142463D01*
X159515691Y-103146344D01*
X159515693Y-103146346D01*
X159632904Y-103231504D01*
X159664850Y-103254714D01*
X159670878Y-103257398D01*
X159670880Y-103257399D01*
X159811314Y-103319924D01*
X159839313Y-103332390D01*
X159916920Y-103348886D01*
X160019656Y-103370724D01*
X160019661Y-103370724D01*
X160026113Y-103372096D01*
X160217087Y-103372096D01*
X160223539Y-103370724D01*
X160223544Y-103370724D01*
X160326280Y-103348886D01*
X160403887Y-103332390D01*
X160431886Y-103319924D01*
X160572320Y-103257399D01*
X160572322Y-103257398D01*
X160578350Y-103254714D01*
X160610296Y-103231504D01*
X160727507Y-103146346D01*
X160727509Y-103146344D01*
X160732851Y-103142463D01*
X160775095Y-103095546D01*
X160856218Y-103005450D01*
X160856219Y-103005449D01*
X160860637Y-103000542D01*
X160956124Y-102835154D01*
X161015138Y-102653527D01*
X161035100Y-102463600D01*
X161015138Y-102273673D01*
X160956124Y-102092046D01*
X160860637Y-101926658D01*
X160810478Y-101870950D01*
X160737273Y-101789648D01*
X160737272Y-101789647D01*
X160732851Y-101784737D01*
X160727509Y-101780856D01*
X160727507Y-101780854D01*
X160583692Y-101676367D01*
X160583691Y-101676366D01*
X160578350Y-101672486D01*
X160572322Y-101669802D01*
X160572320Y-101669801D01*
X160409918Y-101597495D01*
X160409917Y-101597495D01*
X160403887Y-101594810D01*
X160310487Y-101574957D01*
X160223544Y-101556476D01*
X160223539Y-101556476D01*
X160217087Y-101555104D01*
X160026113Y-101555104D01*
X160019661Y-101556476D01*
X160019656Y-101556476D01*
X159932713Y-101574957D01*
X159839313Y-101594810D01*
X159833283Y-101597495D01*
X159833282Y-101597495D01*
X159670880Y-101669801D01*
X159670878Y-101669802D01*
X159664850Y-101672486D01*
X159659509Y-101676366D01*
X159659508Y-101676367D01*
X159515693Y-101780854D01*
X159515691Y-101780856D01*
X159510349Y-101784737D01*
X159505928Y-101789647D01*
X159505927Y-101789648D01*
X159432723Y-101870950D01*
X159382563Y-101926658D01*
X159287076Y-102092046D01*
X159228062Y-102273673D01*
X159208100Y-102463600D01*
X157448361Y-102463600D01*
X157453700Y-102412800D01*
X157433738Y-102222873D01*
X157374724Y-102041246D01*
X157279237Y-101875858D01*
X157197192Y-101784737D01*
X157155873Y-101738848D01*
X157155872Y-101738847D01*
X157151451Y-101733937D01*
X157146109Y-101730056D01*
X157146107Y-101730054D01*
X157002292Y-101625567D01*
X157002291Y-101625566D01*
X156996950Y-101621686D01*
X156990922Y-101619002D01*
X156990920Y-101619001D01*
X156828518Y-101546695D01*
X156828517Y-101546695D01*
X156822487Y-101544010D01*
X156729087Y-101524157D01*
X156642144Y-101505676D01*
X156642139Y-101505676D01*
X156635687Y-101504304D01*
X156444713Y-101504304D01*
X156438261Y-101505676D01*
X156438256Y-101505676D01*
X156351313Y-101524157D01*
X156257913Y-101544010D01*
X156251883Y-101546695D01*
X156251882Y-101546695D01*
X156089480Y-101619001D01*
X156089478Y-101619002D01*
X156083450Y-101621686D01*
X156078109Y-101625566D01*
X156078108Y-101625567D01*
X155934293Y-101730054D01*
X155934291Y-101730056D01*
X155928949Y-101733937D01*
X155924528Y-101738847D01*
X155924527Y-101738848D01*
X155883209Y-101784737D01*
X155801163Y-101875858D01*
X155705676Y-102041246D01*
X155646662Y-102222873D01*
X155626700Y-102412800D01*
X139144231Y-102412800D01*
X139151000Y-102348400D01*
X139131038Y-102158473D01*
X139072024Y-101976846D01*
X138976537Y-101811458D01*
X138952478Y-101784737D01*
X138853173Y-101674448D01*
X138853172Y-101674447D01*
X138848751Y-101669537D01*
X138843409Y-101665656D01*
X138843407Y-101665654D01*
X138699592Y-101561167D01*
X138699591Y-101561166D01*
X138694250Y-101557286D01*
X138688222Y-101554602D01*
X138688220Y-101554601D01*
X138525818Y-101482295D01*
X138525817Y-101482295D01*
X138519787Y-101479610D01*
X138426387Y-101459757D01*
X138339444Y-101441276D01*
X138339439Y-101441276D01*
X138332987Y-101439904D01*
X138142013Y-101439904D01*
X138135561Y-101441276D01*
X138135556Y-101441276D01*
X138048613Y-101459757D01*
X137955213Y-101479610D01*
X137949183Y-101482295D01*
X137949182Y-101482295D01*
X137786780Y-101554601D01*
X137786778Y-101554602D01*
X137780750Y-101557286D01*
X137775409Y-101561166D01*
X137775408Y-101561167D01*
X137631593Y-101665654D01*
X137631591Y-101665656D01*
X137626249Y-101669537D01*
X137621828Y-101674447D01*
X137621827Y-101674448D01*
X137522523Y-101784737D01*
X137498463Y-101811458D01*
X137402976Y-101976846D01*
X137343962Y-102158473D01*
X137324000Y-102348400D01*
X76733400Y-102348400D01*
X76733400Y-99203600D01*
X95134600Y-99203600D01*
X95135290Y-99210165D01*
X95149373Y-99344152D01*
X95154562Y-99393527D01*
X95213576Y-99575154D01*
X95309063Y-99740542D01*
X95313481Y-99745449D01*
X95313482Y-99745450D01*
X95412090Y-99854965D01*
X95436849Y-99882463D01*
X95442191Y-99886344D01*
X95442193Y-99886346D01*
X95586008Y-99990833D01*
X95591350Y-99994714D01*
X95597378Y-99997398D01*
X95597380Y-99997399D01*
X95674563Y-100031763D01*
X95765813Y-100072390D01*
X95859213Y-100092243D01*
X95946156Y-100110724D01*
X95946161Y-100110724D01*
X95952613Y-100112096D01*
X96143587Y-100112096D01*
X96150039Y-100110724D01*
X96150044Y-100110724D01*
X96236987Y-100092243D01*
X96330387Y-100072390D01*
X96421637Y-100031763D01*
X96498820Y-99997399D01*
X96498822Y-99997398D01*
X96504850Y-99994714D01*
X96510192Y-99990833D01*
X96654007Y-99886346D01*
X96654009Y-99886344D01*
X96659351Y-99882463D01*
X96684110Y-99854965D01*
X96690021Y-99848400D01*
X134022000Y-99848400D01*
X134022690Y-99854965D01*
X134032339Y-99946765D01*
X134041962Y-100038327D01*
X134100976Y-100219954D01*
X134196463Y-100385342D01*
X134324249Y-100527263D01*
X134329591Y-100531144D01*
X134329593Y-100531146D01*
X134443842Y-100614152D01*
X134478750Y-100639514D01*
X134484778Y-100642198D01*
X134484780Y-100642199D01*
X134647182Y-100714505D01*
X134653213Y-100717190D01*
X134746613Y-100737043D01*
X134833556Y-100755524D01*
X134833561Y-100755524D01*
X134840013Y-100756896D01*
X135030987Y-100756896D01*
X135037439Y-100755524D01*
X135037444Y-100755524D01*
X135124387Y-100737043D01*
X135217787Y-100717190D01*
X135223818Y-100714505D01*
X135386220Y-100642199D01*
X135386222Y-100642198D01*
X135392250Y-100639514D01*
X135427158Y-100614152D01*
X135541407Y-100531146D01*
X135541409Y-100531144D01*
X135546751Y-100527263D01*
X135674537Y-100385342D01*
X135770024Y-100219954D01*
X135829038Y-100038327D01*
X135838662Y-99946765D01*
X135839352Y-99940200D01*
X142277000Y-99940200D01*
X142296962Y-100130127D01*
X142355976Y-100311754D01*
X142451463Y-100477142D01*
X142579249Y-100619063D01*
X142584591Y-100622944D01*
X142584593Y-100622946D01*
X142611093Y-100642199D01*
X142733750Y-100731314D01*
X142739778Y-100733998D01*
X142739780Y-100733999D01*
X142791208Y-100756896D01*
X142908213Y-100808990D01*
X143001613Y-100828843D01*
X143088556Y-100847324D01*
X143088561Y-100847324D01*
X143095013Y-100848696D01*
X143285987Y-100848696D01*
X143292439Y-100847324D01*
X143292444Y-100847324D01*
X143379387Y-100828843D01*
X143472787Y-100808990D01*
X143589792Y-100756896D01*
X143641220Y-100733999D01*
X143641222Y-100733998D01*
X143647250Y-100731314D01*
X143769907Y-100642199D01*
X143796407Y-100622946D01*
X143796409Y-100622944D01*
X143801751Y-100619063D01*
X143929537Y-100477142D01*
X144025024Y-100311754D01*
X144084038Y-100130127D01*
X144104000Y-99940200D01*
X144097932Y-99882463D01*
X144084728Y-99756837D01*
X144084728Y-99756836D01*
X144084038Y-99750273D01*
X144025024Y-99568646D01*
X143929537Y-99403258D01*
X143801751Y-99261337D01*
X143796409Y-99257456D01*
X143796407Y-99257454D01*
X143652592Y-99152967D01*
X143652591Y-99152966D01*
X143647250Y-99149086D01*
X143641222Y-99146402D01*
X143641220Y-99146401D01*
X143478818Y-99074095D01*
X143478817Y-99074095D01*
X143472787Y-99071410D01*
X143379387Y-99051557D01*
X143292444Y-99033076D01*
X143292439Y-99033076D01*
X143285987Y-99031704D01*
X143095013Y-99031704D01*
X143088561Y-99033076D01*
X143088556Y-99033076D01*
X143001613Y-99051557D01*
X142908213Y-99071410D01*
X142902183Y-99074095D01*
X142902182Y-99074095D01*
X142739780Y-99146401D01*
X142739778Y-99146402D01*
X142733750Y-99149086D01*
X142728409Y-99152966D01*
X142728408Y-99152967D01*
X142584593Y-99257454D01*
X142584591Y-99257456D01*
X142579249Y-99261337D01*
X142451463Y-99403258D01*
X142355976Y-99568646D01*
X142296962Y-99750273D01*
X142296272Y-99756836D01*
X142296272Y-99756837D01*
X142283068Y-99882463D01*
X142277000Y-99940200D01*
X135839352Y-99940200D01*
X135848310Y-99854965D01*
X135849000Y-99848400D01*
X135829038Y-99658473D01*
X135770024Y-99476846D01*
X135674537Y-99311458D01*
X135577422Y-99203600D01*
X135551173Y-99174448D01*
X135551172Y-99174447D01*
X135546751Y-99169537D01*
X135541409Y-99165656D01*
X135541407Y-99165654D01*
X135397592Y-99061167D01*
X135397591Y-99061166D01*
X135392250Y-99057286D01*
X135386222Y-99054602D01*
X135386220Y-99054601D01*
X135223818Y-98982295D01*
X135223817Y-98982295D01*
X135217787Y-98979610D01*
X135124387Y-98959757D01*
X135037444Y-98941276D01*
X135037439Y-98941276D01*
X135030987Y-98939904D01*
X134840013Y-98939904D01*
X134833561Y-98941276D01*
X134833556Y-98941276D01*
X134746613Y-98959757D01*
X134653213Y-98979610D01*
X134647183Y-98982295D01*
X134647182Y-98982295D01*
X134484780Y-99054601D01*
X134484778Y-99054602D01*
X134478750Y-99057286D01*
X134473409Y-99061166D01*
X134473408Y-99061167D01*
X134329593Y-99165654D01*
X134329591Y-99165656D01*
X134324249Y-99169537D01*
X134319828Y-99174447D01*
X134319827Y-99174448D01*
X134293579Y-99203600D01*
X134196463Y-99311458D01*
X134100976Y-99476846D01*
X134041962Y-99658473D01*
X134022000Y-99848400D01*
X96690021Y-99848400D01*
X96782718Y-99745450D01*
X96782719Y-99745449D01*
X96787137Y-99740542D01*
X96882624Y-99575154D01*
X96941638Y-99393527D01*
X96946828Y-99344152D01*
X96960910Y-99210165D01*
X96961600Y-99203600D01*
X96945191Y-99047477D01*
X96942328Y-99020237D01*
X96942328Y-99020236D01*
X96941638Y-99013673D01*
X96930940Y-98980746D01*
X96884666Y-98838331D01*
X96882624Y-98832046D01*
X96787137Y-98666658D01*
X96659351Y-98524737D01*
X96654009Y-98520856D01*
X96654007Y-98520854D01*
X96510192Y-98416367D01*
X96510191Y-98416366D01*
X96504850Y-98412486D01*
X96498822Y-98409802D01*
X96498820Y-98409801D01*
X96336418Y-98337495D01*
X96336417Y-98337495D01*
X96330387Y-98334810D01*
X96236987Y-98314957D01*
X96157214Y-98298000D01*
X115926500Y-98298000D01*
X115927190Y-98304565D01*
X115945658Y-98480273D01*
X115946462Y-98487927D01*
X115948502Y-98494205D01*
X115948502Y-98494206D01*
X115958422Y-98524737D01*
X116005476Y-98669554D01*
X116100963Y-98834942D01*
X116105381Y-98839849D01*
X116105382Y-98839850D01*
X116129293Y-98866406D01*
X116228749Y-98976863D01*
X116234091Y-98980744D01*
X116234093Y-98980746D01*
X116339442Y-99057286D01*
X116383250Y-99089114D01*
X116389278Y-99091798D01*
X116389280Y-99091799D01*
X116517949Y-99149086D01*
X116557713Y-99166790D01*
X116651113Y-99186643D01*
X116738056Y-99205124D01*
X116738061Y-99205124D01*
X116744513Y-99206496D01*
X116935487Y-99206496D01*
X116941939Y-99205124D01*
X116941944Y-99205124D01*
X117028887Y-99186643D01*
X117122287Y-99166790D01*
X117162051Y-99149086D01*
X117290720Y-99091799D01*
X117290722Y-99091798D01*
X117296750Y-99089114D01*
X117340558Y-99057286D01*
X117445907Y-98980746D01*
X117445909Y-98980744D01*
X117451251Y-98976863D01*
X117550707Y-98866406D01*
X117574618Y-98839850D01*
X117574619Y-98839849D01*
X117579037Y-98834942D01*
X117674524Y-98669554D01*
X117721578Y-98524737D01*
X117731498Y-98494206D01*
X117731498Y-98494205D01*
X117733538Y-98487927D01*
X117734343Y-98480273D01*
X117752810Y-98304565D01*
X117753500Y-98298000D01*
X117733538Y-98108073D01*
X117674524Y-97926446D01*
X117579037Y-97761058D01*
X117560392Y-97740350D01*
X117455673Y-97624048D01*
X117455672Y-97624047D01*
X117451251Y-97619137D01*
X117445909Y-97615256D01*
X117445907Y-97615254D01*
X117302092Y-97510767D01*
X117302091Y-97510766D01*
X117296750Y-97506886D01*
X117290722Y-97504202D01*
X117290720Y-97504201D01*
X117128318Y-97431895D01*
X117128317Y-97431895D01*
X117122287Y-97429210D01*
X117028887Y-97409357D01*
X116941944Y-97390876D01*
X116941939Y-97390876D01*
X116935487Y-97389504D01*
X116744513Y-97389504D01*
X116738061Y-97390876D01*
X116738056Y-97390876D01*
X116651113Y-97409357D01*
X116557713Y-97429210D01*
X116551683Y-97431895D01*
X116551682Y-97431895D01*
X116389280Y-97504201D01*
X116389278Y-97504202D01*
X116383250Y-97506886D01*
X116377909Y-97510766D01*
X116377908Y-97510767D01*
X116234093Y-97615254D01*
X116234091Y-97615256D01*
X116228749Y-97619137D01*
X116224328Y-97624047D01*
X116224327Y-97624048D01*
X116119609Y-97740350D01*
X116100963Y-97761058D01*
X116005476Y-97926446D01*
X115946462Y-98108073D01*
X115926500Y-98298000D01*
X96157214Y-98298000D01*
X96150044Y-98296476D01*
X96150039Y-98296476D01*
X96143587Y-98295104D01*
X95952613Y-98295104D01*
X95946161Y-98296476D01*
X95946156Y-98296476D01*
X95859213Y-98314957D01*
X95765813Y-98334810D01*
X95759783Y-98337495D01*
X95759782Y-98337495D01*
X95597380Y-98409801D01*
X95597378Y-98409802D01*
X95591350Y-98412486D01*
X95586009Y-98416366D01*
X95586008Y-98416367D01*
X95442193Y-98520854D01*
X95442191Y-98520856D01*
X95436849Y-98524737D01*
X95309063Y-98666658D01*
X95213576Y-98832046D01*
X95211534Y-98838331D01*
X95165261Y-98980746D01*
X95154562Y-99013673D01*
X95153872Y-99020236D01*
X95153872Y-99020237D01*
X95151009Y-99047477D01*
X95134600Y-99203600D01*
X76733400Y-99203600D01*
X76733400Y-96689000D01*
X136435000Y-96689000D01*
X136454962Y-96878927D01*
X136513976Y-97060554D01*
X136609463Y-97225942D01*
X136737249Y-97367863D01*
X136742591Y-97371744D01*
X136742593Y-97371746D01*
X136819798Y-97427838D01*
X136891750Y-97480114D01*
X136897778Y-97482798D01*
X136897780Y-97482799D01*
X137060182Y-97555105D01*
X137066213Y-97557790D01*
X137194801Y-97585123D01*
X137257273Y-97618850D01*
X137291595Y-97681000D01*
X137286867Y-97751839D01*
X137244591Y-97808877D01*
X137219852Y-97823476D01*
X137100980Y-97876401D01*
X137100978Y-97876402D01*
X137094950Y-97879086D01*
X137089609Y-97882966D01*
X137089608Y-97882967D01*
X136945793Y-97987454D01*
X136945791Y-97987456D01*
X136940449Y-97991337D01*
X136936028Y-97996247D01*
X136936027Y-97996248D01*
X136835340Y-98108073D01*
X136812663Y-98133258D01*
X136717176Y-98298646D01*
X136658162Y-98480273D01*
X136657472Y-98486836D01*
X136657472Y-98486837D01*
X136639088Y-98661750D01*
X136638200Y-98670200D01*
X136638890Y-98676765D01*
X136655211Y-98832046D01*
X136658162Y-98860127D01*
X136717176Y-99041754D01*
X136812663Y-99207142D01*
X136940449Y-99349063D01*
X136945791Y-99352944D01*
X136945793Y-99352946D01*
X137089608Y-99457433D01*
X137094950Y-99461314D01*
X137100978Y-99463998D01*
X137100980Y-99463999D01*
X137263382Y-99536305D01*
X137269413Y-99538990D01*
X137362813Y-99558843D01*
X137449756Y-99577324D01*
X137449761Y-99577324D01*
X137456213Y-99578696D01*
X137647187Y-99578696D01*
X137653639Y-99577324D01*
X137653644Y-99577324D01*
X137740587Y-99558843D01*
X137833987Y-99538990D01*
X137840018Y-99536305D01*
X138002420Y-99463999D01*
X138002422Y-99463998D01*
X138008450Y-99461314D01*
X138013792Y-99457433D01*
X138157607Y-99352946D01*
X138157609Y-99352944D01*
X138162951Y-99349063D01*
X138290737Y-99207142D01*
X138386224Y-99041754D01*
X138445238Y-98860127D01*
X138448190Y-98832046D01*
X138464510Y-98676765D01*
X138465200Y-98670200D01*
X138464312Y-98661750D01*
X138445928Y-98486837D01*
X138445928Y-98486836D01*
X138445238Y-98480273D01*
X138386224Y-98298646D01*
X138290737Y-98133258D01*
X138268061Y-98108073D01*
X138167373Y-97996248D01*
X138167372Y-97996247D01*
X138162951Y-97991337D01*
X138157609Y-97987456D01*
X138157607Y-97987454D01*
X138013792Y-97882967D01*
X138013791Y-97882966D01*
X138008450Y-97879086D01*
X138002422Y-97876402D01*
X138002420Y-97876401D01*
X137840018Y-97804095D01*
X137840017Y-97804095D01*
X137833987Y-97801410D01*
X137705399Y-97774077D01*
X137642927Y-97740350D01*
X137608605Y-97678200D01*
X137613333Y-97607361D01*
X137655609Y-97550323D01*
X137680348Y-97535724D01*
X137799220Y-97482799D01*
X137799222Y-97482798D01*
X137805250Y-97480114D01*
X137877202Y-97427838D01*
X137954407Y-97371746D01*
X137954409Y-97371744D01*
X137959751Y-97367863D01*
X138087537Y-97225942D01*
X138183024Y-97060554D01*
X138242038Y-96878927D01*
X138262000Y-96689000D01*
X138242038Y-96499073D01*
X138183024Y-96317446D01*
X138087537Y-96152058D01*
X137959751Y-96010137D01*
X137954409Y-96006256D01*
X137954407Y-96006254D01*
X137810592Y-95901767D01*
X137810591Y-95901766D01*
X137805250Y-95897886D01*
X137799222Y-95895202D01*
X137799220Y-95895201D01*
X137636818Y-95822895D01*
X137636817Y-95822895D01*
X137630787Y-95820210D01*
X137537387Y-95800357D01*
X137450444Y-95781876D01*
X137450439Y-95781876D01*
X137443987Y-95780504D01*
X137253013Y-95780504D01*
X137246561Y-95781876D01*
X137246556Y-95781876D01*
X137159613Y-95800357D01*
X137066213Y-95820210D01*
X137060183Y-95822895D01*
X137060182Y-95822895D01*
X136897780Y-95895201D01*
X136897778Y-95895202D01*
X136891750Y-95897886D01*
X136886409Y-95901766D01*
X136886408Y-95901767D01*
X136742593Y-96006254D01*
X136742591Y-96006256D01*
X136737249Y-96010137D01*
X136609463Y-96152058D01*
X136513976Y-96317446D01*
X136454962Y-96499073D01*
X136435000Y-96689000D01*
X76733400Y-96689000D01*
X76733400Y-94132400D01*
X114453300Y-94132400D01*
X114453990Y-94138965D01*
X114465987Y-94253105D01*
X114473262Y-94322327D01*
X114532276Y-94503954D01*
X114627763Y-94669342D01*
X114755549Y-94811263D01*
X114760891Y-94815144D01*
X114760893Y-94815146D01*
X114904708Y-94919633D01*
X114910050Y-94923514D01*
X114916078Y-94926198D01*
X114916080Y-94926199D01*
X115078482Y-94998505D01*
X115084513Y-95001190D01*
X115177913Y-95021043D01*
X115264856Y-95039524D01*
X115264861Y-95039524D01*
X115271313Y-95040896D01*
X115462287Y-95040896D01*
X115468739Y-95039524D01*
X115468744Y-95039524D01*
X115555687Y-95021043D01*
X115649087Y-95001190D01*
X115655118Y-94998505D01*
X115817520Y-94926199D01*
X115817522Y-94926198D01*
X115823550Y-94923514D01*
X115828892Y-94919633D01*
X115972707Y-94815146D01*
X115972709Y-94815144D01*
X115978051Y-94811263D01*
X116105837Y-94669342D01*
X116201324Y-94503954D01*
X116253918Y-94342084D01*
X116293991Y-94283479D01*
X116359388Y-94255842D01*
X116399947Y-94257774D01*
X116455520Y-94269587D01*
X116570956Y-94294124D01*
X116570961Y-94294124D01*
X116577413Y-94295496D01*
X116768387Y-94295496D01*
X116774839Y-94294124D01*
X116774844Y-94294124D01*
X116861787Y-94275643D01*
X116955187Y-94255790D01*
X117072958Y-94203355D01*
X117123620Y-94180799D01*
X117123622Y-94180798D01*
X117129650Y-94178114D01*
X117134992Y-94174233D01*
X117278807Y-94069746D01*
X117278809Y-94069744D01*
X117284151Y-94065863D01*
X117356390Y-93985633D01*
X117407518Y-93928850D01*
X117407519Y-93928849D01*
X117411937Y-93923942D01*
X117507424Y-93758554D01*
X117554865Y-93612546D01*
X117564398Y-93583206D01*
X117564398Y-93583205D01*
X117566438Y-93576927D01*
X117567832Y-93563669D01*
X117585710Y-93393565D01*
X117586400Y-93387000D01*
X117576738Y-93295069D01*
X117567128Y-93203637D01*
X117567128Y-93203636D01*
X117566578Y-93198400D01*
X129255700Y-93198400D01*
X129256390Y-93204965D01*
X129274833Y-93380435D01*
X129275662Y-93388327D01*
X129334676Y-93569954D01*
X129337979Y-93575676D01*
X129337980Y-93575677D01*
X129371889Y-93634408D01*
X129430163Y-93735342D01*
X129434581Y-93740249D01*
X129434582Y-93740250D01*
X129488347Y-93799962D01*
X129557949Y-93877263D01*
X129563291Y-93881144D01*
X129563293Y-93881146D01*
X129639061Y-93936194D01*
X129712450Y-93989514D01*
X129718478Y-93992198D01*
X129718480Y-93992199D01*
X129872902Y-94060952D01*
X129886913Y-94067190D01*
X129980313Y-94087043D01*
X130067256Y-94105524D01*
X130067261Y-94105524D01*
X130073713Y-94106896D01*
X130264687Y-94106896D01*
X130271139Y-94105524D01*
X130271144Y-94105524D01*
X130358087Y-94087043D01*
X130451487Y-94067190D01*
X130465498Y-94060952D01*
X130619920Y-93992199D01*
X130619922Y-93992198D01*
X130625950Y-93989514D01*
X130699339Y-93936194D01*
X130775107Y-93881146D01*
X130775109Y-93881144D01*
X130780451Y-93877263D01*
X130850053Y-93799962D01*
X130903818Y-93740250D01*
X130903819Y-93740249D01*
X130908237Y-93735342D01*
X130966511Y-93634408D01*
X131000420Y-93575677D01*
X131000421Y-93575676D01*
X131003724Y-93569954D01*
X131062738Y-93388327D01*
X131063568Y-93380435D01*
X131082010Y-93204965D01*
X131082700Y-93198400D01*
X131073741Y-93113163D01*
X131063428Y-93015037D01*
X131063428Y-93015036D01*
X131062738Y-93008473D01*
X131037176Y-92929800D01*
X145375800Y-92929800D01*
X145395762Y-93119727D01*
X145454776Y-93301354D01*
X145550263Y-93466742D01*
X145554681Y-93471649D01*
X145554682Y-93471650D01*
X145648348Y-93575677D01*
X145678049Y-93608663D01*
X145683391Y-93612544D01*
X145683393Y-93612546D01*
X145827208Y-93717033D01*
X145832550Y-93720914D01*
X145838578Y-93723598D01*
X145838580Y-93723599D01*
X145936355Y-93767131D01*
X146007013Y-93798590D01*
X146100413Y-93818443D01*
X146187356Y-93836924D01*
X146187361Y-93836924D01*
X146193813Y-93838296D01*
X146384787Y-93838296D01*
X146391239Y-93836924D01*
X146391244Y-93836924D01*
X146478187Y-93818443D01*
X146571587Y-93798590D01*
X146642245Y-93767131D01*
X146740020Y-93723599D01*
X146740022Y-93723598D01*
X146746050Y-93720914D01*
X146751392Y-93717033D01*
X146895207Y-93612546D01*
X146895209Y-93612544D01*
X146900551Y-93608663D01*
X146930252Y-93575677D01*
X147023918Y-93471650D01*
X147023919Y-93471649D01*
X147028337Y-93466742D01*
X147123824Y-93301354D01*
X147182838Y-93119727D01*
X147202800Y-92929800D01*
X147182838Y-92739873D01*
X147172527Y-92708137D01*
X147136054Y-92595886D01*
X147123824Y-92558246D01*
X147099234Y-92515654D01*
X147077785Y-92478504D01*
X147028337Y-92392858D01*
X146971389Y-92329610D01*
X146904973Y-92255848D01*
X146904972Y-92255847D01*
X146900551Y-92250937D01*
X146895209Y-92247056D01*
X146895207Y-92247054D01*
X146751392Y-92142567D01*
X146751391Y-92142566D01*
X146746050Y-92138686D01*
X146740022Y-92136002D01*
X146740020Y-92136001D01*
X146577618Y-92063695D01*
X146577617Y-92063695D01*
X146571587Y-92061010D01*
X146478187Y-92041157D01*
X146391244Y-92022676D01*
X146391239Y-92022676D01*
X146384787Y-92021304D01*
X146193813Y-92021304D01*
X146187361Y-92022676D01*
X146187356Y-92022676D01*
X146100413Y-92041157D01*
X146007013Y-92061010D01*
X146000983Y-92063695D01*
X146000982Y-92063695D01*
X145838580Y-92136001D01*
X145838578Y-92136002D01*
X145832550Y-92138686D01*
X145827209Y-92142566D01*
X145827208Y-92142567D01*
X145683393Y-92247054D01*
X145683391Y-92247056D01*
X145678049Y-92250937D01*
X145673628Y-92255847D01*
X145673627Y-92255848D01*
X145607212Y-92329610D01*
X145550263Y-92392858D01*
X145500815Y-92478504D01*
X145479367Y-92515654D01*
X145454776Y-92558246D01*
X145442546Y-92595886D01*
X145406074Y-92708137D01*
X145395762Y-92739873D01*
X145375800Y-92929800D01*
X131037176Y-92929800D01*
X131003724Y-92826846D01*
X130908237Y-92661458D01*
X130780451Y-92519537D01*
X130775109Y-92515656D01*
X130775107Y-92515654D01*
X130631292Y-92411167D01*
X130631291Y-92411166D01*
X130625950Y-92407286D01*
X130619922Y-92404602D01*
X130619920Y-92404601D01*
X130457518Y-92332295D01*
X130457517Y-92332295D01*
X130451487Y-92329610D01*
X130358087Y-92309757D01*
X130271144Y-92291276D01*
X130271139Y-92291276D01*
X130264687Y-92289904D01*
X130073713Y-92289904D01*
X130067261Y-92291276D01*
X130067256Y-92291276D01*
X129980313Y-92309757D01*
X129886913Y-92329610D01*
X129880883Y-92332295D01*
X129880882Y-92332295D01*
X129718480Y-92404601D01*
X129718478Y-92404602D01*
X129712450Y-92407286D01*
X129707109Y-92411166D01*
X129707108Y-92411167D01*
X129563293Y-92515654D01*
X129563291Y-92515656D01*
X129557949Y-92519537D01*
X129430163Y-92661458D01*
X129334676Y-92826846D01*
X129275662Y-93008473D01*
X129274972Y-93015036D01*
X129274972Y-93015037D01*
X129264659Y-93113163D01*
X129255700Y-93198400D01*
X117566578Y-93198400D01*
X117566438Y-93197073D01*
X117507424Y-93015446D01*
X117411937Y-92850058D01*
X117318637Y-92746437D01*
X117288573Y-92713048D01*
X117288572Y-92713047D01*
X117284151Y-92708137D01*
X117278809Y-92704256D01*
X117278807Y-92704254D01*
X117134992Y-92599767D01*
X117134991Y-92599766D01*
X117129650Y-92595886D01*
X117123622Y-92593202D01*
X117123620Y-92593201D01*
X116961218Y-92520895D01*
X116961217Y-92520895D01*
X116955187Y-92518210D01*
X116845740Y-92494946D01*
X116774844Y-92479876D01*
X116774839Y-92479876D01*
X116768387Y-92478504D01*
X116577413Y-92478504D01*
X116570961Y-92479876D01*
X116570956Y-92479876D01*
X116500060Y-92494946D01*
X116390613Y-92518210D01*
X116384583Y-92520895D01*
X116384582Y-92520895D01*
X116222180Y-92593201D01*
X116222178Y-92593202D01*
X116216150Y-92595886D01*
X116210809Y-92599766D01*
X116210808Y-92599767D01*
X116066993Y-92704254D01*
X116066991Y-92704256D01*
X116061649Y-92708137D01*
X116057228Y-92713047D01*
X116057227Y-92713048D01*
X116027164Y-92746437D01*
X115933863Y-92850058D01*
X115838376Y-93015446D01*
X115836334Y-93021731D01*
X115785782Y-93177315D01*
X115745709Y-93235921D01*
X115680312Y-93263558D01*
X115639753Y-93261626D01*
X115584180Y-93249813D01*
X115468744Y-93225276D01*
X115468739Y-93225276D01*
X115462287Y-93223904D01*
X115271313Y-93223904D01*
X115264861Y-93225276D01*
X115264856Y-93225276D01*
X115177913Y-93243757D01*
X115084513Y-93263610D01*
X115078483Y-93266295D01*
X115078482Y-93266295D01*
X114916080Y-93338601D01*
X114916078Y-93338602D01*
X114910050Y-93341286D01*
X114904709Y-93345166D01*
X114904708Y-93345167D01*
X114760893Y-93449654D01*
X114760891Y-93449656D01*
X114755549Y-93453537D01*
X114751128Y-93458447D01*
X114751127Y-93458448D01*
X114650359Y-93570363D01*
X114627763Y-93595458D01*
X114532276Y-93760846D01*
X114473262Y-93942473D01*
X114453300Y-94132400D01*
X76733400Y-94132400D01*
X76733400Y-92929800D01*
X101586200Y-92929800D01*
X101606162Y-93119727D01*
X101665176Y-93301354D01*
X101760663Y-93466742D01*
X101765081Y-93471649D01*
X101765082Y-93471650D01*
X101858748Y-93575677D01*
X101888449Y-93608663D01*
X101893791Y-93612544D01*
X101893793Y-93612546D01*
X102037608Y-93717033D01*
X102042950Y-93720914D01*
X102048978Y-93723598D01*
X102048980Y-93723599D01*
X102146755Y-93767131D01*
X102217413Y-93798590D01*
X102310813Y-93818443D01*
X102397756Y-93836924D01*
X102397761Y-93836924D01*
X102404213Y-93838296D01*
X102595187Y-93838296D01*
X102601639Y-93836924D01*
X102601644Y-93836924D01*
X102688587Y-93818443D01*
X102781987Y-93798590D01*
X102852645Y-93767131D01*
X102950420Y-93723599D01*
X102950422Y-93723598D01*
X102956450Y-93720914D01*
X102961792Y-93717033D01*
X103105607Y-93612546D01*
X103105609Y-93612544D01*
X103110951Y-93608663D01*
X103140652Y-93575677D01*
X103234318Y-93471650D01*
X103234319Y-93471649D01*
X103238737Y-93466742D01*
X103334224Y-93301354D01*
X103393238Y-93119727D01*
X103413200Y-92929800D01*
X103393238Y-92739873D01*
X103382927Y-92708137D01*
X103346454Y-92595886D01*
X103334224Y-92558246D01*
X103309634Y-92515654D01*
X103288185Y-92478504D01*
X103238737Y-92392858D01*
X103181789Y-92329610D01*
X103115373Y-92255848D01*
X103115372Y-92255847D01*
X103110951Y-92250937D01*
X103105609Y-92247056D01*
X103105607Y-92247054D01*
X102961792Y-92142567D01*
X102961791Y-92142566D01*
X102956450Y-92138686D01*
X102950422Y-92136002D01*
X102950420Y-92136001D01*
X102788018Y-92063695D01*
X102788017Y-92063695D01*
X102781987Y-92061010D01*
X102688587Y-92041157D01*
X102601644Y-92022676D01*
X102601639Y-92022676D01*
X102595187Y-92021304D01*
X102404213Y-92021304D01*
X102397761Y-92022676D01*
X102397756Y-92022676D01*
X102310813Y-92041157D01*
X102217413Y-92061010D01*
X102211383Y-92063695D01*
X102211382Y-92063695D01*
X102048980Y-92136001D01*
X102048978Y-92136002D01*
X102042950Y-92138686D01*
X102037609Y-92142566D01*
X102037608Y-92142567D01*
X101893793Y-92247054D01*
X101893791Y-92247056D01*
X101888449Y-92250937D01*
X101884028Y-92255847D01*
X101884027Y-92255848D01*
X101817612Y-92329610D01*
X101760663Y-92392858D01*
X101711215Y-92478504D01*
X101689767Y-92515654D01*
X101665176Y-92558246D01*
X101652946Y-92595886D01*
X101616474Y-92708137D01*
X101606162Y-92739873D01*
X101586200Y-92929800D01*
X76733400Y-92929800D01*
X76733400Y-91812200D01*
X107631400Y-91812200D01*
X107651362Y-92002127D01*
X107710376Y-92183754D01*
X107805863Y-92349142D01*
X107933649Y-92491063D01*
X107938991Y-92494944D01*
X107938993Y-92494946D01*
X108077926Y-92595886D01*
X108088150Y-92603314D01*
X108094178Y-92605998D01*
X108094180Y-92605999D01*
X108218743Y-92661458D01*
X108262613Y-92680990D01*
X108356013Y-92700843D01*
X108442956Y-92719324D01*
X108442961Y-92719324D01*
X108449413Y-92720696D01*
X108640387Y-92720696D01*
X108646839Y-92719324D01*
X108646844Y-92719324D01*
X108733787Y-92700843D01*
X108827187Y-92680990D01*
X108871057Y-92661458D01*
X108995620Y-92605999D01*
X108995622Y-92605998D01*
X109001650Y-92603314D01*
X109011874Y-92595886D01*
X109150807Y-92494946D01*
X109150809Y-92494944D01*
X109156151Y-92491063D01*
X109283937Y-92349142D01*
X109379424Y-92183754D01*
X109438438Y-92002127D01*
X109458400Y-91812200D01*
X109438438Y-91622273D01*
X109379424Y-91440646D01*
X109283937Y-91275258D01*
X109253983Y-91241990D01*
X109160573Y-91138248D01*
X109160572Y-91138247D01*
X109156151Y-91133337D01*
X109150809Y-91129456D01*
X109150807Y-91129454D01*
X109006992Y-91024967D01*
X109006991Y-91024966D01*
X109001650Y-91021086D01*
X108995622Y-91018402D01*
X108995620Y-91018401D01*
X108833218Y-90946095D01*
X108833217Y-90946095D01*
X108827187Y-90943410D01*
X108733787Y-90923557D01*
X108646844Y-90905076D01*
X108646839Y-90905076D01*
X108640387Y-90903704D01*
X108449413Y-90903704D01*
X108442961Y-90905076D01*
X108442956Y-90905076D01*
X108356013Y-90923557D01*
X108262613Y-90943410D01*
X108256583Y-90946095D01*
X108256582Y-90946095D01*
X108094180Y-91018401D01*
X108094178Y-91018402D01*
X108088150Y-91021086D01*
X108082809Y-91024966D01*
X108082808Y-91024967D01*
X107938993Y-91129454D01*
X107938991Y-91129456D01*
X107933649Y-91133337D01*
X107929228Y-91138247D01*
X107929227Y-91138248D01*
X107835818Y-91241990D01*
X107805863Y-91275258D01*
X107710376Y-91440646D01*
X107651362Y-91622273D01*
X107631400Y-91812200D01*
X76733400Y-91812200D01*
X76733400Y-90373200D01*
X125854400Y-90373200D01*
X125874362Y-90563127D01*
X125876402Y-90569405D01*
X125876402Y-90569406D01*
X125890067Y-90611463D01*
X125933376Y-90744754D01*
X126028863Y-90910142D01*
X126033281Y-90915049D01*
X126033282Y-90915050D01*
X126061235Y-90946095D01*
X126156649Y-91052063D01*
X126161991Y-91055944D01*
X126161993Y-91055946D01*
X126275273Y-91138248D01*
X126311150Y-91164314D01*
X126317178Y-91166998D01*
X126317180Y-91166999D01*
X126479582Y-91239305D01*
X126485613Y-91241990D01*
X126579013Y-91261843D01*
X126665956Y-91280324D01*
X126665961Y-91280324D01*
X126672413Y-91281696D01*
X126863387Y-91281696D01*
X126869839Y-91280324D01*
X126869844Y-91280324D01*
X126956787Y-91261843D01*
X127050187Y-91241990D01*
X127056218Y-91239305D01*
X127218620Y-91166999D01*
X127218622Y-91166998D01*
X127224650Y-91164314D01*
X127260527Y-91138248D01*
X127373807Y-91055946D01*
X127373809Y-91055944D01*
X127379151Y-91052063D01*
X127474565Y-90946095D01*
X127502518Y-90915050D01*
X127502519Y-90915049D01*
X127506937Y-90910142D01*
X127602424Y-90744754D01*
X127645733Y-90611463D01*
X127659398Y-90569406D01*
X127659398Y-90569405D01*
X127661438Y-90563127D01*
X127681400Y-90373200D01*
X127673012Y-90293390D01*
X127662128Y-90189837D01*
X127662128Y-90189836D01*
X127661438Y-90183273D01*
X127641701Y-90122527D01*
X127604466Y-90007931D01*
X127602424Y-90001646D01*
X127506937Y-89836258D01*
X127379151Y-89694337D01*
X127373809Y-89690456D01*
X127373807Y-89690454D01*
X127229992Y-89585967D01*
X127229991Y-89585966D01*
X127224650Y-89582086D01*
X127218622Y-89579402D01*
X127218620Y-89579401D01*
X127056218Y-89507095D01*
X127056217Y-89507095D01*
X127050187Y-89504410D01*
X126956787Y-89484557D01*
X126869844Y-89466076D01*
X126869839Y-89466076D01*
X126863387Y-89464704D01*
X126672413Y-89464704D01*
X126665961Y-89466076D01*
X126665956Y-89466076D01*
X126579013Y-89484557D01*
X126485613Y-89504410D01*
X126479583Y-89507095D01*
X126479582Y-89507095D01*
X126317180Y-89579401D01*
X126317178Y-89579402D01*
X126311150Y-89582086D01*
X126305809Y-89585966D01*
X126305808Y-89585967D01*
X126161993Y-89690454D01*
X126161991Y-89690456D01*
X126156649Y-89694337D01*
X126028863Y-89836258D01*
X125933376Y-90001646D01*
X125931334Y-90007931D01*
X125894100Y-90122527D01*
X125874362Y-90183273D01*
X125873672Y-90189836D01*
X125873672Y-90189837D01*
X125862788Y-90293390D01*
X125854400Y-90373200D01*
X76733400Y-90373200D01*
X76733400Y-89424600D01*
X146087000Y-89424600D01*
X146087690Y-89431165D01*
X146102002Y-89567331D01*
X146106962Y-89614527D01*
X146165976Y-89796154D01*
X146261463Y-89961542D01*
X146389249Y-90103463D01*
X146394591Y-90107344D01*
X146394593Y-90107346D01*
X146508133Y-90189837D01*
X146543750Y-90215714D01*
X146549778Y-90218398D01*
X146549780Y-90218399D01*
X146712182Y-90290705D01*
X146718213Y-90293390D01*
X146811613Y-90313243D01*
X146898556Y-90331724D01*
X146898561Y-90331724D01*
X146905013Y-90333096D01*
X147095987Y-90333096D01*
X147102439Y-90331724D01*
X147102444Y-90331724D01*
X147189387Y-90313243D01*
X147282787Y-90293390D01*
X147288818Y-90290705D01*
X147451220Y-90218399D01*
X147451222Y-90218398D01*
X147457250Y-90215714D01*
X147492867Y-90189837D01*
X147606407Y-90107346D01*
X147606409Y-90107344D01*
X147611751Y-90103463D01*
X147739537Y-89961542D01*
X147756247Y-89932600D01*
X173519000Y-89932600D01*
X173538962Y-90122527D01*
X173541002Y-90128805D01*
X173541002Y-90128806D01*
X173560832Y-90189837D01*
X173597976Y-90304154D01*
X173601279Y-90309876D01*
X173601280Y-90309877D01*
X173614686Y-90333096D01*
X173693463Y-90469542D01*
X173821249Y-90611463D01*
X173826591Y-90615344D01*
X173826593Y-90615346D01*
X173970408Y-90719833D01*
X173975750Y-90723714D01*
X173981778Y-90726398D01*
X173981780Y-90726399D01*
X174144182Y-90798705D01*
X174150213Y-90801390D01*
X174243613Y-90821243D01*
X174330556Y-90839724D01*
X174330561Y-90839724D01*
X174337013Y-90841096D01*
X174527987Y-90841096D01*
X174534439Y-90839724D01*
X174534444Y-90839724D01*
X174621387Y-90821243D01*
X174714787Y-90801390D01*
X174720818Y-90798705D01*
X174883220Y-90726399D01*
X174883222Y-90726398D01*
X174889250Y-90723714D01*
X174894592Y-90719833D01*
X175038407Y-90615346D01*
X175038409Y-90615344D01*
X175043751Y-90611463D01*
X175171537Y-90469542D01*
X175250314Y-90333096D01*
X175263720Y-90309877D01*
X175263721Y-90309876D01*
X175267024Y-90304154D01*
X175304168Y-90189837D01*
X175323998Y-90128806D01*
X175323998Y-90128805D01*
X175326038Y-90122527D01*
X175346000Y-89932600D01*
X175331659Y-89796154D01*
X175326728Y-89749237D01*
X175326728Y-89749236D01*
X175326038Y-89742673D01*
X175311929Y-89699248D01*
X175269066Y-89567331D01*
X175267024Y-89561046D01*
X175171537Y-89395658D01*
X175043751Y-89253737D01*
X175038409Y-89249856D01*
X175038407Y-89249854D01*
X174894592Y-89145367D01*
X174894591Y-89145366D01*
X174889250Y-89141486D01*
X174883222Y-89138802D01*
X174883220Y-89138801D01*
X174720818Y-89066495D01*
X174720817Y-89066495D01*
X174714787Y-89063810D01*
X174621387Y-89043957D01*
X174534444Y-89025476D01*
X174534439Y-89025476D01*
X174527987Y-89024104D01*
X174337013Y-89024104D01*
X174330561Y-89025476D01*
X174330556Y-89025476D01*
X174243613Y-89043957D01*
X174150213Y-89063810D01*
X174144183Y-89066495D01*
X174144182Y-89066495D01*
X173981780Y-89138801D01*
X173981778Y-89138802D01*
X173975750Y-89141486D01*
X173970409Y-89145366D01*
X173970408Y-89145367D01*
X173826593Y-89249854D01*
X173826591Y-89249856D01*
X173821249Y-89253737D01*
X173693463Y-89395658D01*
X173597976Y-89561046D01*
X173595934Y-89567331D01*
X173553072Y-89699248D01*
X173538962Y-89742673D01*
X173538272Y-89749236D01*
X173538272Y-89749237D01*
X173533341Y-89796154D01*
X173519000Y-89932600D01*
X147756247Y-89932600D01*
X147835024Y-89796154D01*
X147894038Y-89614527D01*
X147898999Y-89567331D01*
X147913310Y-89431165D01*
X147914000Y-89424600D01*
X147894038Y-89234673D01*
X147835024Y-89053046D01*
X147819107Y-89025476D01*
X147742838Y-88893376D01*
X147739537Y-88887658D01*
X147611751Y-88745737D01*
X147606409Y-88741856D01*
X147606407Y-88741854D01*
X147462592Y-88637367D01*
X147462591Y-88637366D01*
X147457250Y-88633486D01*
X147451222Y-88630802D01*
X147451220Y-88630801D01*
X147288818Y-88558495D01*
X147288817Y-88558495D01*
X147282787Y-88555810D01*
X147189387Y-88535957D01*
X147102444Y-88517476D01*
X147102439Y-88517476D01*
X147095987Y-88516104D01*
X146905013Y-88516104D01*
X146898561Y-88517476D01*
X146898556Y-88517476D01*
X146811613Y-88535957D01*
X146718213Y-88555810D01*
X146712183Y-88558495D01*
X146712182Y-88558495D01*
X146549780Y-88630801D01*
X146549778Y-88630802D01*
X146543750Y-88633486D01*
X146538409Y-88637366D01*
X146538408Y-88637367D01*
X146394593Y-88741854D01*
X146394591Y-88741856D01*
X146389249Y-88745737D01*
X146261463Y-88887658D01*
X146258162Y-88893376D01*
X146181894Y-89025476D01*
X146165976Y-89053046D01*
X146106962Y-89234673D01*
X146087000Y-89424600D01*
X76733400Y-89424600D01*
X76733400Y-85436800D01*
X127037000Y-85436800D01*
X127056962Y-85626727D01*
X127115976Y-85808354D01*
X127211463Y-85973742D01*
X127339249Y-86115663D01*
X127344591Y-86119544D01*
X127344593Y-86119546D01*
X127488408Y-86224033D01*
X127493750Y-86227914D01*
X127499778Y-86230598D01*
X127499780Y-86230599D01*
X127662182Y-86302905D01*
X127668213Y-86305590D01*
X127761613Y-86325443D01*
X127848556Y-86343924D01*
X127848561Y-86343924D01*
X127855013Y-86345296D01*
X128045987Y-86345296D01*
X128052439Y-86343924D01*
X128052444Y-86343924D01*
X128139387Y-86325443D01*
X128232787Y-86305590D01*
X128238818Y-86302905D01*
X128401220Y-86230599D01*
X128401222Y-86230598D01*
X128407250Y-86227914D01*
X128412592Y-86224033D01*
X128556407Y-86119546D01*
X128556409Y-86119544D01*
X128561751Y-86115663D01*
X128689537Y-85973742D01*
X128785024Y-85808354D01*
X128844038Y-85626727D01*
X128864000Y-85436800D01*
X128844038Y-85246873D01*
X128785024Y-85065246D01*
X128689537Y-84899858D01*
X128561751Y-84757937D01*
X128556409Y-84754056D01*
X128556407Y-84754054D01*
X128412592Y-84649567D01*
X128412591Y-84649566D01*
X128407250Y-84645686D01*
X128401222Y-84643002D01*
X128401220Y-84643001D01*
X128238818Y-84570695D01*
X128238817Y-84570695D01*
X128232787Y-84568010D01*
X128139387Y-84548157D01*
X128052444Y-84529676D01*
X128052439Y-84529676D01*
X128045987Y-84528304D01*
X127855013Y-84528304D01*
X127848561Y-84529676D01*
X127848556Y-84529676D01*
X127761613Y-84548157D01*
X127668213Y-84568010D01*
X127662183Y-84570695D01*
X127662182Y-84570695D01*
X127499780Y-84643001D01*
X127499778Y-84643002D01*
X127493750Y-84645686D01*
X127488409Y-84649566D01*
X127488408Y-84649567D01*
X127344593Y-84754054D01*
X127344591Y-84754056D01*
X127339249Y-84757937D01*
X127211463Y-84899858D01*
X127115976Y-85065246D01*
X127056962Y-85246873D01*
X127037000Y-85436800D01*
X76733400Y-85436800D01*
X76733400Y-83057600D01*
X148782000Y-83057600D01*
X148801962Y-83247527D01*
X148860976Y-83429154D01*
X148956463Y-83594542D01*
X149084249Y-83736463D01*
X149089591Y-83740344D01*
X149089593Y-83740346D01*
X149233408Y-83844833D01*
X149238750Y-83848714D01*
X149244778Y-83851398D01*
X149244780Y-83851399D01*
X149407182Y-83923705D01*
X149413213Y-83926390D01*
X149485024Y-83941654D01*
X149593556Y-83964724D01*
X149593561Y-83964724D01*
X149600013Y-83966096D01*
X149790987Y-83966096D01*
X149797439Y-83964724D01*
X149797444Y-83964724D01*
X149905976Y-83941654D01*
X149977787Y-83926390D01*
X149983818Y-83923705D01*
X150146220Y-83851399D01*
X150146222Y-83851398D01*
X150152250Y-83848714D01*
X150157592Y-83844833D01*
X150301407Y-83740346D01*
X150301409Y-83740344D01*
X150306751Y-83736463D01*
X150434537Y-83594542D01*
X150448649Y-83570100D01*
X189107000Y-83570100D01*
X189126962Y-83760027D01*
X189185976Y-83941654D01*
X189189279Y-83947376D01*
X189189280Y-83947377D01*
X189223189Y-84006108D01*
X189281463Y-84107042D01*
X189409249Y-84248963D01*
X189414591Y-84252844D01*
X189414593Y-84252846D01*
X189558408Y-84357333D01*
X189563750Y-84361214D01*
X189569778Y-84363898D01*
X189569780Y-84363899D01*
X189732182Y-84436205D01*
X189738213Y-84438890D01*
X189831613Y-84458743D01*
X189918556Y-84477224D01*
X189918561Y-84477224D01*
X189925013Y-84478596D01*
X190115987Y-84478596D01*
X190122439Y-84477224D01*
X190122444Y-84477224D01*
X190209387Y-84458743D01*
X190302787Y-84438890D01*
X190308818Y-84436205D01*
X190471220Y-84363899D01*
X190471222Y-84363898D01*
X190477250Y-84361214D01*
X190482592Y-84357333D01*
X190626407Y-84252846D01*
X190626409Y-84252844D01*
X190631751Y-84248963D01*
X190759537Y-84107042D01*
X190817811Y-84006108D01*
X190851720Y-83947377D01*
X190851721Y-83947376D01*
X190855024Y-83941654D01*
X190914038Y-83760027D01*
X190934000Y-83570100D01*
X190914038Y-83380173D01*
X190855024Y-83198546D01*
X190759537Y-83033158D01*
X190631751Y-82891237D01*
X190626409Y-82887356D01*
X190626407Y-82887354D01*
X190482592Y-82782867D01*
X190482591Y-82782866D01*
X190477250Y-82778986D01*
X190471222Y-82776302D01*
X190471220Y-82776301D01*
X190308818Y-82703995D01*
X190308817Y-82703995D01*
X190302787Y-82701310D01*
X190204052Y-82680323D01*
X190122444Y-82662976D01*
X190122439Y-82662976D01*
X190115987Y-82661604D01*
X189925013Y-82661604D01*
X189918561Y-82662976D01*
X189918556Y-82662976D01*
X189836948Y-82680323D01*
X189738213Y-82701310D01*
X189732183Y-82703995D01*
X189732182Y-82703995D01*
X189569780Y-82776301D01*
X189569778Y-82776302D01*
X189563750Y-82778986D01*
X189558409Y-82782866D01*
X189558408Y-82782867D01*
X189414593Y-82887354D01*
X189414591Y-82887356D01*
X189409249Y-82891237D01*
X189281463Y-83033158D01*
X189185976Y-83198546D01*
X189126962Y-83380173D01*
X189107000Y-83570100D01*
X150448649Y-83570100D01*
X150530024Y-83429154D01*
X150589038Y-83247527D01*
X150609000Y-83057600D01*
X150589038Y-82867673D01*
X150530024Y-82686046D01*
X150515913Y-82661604D01*
X150457424Y-82560299D01*
X150434537Y-82520658D01*
X150370238Y-82449246D01*
X150311173Y-82383648D01*
X150311172Y-82383647D01*
X150306751Y-82378737D01*
X150301409Y-82374856D01*
X150301407Y-82374854D01*
X150157592Y-82270367D01*
X150157591Y-82270366D01*
X150152250Y-82266486D01*
X150146222Y-82263802D01*
X150146220Y-82263801D01*
X149983818Y-82191495D01*
X149983817Y-82191495D01*
X149977787Y-82188810D01*
X149884387Y-82168957D01*
X149797444Y-82150476D01*
X149797439Y-82150476D01*
X149790987Y-82149104D01*
X149600013Y-82149104D01*
X149593561Y-82150476D01*
X149593556Y-82150476D01*
X149506613Y-82168957D01*
X149413213Y-82188810D01*
X149407183Y-82191495D01*
X149407182Y-82191495D01*
X149244780Y-82263801D01*
X149244778Y-82263802D01*
X149238750Y-82266486D01*
X149233409Y-82270366D01*
X149233408Y-82270367D01*
X149089593Y-82374854D01*
X149089591Y-82374856D01*
X149084249Y-82378737D01*
X149079828Y-82383647D01*
X149079827Y-82383648D01*
X149020763Y-82449246D01*
X148956463Y-82520658D01*
X148933576Y-82560299D01*
X148875088Y-82661604D01*
X148860976Y-82686046D01*
X148801962Y-82867673D01*
X148782000Y-83057600D01*
X76733400Y-83057600D01*
X76733400Y-81766500D01*
X159599800Y-81766500D01*
X159619762Y-81956427D01*
X159678776Y-82138054D01*
X159774263Y-82303442D01*
X159778681Y-82308349D01*
X159778682Y-82308350D01*
X159842059Y-82378737D01*
X159902049Y-82445363D01*
X159907391Y-82449244D01*
X159907393Y-82449246D01*
X159998929Y-82515750D01*
X160056550Y-82557614D01*
X160062578Y-82560298D01*
X160062580Y-82560299D01*
X160224982Y-82632605D01*
X160231013Y-82635290D01*
X160324413Y-82655143D01*
X160411356Y-82673624D01*
X160411361Y-82673624D01*
X160417813Y-82674996D01*
X160608787Y-82674996D01*
X160615239Y-82673624D01*
X160615244Y-82673624D01*
X160702187Y-82655143D01*
X160795587Y-82635290D01*
X160801618Y-82632605D01*
X160964020Y-82560299D01*
X160964022Y-82560298D01*
X160970050Y-82557614D01*
X161027671Y-82515750D01*
X161119207Y-82449246D01*
X161119209Y-82449244D01*
X161124551Y-82445363D01*
X161184541Y-82378737D01*
X161247918Y-82308350D01*
X161247919Y-82308349D01*
X161252337Y-82303442D01*
X161347824Y-82138054D01*
X161406838Y-81956427D01*
X161426800Y-81766500D01*
X161406838Y-81576573D01*
X161347824Y-81394946D01*
X161252337Y-81229558D01*
X161194999Y-81165877D01*
X161128973Y-81092548D01*
X161128972Y-81092547D01*
X161124551Y-81087637D01*
X161119209Y-81083756D01*
X161119207Y-81083754D01*
X160975392Y-80979267D01*
X160975391Y-80979266D01*
X160970050Y-80975386D01*
X160964022Y-80972702D01*
X160964020Y-80972701D01*
X160801618Y-80900395D01*
X160801617Y-80900395D01*
X160795587Y-80897710D01*
X160702187Y-80877857D01*
X160615244Y-80859376D01*
X160615239Y-80859376D01*
X160608787Y-80858004D01*
X160417813Y-80858004D01*
X160411361Y-80859376D01*
X160411356Y-80859376D01*
X160324413Y-80877857D01*
X160231013Y-80897710D01*
X160224983Y-80900395D01*
X160224982Y-80900395D01*
X160062580Y-80972701D01*
X160062578Y-80972702D01*
X160056550Y-80975386D01*
X160051209Y-80979266D01*
X160051208Y-80979267D01*
X159907393Y-81083754D01*
X159907391Y-81083756D01*
X159902049Y-81087637D01*
X159897628Y-81092547D01*
X159897627Y-81092548D01*
X159831602Y-81165877D01*
X159774263Y-81229558D01*
X159678776Y-81394946D01*
X159619762Y-81576573D01*
X159599800Y-81766500D01*
X76733400Y-81766500D01*
X76733400Y-80788600D01*
X134911000Y-80788600D01*
X134930962Y-80978527D01*
X134989976Y-81160154D01*
X135085463Y-81325542D01*
X135089881Y-81330449D01*
X135089882Y-81330450D01*
X135208827Y-81462552D01*
X135213249Y-81467463D01*
X135218591Y-81471344D01*
X135218593Y-81471346D01*
X135354784Y-81570294D01*
X135367750Y-81579714D01*
X135373778Y-81582398D01*
X135373780Y-81582399D01*
X135375438Y-81583137D01*
X135542213Y-81657390D01*
X135635613Y-81677243D01*
X135722556Y-81695724D01*
X135722561Y-81695724D01*
X135729013Y-81697096D01*
X135919987Y-81697096D01*
X135926439Y-81695724D01*
X135926444Y-81695724D01*
X136013387Y-81677243D01*
X136106787Y-81657390D01*
X136273562Y-81583137D01*
X136275220Y-81582399D01*
X136275222Y-81582398D01*
X136281250Y-81579714D01*
X136294216Y-81570294D01*
X136430407Y-81471346D01*
X136430409Y-81471344D01*
X136435751Y-81467463D01*
X136440173Y-81462552D01*
X136559118Y-81330450D01*
X136559119Y-81330449D01*
X136563537Y-81325542D01*
X136659024Y-81160154D01*
X136718038Y-80978527D01*
X136738000Y-80788600D01*
X174535000Y-80788600D01*
X174554962Y-80978527D01*
X174613976Y-81160154D01*
X174709463Y-81325542D01*
X174713881Y-81330449D01*
X174713882Y-81330450D01*
X174832827Y-81462552D01*
X174837249Y-81467463D01*
X174842591Y-81471344D01*
X174842593Y-81471346D01*
X174978784Y-81570294D01*
X174991750Y-81579714D01*
X174997778Y-81582398D01*
X174997780Y-81582399D01*
X174999438Y-81583137D01*
X175166213Y-81657390D01*
X175259613Y-81677243D01*
X175346556Y-81695724D01*
X175346561Y-81695724D01*
X175353013Y-81697096D01*
X175543987Y-81697096D01*
X175550439Y-81695724D01*
X175550444Y-81695724D01*
X175637387Y-81677243D01*
X175730787Y-81657390D01*
X175897562Y-81583137D01*
X175899220Y-81582399D01*
X175899222Y-81582398D01*
X175905250Y-81579714D01*
X175918216Y-81570294D01*
X176054407Y-81471346D01*
X176054409Y-81471344D01*
X176059751Y-81467463D01*
X176064173Y-81462552D01*
X176183118Y-81330450D01*
X176183119Y-81330449D01*
X176187537Y-81325542D01*
X176283024Y-81160154D01*
X176342038Y-80978527D01*
X176362000Y-80788600D01*
X176342038Y-80598673D01*
X176283024Y-80417046D01*
X176187537Y-80251658D01*
X176059751Y-80109737D01*
X176054409Y-80105856D01*
X176054407Y-80105854D01*
X175910592Y-80001367D01*
X175910591Y-80001366D01*
X175905250Y-79997486D01*
X175899222Y-79994802D01*
X175899220Y-79994801D01*
X175736818Y-79922495D01*
X175736817Y-79922495D01*
X175730787Y-79919810D01*
X175631497Y-79898705D01*
X175550444Y-79881476D01*
X175550439Y-79881476D01*
X175543987Y-79880104D01*
X175353013Y-79880104D01*
X175346561Y-79881476D01*
X175346556Y-79881476D01*
X175265503Y-79898705D01*
X175166213Y-79919810D01*
X175160183Y-79922495D01*
X175160182Y-79922495D01*
X174997780Y-79994801D01*
X174997778Y-79994802D01*
X174991750Y-79997486D01*
X174986409Y-80001366D01*
X174986408Y-80001367D01*
X174842593Y-80105854D01*
X174842591Y-80105856D01*
X174837249Y-80109737D01*
X174709463Y-80251658D01*
X174613976Y-80417046D01*
X174554962Y-80598673D01*
X174535000Y-80788600D01*
X136738000Y-80788600D01*
X136718038Y-80598673D01*
X136659024Y-80417046D01*
X136563537Y-80251658D01*
X136435751Y-80109737D01*
X136430409Y-80105856D01*
X136430407Y-80105854D01*
X136286592Y-80001367D01*
X136286591Y-80001366D01*
X136281250Y-79997486D01*
X136275222Y-79994802D01*
X136275220Y-79994801D01*
X136112818Y-79922495D01*
X136112817Y-79922495D01*
X136106787Y-79919810D01*
X136007497Y-79898705D01*
X135926444Y-79881476D01*
X135926439Y-79881476D01*
X135919987Y-79880104D01*
X135729013Y-79880104D01*
X135722561Y-79881476D01*
X135722556Y-79881476D01*
X135641503Y-79898705D01*
X135542213Y-79919810D01*
X135536183Y-79922495D01*
X135536182Y-79922495D01*
X135373780Y-79994801D01*
X135373778Y-79994802D01*
X135367750Y-79997486D01*
X135362409Y-80001366D01*
X135362408Y-80001367D01*
X135218593Y-80105854D01*
X135218591Y-80105856D01*
X135213249Y-80109737D01*
X135085463Y-80251658D01*
X134989976Y-80417046D01*
X134930962Y-80598673D01*
X134911000Y-80788600D01*
X76733400Y-80788600D01*
X76733400Y-79032600D01*
X124394500Y-79032600D01*
X124414462Y-79222527D01*
X124473476Y-79404154D01*
X124568963Y-79569542D01*
X124696749Y-79711463D01*
X124702091Y-79715344D01*
X124702093Y-79715346D01*
X124755508Y-79754154D01*
X124851250Y-79823714D01*
X124857278Y-79826398D01*
X124857280Y-79826399D01*
X124980985Y-79881476D01*
X125025713Y-79901390D01*
X125119113Y-79921243D01*
X125206056Y-79939724D01*
X125206061Y-79939724D01*
X125212513Y-79941096D01*
X125403487Y-79941096D01*
X125409939Y-79939724D01*
X125409944Y-79939724D01*
X125496887Y-79921243D01*
X125590287Y-79901390D01*
X125635015Y-79881476D01*
X125758720Y-79826399D01*
X125758722Y-79826398D01*
X125764750Y-79823714D01*
X125860492Y-79754154D01*
X125913907Y-79715346D01*
X125913909Y-79715344D01*
X125919251Y-79711463D01*
X126047037Y-79569542D01*
X126142524Y-79404154D01*
X126149527Y-79382600D01*
X163807000Y-79382600D01*
X163826962Y-79572527D01*
X163885976Y-79754154D01*
X163981463Y-79919542D01*
X164109249Y-80061463D01*
X164114591Y-80065344D01*
X164114593Y-80065346D01*
X164182452Y-80114648D01*
X164263750Y-80173714D01*
X164269778Y-80176398D01*
X164269780Y-80176399D01*
X164427791Y-80246750D01*
X164438213Y-80251390D01*
X164531613Y-80271243D01*
X164618556Y-80289724D01*
X164618561Y-80289724D01*
X164625013Y-80291096D01*
X164815987Y-80291096D01*
X164822439Y-80289724D01*
X164822444Y-80289724D01*
X164909387Y-80271243D01*
X165002787Y-80251390D01*
X165013209Y-80246750D01*
X165171220Y-80176399D01*
X165171222Y-80176398D01*
X165177250Y-80173714D01*
X165258548Y-80114648D01*
X165326407Y-80065346D01*
X165326409Y-80065344D01*
X165331751Y-80061463D01*
X165459537Y-79919542D01*
X165555024Y-79754154D01*
X165614038Y-79572527D01*
X165634000Y-79382600D01*
X165614038Y-79192673D01*
X165591033Y-79121869D01*
X165557066Y-79017331D01*
X165555024Y-79011046D01*
X165459537Y-78845658D01*
X165379349Y-78756600D01*
X179615000Y-78756600D01*
X179634962Y-78946527D01*
X179637002Y-78952805D01*
X179637002Y-78952806D01*
X179660796Y-79026035D01*
X179693976Y-79128154D01*
X179789463Y-79293542D01*
X179917249Y-79435463D01*
X179922591Y-79439344D01*
X179922593Y-79439346D01*
X180066408Y-79543833D01*
X180071750Y-79547714D01*
X180077778Y-79550398D01*
X180077780Y-79550399D01*
X180240182Y-79622705D01*
X180246213Y-79625390D01*
X180339613Y-79645243D01*
X180426556Y-79663724D01*
X180426561Y-79663724D01*
X180433013Y-79665096D01*
X180623987Y-79665096D01*
X180630439Y-79663724D01*
X180630444Y-79663724D01*
X180717387Y-79645243D01*
X180810787Y-79625390D01*
X180816818Y-79622705D01*
X180979220Y-79550399D01*
X180979222Y-79550398D01*
X180985250Y-79547714D01*
X180990592Y-79543833D01*
X181134407Y-79439346D01*
X181134409Y-79439344D01*
X181139751Y-79435463D01*
X181267537Y-79293542D01*
X181363024Y-79128154D01*
X181396204Y-79026035D01*
X181419998Y-78952806D01*
X181419998Y-78952805D01*
X181422038Y-78946527D01*
X181442000Y-78756600D01*
X181428017Y-78623560D01*
X181422728Y-78573237D01*
X181422728Y-78573236D01*
X181422038Y-78566673D01*
X181363024Y-78385046D01*
X181267537Y-78219658D01*
X181257346Y-78208339D01*
X181144173Y-78082648D01*
X181144172Y-78082647D01*
X181139751Y-78077737D01*
X181134409Y-78073856D01*
X181134407Y-78073854D01*
X180990592Y-77969367D01*
X180990591Y-77969366D01*
X180985250Y-77965486D01*
X180979222Y-77962802D01*
X180979220Y-77962801D01*
X180816818Y-77890495D01*
X180816817Y-77890495D01*
X180810787Y-77887810D01*
X180717387Y-77867957D01*
X180630444Y-77849476D01*
X180630439Y-77849476D01*
X180623987Y-77848104D01*
X180433013Y-77848104D01*
X180426561Y-77849476D01*
X180426556Y-77849476D01*
X180339613Y-77867957D01*
X180246213Y-77887810D01*
X180240183Y-77890495D01*
X180240182Y-77890495D01*
X180077780Y-77962801D01*
X180077778Y-77962802D01*
X180071750Y-77965486D01*
X180066409Y-77969366D01*
X180066408Y-77969367D01*
X179922593Y-78073854D01*
X179922591Y-78073856D01*
X179917249Y-78077737D01*
X179912828Y-78082647D01*
X179912827Y-78082648D01*
X179799655Y-78208339D01*
X179789463Y-78219658D01*
X179693976Y-78385046D01*
X179634962Y-78566673D01*
X179634272Y-78573236D01*
X179634272Y-78573237D01*
X179628983Y-78623560D01*
X179615000Y-78756600D01*
X165379349Y-78756600D01*
X165331751Y-78703737D01*
X165326409Y-78699856D01*
X165326407Y-78699854D01*
X165182592Y-78595367D01*
X165182591Y-78595366D01*
X165177250Y-78591486D01*
X165171222Y-78588802D01*
X165171220Y-78588801D01*
X165008818Y-78516495D01*
X165008817Y-78516495D01*
X165002787Y-78513810D01*
X164909387Y-78493957D01*
X164822444Y-78475476D01*
X164822439Y-78475476D01*
X164815987Y-78474104D01*
X164625013Y-78474104D01*
X164618561Y-78475476D01*
X164618556Y-78475476D01*
X164531613Y-78493957D01*
X164438213Y-78513810D01*
X164432183Y-78516495D01*
X164432182Y-78516495D01*
X164269780Y-78588801D01*
X164269778Y-78588802D01*
X164263750Y-78591486D01*
X164258409Y-78595366D01*
X164258408Y-78595367D01*
X164114593Y-78699854D01*
X164114591Y-78699856D01*
X164109249Y-78703737D01*
X163981463Y-78845658D01*
X163885976Y-79011046D01*
X163883934Y-79017331D01*
X163849968Y-79121869D01*
X163826962Y-79192673D01*
X163807000Y-79382600D01*
X126149527Y-79382600D01*
X126201538Y-79222527D01*
X126221500Y-79032600D01*
X126201538Y-78842673D01*
X126142524Y-78661046D01*
X126135646Y-78649132D01*
X126050338Y-78501376D01*
X126047037Y-78495658D01*
X125919251Y-78353737D01*
X125913909Y-78349856D01*
X125913907Y-78349854D01*
X125770092Y-78245367D01*
X125770091Y-78245366D01*
X125764750Y-78241486D01*
X125758722Y-78238802D01*
X125758720Y-78238801D01*
X125596318Y-78166495D01*
X125596317Y-78166495D01*
X125590287Y-78163810D01*
X125496887Y-78143957D01*
X125409944Y-78125476D01*
X125409939Y-78125476D01*
X125403487Y-78124104D01*
X125212513Y-78124104D01*
X125206061Y-78125476D01*
X125206056Y-78125476D01*
X125119113Y-78143957D01*
X125025713Y-78163810D01*
X125019683Y-78166495D01*
X125019682Y-78166495D01*
X124857280Y-78238801D01*
X124857278Y-78238802D01*
X124851250Y-78241486D01*
X124845909Y-78245366D01*
X124845908Y-78245367D01*
X124702093Y-78349854D01*
X124702091Y-78349856D01*
X124696749Y-78353737D01*
X124568963Y-78495658D01*
X124565662Y-78501376D01*
X124480355Y-78649132D01*
X124473476Y-78661046D01*
X124414462Y-78842673D01*
X124394500Y-79032600D01*
X76733400Y-79032600D01*
X76733400Y-78208339D01*
X76753402Y-78140218D01*
X76807058Y-78093725D01*
X76877332Y-78083621D01*
X76941912Y-78113115D01*
X76975383Y-78159106D01*
X76978520Y-78166495D01*
X76984579Y-78180770D01*
X77095158Y-78341064D01*
X77235710Y-78475848D01*
X77400494Y-78579618D01*
X77406468Y-78581863D01*
X77406469Y-78581864D01*
X77505843Y-78619216D01*
X77582778Y-78648134D01*
X77589077Y-78649132D01*
X77589078Y-78649132D01*
X77664299Y-78661046D01*
X77775116Y-78678598D01*
X77969651Y-78669764D01*
X78004104Y-78661046D01*
X78152248Y-78623560D01*
X78152250Y-78623559D01*
X78158436Y-78621994D01*
X78246095Y-78579618D01*
X78328012Y-78540018D01*
X78328014Y-78540017D01*
X78333760Y-78537239D01*
X78338829Y-78533363D01*
X78338833Y-78533361D01*
X78483387Y-78422840D01*
X78488461Y-78418961D01*
X78616219Y-78271993D01*
X78711815Y-78102336D01*
X78771345Y-77916923D01*
X78792377Y-77723326D01*
X78792400Y-77716600D01*
X78791679Y-77709496D01*
X78773366Y-77529209D01*
X78773366Y-77529207D01*
X78772721Y-77522861D01*
X78714487Y-77337037D01*
X78620077Y-77166717D01*
X78493348Y-77018860D01*
X78441445Y-76978600D01*
X89800600Y-76978600D01*
X89820562Y-77168527D01*
X89822602Y-77174805D01*
X89822602Y-77174806D01*
X89855057Y-77274693D01*
X89879576Y-77350154D01*
X89975063Y-77515542D01*
X89979481Y-77520449D01*
X89979482Y-77520450D01*
X90046426Y-77594799D01*
X90102849Y-77657463D01*
X90108191Y-77661344D01*
X90108193Y-77661346D01*
X90249243Y-77763824D01*
X90257350Y-77769714D01*
X90263378Y-77772398D01*
X90263380Y-77772399D01*
X90415718Y-77840224D01*
X90431813Y-77847390D01*
X90525213Y-77867243D01*
X90612156Y-77885724D01*
X90612161Y-77885724D01*
X90618613Y-77887096D01*
X90809587Y-77887096D01*
X90816039Y-77885724D01*
X90816044Y-77885724D01*
X90902987Y-77867243D01*
X90996387Y-77847390D01*
X91012482Y-77840224D01*
X91164820Y-77772399D01*
X91164822Y-77772398D01*
X91170850Y-77769714D01*
X91178957Y-77763824D01*
X91320007Y-77661346D01*
X91320009Y-77661344D01*
X91325351Y-77657463D01*
X91381774Y-77594799D01*
X91448718Y-77520450D01*
X91448719Y-77520449D01*
X91453137Y-77515542D01*
X91548624Y-77350154D01*
X91573143Y-77274693D01*
X91605598Y-77174806D01*
X91605598Y-77174805D01*
X91607638Y-77168527D01*
X91627600Y-76978600D01*
X94169400Y-76978600D01*
X94189362Y-77168527D01*
X94191402Y-77174805D01*
X94191402Y-77174806D01*
X94223857Y-77274693D01*
X94248376Y-77350154D01*
X94343863Y-77515542D01*
X94348281Y-77520449D01*
X94348282Y-77520450D01*
X94415226Y-77594799D01*
X94471649Y-77657463D01*
X94476991Y-77661344D01*
X94476993Y-77661346D01*
X94618043Y-77763824D01*
X94626150Y-77769714D01*
X94632178Y-77772398D01*
X94632180Y-77772399D01*
X94784518Y-77840224D01*
X94800613Y-77847390D01*
X94894013Y-77867243D01*
X94980956Y-77885724D01*
X94980961Y-77885724D01*
X94987413Y-77887096D01*
X95178387Y-77887096D01*
X95184839Y-77885724D01*
X95184844Y-77885724D01*
X95271787Y-77867243D01*
X95365187Y-77847390D01*
X95381282Y-77840224D01*
X95533620Y-77772399D01*
X95533622Y-77772398D01*
X95539650Y-77769714D01*
X95547757Y-77763824D01*
X95688807Y-77661346D01*
X95688809Y-77661344D01*
X95694151Y-77657463D01*
X95750574Y-77594799D01*
X95817518Y-77520450D01*
X95817519Y-77520449D01*
X95821937Y-77515542D01*
X95917424Y-77350154D01*
X95941943Y-77274693D01*
X95974398Y-77174806D01*
X95974398Y-77174805D01*
X95976438Y-77168527D01*
X95996400Y-76978600D01*
X95982948Y-76850612D01*
X95977734Y-76801000D01*
X100875000Y-76801000D01*
X100875690Y-76807565D01*
X100890002Y-76943731D01*
X100894962Y-76990927D01*
X100953976Y-77172554D01*
X101049463Y-77337942D01*
X101053881Y-77342849D01*
X101053882Y-77342850D01*
X101131277Y-77428806D01*
X101177249Y-77479863D01*
X101182591Y-77483744D01*
X101182593Y-77483746D01*
X101218487Y-77509824D01*
X101331750Y-77592114D01*
X101337778Y-77594798D01*
X101337780Y-77594799D01*
X101478526Y-77657463D01*
X101506213Y-77669790D01*
X101599613Y-77689643D01*
X101686556Y-77708124D01*
X101686561Y-77708124D01*
X101693013Y-77709496D01*
X101883987Y-77709496D01*
X101890439Y-77708124D01*
X101890444Y-77708124D01*
X101977387Y-77689643D01*
X102070787Y-77669790D01*
X102098474Y-77657463D01*
X102239220Y-77594799D01*
X102239222Y-77594798D01*
X102245250Y-77592114D01*
X102358513Y-77509824D01*
X102394407Y-77483746D01*
X102394409Y-77483744D01*
X102399751Y-77479863D01*
X102445723Y-77428806D01*
X102523118Y-77342850D01*
X102523119Y-77342849D01*
X102527537Y-77337942D01*
X102544247Y-77309000D01*
X117105600Y-77309000D01*
X117125562Y-77498927D01*
X117127602Y-77505205D01*
X117127602Y-77505206D01*
X117135401Y-77529209D01*
X117184576Y-77680554D01*
X117187879Y-77686276D01*
X117187880Y-77686277D01*
X117201286Y-77709496D01*
X117280063Y-77845942D01*
X117284481Y-77850849D01*
X117284482Y-77850850D01*
X117343974Y-77916923D01*
X117407849Y-77987863D01*
X117413191Y-77991744D01*
X117413193Y-77991746D01*
X117538310Y-78082648D01*
X117562350Y-78100114D01*
X117568378Y-78102798D01*
X117568380Y-78102799D01*
X117705413Y-78163810D01*
X117736813Y-78177790D01*
X117830213Y-78197643D01*
X117917156Y-78216124D01*
X117917161Y-78216124D01*
X117923613Y-78217496D01*
X118114587Y-78217496D01*
X118121039Y-78216124D01*
X118121044Y-78216124D01*
X118207987Y-78197643D01*
X118301387Y-78177790D01*
X118332787Y-78163810D01*
X118469820Y-78102799D01*
X118469822Y-78102798D01*
X118475850Y-78100114D01*
X118499890Y-78082648D01*
X118625007Y-77991746D01*
X118625009Y-77991744D01*
X118630351Y-77987863D01*
X118694226Y-77916923D01*
X118753718Y-77850850D01*
X118753719Y-77850849D01*
X118758137Y-77845942D01*
X118836914Y-77709496D01*
X118850320Y-77686277D01*
X118850321Y-77686276D01*
X118853624Y-77680554D01*
X118902799Y-77529209D01*
X118910598Y-77505206D01*
X118910598Y-77505205D01*
X118912638Y-77498927D01*
X118932600Y-77309000D01*
X118924570Y-77232600D01*
X139991000Y-77232600D01*
X140010962Y-77422527D01*
X140013002Y-77428805D01*
X140013002Y-77428806D01*
X140030853Y-77483746D01*
X140069976Y-77604154D01*
X140165463Y-77769542D01*
X140169881Y-77774449D01*
X140169882Y-77774450D01*
X140270716Y-77886438D01*
X140293249Y-77911463D01*
X140298591Y-77915344D01*
X140298593Y-77915346D01*
X140442408Y-78019833D01*
X140447750Y-78023714D01*
X140453778Y-78026398D01*
X140453780Y-78026399D01*
X140616182Y-78098705D01*
X140622213Y-78101390D01*
X140715613Y-78121243D01*
X140802556Y-78139724D01*
X140802561Y-78139724D01*
X140809013Y-78141096D01*
X140999987Y-78141096D01*
X141006439Y-78139724D01*
X141006444Y-78139724D01*
X141093387Y-78121243D01*
X141186787Y-78101390D01*
X141192818Y-78098705D01*
X141355220Y-78026399D01*
X141355222Y-78026398D01*
X141361250Y-78023714D01*
X141366592Y-78019833D01*
X141510407Y-77915346D01*
X141510409Y-77915344D01*
X141515751Y-77911463D01*
X141538284Y-77886438D01*
X141639118Y-77774450D01*
X141639119Y-77774449D01*
X141643537Y-77769542D01*
X141739024Y-77604154D01*
X141778147Y-77483746D01*
X141795998Y-77428806D01*
X141795998Y-77428805D01*
X141798038Y-77422527D01*
X141818000Y-77232600D01*
X141811266Y-77168527D01*
X141798728Y-77049237D01*
X141798728Y-77049236D01*
X141798038Y-77042673D01*
X141777220Y-76978600D01*
X141741066Y-76867331D01*
X141739024Y-76861046D01*
X141710661Y-76811919D01*
X141684179Y-76766052D01*
X141643537Y-76695658D01*
X141581046Y-76626254D01*
X141520173Y-76558648D01*
X141520172Y-76558647D01*
X141515751Y-76553737D01*
X141510409Y-76549856D01*
X141510407Y-76549854D01*
X141366592Y-76445367D01*
X141366591Y-76445366D01*
X141361250Y-76441486D01*
X141355222Y-76438802D01*
X141355220Y-76438801D01*
X141192818Y-76366495D01*
X141192817Y-76366495D01*
X141186787Y-76363810D01*
X141093387Y-76343957D01*
X141006444Y-76325476D01*
X141006439Y-76325476D01*
X140999987Y-76324104D01*
X140809013Y-76324104D01*
X140802561Y-76325476D01*
X140802556Y-76325476D01*
X140715613Y-76343957D01*
X140622213Y-76363810D01*
X140616183Y-76366495D01*
X140616182Y-76366495D01*
X140453780Y-76438801D01*
X140453778Y-76438802D01*
X140447750Y-76441486D01*
X140442409Y-76445366D01*
X140442408Y-76445367D01*
X140298593Y-76549854D01*
X140298591Y-76549856D01*
X140293249Y-76553737D01*
X140288828Y-76558647D01*
X140288827Y-76558648D01*
X140227955Y-76626254D01*
X140165463Y-76695658D01*
X140124821Y-76766052D01*
X140098340Y-76811919D01*
X140069976Y-76861046D01*
X140067934Y-76867331D01*
X140031781Y-76978600D01*
X140010962Y-77042673D01*
X140010272Y-77049236D01*
X140010272Y-77049237D01*
X139997734Y-77168527D01*
X139991000Y-77232600D01*
X118924570Y-77232600D01*
X118917646Y-77166717D01*
X118913328Y-77125637D01*
X118913328Y-77125636D01*
X118912638Y-77119073D01*
X118853624Y-76937446D01*
X118758137Y-76772058D01*
X118742964Y-76755206D01*
X118634773Y-76635048D01*
X118634772Y-76635047D01*
X118630351Y-76630137D01*
X118625009Y-76626256D01*
X118625007Y-76626254D01*
X118481192Y-76521767D01*
X118481191Y-76521766D01*
X118475850Y-76517886D01*
X118469822Y-76515202D01*
X118469820Y-76515201D01*
X118307418Y-76442895D01*
X118307417Y-76442895D01*
X118301387Y-76440210D01*
X118207987Y-76420357D01*
X118121044Y-76401876D01*
X118121039Y-76401876D01*
X118114587Y-76400504D01*
X117923613Y-76400504D01*
X117917161Y-76401876D01*
X117917156Y-76401876D01*
X117830213Y-76420357D01*
X117736813Y-76440210D01*
X117730783Y-76442895D01*
X117730782Y-76442895D01*
X117568380Y-76515201D01*
X117568378Y-76515202D01*
X117562350Y-76517886D01*
X117557009Y-76521766D01*
X117557008Y-76521767D01*
X117413193Y-76626254D01*
X117413191Y-76626256D01*
X117407849Y-76630137D01*
X117403428Y-76635047D01*
X117403427Y-76635048D01*
X117295237Y-76755206D01*
X117280063Y-76772058D01*
X117184576Y-76937446D01*
X117125562Y-77119073D01*
X117124872Y-77125636D01*
X117124872Y-77125637D01*
X117120554Y-77166717D01*
X117105600Y-77309000D01*
X102544247Y-77309000D01*
X102623024Y-77172554D01*
X102682038Y-76990927D01*
X102686999Y-76943731D01*
X102701310Y-76807565D01*
X102702000Y-76801000D01*
X102682038Y-76611073D01*
X102663409Y-76553737D01*
X102626521Y-76440210D01*
X102623024Y-76429446D01*
X102607107Y-76401876D01*
X102530838Y-76269776D01*
X102527537Y-76264058D01*
X102513946Y-76248963D01*
X102404173Y-76127048D01*
X102404172Y-76127047D01*
X102399751Y-76122137D01*
X102394409Y-76118256D01*
X102394407Y-76118254D01*
X102250592Y-76013767D01*
X102250591Y-76013766D01*
X102245250Y-76009886D01*
X102239222Y-76007202D01*
X102239220Y-76007201D01*
X102076818Y-75934895D01*
X102076817Y-75934895D01*
X102070787Y-75932210D01*
X101977387Y-75912357D01*
X101890444Y-75893876D01*
X101890439Y-75893876D01*
X101883987Y-75892504D01*
X101693013Y-75892504D01*
X101686561Y-75893876D01*
X101686556Y-75893876D01*
X101599613Y-75912357D01*
X101506213Y-75932210D01*
X101500183Y-75934895D01*
X101500182Y-75934895D01*
X101337780Y-76007201D01*
X101337778Y-76007202D01*
X101331750Y-76009886D01*
X101326409Y-76013766D01*
X101326408Y-76013767D01*
X101182593Y-76118254D01*
X101182591Y-76118256D01*
X101177249Y-76122137D01*
X101172828Y-76127047D01*
X101172827Y-76127048D01*
X101063055Y-76248963D01*
X101049463Y-76264058D01*
X101046162Y-76269776D01*
X100969894Y-76401876D01*
X100953976Y-76429446D01*
X100950479Y-76440210D01*
X100913592Y-76553737D01*
X100894962Y-76611073D01*
X100875000Y-76801000D01*
X95977734Y-76801000D01*
X95977128Y-76795237D01*
X95977128Y-76795236D01*
X95976438Y-76788673D01*
X95972898Y-76777776D01*
X95919466Y-76613331D01*
X95917424Y-76607046D01*
X95821937Y-76441658D01*
X95751843Y-76363810D01*
X95698573Y-76304648D01*
X95698572Y-76304647D01*
X95694151Y-76299737D01*
X95688809Y-76295856D01*
X95688807Y-76295854D01*
X95544992Y-76191367D01*
X95544991Y-76191366D01*
X95539650Y-76187486D01*
X95533622Y-76184802D01*
X95533620Y-76184801D01*
X95371218Y-76112495D01*
X95371217Y-76112495D01*
X95365187Y-76109810D01*
X95271787Y-76089957D01*
X95184844Y-76071476D01*
X95184839Y-76071476D01*
X95178387Y-76070104D01*
X94987413Y-76070104D01*
X94980961Y-76071476D01*
X94980956Y-76071476D01*
X94894013Y-76089957D01*
X94800613Y-76109810D01*
X94794583Y-76112495D01*
X94794582Y-76112495D01*
X94632180Y-76184801D01*
X94632178Y-76184802D01*
X94626150Y-76187486D01*
X94620809Y-76191366D01*
X94620808Y-76191367D01*
X94476993Y-76295854D01*
X94476991Y-76295856D01*
X94471649Y-76299737D01*
X94467228Y-76304647D01*
X94467227Y-76304648D01*
X94413958Y-76363810D01*
X94343863Y-76441658D01*
X94248376Y-76607046D01*
X94246334Y-76613331D01*
X94192903Y-76777776D01*
X94189362Y-76788673D01*
X94188672Y-76795236D01*
X94188672Y-76795237D01*
X94182852Y-76850612D01*
X94169400Y-76978600D01*
X91627600Y-76978600D01*
X91614148Y-76850612D01*
X91608328Y-76795237D01*
X91608328Y-76795236D01*
X91607638Y-76788673D01*
X91604098Y-76777776D01*
X91550666Y-76613331D01*
X91548624Y-76607046D01*
X91453137Y-76441658D01*
X91383043Y-76363810D01*
X91329773Y-76304648D01*
X91329772Y-76304647D01*
X91325351Y-76299737D01*
X91320009Y-76295856D01*
X91320007Y-76295854D01*
X91176192Y-76191367D01*
X91176191Y-76191366D01*
X91170850Y-76187486D01*
X91164822Y-76184802D01*
X91164820Y-76184801D01*
X91002418Y-76112495D01*
X91002417Y-76112495D01*
X90996387Y-76109810D01*
X90902987Y-76089957D01*
X90816044Y-76071476D01*
X90816039Y-76071476D01*
X90809587Y-76070104D01*
X90618613Y-76070104D01*
X90612161Y-76071476D01*
X90612156Y-76071476D01*
X90525213Y-76089957D01*
X90431813Y-76109810D01*
X90425783Y-76112495D01*
X90425782Y-76112495D01*
X90263380Y-76184801D01*
X90263378Y-76184802D01*
X90257350Y-76187486D01*
X90252009Y-76191366D01*
X90252008Y-76191367D01*
X90108193Y-76295854D01*
X90108191Y-76295856D01*
X90102849Y-76299737D01*
X90098428Y-76304647D01*
X90098427Y-76304648D01*
X90045158Y-76363810D01*
X89975063Y-76441658D01*
X89879576Y-76607046D01*
X89877534Y-76613331D01*
X89824103Y-76777776D01*
X89820562Y-76788673D01*
X89819872Y-76795236D01*
X89819872Y-76795237D01*
X89814052Y-76850612D01*
X89800600Y-76978600D01*
X78441445Y-76978600D01*
X78339477Y-76899506D01*
X78164749Y-76813529D01*
X78158571Y-76811920D01*
X78158569Y-76811919D01*
X77982485Y-76766052D01*
X77982480Y-76766051D01*
X77976302Y-76764442D01*
X77890292Y-76759934D01*
X77788215Y-76754584D01*
X77788210Y-76754584D01*
X77781833Y-76754250D01*
X77589287Y-76783370D01*
X77583294Y-76785575D01*
X77412515Y-76848409D01*
X77412510Y-76848411D01*
X77406529Y-76850612D01*
X77401107Y-76853974D01*
X77256344Y-76943731D01*
X77241025Y-76953229D01*
X77236392Y-76957610D01*
X77236391Y-76957611D01*
X77201160Y-76990927D01*
X77099535Y-77087029D01*
X77095873Y-77092259D01*
X77095872Y-77092260D01*
X76997606Y-77232600D01*
X76987840Y-77246547D01*
X76985304Y-77252408D01*
X76975037Y-77276133D01*
X76929626Y-77330707D01*
X76861919Y-77352067D01*
X76793412Y-77333431D01*
X76745856Y-77280715D01*
X76733400Y-77226092D01*
X76733400Y-75208339D01*
X76753402Y-75140218D01*
X76807058Y-75093725D01*
X76877332Y-75083621D01*
X76941912Y-75113115D01*
X76975383Y-75159106D01*
X76984579Y-75180770D01*
X77095158Y-75341064D01*
X77235710Y-75475848D01*
X77400494Y-75579618D01*
X77406468Y-75581863D01*
X77406469Y-75581864D01*
X77517400Y-75623560D01*
X77582778Y-75648134D01*
X77589077Y-75649132D01*
X77589078Y-75649132D01*
X77666644Y-75661417D01*
X77775116Y-75678598D01*
X77969651Y-75669764D01*
X78055132Y-75648134D01*
X78152248Y-75623560D01*
X78152250Y-75623559D01*
X78158436Y-75621994D01*
X78246095Y-75579618D01*
X78328012Y-75540018D01*
X78328014Y-75540017D01*
X78333760Y-75537239D01*
X78338829Y-75533363D01*
X78338833Y-75533361D01*
X78451098Y-75447527D01*
X78488461Y-75418961D01*
X78616219Y-75271993D01*
X78624329Y-75257600D01*
X142982000Y-75257600D01*
X143001962Y-75447527D01*
X143060976Y-75629154D01*
X143064279Y-75634876D01*
X143064280Y-75634877D01*
X143071934Y-75648134D01*
X143156463Y-75794542D01*
X143160881Y-75799449D01*
X143160882Y-75799450D01*
X143279184Y-75930838D01*
X143284249Y-75936463D01*
X143289591Y-75940344D01*
X143289593Y-75940346D01*
X143390649Y-76013767D01*
X143438750Y-76048714D01*
X143444778Y-76051398D01*
X143444780Y-76051399D01*
X143607182Y-76123705D01*
X143613213Y-76126390D01*
X143706613Y-76146243D01*
X143793556Y-76164724D01*
X143793561Y-76164724D01*
X143800013Y-76166096D01*
X143990987Y-76166096D01*
X143997439Y-76164724D01*
X143997444Y-76164724D01*
X144084387Y-76146243D01*
X144177787Y-76126390D01*
X144183818Y-76123705D01*
X144346220Y-76051399D01*
X144346222Y-76051398D01*
X144352250Y-76048714D01*
X144400351Y-76013767D01*
X144501407Y-75940346D01*
X144501409Y-75940344D01*
X144506751Y-75936463D01*
X144511816Y-75930838D01*
X144630118Y-75799450D01*
X144630119Y-75799449D01*
X144634537Y-75794542D01*
X144719066Y-75648134D01*
X144726720Y-75634877D01*
X144726721Y-75634876D01*
X144730024Y-75629154D01*
X144749212Y-75570100D01*
X183107000Y-75570100D01*
X183107690Y-75576665D01*
X183118404Y-75678598D01*
X183126962Y-75760027D01*
X183129002Y-75766305D01*
X183129002Y-75766306D01*
X183139771Y-75799450D01*
X183185976Y-75941654D01*
X183281463Y-76107042D01*
X183285881Y-76111949D01*
X183285882Y-76111950D01*
X183296466Y-76123705D01*
X183409249Y-76248963D01*
X183414591Y-76252844D01*
X183414593Y-76252846D01*
X183558408Y-76357333D01*
X183563750Y-76361214D01*
X183569778Y-76363898D01*
X183569780Y-76363899D01*
X183732182Y-76436205D01*
X183738213Y-76438890D01*
X183831613Y-76458743D01*
X183918556Y-76477224D01*
X183918561Y-76477224D01*
X183925013Y-76478596D01*
X184115987Y-76478596D01*
X184122439Y-76477224D01*
X184122444Y-76477224D01*
X184209387Y-76458743D01*
X184302787Y-76438890D01*
X184308818Y-76436205D01*
X184471220Y-76363899D01*
X184471222Y-76363898D01*
X184477250Y-76361214D01*
X184482592Y-76357333D01*
X184626407Y-76252846D01*
X184626409Y-76252844D01*
X184631751Y-76248963D01*
X184744534Y-76123705D01*
X184755118Y-76111950D01*
X184755119Y-76111949D01*
X184759537Y-76107042D01*
X184855024Y-75941654D01*
X184901229Y-75799450D01*
X184911998Y-75766306D01*
X184911998Y-75766305D01*
X184914038Y-75760027D01*
X184922597Y-75678598D01*
X184933310Y-75576665D01*
X184934000Y-75570100D01*
X184920427Y-75440963D01*
X184914728Y-75386737D01*
X184914728Y-75386736D01*
X184914038Y-75380173D01*
X184855024Y-75198546D01*
X184759537Y-75033158D01*
X184649168Y-74910580D01*
X184636173Y-74896148D01*
X184636172Y-74896147D01*
X184631751Y-74891237D01*
X184626409Y-74887356D01*
X184626407Y-74887354D01*
X184482592Y-74782867D01*
X184482591Y-74782866D01*
X184477250Y-74778986D01*
X184471222Y-74776302D01*
X184471220Y-74776301D01*
X184308818Y-74703995D01*
X184308817Y-74703995D01*
X184302787Y-74701310D01*
X184209387Y-74681457D01*
X184122444Y-74662976D01*
X184122439Y-74662976D01*
X184115987Y-74661604D01*
X183925013Y-74661604D01*
X183918561Y-74662976D01*
X183918556Y-74662976D01*
X183831613Y-74681457D01*
X183738213Y-74701310D01*
X183732183Y-74703995D01*
X183732182Y-74703995D01*
X183569780Y-74776301D01*
X183569778Y-74776302D01*
X183563750Y-74778986D01*
X183558409Y-74782866D01*
X183558408Y-74782867D01*
X183414593Y-74887354D01*
X183414591Y-74887356D01*
X183409249Y-74891237D01*
X183404828Y-74896147D01*
X183404827Y-74896148D01*
X183391833Y-74910580D01*
X183281463Y-75033158D01*
X183185976Y-75198546D01*
X183126962Y-75380173D01*
X183126272Y-75386736D01*
X183126272Y-75386737D01*
X183120573Y-75440963D01*
X183107000Y-75570100D01*
X144749212Y-75570100D01*
X144789038Y-75447527D01*
X144809000Y-75257600D01*
X144808310Y-75251035D01*
X144789728Y-75074237D01*
X144789728Y-75074236D01*
X144789038Y-75067673D01*
X144777824Y-75033158D01*
X144741941Y-74922724D01*
X144730024Y-74886046D01*
X144634537Y-74720658D01*
X144506751Y-74578737D01*
X144501409Y-74574856D01*
X144501407Y-74574854D01*
X144357592Y-74470367D01*
X144357591Y-74470366D01*
X144352250Y-74466486D01*
X144346222Y-74463802D01*
X144346220Y-74463801D01*
X144183818Y-74391495D01*
X144183817Y-74391495D01*
X144177787Y-74388810D01*
X144084387Y-74368957D01*
X143997444Y-74350476D01*
X143997439Y-74350476D01*
X143990987Y-74349104D01*
X143800013Y-74349104D01*
X143793561Y-74350476D01*
X143793556Y-74350476D01*
X143706613Y-74368957D01*
X143613213Y-74388810D01*
X143607183Y-74391495D01*
X143607182Y-74391495D01*
X143444780Y-74463801D01*
X143444778Y-74463802D01*
X143438750Y-74466486D01*
X143433409Y-74470366D01*
X143433408Y-74470367D01*
X143289593Y-74574854D01*
X143289591Y-74574856D01*
X143284249Y-74578737D01*
X143156463Y-74720658D01*
X143060976Y-74886046D01*
X143049059Y-74922724D01*
X143013177Y-75033158D01*
X143001962Y-75067673D01*
X143001272Y-75074236D01*
X143001272Y-75074237D01*
X142982690Y-75251035D01*
X142982000Y-75257600D01*
X78624329Y-75257600D01*
X78711815Y-75102336D01*
X78771345Y-74916923D01*
X78792377Y-74723326D01*
X78792400Y-74716600D01*
X78790152Y-74694463D01*
X78773366Y-74529209D01*
X78773366Y-74529207D01*
X78772721Y-74522861D01*
X78714487Y-74337037D01*
X78709231Y-74327554D01*
X78625444Y-74176399D01*
X78620077Y-74166717D01*
X78493348Y-74018860D01*
X78412309Y-73956000D01*
X81113800Y-73956000D01*
X81114490Y-73962565D01*
X81129624Y-74106552D01*
X81133762Y-74145927D01*
X81135802Y-74152205D01*
X81135802Y-74152206D01*
X81150994Y-74198963D01*
X81192776Y-74327554D01*
X81196079Y-74333276D01*
X81196080Y-74333277D01*
X81223557Y-74380869D01*
X81288263Y-74492942D01*
X81416049Y-74634863D01*
X81421391Y-74638744D01*
X81421393Y-74638746D01*
X81534136Y-74720658D01*
X81570550Y-74747114D01*
X81576578Y-74749798D01*
X81576580Y-74749799D01*
X81710444Y-74809399D01*
X81745013Y-74824790D01*
X81838413Y-74844643D01*
X81925356Y-74863124D01*
X81925361Y-74863124D01*
X81931813Y-74864496D01*
X82122787Y-74864496D01*
X82129239Y-74863124D01*
X82129244Y-74863124D01*
X82216187Y-74844643D01*
X82309587Y-74824790D01*
X82344156Y-74809399D01*
X82478020Y-74749799D01*
X82478022Y-74749798D01*
X82484050Y-74747114D01*
X82520464Y-74720658D01*
X82633207Y-74638746D01*
X82633209Y-74638744D01*
X82638551Y-74634863D01*
X82766337Y-74492942D01*
X82831043Y-74380869D01*
X82858520Y-74333277D01*
X82858521Y-74333276D01*
X82861824Y-74327554D01*
X82903606Y-74198963D01*
X82918798Y-74152206D01*
X82918798Y-74152205D01*
X82920838Y-74145927D01*
X82924977Y-74106552D01*
X82934536Y-74015600D01*
X97079700Y-74015600D01*
X97080390Y-74022165D01*
X97096601Y-74176399D01*
X97099662Y-74205527D01*
X97101702Y-74211805D01*
X97101702Y-74211806D01*
X97119345Y-74266105D01*
X97158676Y-74387154D01*
X97254163Y-74552542D01*
X97381949Y-74694463D01*
X97387291Y-74698344D01*
X97387293Y-74698346D01*
X97494590Y-74776301D01*
X97536450Y-74806714D01*
X97542478Y-74809398D01*
X97542480Y-74809399D01*
X97666230Y-74864496D01*
X97710913Y-74884390D01*
X97804313Y-74904243D01*
X97891256Y-74922724D01*
X97891261Y-74922724D01*
X97897713Y-74924096D01*
X98088687Y-74924096D01*
X98095139Y-74922724D01*
X98095144Y-74922724D01*
X98182087Y-74904243D01*
X98275487Y-74884390D01*
X98320170Y-74864496D01*
X98443920Y-74809399D01*
X98443922Y-74809398D01*
X98449950Y-74806714D01*
X98491810Y-74776301D01*
X98599107Y-74698346D01*
X98599109Y-74698344D01*
X98604451Y-74694463D01*
X98732237Y-74552542D01*
X98827724Y-74387154D01*
X98867055Y-74266105D01*
X98884698Y-74211806D01*
X98884698Y-74211805D01*
X98886738Y-74205527D01*
X98889800Y-74176399D01*
X98906010Y-74022165D01*
X98906700Y-74015600D01*
X98886738Y-73825673D01*
X98873710Y-73785575D01*
X98829766Y-73650331D01*
X98827724Y-73644046D01*
X98732237Y-73478658D01*
X98696678Y-73439165D01*
X98690767Y-73432600D01*
X132194500Y-73432600D01*
X132195190Y-73439165D01*
X132211696Y-73596206D01*
X132214462Y-73622527D01*
X132273476Y-73804154D01*
X132276779Y-73809876D01*
X132276780Y-73809877D01*
X132299027Y-73848409D01*
X132368963Y-73969542D01*
X132373381Y-73974449D01*
X132373382Y-73974450D01*
X132492327Y-74106552D01*
X132496749Y-74111463D01*
X132502091Y-74115344D01*
X132502093Y-74115346D01*
X132634860Y-74211806D01*
X132651250Y-74223714D01*
X132657278Y-74226398D01*
X132657280Y-74226399D01*
X132802592Y-74291096D01*
X132825713Y-74301390D01*
X132919113Y-74321243D01*
X133006056Y-74339724D01*
X133006061Y-74339724D01*
X133012513Y-74341096D01*
X133203487Y-74341096D01*
X133209939Y-74339724D01*
X133209944Y-74339724D01*
X133296887Y-74321243D01*
X133390287Y-74301390D01*
X133413408Y-74291096D01*
X133558720Y-74226399D01*
X133558722Y-74226398D01*
X133564750Y-74223714D01*
X133581140Y-74211806D01*
X133713907Y-74115346D01*
X133713909Y-74115344D01*
X133719251Y-74111463D01*
X133723673Y-74106552D01*
X133842618Y-73974450D01*
X133842619Y-73974449D01*
X133847037Y-73969542D01*
X133916973Y-73848409D01*
X133939220Y-73809877D01*
X133939221Y-73809876D01*
X133942524Y-73804154D01*
X134001538Y-73622527D01*
X134004305Y-73596206D01*
X134020810Y-73439165D01*
X134021500Y-73432600D01*
X134018074Y-73400000D01*
X149386500Y-73400000D01*
X149406462Y-73589927D01*
X149408502Y-73596205D01*
X149408502Y-73596206D01*
X149422187Y-73638323D01*
X149465476Y-73771554D01*
X149468779Y-73777276D01*
X149468780Y-73777277D01*
X149472298Y-73783370D01*
X149560963Y-73936942D01*
X149565381Y-73941849D01*
X149565382Y-73941850D01*
X149652642Y-74038762D01*
X149688749Y-74078863D01*
X149694091Y-74082744D01*
X149694093Y-74082746D01*
X149781055Y-74145927D01*
X149843250Y-74191114D01*
X149849278Y-74193798D01*
X149849280Y-74193799D01*
X150011682Y-74266105D01*
X150017713Y-74268790D01*
X150111113Y-74288643D01*
X150198056Y-74307124D01*
X150198061Y-74307124D01*
X150204513Y-74308496D01*
X150395487Y-74308496D01*
X150401939Y-74307124D01*
X150401944Y-74307124D01*
X150488887Y-74288643D01*
X150582287Y-74268790D01*
X150588318Y-74266105D01*
X150750720Y-74193799D01*
X150750722Y-74193798D01*
X150756750Y-74191114D01*
X150818945Y-74145927D01*
X150905907Y-74082746D01*
X150905909Y-74082744D01*
X150911251Y-74078863D01*
X150947358Y-74038762D01*
X151034618Y-73941850D01*
X151034619Y-73941849D01*
X151039037Y-73936942D01*
X151127702Y-73783370D01*
X151131220Y-73777277D01*
X151131221Y-73777276D01*
X151134524Y-73771554D01*
X151177813Y-73638323D01*
X151191498Y-73596206D01*
X151191498Y-73596205D01*
X151193538Y-73589927D01*
X151213500Y-73400000D01*
X151211671Y-73382600D01*
X171807000Y-73382600D01*
X171826962Y-73572527D01*
X171829002Y-73578805D01*
X171829002Y-73578806D01*
X171832877Y-73590731D01*
X171885976Y-73754154D01*
X171889279Y-73759876D01*
X171889280Y-73759877D01*
X171902844Y-73783370D01*
X171981463Y-73919542D01*
X171985881Y-73924449D01*
X171985882Y-73924450D01*
X172088809Y-74038762D01*
X172109249Y-74061463D01*
X172114591Y-74065344D01*
X172114593Y-74065346D01*
X172254119Y-74166717D01*
X172263750Y-74173714D01*
X172269778Y-74176398D01*
X172269780Y-74176399D01*
X172382082Y-74226399D01*
X172438213Y-74251390D01*
X172520073Y-74268790D01*
X172618556Y-74289724D01*
X172618561Y-74289724D01*
X172625013Y-74291096D01*
X172815987Y-74291096D01*
X172822439Y-74289724D01*
X172822444Y-74289724D01*
X172920927Y-74268790D01*
X173002787Y-74251390D01*
X173058918Y-74226399D01*
X173171220Y-74176399D01*
X173171222Y-74176398D01*
X173177250Y-74173714D01*
X173186881Y-74166717D01*
X173326407Y-74065346D01*
X173326409Y-74065344D01*
X173331751Y-74061463D01*
X173352191Y-74038762D01*
X173455118Y-73924450D01*
X173455119Y-73924449D01*
X173459537Y-73919542D01*
X173538156Y-73783370D01*
X173551720Y-73759877D01*
X173551721Y-73759876D01*
X173555024Y-73754154D01*
X173608123Y-73590731D01*
X173611998Y-73578806D01*
X173611998Y-73578805D01*
X173614038Y-73572527D01*
X173634000Y-73382600D01*
X173623432Y-73282048D01*
X173614728Y-73199237D01*
X173614728Y-73199236D01*
X173614038Y-73192673D01*
X173606271Y-73168767D01*
X173606217Y-73168600D01*
X190283000Y-73168600D01*
X190283690Y-73175165D01*
X190294000Y-73273254D01*
X190302962Y-73358527D01*
X190305002Y-73364805D01*
X190305002Y-73364806D01*
X190324897Y-73426035D01*
X190361976Y-73540154D01*
X190365279Y-73545876D01*
X190365280Y-73545877D01*
X190391177Y-73590731D01*
X190457463Y-73705542D01*
X190461881Y-73710449D01*
X190461882Y-73710450D01*
X190565629Y-73825673D01*
X190585249Y-73847463D01*
X190590591Y-73851344D01*
X190590593Y-73851346D01*
X190730824Y-73953229D01*
X190739750Y-73959714D01*
X190745778Y-73962398D01*
X190745780Y-73962399D01*
X190908182Y-74034705D01*
X190914213Y-74037390D01*
X191004362Y-74056552D01*
X191094556Y-74075724D01*
X191094561Y-74075724D01*
X191101013Y-74077096D01*
X191291987Y-74077096D01*
X191298439Y-74075724D01*
X191298444Y-74075724D01*
X191388638Y-74056552D01*
X191478787Y-74037390D01*
X191484818Y-74034705D01*
X191647220Y-73962399D01*
X191647222Y-73962398D01*
X191653250Y-73959714D01*
X191662176Y-73953229D01*
X191802407Y-73851346D01*
X191802409Y-73851344D01*
X191807751Y-73847463D01*
X191827371Y-73825673D01*
X191931118Y-73710450D01*
X191931119Y-73710449D01*
X191935537Y-73705542D01*
X192001823Y-73590731D01*
X192027720Y-73545877D01*
X192027721Y-73545876D01*
X192031024Y-73540154D01*
X192068103Y-73426035D01*
X192087998Y-73364806D01*
X192087998Y-73364805D01*
X192090038Y-73358527D01*
X192099001Y-73273254D01*
X192109310Y-73175165D01*
X192110000Y-73168600D01*
X192090038Y-72978673D01*
X192031024Y-72797046D01*
X192006020Y-72753737D01*
X191938838Y-72637376D01*
X191935537Y-72631658D01*
X191918528Y-72612767D01*
X191812173Y-72494648D01*
X191812172Y-72494647D01*
X191807751Y-72489737D01*
X191802409Y-72485856D01*
X191802407Y-72485854D01*
X191658592Y-72381367D01*
X191658591Y-72381366D01*
X191653250Y-72377486D01*
X191647222Y-72374802D01*
X191647220Y-72374801D01*
X191484818Y-72302495D01*
X191484817Y-72302495D01*
X191478787Y-72299810D01*
X191385387Y-72279957D01*
X191298444Y-72261476D01*
X191298439Y-72261476D01*
X191291987Y-72260104D01*
X191101013Y-72260104D01*
X191094561Y-72261476D01*
X191094556Y-72261476D01*
X191007613Y-72279957D01*
X190914213Y-72299810D01*
X190908183Y-72302495D01*
X190908182Y-72302495D01*
X190745780Y-72374801D01*
X190745778Y-72374802D01*
X190739750Y-72377486D01*
X190734409Y-72381366D01*
X190734408Y-72381367D01*
X190590593Y-72485854D01*
X190590591Y-72485856D01*
X190585249Y-72489737D01*
X190580828Y-72494647D01*
X190580827Y-72494648D01*
X190474473Y-72612767D01*
X190457463Y-72631658D01*
X190454162Y-72637376D01*
X190386981Y-72753737D01*
X190361976Y-72797046D01*
X190302962Y-72978673D01*
X190283000Y-73168600D01*
X173606217Y-73168600D01*
X173562720Y-73034731D01*
X173555024Y-73011046D01*
X173536334Y-72978673D01*
X173491706Y-72901376D01*
X173459537Y-72845658D01*
X173331751Y-72703737D01*
X173326409Y-72699856D01*
X173326407Y-72699854D01*
X173182592Y-72595367D01*
X173182591Y-72595366D01*
X173177250Y-72591486D01*
X173171222Y-72588802D01*
X173171220Y-72588801D01*
X173008818Y-72516495D01*
X173008817Y-72516495D01*
X173002787Y-72513810D01*
X172889534Y-72489737D01*
X172822444Y-72475476D01*
X172822439Y-72475476D01*
X172815987Y-72474104D01*
X172625013Y-72474104D01*
X172618561Y-72475476D01*
X172618556Y-72475476D01*
X172551466Y-72489737D01*
X172438213Y-72513810D01*
X172432183Y-72516495D01*
X172432182Y-72516495D01*
X172269780Y-72588801D01*
X172269778Y-72588802D01*
X172263750Y-72591486D01*
X172258409Y-72595366D01*
X172258408Y-72595367D01*
X172114593Y-72699854D01*
X172114591Y-72699856D01*
X172109249Y-72703737D01*
X171981463Y-72845658D01*
X171949294Y-72901376D01*
X171904667Y-72978673D01*
X171885976Y-73011046D01*
X171878280Y-73034731D01*
X171834730Y-73168767D01*
X171826962Y-73192673D01*
X171826272Y-73199236D01*
X171826272Y-73199237D01*
X171817568Y-73282048D01*
X171807000Y-73382600D01*
X151211671Y-73382600D01*
X151196964Y-73242673D01*
X151194228Y-73216637D01*
X151194228Y-73216636D01*
X151193538Y-73210073D01*
X151187885Y-73192673D01*
X151154490Y-73089895D01*
X151134524Y-73028446D01*
X151105788Y-72978673D01*
X151061160Y-72901376D01*
X151039037Y-72863058D01*
X151028519Y-72851376D01*
X150915673Y-72726048D01*
X150915672Y-72726047D01*
X150911251Y-72721137D01*
X150905909Y-72717256D01*
X150905907Y-72717254D01*
X150762092Y-72612767D01*
X150762091Y-72612766D01*
X150756750Y-72608886D01*
X150750722Y-72606202D01*
X150750720Y-72606201D01*
X150588318Y-72533895D01*
X150588317Y-72533895D01*
X150582287Y-72531210D01*
X150488887Y-72511357D01*
X150401944Y-72492876D01*
X150401939Y-72492876D01*
X150395487Y-72491504D01*
X150204513Y-72491504D01*
X150198061Y-72492876D01*
X150198056Y-72492876D01*
X150111113Y-72511357D01*
X150017713Y-72531210D01*
X150011683Y-72533895D01*
X150011682Y-72533895D01*
X149849280Y-72606201D01*
X149849278Y-72606202D01*
X149843250Y-72608886D01*
X149837909Y-72612766D01*
X149837908Y-72612767D01*
X149694093Y-72717254D01*
X149694091Y-72717256D01*
X149688749Y-72721137D01*
X149684328Y-72726047D01*
X149684327Y-72726048D01*
X149571482Y-72851376D01*
X149560963Y-72863058D01*
X149538840Y-72901376D01*
X149494213Y-72978673D01*
X149465476Y-73028446D01*
X149445510Y-73089895D01*
X149412116Y-73192673D01*
X149406462Y-73210073D01*
X149405772Y-73216636D01*
X149405772Y-73216637D01*
X149403036Y-73242673D01*
X149386500Y-73400000D01*
X134018074Y-73400000D01*
X134011941Y-73341648D01*
X134002228Y-73249237D01*
X134002228Y-73249236D01*
X134001538Y-73242673D01*
X133993079Y-73216637D01*
X133944566Y-73067331D01*
X133942524Y-73061046D01*
X133847037Y-72895658D01*
X133822833Y-72868776D01*
X133723673Y-72758648D01*
X133723672Y-72758647D01*
X133719251Y-72753737D01*
X133713909Y-72749856D01*
X133713907Y-72749854D01*
X133570092Y-72645367D01*
X133570091Y-72645366D01*
X133564750Y-72641486D01*
X133558722Y-72638802D01*
X133558720Y-72638801D01*
X133396318Y-72566495D01*
X133396317Y-72566495D01*
X133390287Y-72563810D01*
X133296887Y-72543957D01*
X133209944Y-72525476D01*
X133209939Y-72525476D01*
X133203487Y-72524104D01*
X133012513Y-72524104D01*
X133006061Y-72525476D01*
X133006056Y-72525476D01*
X132919113Y-72543957D01*
X132825713Y-72563810D01*
X132819683Y-72566495D01*
X132819682Y-72566495D01*
X132657280Y-72638801D01*
X132657278Y-72638802D01*
X132651250Y-72641486D01*
X132645909Y-72645366D01*
X132645908Y-72645367D01*
X132502093Y-72749854D01*
X132502091Y-72749856D01*
X132496749Y-72753737D01*
X132492328Y-72758647D01*
X132492327Y-72758648D01*
X132393168Y-72868776D01*
X132368963Y-72895658D01*
X132273476Y-73061046D01*
X132271434Y-73067331D01*
X132222922Y-73216637D01*
X132214462Y-73242673D01*
X132213772Y-73249236D01*
X132213772Y-73249237D01*
X132204059Y-73341648D01*
X132194500Y-73432600D01*
X98690767Y-73432600D01*
X98608873Y-73341648D01*
X98608872Y-73341647D01*
X98604451Y-73336737D01*
X98599109Y-73332856D01*
X98599107Y-73332854D01*
X98455292Y-73228367D01*
X98455291Y-73228366D01*
X98449950Y-73224486D01*
X98443922Y-73221802D01*
X98443920Y-73221801D01*
X98281518Y-73149495D01*
X98281517Y-73149495D01*
X98275487Y-73146810D01*
X98182087Y-73126957D01*
X98095144Y-73108476D01*
X98095139Y-73108476D01*
X98088687Y-73107104D01*
X97897713Y-73107104D01*
X97891261Y-73108476D01*
X97891256Y-73108476D01*
X97804313Y-73126957D01*
X97710913Y-73146810D01*
X97704883Y-73149495D01*
X97704882Y-73149495D01*
X97542480Y-73221801D01*
X97542478Y-73221802D01*
X97536450Y-73224486D01*
X97531109Y-73228366D01*
X97531108Y-73228367D01*
X97387293Y-73332854D01*
X97387291Y-73332856D01*
X97381949Y-73336737D01*
X97377528Y-73341647D01*
X97377527Y-73341648D01*
X97289723Y-73439165D01*
X97254163Y-73478658D01*
X97158676Y-73644046D01*
X97156634Y-73650331D01*
X97112691Y-73785575D01*
X97099662Y-73825673D01*
X97079700Y-74015600D01*
X82934536Y-74015600D01*
X82940110Y-73962565D01*
X82940800Y-73956000D01*
X82930077Y-73853974D01*
X82921528Y-73772637D01*
X82921528Y-73772636D01*
X82920838Y-73766073D01*
X82916997Y-73754250D01*
X82863866Y-73590731D01*
X82861824Y-73584446D01*
X82766337Y-73419058D01*
X82717489Y-73364806D01*
X82642973Y-73282048D01*
X82642972Y-73282047D01*
X82638551Y-73277137D01*
X82633209Y-73273256D01*
X82633207Y-73273254D01*
X82489392Y-73168767D01*
X82489391Y-73168766D01*
X82484050Y-73164886D01*
X82478022Y-73162202D01*
X82478020Y-73162201D01*
X82315618Y-73089895D01*
X82315617Y-73089895D01*
X82309587Y-73087210D01*
X82216065Y-73067331D01*
X82129244Y-73048876D01*
X82129239Y-73048876D01*
X82122787Y-73047504D01*
X81931813Y-73047504D01*
X81925361Y-73048876D01*
X81925356Y-73048876D01*
X81838535Y-73067331D01*
X81745013Y-73087210D01*
X81738983Y-73089895D01*
X81738982Y-73089895D01*
X81576580Y-73162201D01*
X81576578Y-73162202D01*
X81570550Y-73164886D01*
X81565209Y-73168766D01*
X81565208Y-73168767D01*
X81421393Y-73273254D01*
X81421391Y-73273256D01*
X81416049Y-73277137D01*
X81411628Y-73282047D01*
X81411627Y-73282048D01*
X81337112Y-73364806D01*
X81288263Y-73419058D01*
X81192776Y-73584446D01*
X81190734Y-73590731D01*
X81137604Y-73754250D01*
X81133762Y-73766073D01*
X81133072Y-73772636D01*
X81133072Y-73772637D01*
X81124523Y-73853974D01*
X81113800Y-73956000D01*
X78412309Y-73956000D01*
X78339477Y-73899506D01*
X78164749Y-73813529D01*
X78158571Y-73811920D01*
X78158569Y-73811919D01*
X77982485Y-73766052D01*
X77982480Y-73766051D01*
X77976302Y-73764442D01*
X77887616Y-73759794D01*
X77788215Y-73754584D01*
X77788210Y-73754584D01*
X77781833Y-73754250D01*
X77589287Y-73783370D01*
X77583294Y-73785575D01*
X77412515Y-73848409D01*
X77412510Y-73848411D01*
X77406529Y-73850612D01*
X77241025Y-73953229D01*
X77099535Y-74087029D01*
X77095873Y-74092259D01*
X77095872Y-74092260D01*
X77001948Y-74226399D01*
X76987840Y-74246547D01*
X76985304Y-74252408D01*
X76975037Y-74276133D01*
X76929626Y-74330707D01*
X76861919Y-74352067D01*
X76793412Y-74333431D01*
X76745856Y-74280715D01*
X76733400Y-74226092D01*
X76733400Y-69612600D01*
X128307000Y-69612600D01*
X128326962Y-69802527D01*
X128385976Y-69984154D01*
X128481463Y-70149542D01*
X128609249Y-70291463D01*
X128614591Y-70295344D01*
X128614593Y-70295346D01*
X128758408Y-70399833D01*
X128763750Y-70403714D01*
X128769778Y-70406398D01*
X128769780Y-70406399D01*
X128932182Y-70478705D01*
X128938213Y-70481390D01*
X129031613Y-70501243D01*
X129118556Y-70519724D01*
X129118561Y-70519724D01*
X129125013Y-70521096D01*
X129315987Y-70521096D01*
X129322439Y-70519724D01*
X129322444Y-70519724D01*
X129409387Y-70501243D01*
X129502787Y-70481390D01*
X129508818Y-70478705D01*
X129671220Y-70406399D01*
X129671222Y-70406398D01*
X129677250Y-70403714D01*
X129682592Y-70399833D01*
X129826407Y-70295346D01*
X129826409Y-70295344D01*
X129831751Y-70291463D01*
X129959537Y-70149542D01*
X130055024Y-69984154D01*
X130114038Y-69802527D01*
X130134000Y-69612600D01*
X167931000Y-69612600D01*
X167950962Y-69802527D01*
X168009976Y-69984154D01*
X168105463Y-70149542D01*
X168233249Y-70291463D01*
X168238591Y-70295344D01*
X168238593Y-70295346D01*
X168382408Y-70399833D01*
X168387750Y-70403714D01*
X168393778Y-70406398D01*
X168393780Y-70406399D01*
X168556182Y-70478705D01*
X168562213Y-70481390D01*
X168655613Y-70501243D01*
X168742556Y-70519724D01*
X168742561Y-70519724D01*
X168749013Y-70521096D01*
X168939987Y-70521096D01*
X168946439Y-70519724D01*
X168946444Y-70519724D01*
X169033387Y-70501243D01*
X169126787Y-70481390D01*
X169132818Y-70478705D01*
X169295220Y-70406399D01*
X169295222Y-70406398D01*
X169301250Y-70403714D01*
X169306592Y-70399833D01*
X169450407Y-70295346D01*
X169450409Y-70295344D01*
X169455751Y-70291463D01*
X169583537Y-70149542D01*
X169679024Y-69984154D01*
X169738038Y-69802527D01*
X169758000Y-69612600D01*
X169738038Y-69422673D01*
X169679024Y-69241046D01*
X169583537Y-69075658D01*
X169455751Y-68933737D01*
X169450409Y-68929856D01*
X169450407Y-68929854D01*
X169306592Y-68825367D01*
X169306591Y-68825366D01*
X169301250Y-68821486D01*
X169295222Y-68818802D01*
X169295220Y-68818801D01*
X169132818Y-68746495D01*
X169132817Y-68746495D01*
X169126787Y-68743810D01*
X169033387Y-68723957D01*
X168946444Y-68705476D01*
X168946439Y-68705476D01*
X168939987Y-68704104D01*
X168749013Y-68704104D01*
X168742561Y-68705476D01*
X168742556Y-68705476D01*
X168655613Y-68723957D01*
X168562213Y-68743810D01*
X168556183Y-68746495D01*
X168556182Y-68746495D01*
X168393780Y-68818801D01*
X168393778Y-68818802D01*
X168387750Y-68821486D01*
X168382409Y-68825366D01*
X168382408Y-68825367D01*
X168238593Y-68929854D01*
X168238591Y-68929856D01*
X168233249Y-68933737D01*
X168105463Y-69075658D01*
X168009976Y-69241046D01*
X167950962Y-69422673D01*
X167931000Y-69612600D01*
X130134000Y-69612600D01*
X130114038Y-69422673D01*
X130055024Y-69241046D01*
X129959537Y-69075658D01*
X129831751Y-68933737D01*
X129826409Y-68929856D01*
X129826407Y-68929854D01*
X129682592Y-68825367D01*
X129682591Y-68825366D01*
X129677250Y-68821486D01*
X129671222Y-68818802D01*
X129671220Y-68818801D01*
X129508818Y-68746495D01*
X129508817Y-68746495D01*
X129502787Y-68743810D01*
X129409387Y-68723957D01*
X129322444Y-68705476D01*
X129322439Y-68705476D01*
X129315987Y-68704104D01*
X129125013Y-68704104D01*
X129118561Y-68705476D01*
X129118556Y-68705476D01*
X129031613Y-68723957D01*
X128938213Y-68743810D01*
X128932183Y-68746495D01*
X128932182Y-68746495D01*
X128769780Y-68818801D01*
X128769778Y-68818802D01*
X128763750Y-68821486D01*
X128758409Y-68825366D01*
X128758408Y-68825367D01*
X128614593Y-68929854D01*
X128614591Y-68929856D01*
X128609249Y-68933737D01*
X128481463Y-69075658D01*
X128385976Y-69241046D01*
X128326962Y-69422673D01*
X128307000Y-69612600D01*
X76733400Y-69612600D01*
X76733400Y-67580600D01*
X95566400Y-67580600D01*
X95586362Y-67770527D01*
X95645376Y-67952154D01*
X95740863Y-68117542D01*
X95868649Y-68259463D01*
X95873991Y-68263344D01*
X95873993Y-68263346D01*
X96017808Y-68367833D01*
X96023150Y-68371714D01*
X96029178Y-68374398D01*
X96029180Y-68374399D01*
X96191582Y-68446705D01*
X96197613Y-68449390D01*
X96291013Y-68469243D01*
X96377956Y-68487724D01*
X96377961Y-68487724D01*
X96384413Y-68489096D01*
X96575387Y-68489096D01*
X96581839Y-68487724D01*
X96581844Y-68487724D01*
X96668787Y-68469243D01*
X96762187Y-68449390D01*
X96768218Y-68446705D01*
X96930620Y-68374399D01*
X96930622Y-68374398D01*
X96936650Y-68371714D01*
X96941992Y-68367833D01*
X97085807Y-68263346D01*
X97085809Y-68263344D01*
X97091151Y-68259463D01*
X97218937Y-68117542D01*
X97314424Y-67952154D01*
X97373438Y-67770527D01*
X97393400Y-67580600D01*
X97373438Y-67390673D01*
X97314424Y-67209046D01*
X97218937Y-67043658D01*
X97091151Y-66901737D01*
X97085809Y-66897856D01*
X97085807Y-66897854D01*
X96941992Y-66793367D01*
X96941991Y-66793366D01*
X96936650Y-66789486D01*
X96930622Y-66786802D01*
X96930620Y-66786801D01*
X96768218Y-66714495D01*
X96768217Y-66714495D01*
X96762187Y-66711810D01*
X96668787Y-66691957D01*
X96581844Y-66673476D01*
X96581839Y-66673476D01*
X96575387Y-66672104D01*
X96384413Y-66672104D01*
X96377961Y-66673476D01*
X96377956Y-66673476D01*
X96291013Y-66691957D01*
X96197613Y-66711810D01*
X96191583Y-66714495D01*
X96191582Y-66714495D01*
X96029180Y-66786801D01*
X96029178Y-66786802D01*
X96023150Y-66789486D01*
X96017809Y-66793366D01*
X96017808Y-66793367D01*
X95873993Y-66897854D01*
X95873991Y-66897856D01*
X95868649Y-66901737D01*
X95740863Y-67043658D01*
X95645376Y-67209046D01*
X95586362Y-67390673D01*
X95566400Y-67580600D01*
X76733400Y-67580600D01*
X76733400Y-62720292D01*
X133358942Y-62720292D01*
X133359394Y-62724451D01*
X133359394Y-62724455D01*
X133389287Y-62999622D01*
X133390628Y-63011970D01*
X133460612Y-63296896D01*
X133567665Y-63570062D01*
X133569687Y-63573710D01*
X133569689Y-63573714D01*
X133682893Y-63777939D01*
X133709906Y-63826671D01*
X133712396Y-63830024D01*
X133712400Y-63830030D01*
X133882345Y-64058861D01*
X133882350Y-64058866D01*
X133884835Y-64062213D01*
X133887739Y-64065199D01*
X133887743Y-64065204D01*
X133989404Y-64169744D01*
X134089379Y-64272551D01*
X134092657Y-64275131D01*
X134092662Y-64275135D01*
X134316653Y-64451398D01*
X134319946Y-64453989D01*
X134572483Y-64603339D01*
X134842554Y-64717977D01*
X135125414Y-64795890D01*
X135129559Y-64796458D01*
X135129560Y-64796458D01*
X135147709Y-64798944D01*
X135416094Y-64835708D01*
X135420270Y-64835723D01*
X135420276Y-64835723D01*
X135565294Y-64836229D01*
X135709487Y-64836732D01*
X136000438Y-64798944D01*
X136142136Y-64760976D01*
X136279806Y-64724088D01*
X136279812Y-64724086D01*
X136283835Y-64723008D01*
X136287677Y-64721409D01*
X136287685Y-64721406D01*
X136550849Y-64611861D01*
X136554700Y-64610258D01*
X136558297Y-64608164D01*
X136558304Y-64608161D01*
X136716169Y-64516281D01*
X136808273Y-64462675D01*
X137040101Y-64282851D01*
X137047710Y-64275135D01*
X137243172Y-64076926D01*
X137243177Y-64076920D01*
X137246109Y-64073947D01*
X137422678Y-63839631D01*
X137510011Y-63684640D01*
X137560878Y-63635111D01*
X137630447Y-63620946D01*
X137696631Y-63646641D01*
X137723435Y-63674853D01*
X137848125Y-63855264D01*
X137851147Y-63858533D01*
X138033376Y-64055668D01*
X138033381Y-64055673D01*
X138036392Y-64058930D01*
X138251477Y-64234037D01*
X138255294Y-64236335D01*
X138485274Y-64374794D01*
X138485278Y-64374796D01*
X138489090Y-64377091D01*
X138632226Y-64437702D01*
X138740385Y-64483502D01*
X138740390Y-64483504D01*
X138744488Y-64485239D01*
X138748785Y-64486378D01*
X138748790Y-64486380D01*
X138878532Y-64520780D01*
X139012577Y-64556321D01*
X139288006Y-64588920D01*
X139565282Y-64582386D01*
X139650884Y-64568138D01*
X139834480Y-64537579D01*
X139834484Y-64537578D01*
X139838870Y-64536848D01*
X139843111Y-64535507D01*
X139843114Y-64535506D01*
X140099067Y-64454559D01*
X140099069Y-64454558D01*
X140103313Y-64453216D01*
X140107324Y-64451290D01*
X140107329Y-64451288D01*
X140301082Y-64358249D01*
X141824882Y-64358249D01*
X141832702Y-64368962D01*
X141936943Y-64450991D01*
X141943822Y-64455702D01*
X142189116Y-64600768D01*
X142196550Y-64604523D01*
X142458876Y-64715874D01*
X142466744Y-64718614D01*
X142741482Y-64794289D01*
X142749661Y-64795968D01*
X143031986Y-64834641D01*
X143040311Y-64835224D01*
X143325269Y-64836218D01*
X143333601Y-64835694D01*
X143616205Y-64798991D01*
X143624370Y-64797374D01*
X143899636Y-64723617D01*
X143907538Y-64720926D01*
X144170618Y-64611417D01*
X144178085Y-64607711D01*
X144424390Y-64464358D01*
X144431293Y-64459701D01*
X144547689Y-64369414D01*
X144556156Y-64357691D01*
X144549580Y-64345890D01*
X143203312Y-62999622D01*
X143189368Y-62992008D01*
X143187535Y-62992139D01*
X143180920Y-62996390D01*
X141831885Y-64345425D01*
X141824882Y-64358249D01*
X140301082Y-64358249D01*
X140349314Y-64335088D01*
X140349315Y-64335087D01*
X140353333Y-64333158D01*
X140505892Y-64231221D01*
X140580235Y-64181547D01*
X140580239Y-64181544D01*
X140583943Y-64179069D01*
X140587260Y-64176098D01*
X140587264Y-64176095D01*
X140787223Y-63996997D01*
X140787224Y-63996996D01*
X140790541Y-63994025D01*
X140969005Y-63781716D01*
X141033881Y-63677691D01*
X141086901Y-63630475D01*
X141157031Y-63619419D01*
X141222006Y-63648033D01*
X141250995Y-63683282D01*
X141328298Y-63822742D01*
X141332820Y-63829759D01*
X141448296Y-63985247D01*
X141459489Y-63993693D01*
X141471996Y-63986894D01*
X142818478Y-62640412D01*
X142824856Y-62628732D01*
X143554908Y-62628732D01*
X143555039Y-62630565D01*
X143559290Y-62637180D01*
X144908783Y-63986673D01*
X144921222Y-63993465D01*
X144932437Y-63985097D01*
X145039738Y-63842702D01*
X145044313Y-63835711D01*
X145184205Y-63587445D01*
X145187807Y-63579925D01*
X145293637Y-63315332D01*
X145296212Y-63307409D01*
X145366118Y-63031143D01*
X145367625Y-63022935D01*
X145400530Y-62738538D01*
X145400928Y-62732849D01*
X145401235Y-62720292D01*
X172578942Y-62720292D01*
X172579394Y-62724451D01*
X172579394Y-62724455D01*
X172609287Y-62999622D01*
X172610628Y-63011970D01*
X172680612Y-63296896D01*
X172787665Y-63570062D01*
X172789687Y-63573710D01*
X172789689Y-63573714D01*
X172902893Y-63777939D01*
X172929906Y-63826671D01*
X172932396Y-63830024D01*
X172932400Y-63830030D01*
X173102345Y-64058861D01*
X173102350Y-64058866D01*
X173104835Y-64062213D01*
X173107739Y-64065199D01*
X173107743Y-64065204D01*
X173209404Y-64169744D01*
X173309379Y-64272551D01*
X173312657Y-64275131D01*
X173312662Y-64275135D01*
X173536653Y-64451398D01*
X173539946Y-64453989D01*
X173792483Y-64603339D01*
X174062554Y-64717977D01*
X174345414Y-64795890D01*
X174349559Y-64796458D01*
X174349560Y-64796458D01*
X174367709Y-64798944D01*
X174636094Y-64835708D01*
X174640270Y-64835723D01*
X174640276Y-64835723D01*
X174785294Y-64836229D01*
X174929487Y-64836732D01*
X175220438Y-64798944D01*
X175362136Y-64760976D01*
X175499806Y-64724088D01*
X175499812Y-64724086D01*
X175503835Y-64723008D01*
X175507677Y-64721409D01*
X175507685Y-64721406D01*
X175770849Y-64611861D01*
X175774700Y-64610258D01*
X175778297Y-64608164D01*
X175778304Y-64608161D01*
X175936169Y-64516281D01*
X176028273Y-64462675D01*
X176260101Y-64282851D01*
X176267710Y-64275135D01*
X176463172Y-64076926D01*
X176463177Y-64076920D01*
X176466109Y-64073947D01*
X176642678Y-63839631D01*
X176730011Y-63684640D01*
X176780878Y-63635111D01*
X176850447Y-63620946D01*
X176916631Y-63646641D01*
X176943435Y-63674853D01*
X177068125Y-63855264D01*
X177071147Y-63858533D01*
X177253376Y-64055668D01*
X177253381Y-64055673D01*
X177256392Y-64058930D01*
X177471477Y-64234037D01*
X177475294Y-64236335D01*
X177705274Y-64374794D01*
X177705278Y-64374796D01*
X177709090Y-64377091D01*
X177852226Y-64437702D01*
X177960385Y-64483502D01*
X177960390Y-64483504D01*
X177964488Y-64485239D01*
X177968785Y-64486378D01*
X177968790Y-64486380D01*
X178098532Y-64520780D01*
X178232577Y-64556321D01*
X178508006Y-64588920D01*
X178785282Y-64582386D01*
X178870884Y-64568138D01*
X179054480Y-64537579D01*
X179054484Y-64537578D01*
X179058870Y-64536848D01*
X179063111Y-64535507D01*
X179063114Y-64535506D01*
X179319067Y-64454559D01*
X179319069Y-64454558D01*
X179323313Y-64453216D01*
X179327324Y-64451290D01*
X179327329Y-64451288D01*
X179521082Y-64358249D01*
X181044882Y-64358249D01*
X181052702Y-64368962D01*
X181156943Y-64450991D01*
X181163822Y-64455702D01*
X181409116Y-64600768D01*
X181416550Y-64604523D01*
X181678876Y-64715874D01*
X181686744Y-64718614D01*
X181961482Y-64794289D01*
X181969661Y-64795968D01*
X182251986Y-64834641D01*
X182260311Y-64835224D01*
X182545269Y-64836218D01*
X182553601Y-64835694D01*
X182836205Y-64798991D01*
X182844370Y-64797374D01*
X183119636Y-64723617D01*
X183127538Y-64720926D01*
X183390618Y-64611417D01*
X183398085Y-64607711D01*
X183644390Y-64464358D01*
X183651293Y-64459701D01*
X183767689Y-64369414D01*
X183776156Y-64357691D01*
X183769580Y-64345890D01*
X182423312Y-62999622D01*
X182409368Y-62992008D01*
X182407535Y-62992139D01*
X182400920Y-62996390D01*
X181051885Y-64345425D01*
X181044882Y-64358249D01*
X179521082Y-64358249D01*
X179569314Y-64335088D01*
X179569315Y-64335087D01*
X179573333Y-64333158D01*
X179725892Y-64231221D01*
X179800235Y-64181547D01*
X179800239Y-64181544D01*
X179803943Y-64179069D01*
X179807260Y-64176098D01*
X179807264Y-64176095D01*
X180007223Y-63996997D01*
X180007224Y-63996996D01*
X180010541Y-63994025D01*
X180189005Y-63781716D01*
X180253881Y-63677691D01*
X180306901Y-63630475D01*
X180377031Y-63619419D01*
X180442006Y-63648033D01*
X180470995Y-63683282D01*
X180548298Y-63822742D01*
X180552820Y-63829759D01*
X180668296Y-63985247D01*
X180679489Y-63993693D01*
X180691996Y-63986894D01*
X182038478Y-62640412D01*
X182044856Y-62628732D01*
X182774908Y-62628732D01*
X182775039Y-62630565D01*
X182779290Y-62637180D01*
X184128783Y-63986673D01*
X184141222Y-63993465D01*
X184152437Y-63985097D01*
X184259738Y-63842702D01*
X184264313Y-63835711D01*
X184404205Y-63587445D01*
X184407807Y-63579925D01*
X184513637Y-63315332D01*
X184516212Y-63307409D01*
X184586118Y-63031143D01*
X184587625Y-63022935D01*
X184620530Y-62738538D01*
X184620928Y-62732849D01*
X184623430Y-62630454D01*
X184623311Y-62624756D01*
X184604337Y-62339088D01*
X184603233Y-62330817D01*
X184546909Y-62051478D01*
X184544719Y-62043417D01*
X184451944Y-61773981D01*
X184448713Y-61766293D01*
X184321118Y-61511491D01*
X184316889Y-61504284D01*
X184156714Y-61268593D01*
X184154891Y-61266260D01*
X184142490Y-61258560D01*
X184133049Y-61264261D01*
X182782522Y-62614788D01*
X182774908Y-62628732D01*
X182044856Y-62628732D01*
X182046092Y-62626468D01*
X182045961Y-62624635D01*
X182041710Y-62618020D01*
X180692443Y-61268753D01*
X180679243Y-61261545D01*
X180669050Y-61268822D01*
X180613759Y-61336135D01*
X180608904Y-61342916D01*
X180468376Y-61569564D01*
X180415480Y-61616920D01*
X180345379Y-61628159D01*
X180280329Y-61599715D01*
X180258818Y-61575150D01*
X180258338Y-61575504D01*
X180096206Y-61355995D01*
X180096204Y-61355992D01*
X180093557Y-61352409D01*
X180090438Y-61349240D01*
X180090434Y-61349236D01*
X179997613Y-61254945D01*
X179898986Y-61154757D01*
X179839687Y-61109501D01*
X179682046Y-60989194D01*
X179678506Y-60986492D01*
X179551043Y-60915109D01*
X179515084Y-60894971D01*
X181043291Y-60894971D01*
X181050295Y-60908185D01*
X182397688Y-62255578D01*
X182411632Y-62263192D01*
X182413465Y-62263061D01*
X182420080Y-62258810D01*
X183770266Y-60908624D01*
X183777674Y-60895058D01*
X183770930Y-60885400D01*
X183739311Y-60858300D01*
X183732634Y-60853305D01*
X183493632Y-60698095D01*
X183486362Y-60694033D01*
X183228942Y-60571801D01*
X183221174Y-60568725D01*
X182949853Y-60481614D01*
X182941764Y-60479597D01*
X182661287Y-60429131D01*
X182653009Y-60428203D01*
X182368324Y-60415274D01*
X182360002Y-60415448D01*
X182076104Y-60440287D01*
X182067865Y-60441562D01*
X181789756Y-60503726D01*
X181781753Y-60506082D01*
X181514312Y-60604482D01*
X181506696Y-60607872D01*
X181254623Y-60740775D01*
X181247507Y-60745153D01*
X181051687Y-60884316D01*
X181043291Y-60894971D01*
X179515084Y-60894971D01*
X179440409Y-60853151D01*
X179440408Y-60853151D01*
X179436518Y-60850972D01*
X179432359Y-60849363D01*
X179182003Y-60752507D01*
X179181997Y-60752505D01*
X179177848Y-60750900D01*
X179173516Y-60749896D01*
X179173513Y-60749895D01*
X179062232Y-60724102D01*
X178907659Y-60688274D01*
X178631341Y-60664342D01*
X178626906Y-60664586D01*
X178626902Y-60664586D01*
X178358851Y-60679338D01*
X178358844Y-60679339D01*
X178354408Y-60679583D01*
X178219426Y-60706433D01*
X178086757Y-60732822D01*
X178086752Y-60732823D01*
X178082385Y-60733692D01*
X178078182Y-60735168D01*
X177824908Y-60824111D01*
X177824905Y-60824112D01*
X177820700Y-60825589D01*
X177816747Y-60827642D01*
X177816741Y-60827645D01*
X177705559Y-60885400D01*
X177574574Y-60953441D01*
X177570959Y-60956024D01*
X177570953Y-60956028D01*
X177448693Y-61043397D01*
X177348918Y-61114697D01*
X177345698Y-61117769D01*
X177187426Y-61268753D01*
X177148234Y-61306140D01*
X176976527Y-61523949D01*
X176974291Y-61527798D01*
X176974290Y-61527800D01*
X176949443Y-61570578D01*
X176897933Y-61619437D01*
X176828184Y-61632691D01*
X176762342Y-61606132D01*
X176727826Y-61563712D01*
X176706163Y-61520453D01*
X176699674Y-61507494D01*
X176596716Y-61355995D01*
X176537113Y-61268292D01*
X176537111Y-61268289D01*
X176534762Y-61264833D01*
X176339205Y-61046115D01*
X176116439Y-60855181D01*
X176068595Y-60824111D01*
X175873876Y-60697659D01*
X175873873Y-60697657D01*
X175870377Y-60695387D01*
X175866611Y-60693599D01*
X175866606Y-60693596D01*
X175677959Y-60604020D01*
X175605344Y-60569540D01*
X175601361Y-60568261D01*
X175601358Y-60568260D01*
X175329981Y-60481130D01*
X175329980Y-60481130D01*
X175325994Y-60479850D01*
X175247232Y-60465679D01*
X175041345Y-60428634D01*
X175041340Y-60428633D01*
X175037236Y-60427895D01*
X175033069Y-60427706D01*
X175033062Y-60427705D01*
X174748314Y-60414774D01*
X174748308Y-60414774D01*
X174744144Y-60414585D01*
X174739996Y-60414948D01*
X174739992Y-60414948D01*
X174456032Y-60439791D01*
X174456024Y-60439792D01*
X174451866Y-60440156D01*
X174447777Y-60441070D01*
X174274288Y-60479850D01*
X174165537Y-60504159D01*
X174161617Y-60505601D01*
X174161611Y-60505603D01*
X173987835Y-60569540D01*
X173890188Y-60605467D01*
X173886488Y-60607418D01*
X173886483Y-60607420D01*
X173733130Y-60688274D01*
X173630657Y-60742302D01*
X173391503Y-60912260D01*
X173388454Y-60915104D01*
X173388447Y-60915109D01*
X173255182Y-61039382D01*
X173176928Y-61112355D01*
X173174275Y-61115584D01*
X173174271Y-61115589D01*
X173048592Y-61268593D01*
X172990701Y-61339071D01*
X172982431Y-61352409D01*
X172838299Y-61584871D01*
X172838296Y-61584877D01*
X172836096Y-61588425D01*
X172715826Y-61856036D01*
X172632007Y-62137202D01*
X172586110Y-62426985D01*
X172586008Y-62431168D01*
X172581138Y-62630454D01*
X172578942Y-62720292D01*
X145401235Y-62720292D01*
X145403430Y-62630454D01*
X145403311Y-62624756D01*
X145384337Y-62339088D01*
X145383233Y-62330817D01*
X145326909Y-62051478D01*
X145324719Y-62043417D01*
X145231944Y-61773981D01*
X145228713Y-61766293D01*
X145101118Y-61511491D01*
X145096889Y-61504284D01*
X144936714Y-61268593D01*
X144934891Y-61266260D01*
X144922490Y-61258560D01*
X144913049Y-61264261D01*
X143562522Y-62614788D01*
X143554908Y-62628732D01*
X142824856Y-62628732D01*
X142826092Y-62626468D01*
X142825961Y-62624635D01*
X142821710Y-62618020D01*
X141472443Y-61268753D01*
X141459243Y-61261545D01*
X141449050Y-61268822D01*
X141393759Y-61336135D01*
X141388904Y-61342916D01*
X141248376Y-61569564D01*
X141195480Y-61616920D01*
X141125379Y-61628159D01*
X141060329Y-61599715D01*
X141038818Y-61575150D01*
X141038338Y-61575504D01*
X140876206Y-61355995D01*
X140876204Y-61355992D01*
X140873557Y-61352409D01*
X140870438Y-61349240D01*
X140870434Y-61349236D01*
X140777613Y-61254945D01*
X140678986Y-61154757D01*
X140619687Y-61109501D01*
X140462046Y-60989194D01*
X140458506Y-60986492D01*
X140331043Y-60915109D01*
X140295084Y-60894971D01*
X141823291Y-60894971D01*
X141830295Y-60908185D01*
X143177688Y-62255578D01*
X143191632Y-62263192D01*
X143193465Y-62263061D01*
X143200080Y-62258810D01*
X144550266Y-60908624D01*
X144557674Y-60895058D01*
X144550930Y-60885400D01*
X144519311Y-60858300D01*
X144512634Y-60853305D01*
X144273632Y-60698095D01*
X144266362Y-60694033D01*
X144008942Y-60571801D01*
X144001174Y-60568725D01*
X143729853Y-60481614D01*
X143721764Y-60479597D01*
X143441287Y-60429131D01*
X143433009Y-60428203D01*
X143148324Y-60415274D01*
X143140002Y-60415448D01*
X142856104Y-60440287D01*
X142847865Y-60441562D01*
X142569756Y-60503726D01*
X142561753Y-60506082D01*
X142294312Y-60604482D01*
X142286696Y-60607872D01*
X142034623Y-60740775D01*
X142027507Y-60745153D01*
X141831687Y-60884316D01*
X141823291Y-60894971D01*
X140295084Y-60894971D01*
X140220409Y-60853151D01*
X140220408Y-60853151D01*
X140216518Y-60850972D01*
X140212359Y-60849363D01*
X139962003Y-60752507D01*
X139961997Y-60752505D01*
X139957848Y-60750900D01*
X139953516Y-60749896D01*
X139953513Y-60749895D01*
X139842232Y-60724102D01*
X139687659Y-60688274D01*
X139411341Y-60664342D01*
X139406906Y-60664586D01*
X139406902Y-60664586D01*
X139138851Y-60679338D01*
X139138844Y-60679339D01*
X139134408Y-60679583D01*
X138999426Y-60706433D01*
X138866757Y-60732822D01*
X138866752Y-60732823D01*
X138862385Y-60733692D01*
X138858182Y-60735168D01*
X138604908Y-60824111D01*
X138604905Y-60824112D01*
X138600700Y-60825589D01*
X138596747Y-60827642D01*
X138596741Y-60827645D01*
X138485559Y-60885400D01*
X138354574Y-60953441D01*
X138350959Y-60956024D01*
X138350953Y-60956028D01*
X138228693Y-61043397D01*
X138128918Y-61114697D01*
X138125698Y-61117769D01*
X137967426Y-61268753D01*
X137928234Y-61306140D01*
X137756527Y-61523949D01*
X137754291Y-61527798D01*
X137754290Y-61527800D01*
X137729443Y-61570578D01*
X137677933Y-61619437D01*
X137608184Y-61632691D01*
X137542342Y-61606132D01*
X137507826Y-61563712D01*
X137486163Y-61520453D01*
X137479674Y-61507494D01*
X137376716Y-61355995D01*
X137317113Y-61268292D01*
X137317111Y-61268289D01*
X137314762Y-61264833D01*
X137119205Y-61046115D01*
X136896439Y-60855181D01*
X136848595Y-60824111D01*
X136653876Y-60697659D01*
X136653873Y-60697657D01*
X136650377Y-60695387D01*
X136646611Y-60693599D01*
X136646606Y-60693596D01*
X136457959Y-60604020D01*
X136385344Y-60569540D01*
X136381361Y-60568261D01*
X136381358Y-60568260D01*
X136109981Y-60481130D01*
X136109980Y-60481130D01*
X136105994Y-60479850D01*
X136027232Y-60465679D01*
X135821345Y-60428634D01*
X135821340Y-60428633D01*
X135817236Y-60427895D01*
X135813069Y-60427706D01*
X135813062Y-60427705D01*
X135528314Y-60414774D01*
X135528308Y-60414774D01*
X135524144Y-60414585D01*
X135519996Y-60414948D01*
X135519992Y-60414948D01*
X135236032Y-60439791D01*
X135236024Y-60439792D01*
X135231866Y-60440156D01*
X135227777Y-60441070D01*
X135054288Y-60479850D01*
X134945537Y-60504159D01*
X134941617Y-60505601D01*
X134941611Y-60505603D01*
X134767835Y-60569540D01*
X134670188Y-60605467D01*
X134666488Y-60607418D01*
X134666483Y-60607420D01*
X134513130Y-60688274D01*
X134410657Y-60742302D01*
X134171503Y-60912260D01*
X134168454Y-60915104D01*
X134168447Y-60915109D01*
X134035182Y-61039382D01*
X133956928Y-61112355D01*
X133954275Y-61115584D01*
X133954271Y-61115589D01*
X133828592Y-61268593D01*
X133770701Y-61339071D01*
X133762431Y-61352409D01*
X133618299Y-61584871D01*
X133618296Y-61584877D01*
X133616096Y-61588425D01*
X133495826Y-61856036D01*
X133412007Y-62137202D01*
X133366110Y-62426985D01*
X133366008Y-62431168D01*
X133361138Y-62630454D01*
X133358942Y-62720292D01*
X76733400Y-62720292D01*
X76733400Y-57485925D01*
X137417969Y-57485925D01*
X137428858Y-57763063D01*
X137478687Y-58035903D01*
X137566463Y-58298999D01*
X137568455Y-58302986D01*
X137568456Y-58302988D01*
X137648067Y-58462314D01*
X137690433Y-58547103D01*
X137848125Y-58775264D01*
X137851147Y-58778533D01*
X138033376Y-58975668D01*
X138033381Y-58975673D01*
X138036392Y-58978930D01*
X138251477Y-59154037D01*
X138255294Y-59156335D01*
X138485274Y-59294794D01*
X138485278Y-59294796D01*
X138489090Y-59297091D01*
X138632226Y-59357702D01*
X138740385Y-59403502D01*
X138740390Y-59403504D01*
X138744488Y-59405239D01*
X138748785Y-59406378D01*
X138748790Y-59406380D01*
X138878533Y-59440780D01*
X139012577Y-59476321D01*
X139288006Y-59508920D01*
X139565282Y-59502386D01*
X139650884Y-59488138D01*
X139834480Y-59457579D01*
X139834484Y-59457578D01*
X139838870Y-59456848D01*
X139843111Y-59455507D01*
X139843114Y-59455506D01*
X140099067Y-59374559D01*
X140099069Y-59374558D01*
X140103313Y-59373216D01*
X140107324Y-59371290D01*
X140107329Y-59371288D01*
X140349314Y-59255088D01*
X140349315Y-59255087D01*
X140353333Y-59253158D01*
X140505892Y-59151221D01*
X140580235Y-59101547D01*
X140580239Y-59101544D01*
X140583943Y-59099069D01*
X140587260Y-59096098D01*
X140587264Y-59096095D01*
X140787223Y-58916997D01*
X140787224Y-58916996D01*
X140790541Y-58914025D01*
X140969005Y-58701716D01*
X141115774Y-58466380D01*
X141227919Y-58212712D01*
X141303204Y-57945773D01*
X141308572Y-57905811D01*
X141339698Y-57674071D01*
X141339699Y-57674063D01*
X141340125Y-57670889D01*
X141344000Y-57547600D01*
X141339633Y-57485925D01*
X176637969Y-57485925D01*
X176648858Y-57763063D01*
X176698687Y-58035903D01*
X176786463Y-58298999D01*
X176788455Y-58302986D01*
X176788456Y-58302988D01*
X176868067Y-58462314D01*
X176910433Y-58547103D01*
X177068125Y-58775264D01*
X177071147Y-58778533D01*
X177253376Y-58975668D01*
X177253381Y-58975673D01*
X177256392Y-58978930D01*
X177471477Y-59154037D01*
X177475294Y-59156335D01*
X177705274Y-59294794D01*
X177705278Y-59294796D01*
X177709090Y-59297091D01*
X177852226Y-59357702D01*
X177960385Y-59403502D01*
X177960390Y-59403504D01*
X177964488Y-59405239D01*
X177968785Y-59406378D01*
X177968790Y-59406380D01*
X178098533Y-59440780D01*
X178232577Y-59476321D01*
X178508006Y-59508920D01*
X178785282Y-59502386D01*
X178870884Y-59488138D01*
X179054480Y-59457579D01*
X179054484Y-59457578D01*
X179058870Y-59456848D01*
X179063111Y-59455507D01*
X179063114Y-59455506D01*
X179319067Y-59374559D01*
X179319069Y-59374558D01*
X179323313Y-59373216D01*
X179327324Y-59371290D01*
X179327329Y-59371288D01*
X179569314Y-59255088D01*
X179569315Y-59255087D01*
X179573333Y-59253158D01*
X179725892Y-59151221D01*
X179800235Y-59101547D01*
X179800239Y-59101544D01*
X179803943Y-59099069D01*
X179807260Y-59096098D01*
X179807264Y-59096095D01*
X180007223Y-58916997D01*
X180007224Y-58916996D01*
X180010541Y-58914025D01*
X180189005Y-58701716D01*
X180335774Y-58466380D01*
X180447919Y-58212712D01*
X180523204Y-57945773D01*
X180528572Y-57905811D01*
X180559698Y-57674071D01*
X180559699Y-57674063D01*
X180560125Y-57670889D01*
X180564000Y-57547600D01*
X180544411Y-57270940D01*
X180486037Y-56999801D01*
X180390040Y-56739592D01*
X180258338Y-56495504D01*
X180093557Y-56272409D01*
X180090438Y-56269240D01*
X180090434Y-56269236D01*
X179997613Y-56174945D01*
X179898986Y-56074757D01*
X179678506Y-55906492D01*
X179436518Y-55770972D01*
X179432359Y-55769363D01*
X179182003Y-55672507D01*
X179181997Y-55672505D01*
X179177848Y-55670900D01*
X179173516Y-55669896D01*
X179173513Y-55669895D01*
X179062232Y-55644102D01*
X178907659Y-55608274D01*
X178631341Y-55584342D01*
X178626906Y-55584586D01*
X178626902Y-55584586D01*
X178358851Y-55599338D01*
X178358844Y-55599339D01*
X178354408Y-55599583D01*
X178219426Y-55626433D01*
X178086757Y-55652822D01*
X178086752Y-55652823D01*
X178082385Y-55653692D01*
X178078182Y-55655168D01*
X177824908Y-55744111D01*
X177824905Y-55744112D01*
X177820700Y-55745589D01*
X177816747Y-55747642D01*
X177816741Y-55747645D01*
X177677235Y-55820113D01*
X177574574Y-55873441D01*
X177570959Y-55876024D01*
X177570953Y-55876028D01*
X177427838Y-55978300D01*
X177348918Y-56034697D01*
X177148234Y-56226140D01*
X176976527Y-56443949D01*
X176974290Y-56447801D01*
X176839457Y-56679932D01*
X176839454Y-56679938D01*
X176837223Y-56683779D01*
X176835553Y-56687902D01*
X176814617Y-56739592D01*
X176733101Y-56940845D01*
X176666238Y-57210017D01*
X176637969Y-57485925D01*
X141339633Y-57485925D01*
X141324411Y-57270940D01*
X141266037Y-56999801D01*
X141170040Y-56739592D01*
X141038338Y-56495504D01*
X140873557Y-56272409D01*
X140870438Y-56269240D01*
X140870434Y-56269236D01*
X140777613Y-56174945D01*
X140678986Y-56074757D01*
X140458506Y-55906492D01*
X140216518Y-55770972D01*
X140212359Y-55769363D01*
X139962003Y-55672507D01*
X139961997Y-55672505D01*
X139957848Y-55670900D01*
X139953516Y-55669896D01*
X139953513Y-55669895D01*
X139842232Y-55644102D01*
X139687659Y-55608274D01*
X139411341Y-55584342D01*
X139406906Y-55584586D01*
X139406902Y-55584586D01*
X139138851Y-55599338D01*
X139138844Y-55599339D01*
X139134408Y-55599583D01*
X138999426Y-55626433D01*
X138866757Y-55652822D01*
X138866752Y-55652823D01*
X138862385Y-55653692D01*
X138858182Y-55655168D01*
X138604908Y-55744111D01*
X138604905Y-55744112D01*
X138600700Y-55745589D01*
X138596747Y-55747642D01*
X138596741Y-55747645D01*
X138457235Y-55820113D01*
X138354574Y-55873441D01*
X138350959Y-55876024D01*
X138350953Y-55876028D01*
X138207838Y-55978300D01*
X138128918Y-56034697D01*
X137928234Y-56226140D01*
X137756527Y-56443949D01*
X137754290Y-56447801D01*
X137619457Y-56679932D01*
X137619454Y-56679938D01*
X137617223Y-56683779D01*
X137615553Y-56687902D01*
X137594617Y-56739592D01*
X137513101Y-56940845D01*
X137446238Y-57210017D01*
X137417969Y-57485925D01*
X76733400Y-57485925D01*
X76733400Y-53620000D01*
X88186600Y-53620000D01*
X88206555Y-53848087D01*
X88265814Y-54069243D01*
X88268136Y-54074224D01*
X88268137Y-54074225D01*
X88360250Y-54271763D01*
X88360253Y-54271768D01*
X88362576Y-54276750D01*
X88365730Y-54281254D01*
X88365733Y-54281259D01*
X88479041Y-54443079D01*
X88493901Y-54464302D01*
X88655798Y-54626199D01*
X88660306Y-54629356D01*
X88660309Y-54629358D01*
X88828260Y-54746958D01*
X88843350Y-54757524D01*
X88848332Y-54759847D01*
X88848337Y-54759850D01*
X89045875Y-54851963D01*
X89050857Y-54854286D01*
X89056165Y-54855708D01*
X89056167Y-54855709D01*
X89266698Y-54912121D01*
X89266700Y-54912121D01*
X89272013Y-54913545D01*
X89500100Y-54933500D01*
X89728187Y-54913545D01*
X89733500Y-54912121D01*
X89733502Y-54912121D01*
X89944033Y-54855709D01*
X89944035Y-54855708D01*
X89949343Y-54854286D01*
X89954325Y-54851963D01*
X90151863Y-54759850D01*
X90151868Y-54759847D01*
X90156850Y-54757524D01*
X90171940Y-54746958D01*
X90339891Y-54629358D01*
X90339894Y-54629356D01*
X90344402Y-54626199D01*
X90506299Y-54464302D01*
X90521160Y-54443079D01*
X90581521Y-54356874D01*
X90637624Y-54276750D01*
X90639948Y-54271766D01*
X90640981Y-54269977D01*
X90692363Y-54220984D01*
X90762077Y-54207548D01*
X90827988Y-54233934D01*
X90859219Y-54269977D01*
X90860252Y-54271766D01*
X90862576Y-54276750D01*
X90918679Y-54356874D01*
X90979041Y-54443079D01*
X90993901Y-54464302D01*
X91155798Y-54626199D01*
X91160306Y-54629356D01*
X91160309Y-54629358D01*
X91328260Y-54746958D01*
X91343350Y-54757524D01*
X91348332Y-54759847D01*
X91348337Y-54759850D01*
X91545875Y-54851963D01*
X91550857Y-54854286D01*
X91556165Y-54855708D01*
X91556167Y-54855709D01*
X91766698Y-54912121D01*
X91766700Y-54912121D01*
X91772013Y-54913545D01*
X92000100Y-54933500D01*
X92228187Y-54913545D01*
X92233500Y-54912121D01*
X92233502Y-54912121D01*
X92444033Y-54855709D01*
X92444035Y-54855708D01*
X92449343Y-54854286D01*
X92454325Y-54851963D01*
X92651863Y-54759850D01*
X92651868Y-54759847D01*
X92656850Y-54757524D01*
X92671940Y-54746958D01*
X92839891Y-54629358D01*
X92839894Y-54629356D01*
X92844402Y-54626199D01*
X92911005Y-54559596D01*
X92973317Y-54525570D01*
X93044132Y-54530635D01*
X93089195Y-54559596D01*
X93155798Y-54626199D01*
X93160306Y-54629356D01*
X93160309Y-54629358D01*
X93328260Y-54746958D01*
X93343350Y-54757524D01*
X93348332Y-54759847D01*
X93348337Y-54759850D01*
X93545875Y-54851963D01*
X93550857Y-54854286D01*
X93556165Y-54855708D01*
X93556167Y-54855709D01*
X93766698Y-54912121D01*
X93766700Y-54912121D01*
X93772013Y-54913545D01*
X94000100Y-54933500D01*
X94228187Y-54913545D01*
X94233500Y-54912121D01*
X94233502Y-54912121D01*
X94444033Y-54855709D01*
X94444035Y-54855708D01*
X94449343Y-54854286D01*
X94454325Y-54851963D01*
X94651863Y-54759850D01*
X94651868Y-54759847D01*
X94656850Y-54757524D01*
X94671940Y-54746958D01*
X94839891Y-54629358D01*
X94839894Y-54629356D01*
X94844402Y-54626199D01*
X95004371Y-54466230D01*
X95066683Y-54432204D01*
X95137498Y-54437269D01*
X95194334Y-54479816D01*
X95214362Y-54519827D01*
X95217536Y-54530635D01*
X95233004Y-54583316D01*
X95237875Y-54590895D01*
X95307151Y-54698691D01*
X95307153Y-54698694D01*
X95312023Y-54706271D01*
X95318833Y-54712172D01*
X95415669Y-54796082D01*
X95415672Y-54796084D01*
X95422481Y-54801984D01*
X95555430Y-54862700D01*
X95564345Y-54863982D01*
X95564346Y-54863982D01*
X95695652Y-54882861D01*
X95695659Y-54882862D01*
X95700100Y-54883500D01*
X97300100Y-54883500D01*
X97373179Y-54878273D01*
X97454872Y-54854286D01*
X97504770Y-54839635D01*
X97504772Y-54839634D01*
X97513416Y-54837096D01*
X97577235Y-54796082D01*
X97628791Y-54762949D01*
X97628794Y-54762947D01*
X97636371Y-54758077D01*
X97676148Y-54712172D01*
X97726182Y-54654431D01*
X97726184Y-54654428D01*
X97732084Y-54647619D01*
X97792800Y-54514670D01*
X97797811Y-54479816D01*
X97812961Y-54374448D01*
X97812962Y-54374441D01*
X97813600Y-54370000D01*
X97813600Y-53737600D01*
X141877000Y-53737600D01*
X141896955Y-53965687D01*
X141956214Y-54186843D01*
X141958536Y-54191824D01*
X141958537Y-54191825D01*
X142050650Y-54389363D01*
X142050653Y-54389368D01*
X142052976Y-54394350D01*
X142056132Y-54398857D01*
X142056133Y-54398859D01*
X142148404Y-54530635D01*
X142184301Y-54581902D01*
X142346198Y-54743799D01*
X142350706Y-54746956D01*
X142350709Y-54746958D01*
X142529241Y-54871967D01*
X142533750Y-54875124D01*
X142538732Y-54877447D01*
X142538737Y-54877450D01*
X142736275Y-54969563D01*
X142741257Y-54971886D01*
X142746565Y-54973308D01*
X142746567Y-54973309D01*
X142957098Y-55029721D01*
X142957100Y-55029721D01*
X142962413Y-55031145D01*
X143190500Y-55051100D01*
X143418587Y-55031145D01*
X143423900Y-55029721D01*
X143423902Y-55029721D01*
X143634433Y-54973309D01*
X143634435Y-54973308D01*
X143639743Y-54971886D01*
X143644725Y-54969563D01*
X143842263Y-54877450D01*
X143842268Y-54877447D01*
X143847250Y-54875124D01*
X143851759Y-54871967D01*
X144030291Y-54746958D01*
X144030294Y-54746956D01*
X144034802Y-54743799D01*
X144196699Y-54581902D01*
X144232597Y-54530635D01*
X144324867Y-54398859D01*
X144324868Y-54398857D01*
X144328024Y-54394350D01*
X144330347Y-54389368D01*
X144330350Y-54389363D01*
X144422463Y-54191825D01*
X144422464Y-54191824D01*
X144424786Y-54186843D01*
X144484045Y-53965687D01*
X144504000Y-53737600D01*
X181097000Y-53737600D01*
X181116955Y-53965687D01*
X181176214Y-54186843D01*
X181178536Y-54191824D01*
X181178537Y-54191825D01*
X181270650Y-54389363D01*
X181270653Y-54389368D01*
X181272976Y-54394350D01*
X181276132Y-54398857D01*
X181276133Y-54398859D01*
X181368404Y-54530635D01*
X181404301Y-54581902D01*
X181566198Y-54743799D01*
X181570706Y-54746956D01*
X181570709Y-54746958D01*
X181749241Y-54871967D01*
X181753750Y-54875124D01*
X181758732Y-54877447D01*
X181758737Y-54877450D01*
X181956275Y-54969563D01*
X181961257Y-54971886D01*
X181966565Y-54973308D01*
X181966567Y-54973309D01*
X182177098Y-55029721D01*
X182177100Y-55029721D01*
X182182413Y-55031145D01*
X182410500Y-55051100D01*
X182638587Y-55031145D01*
X182643900Y-55029721D01*
X182643902Y-55029721D01*
X182854433Y-54973309D01*
X182854435Y-54973308D01*
X182859743Y-54971886D01*
X182864725Y-54969563D01*
X183062263Y-54877450D01*
X183062268Y-54877447D01*
X183067250Y-54875124D01*
X183071759Y-54871967D01*
X183250291Y-54746958D01*
X183250294Y-54746956D01*
X183254802Y-54743799D01*
X183416699Y-54581902D01*
X183452597Y-54530635D01*
X183544867Y-54398859D01*
X183544868Y-54398857D01*
X183548024Y-54394350D01*
X183550347Y-54389368D01*
X183550350Y-54389363D01*
X183642463Y-54191825D01*
X183642464Y-54191824D01*
X183644786Y-54186843D01*
X183704045Y-53965687D01*
X183724000Y-53737600D01*
X183704045Y-53509513D01*
X183644786Y-53288357D01*
X183617295Y-53229402D01*
X183550350Y-53085837D01*
X183550347Y-53085832D01*
X183548024Y-53080850D01*
X183539222Y-53068279D01*
X183419858Y-52897809D01*
X183419856Y-52897806D01*
X183416699Y-52893298D01*
X183254802Y-52731401D01*
X183250294Y-52728244D01*
X183250291Y-52728242D01*
X183071759Y-52603233D01*
X183071757Y-52603232D01*
X183067250Y-52600076D01*
X183062268Y-52597753D01*
X183062263Y-52597750D01*
X182864725Y-52505637D01*
X182864724Y-52505636D01*
X182859743Y-52503314D01*
X182854435Y-52501892D01*
X182854433Y-52501891D01*
X182643902Y-52445479D01*
X182643900Y-52445479D01*
X182638587Y-52444055D01*
X182410500Y-52424100D01*
X182182413Y-52444055D01*
X182177100Y-52445479D01*
X182177098Y-52445479D01*
X181966567Y-52501891D01*
X181966565Y-52501892D01*
X181961257Y-52503314D01*
X181956276Y-52505636D01*
X181956275Y-52505637D01*
X181758737Y-52597750D01*
X181758732Y-52597753D01*
X181753750Y-52600076D01*
X181749243Y-52603232D01*
X181749241Y-52603233D01*
X181570709Y-52728242D01*
X181570706Y-52728244D01*
X181566198Y-52731401D01*
X181404301Y-52893298D01*
X181401144Y-52897806D01*
X181401142Y-52897809D01*
X181281778Y-53068279D01*
X181272976Y-53080850D01*
X181270653Y-53085832D01*
X181270650Y-53085837D01*
X181203705Y-53229402D01*
X181176214Y-53288357D01*
X181116955Y-53509513D01*
X181097000Y-53737600D01*
X144504000Y-53737600D01*
X144484045Y-53509513D01*
X144424786Y-53288357D01*
X144397295Y-53229402D01*
X144330350Y-53085837D01*
X144330347Y-53085832D01*
X144328024Y-53080850D01*
X144319222Y-53068279D01*
X144199858Y-52897809D01*
X144199856Y-52897806D01*
X144196699Y-52893298D01*
X144034802Y-52731401D01*
X144030294Y-52728244D01*
X144030291Y-52728242D01*
X143851759Y-52603233D01*
X143851757Y-52603232D01*
X143847250Y-52600076D01*
X143842268Y-52597753D01*
X143842263Y-52597750D01*
X143644725Y-52505637D01*
X143644724Y-52505636D01*
X143639743Y-52503314D01*
X143634435Y-52501892D01*
X143634433Y-52501891D01*
X143423902Y-52445479D01*
X143423900Y-52445479D01*
X143418587Y-52444055D01*
X143190500Y-52424100D01*
X142962413Y-52444055D01*
X142957100Y-52445479D01*
X142957098Y-52445479D01*
X142746567Y-52501891D01*
X142746565Y-52501892D01*
X142741257Y-52503314D01*
X142736276Y-52505636D01*
X142736275Y-52505637D01*
X142538737Y-52597750D01*
X142538732Y-52597753D01*
X142533750Y-52600076D01*
X142529243Y-52603232D01*
X142529241Y-52603233D01*
X142350709Y-52728242D01*
X142350706Y-52728244D01*
X142346198Y-52731401D01*
X142184301Y-52893298D01*
X142181144Y-52897806D01*
X142181142Y-52897809D01*
X142061778Y-53068279D01*
X142052976Y-53080850D01*
X142050653Y-53085832D01*
X142050650Y-53085837D01*
X141983705Y-53229402D01*
X141956214Y-53288357D01*
X141896955Y-53509513D01*
X141877000Y-53737600D01*
X97813600Y-53737600D01*
X97813600Y-52870000D01*
X97808373Y-52796921D01*
X97767196Y-52656684D01*
X97718591Y-52581053D01*
X97693049Y-52541309D01*
X97693047Y-52541306D01*
X97688177Y-52533729D01*
X97681367Y-52527828D01*
X97649056Y-52499830D01*
X98344670Y-52499830D01*
X98354434Y-52512226D01*
X98559955Y-52650850D01*
X98567551Y-52655236D01*
X98812059Y-52774491D01*
X98820206Y-52777782D01*
X99078933Y-52861848D01*
X99087434Y-52863967D01*
X99355355Y-52911210D01*
X99364081Y-52912127D01*
X99635959Y-52921621D01*
X99644722Y-52921315D01*
X99915280Y-52892878D01*
X99923925Y-52891353D01*
X100187876Y-52825543D01*
X100196234Y-52822828D01*
X100448461Y-52720920D01*
X100456353Y-52717071D01*
X100691944Y-52581053D01*
X100699220Y-52576145D01*
X100784771Y-52509307D01*
X100793239Y-52497495D01*
X100786702Y-52485812D01*
X99582912Y-51282022D01*
X99568968Y-51274408D01*
X99567135Y-51274539D01*
X99560520Y-51278790D01*
X98350913Y-52488397D01*
X98344670Y-52499830D01*
X97649056Y-52499830D01*
X97584531Y-52443918D01*
X97584528Y-52443916D01*
X97577719Y-52438016D01*
X97548296Y-52424579D01*
X97452964Y-52381042D01*
X97452963Y-52381042D01*
X97444770Y-52377300D01*
X97435855Y-52376018D01*
X97435854Y-52376018D01*
X97304548Y-52357139D01*
X97304541Y-52357138D01*
X97300100Y-52356500D01*
X95700100Y-52356500D01*
X95627021Y-52361727D01*
X95573984Y-52377300D01*
X95495430Y-52400365D01*
X95495428Y-52400366D01*
X95486784Y-52402904D01*
X95479205Y-52407775D01*
X95371409Y-52477051D01*
X95371406Y-52477053D01*
X95363829Y-52481923D01*
X95357928Y-52488733D01*
X95274018Y-52585569D01*
X95274016Y-52585572D01*
X95268116Y-52592381D01*
X95207400Y-52725330D01*
X95206183Y-52724774D01*
X95172805Y-52776717D01*
X95108226Y-52806214D01*
X95037952Y-52796113D01*
X95001193Y-52770592D01*
X94844402Y-52613801D01*
X94839894Y-52610644D01*
X94839891Y-52610642D01*
X94661359Y-52485633D01*
X94661357Y-52485632D01*
X94656850Y-52482476D01*
X94651868Y-52480153D01*
X94651863Y-52480150D01*
X94454325Y-52388037D01*
X94454324Y-52388036D01*
X94449343Y-52385714D01*
X94444035Y-52384292D01*
X94444033Y-52384291D01*
X94233502Y-52327879D01*
X94233500Y-52327879D01*
X94228187Y-52326455D01*
X94000100Y-52306500D01*
X93772013Y-52326455D01*
X93766700Y-52327879D01*
X93766698Y-52327879D01*
X93556167Y-52384291D01*
X93556165Y-52384292D01*
X93550857Y-52385714D01*
X93545876Y-52388036D01*
X93545875Y-52388037D01*
X93348337Y-52480150D01*
X93348332Y-52480153D01*
X93343350Y-52482476D01*
X93338843Y-52485632D01*
X93338841Y-52485633D01*
X93160309Y-52610642D01*
X93160306Y-52610644D01*
X93155798Y-52613801D01*
X93089195Y-52680404D01*
X93026883Y-52714430D01*
X92956068Y-52709365D01*
X92911005Y-52680404D01*
X92844402Y-52613801D01*
X92839894Y-52610644D01*
X92839891Y-52610642D01*
X92661359Y-52485633D01*
X92661357Y-52485632D01*
X92656850Y-52482476D01*
X92651868Y-52480153D01*
X92651863Y-52480150D01*
X92454325Y-52388037D01*
X92454324Y-52388036D01*
X92449343Y-52385714D01*
X92444035Y-52384292D01*
X92444033Y-52384291D01*
X92233502Y-52327879D01*
X92233500Y-52327879D01*
X92228187Y-52326455D01*
X92000100Y-52306500D01*
X91772013Y-52326455D01*
X91766700Y-52327879D01*
X91766698Y-52327879D01*
X91556167Y-52384291D01*
X91556165Y-52384292D01*
X91550857Y-52385714D01*
X91545876Y-52388036D01*
X91545875Y-52388037D01*
X91348337Y-52480150D01*
X91348332Y-52480153D01*
X91343350Y-52482476D01*
X91338843Y-52485632D01*
X91338841Y-52485633D01*
X91160309Y-52610642D01*
X91160306Y-52610644D01*
X91155798Y-52613801D01*
X90993901Y-52775698D01*
X90990744Y-52780206D01*
X90990742Y-52780209D01*
X90929446Y-52867750D01*
X90862576Y-52963250D01*
X90860252Y-52968234D01*
X90859219Y-52970023D01*
X90807837Y-53019016D01*
X90738123Y-53032452D01*
X90672212Y-53006066D01*
X90640981Y-52970023D01*
X90639948Y-52968234D01*
X90637624Y-52963250D01*
X90570754Y-52867750D01*
X90509458Y-52780209D01*
X90509456Y-52780206D01*
X90506299Y-52775698D01*
X90344402Y-52613801D01*
X90339894Y-52610644D01*
X90339891Y-52610642D01*
X90161359Y-52485633D01*
X90161357Y-52485632D01*
X90156850Y-52482476D01*
X90151868Y-52480153D01*
X90151863Y-52480150D01*
X89954325Y-52388037D01*
X89954324Y-52388036D01*
X89949343Y-52385714D01*
X89944035Y-52384292D01*
X89944033Y-52384291D01*
X89733502Y-52327879D01*
X89733500Y-52327879D01*
X89728187Y-52326455D01*
X89500100Y-52306500D01*
X89272013Y-52326455D01*
X89266700Y-52327879D01*
X89266698Y-52327879D01*
X89056167Y-52384291D01*
X89056165Y-52384292D01*
X89050857Y-52385714D01*
X89045876Y-52388036D01*
X89045875Y-52388037D01*
X88848337Y-52480150D01*
X88848332Y-52480153D01*
X88843350Y-52482476D01*
X88838843Y-52485632D01*
X88838841Y-52485633D01*
X88660309Y-52610642D01*
X88660306Y-52610644D01*
X88655798Y-52613801D01*
X88493901Y-52775698D01*
X88490744Y-52780206D01*
X88490742Y-52780209D01*
X88391939Y-52921315D01*
X88362576Y-52963250D01*
X88360253Y-52968232D01*
X88360250Y-52968237D01*
X88313600Y-53068279D01*
X88265814Y-53170757D01*
X88206555Y-53391913D01*
X88186600Y-53620000D01*
X76733400Y-53620000D01*
X76733400Y-52499830D01*
X85204670Y-52499830D01*
X85214434Y-52512226D01*
X85419955Y-52650850D01*
X85427551Y-52655236D01*
X85672059Y-52774491D01*
X85680206Y-52777782D01*
X85938933Y-52861848D01*
X85947434Y-52863967D01*
X86215355Y-52911210D01*
X86224081Y-52912127D01*
X86495959Y-52921621D01*
X86504722Y-52921315D01*
X86775280Y-52892878D01*
X86783925Y-52891353D01*
X87047876Y-52825543D01*
X87056234Y-52822828D01*
X87308461Y-52720920D01*
X87316353Y-52717071D01*
X87551944Y-52581053D01*
X87559220Y-52576145D01*
X87644771Y-52509307D01*
X87653239Y-52497495D01*
X87646702Y-52485812D01*
X86442912Y-51282022D01*
X86428968Y-51274408D01*
X86427135Y-51274539D01*
X86420520Y-51278790D01*
X85210913Y-52488397D01*
X85204670Y-52499830D01*
X76733400Y-52499830D01*
X76733400Y-50773977D01*
X84422004Y-50773977D01*
X84422004Y-51046023D01*
X84422616Y-51054772D01*
X84460477Y-51324173D01*
X84462301Y-51332753D01*
X84537287Y-51594260D01*
X84540286Y-51602501D01*
X84650941Y-51851036D01*
X84655053Y-51858770D01*
X84799218Y-52089482D01*
X84804377Y-52096582D01*
X84829201Y-52126166D01*
X84841895Y-52134612D01*
X84852397Y-52128493D01*
X86058078Y-50922812D01*
X86064456Y-50911132D01*
X86794508Y-50911132D01*
X86794639Y-50912965D01*
X86798890Y-50919580D01*
X88006084Y-52126774D01*
X88018195Y-52133387D01*
X88029814Y-52124559D01*
X88134632Y-51980291D01*
X88139291Y-51972835D01*
X88267000Y-51732648D01*
X88270571Y-51724628D01*
X88363615Y-51468994D01*
X88366034Y-51460557D01*
X88422597Y-51194451D01*
X88423817Y-51185770D01*
X88442793Y-50914390D01*
X88442793Y-50905610D01*
X88433589Y-50773977D01*
X97562004Y-50773977D01*
X97562004Y-51046023D01*
X97562616Y-51054772D01*
X97600477Y-51324173D01*
X97602301Y-51332753D01*
X97677287Y-51594260D01*
X97680286Y-51602501D01*
X97790941Y-51851036D01*
X97795053Y-51858770D01*
X97939218Y-52089482D01*
X97944377Y-52096582D01*
X97969201Y-52126166D01*
X97981895Y-52134612D01*
X97992397Y-52128493D01*
X99198078Y-50922812D01*
X99204456Y-50911132D01*
X99934508Y-50911132D01*
X99934639Y-50912965D01*
X99938890Y-50919580D01*
X101146084Y-52126774D01*
X101158195Y-52133387D01*
X101169814Y-52124559D01*
X101274632Y-51980291D01*
X101279291Y-51972835D01*
X101407000Y-51732648D01*
X101410571Y-51724628D01*
X101503615Y-51468994D01*
X101506034Y-51460557D01*
X101562597Y-51194451D01*
X101563817Y-51185770D01*
X101582793Y-50914390D01*
X101582793Y-50905610D01*
X101563817Y-50634230D01*
X101562597Y-50625549D01*
X101506034Y-50359443D01*
X101503615Y-50351006D01*
X101410571Y-50095372D01*
X101407000Y-50087352D01*
X101279291Y-49847165D01*
X101274632Y-49839709D01*
X101169545Y-49695070D01*
X101158620Y-49686646D01*
X101145761Y-49693549D01*
X99942122Y-50897188D01*
X99934508Y-50911132D01*
X99204456Y-50911132D01*
X99205692Y-50908868D01*
X99205561Y-50907035D01*
X99201310Y-50900420D01*
X97993658Y-49692768D01*
X97980273Y-49685459D01*
X97970347Y-49692468D01*
X97944377Y-49723418D01*
X97939218Y-49730518D01*
X97795053Y-49961230D01*
X97790941Y-49968964D01*
X97680286Y-50217499D01*
X97677287Y-50225740D01*
X97602301Y-50487247D01*
X97600477Y-50495827D01*
X97562616Y-50765228D01*
X97562004Y-50773977D01*
X88433589Y-50773977D01*
X88423817Y-50634230D01*
X88422597Y-50625549D01*
X88366034Y-50359443D01*
X88363615Y-50351006D01*
X88270571Y-50095372D01*
X88267000Y-50087352D01*
X88139291Y-49847165D01*
X88134632Y-49839709D01*
X88029545Y-49695070D01*
X88018620Y-49686646D01*
X88005761Y-49693549D01*
X86802122Y-50897188D01*
X86794508Y-50911132D01*
X86064456Y-50911132D01*
X86065692Y-50908868D01*
X86065561Y-50907035D01*
X86061310Y-50900420D01*
X84853658Y-49692768D01*
X84840273Y-49685459D01*
X84830347Y-49692468D01*
X84804377Y-49723418D01*
X84799218Y-49730518D01*
X84655053Y-49961230D01*
X84650941Y-49968964D01*
X84540286Y-50217499D01*
X84537287Y-50225740D01*
X84462301Y-50487247D01*
X84460477Y-50495827D01*
X84422616Y-50765228D01*
X84422004Y-50773977D01*
X76733400Y-50773977D01*
X76733400Y-49318690D01*
X85204811Y-49318690D01*
X85212031Y-49332721D01*
X86417288Y-50537978D01*
X86431232Y-50545592D01*
X86433065Y-50545461D01*
X86439680Y-50541210D01*
X87646233Y-49334657D01*
X87653201Y-49321897D01*
X87650851Y-49318690D01*
X98344811Y-49318690D01*
X98352031Y-49332721D01*
X99557288Y-50537978D01*
X99571232Y-50545592D01*
X99573065Y-50545461D01*
X99579680Y-50541210D01*
X100786233Y-49334657D01*
X100793201Y-49321897D01*
X100785290Y-49311099D01*
X100699220Y-49243855D01*
X100691944Y-49238947D01*
X100456353Y-49102929D01*
X100448461Y-49099080D01*
X100196234Y-48997172D01*
X100187876Y-48994457D01*
X99923925Y-48928647D01*
X99915280Y-48927122D01*
X99644722Y-48898685D01*
X99635959Y-48898379D01*
X99364081Y-48907873D01*
X99355355Y-48908790D01*
X99087434Y-48956033D01*
X99078933Y-48958152D01*
X98820206Y-49042218D01*
X98812059Y-49045509D01*
X98567551Y-49164764D01*
X98559955Y-49169150D01*
X98353118Y-49308662D01*
X98344811Y-49318690D01*
X87650851Y-49318690D01*
X87645290Y-49311099D01*
X87559220Y-49243855D01*
X87551944Y-49238947D01*
X87316353Y-49102929D01*
X87308461Y-49099080D01*
X87056234Y-48997172D01*
X87047876Y-48994457D01*
X86783925Y-48928647D01*
X86775280Y-48927122D01*
X86504722Y-48898685D01*
X86495959Y-48898379D01*
X86224081Y-48907873D01*
X86215355Y-48908790D01*
X85947434Y-48956033D01*
X85938933Y-48958152D01*
X85680206Y-49042218D01*
X85672059Y-49045509D01*
X85427551Y-49164764D01*
X85419955Y-49169150D01*
X85213118Y-49308662D01*
X85204811Y-49318690D01*
X76733400Y-49318690D01*
X76733400Y-48657600D01*
X134257000Y-48657600D01*
X134276955Y-48885687D01*
X134278379Y-48891000D01*
X134278379Y-48891002D01*
X134318898Y-49042218D01*
X134336214Y-49106843D01*
X134338536Y-49111824D01*
X134338537Y-49111825D01*
X134430650Y-49309363D01*
X134430653Y-49309368D01*
X134432976Y-49314350D01*
X134564301Y-49501902D01*
X134726198Y-49663799D01*
X134730706Y-49666956D01*
X134730709Y-49666958D01*
X134909241Y-49791967D01*
X134913750Y-49795124D01*
X134918732Y-49797447D01*
X134918737Y-49797450D01*
X135025352Y-49847165D01*
X135121257Y-49891886D01*
X135126565Y-49893308D01*
X135126567Y-49893309D01*
X135337098Y-49949721D01*
X135337100Y-49949721D01*
X135342413Y-49951145D01*
X135570500Y-49971100D01*
X135798587Y-49951145D01*
X135803900Y-49949721D01*
X135803902Y-49949721D01*
X136014433Y-49893309D01*
X136014435Y-49893308D01*
X136019743Y-49891886D01*
X136115648Y-49847165D01*
X136222263Y-49797450D01*
X136222268Y-49797447D01*
X136227250Y-49795124D01*
X136231759Y-49791967D01*
X136410291Y-49666958D01*
X136410294Y-49666956D01*
X136414802Y-49663799D01*
X136576699Y-49501902D01*
X136708024Y-49314350D01*
X136710347Y-49309368D01*
X136710350Y-49309363D01*
X136802463Y-49111825D01*
X136802464Y-49111824D01*
X136804786Y-49106843D01*
X136822103Y-49042218D01*
X136862621Y-48891002D01*
X136862621Y-48891000D01*
X136864045Y-48885687D01*
X136884000Y-48657600D01*
X173477000Y-48657600D01*
X173496955Y-48885687D01*
X173498379Y-48891000D01*
X173498379Y-48891002D01*
X173538898Y-49042218D01*
X173556214Y-49106843D01*
X173558536Y-49111824D01*
X173558537Y-49111825D01*
X173650650Y-49309363D01*
X173650653Y-49309368D01*
X173652976Y-49314350D01*
X173784301Y-49501902D01*
X173946198Y-49663799D01*
X173950706Y-49666956D01*
X173950709Y-49666958D01*
X174129241Y-49791967D01*
X174133750Y-49795124D01*
X174138732Y-49797447D01*
X174138737Y-49797450D01*
X174245352Y-49847165D01*
X174341257Y-49891886D01*
X174346565Y-49893308D01*
X174346567Y-49893309D01*
X174557098Y-49949721D01*
X174557100Y-49949721D01*
X174562413Y-49951145D01*
X174790500Y-49971100D01*
X175018587Y-49951145D01*
X175023900Y-49949721D01*
X175023902Y-49949721D01*
X175234433Y-49893309D01*
X175234435Y-49893308D01*
X175239743Y-49891886D01*
X175335648Y-49847165D01*
X175442263Y-49797450D01*
X175442268Y-49797447D01*
X175447250Y-49795124D01*
X175451759Y-49791967D01*
X175630291Y-49666958D01*
X175630294Y-49666956D01*
X175634802Y-49663799D01*
X175796699Y-49501902D01*
X175928024Y-49314350D01*
X175930347Y-49309368D01*
X175930350Y-49309363D01*
X176022463Y-49111825D01*
X176022464Y-49111824D01*
X176024786Y-49106843D01*
X176042103Y-49042218D01*
X176082621Y-48891002D01*
X176082621Y-48891000D01*
X176084045Y-48885687D01*
X176104000Y-48657600D01*
X176084045Y-48429513D01*
X176024786Y-48208357D01*
X176022463Y-48203375D01*
X175930350Y-48005837D01*
X175930347Y-48005832D01*
X175928024Y-48000850D01*
X175796699Y-47813298D01*
X175634802Y-47651401D01*
X175630294Y-47648244D01*
X175630291Y-47648242D01*
X175451759Y-47523233D01*
X175451757Y-47523232D01*
X175447250Y-47520076D01*
X175442268Y-47517753D01*
X175442263Y-47517750D01*
X175244725Y-47425637D01*
X175244724Y-47425636D01*
X175239743Y-47423314D01*
X175234435Y-47421892D01*
X175234433Y-47421891D01*
X175023902Y-47365479D01*
X175023900Y-47365479D01*
X175018587Y-47364055D01*
X174790500Y-47344100D01*
X174562413Y-47364055D01*
X174557100Y-47365479D01*
X174557098Y-47365479D01*
X174346567Y-47421891D01*
X174346565Y-47421892D01*
X174341257Y-47423314D01*
X174336276Y-47425636D01*
X174336275Y-47425637D01*
X174138737Y-47517750D01*
X174138732Y-47517753D01*
X174133750Y-47520076D01*
X174129243Y-47523232D01*
X174129241Y-47523233D01*
X173950709Y-47648242D01*
X173950706Y-47648244D01*
X173946198Y-47651401D01*
X173784301Y-47813298D01*
X173652976Y-48000850D01*
X173650653Y-48005832D01*
X173650650Y-48005837D01*
X173558537Y-48203375D01*
X173556214Y-48208357D01*
X173496955Y-48429513D01*
X173477000Y-48657600D01*
X136884000Y-48657600D01*
X136864045Y-48429513D01*
X136804786Y-48208357D01*
X136802463Y-48203375D01*
X136710350Y-48005837D01*
X136710347Y-48005832D01*
X136708024Y-48000850D01*
X136576699Y-47813298D01*
X136414802Y-47651401D01*
X136410294Y-47648244D01*
X136410291Y-47648242D01*
X136231759Y-47523233D01*
X136231757Y-47523232D01*
X136227250Y-47520076D01*
X136222268Y-47517753D01*
X136222263Y-47517750D01*
X136024725Y-47425637D01*
X136024724Y-47425636D01*
X136019743Y-47423314D01*
X136014435Y-47421892D01*
X136014433Y-47421891D01*
X135803902Y-47365479D01*
X135803900Y-47365479D01*
X135798587Y-47364055D01*
X135570500Y-47344100D01*
X135342413Y-47364055D01*
X135337100Y-47365479D01*
X135337098Y-47365479D01*
X135126567Y-47421891D01*
X135126565Y-47421892D01*
X135121257Y-47423314D01*
X135116276Y-47425636D01*
X135116275Y-47425637D01*
X134918737Y-47517750D01*
X134918732Y-47517753D01*
X134913750Y-47520076D01*
X134909243Y-47523232D01*
X134909241Y-47523233D01*
X134730709Y-47648242D01*
X134730706Y-47648244D01*
X134726198Y-47651401D01*
X134564301Y-47813298D01*
X134432976Y-48000850D01*
X134430653Y-48005832D01*
X134430650Y-48005837D01*
X134338537Y-48203375D01*
X134336214Y-48208357D01*
X134276955Y-48429513D01*
X134257000Y-48657600D01*
X76733400Y-48657600D01*
X76733400Y-42086800D01*
X76753402Y-42018679D01*
X76807058Y-41972186D01*
X76859400Y-41960800D01*
X197232000Y-41960800D01*
X197300121Y-41980802D01*
G37*
%TD.AperFunction*%
%TD*%
M02*
