%TF.GenerationSoftware,KiCad,Pcbnew,(5.99.0-9519-ga70106a3bd)*%
%TF.CreationDate,2021-04-02T22:42:04-07:00*%
%TF.ProjectId,UsbSound,55736253-6f75-46e6-942e-6b696361645f,rev?*%
%TF.SameCoordinates,Original*%
%TF.FileFunction,Soldermask,Top*%
%TF.FilePolarity,Negative*%
%FSLAX46Y46*%
G04 Gerber Fmt 4.6, Leading zero omitted, Abs format (unit mm)*
G04 Created by KiCad (PCBNEW (5.99.0-9519-ga70106a3bd)) date 2021-04-02 22:42:04*
%MOMM*%
%LPD*%
G01*
G04 APERTURE LIST*
G04 Aperture macros list*
%AMRoundRect*
0 Rectangle with rounded corners*
0 $1 Rounding radius*
0 $2 $3 $4 $5 $6 $7 $8 $9 X,Y pos of 4 corners*
0 Add a 4 corners polygon primitive as box body*
4,1,4,$2,$3,$4,$5,$6,$7,$8,$9,$2,$3,0*
0 Add four circle primitives for the rounded corners*
1,1,$1+$1,$2,$3*
1,1,$1+$1,$4,$5*
1,1,$1+$1,$6,$7*
1,1,$1+$1,$8,$9*
0 Add four rect primitives between the rounded corners*
20,1,$1+$1,$2,$3,$4,$5,0*
20,1,$1+$1,$4,$5,$6,$7,0*
20,1,$1+$1,$6,$7,$8,$9,0*
20,1,$1+$1,$8,$9,$2,$3,0*%
G04 Aperture macros list end*
%ADD10RoundRect,0.250000X0.325000X0.650000X-0.325000X0.650000X-0.325000X-0.650000X0.325000X-0.650000X0*%
%ADD11RoundRect,0.250000X0.625000X-0.312500X0.625000X0.312500X-0.625000X0.312500X-0.625000X-0.312500X0*%
%ADD12RoundRect,0.250000X-0.650000X0.325000X-0.650000X-0.325000X0.650000X-0.325000X0.650000X0.325000X0*%
%ADD13RoundRect,0.250000X-0.625000X0.312500X-0.625000X-0.312500X0.625000X-0.312500X0.625000X0.312500X0*%
%ADD14RoundRect,0.250000X0.312500X0.625000X-0.312500X0.625000X-0.312500X-0.625000X0.312500X-0.625000X0*%
%ADD15RoundRect,0.250000X0.650000X-0.325000X0.650000X0.325000X-0.650000X0.325000X-0.650000X-0.325000X0*%
%ADD16RoundRect,0.050000X0.240000X-0.950000X0.240000X0.950000X-0.240000X0.950000X-0.240000X-0.950000X0*%
%ADD17RoundRect,0.250000X-0.325000X-0.650000X0.325000X-0.650000X0.325000X0.650000X-0.325000X0.650000X0*%
%ADD18R,1.600000X1.500000*%
%ADD19C,1.600000*%
%ADD20C,3.000000*%
%ADD21RoundRect,0.150000X0.825000X0.150000X-0.825000X0.150000X-0.825000X-0.150000X0.825000X-0.150000X0*%
%ADD22R,2.290000X3.000000*%
%ADD23R,2.400000X0.740000*%
%ADD24RoundRect,0.250000X-0.312500X-0.625000X0.312500X-0.625000X0.312500X0.625000X-0.312500X0.625000X0*%
%ADD25R,1.400000X1.200000*%
%ADD26RoundRect,0.150000X0.150000X-0.512500X0.150000X0.512500X-0.150000X0.512500X-0.150000X-0.512500X0*%
%ADD27C,3.400000*%
%ADD28C,2.900000*%
%ADD29RoundRect,0.250000X-0.375000X-0.625000X0.375000X-0.625000X0.375000X0.625000X-0.375000X0.625000X0*%
%ADD30R,1.200000X1.400000*%
%ADD31RoundRect,0.150000X0.150000X-0.825000X0.150000X0.825000X-0.150000X0.825000X-0.150000X-0.825000X0*%
%ADD32R,3.000000X2.290000*%
%ADD33R,0.900000X1.200000*%
%ADD34RoundRect,0.250000X0.700000X-0.275000X0.700000X0.275000X-0.700000X0.275000X-0.700000X-0.275000X0*%
%ADD35RoundRect,0.250000X-0.625000X0.375000X-0.625000X-0.375000X0.625000X-0.375000X0.625000X0.375000X0*%
%ADD36C,0.900000*%
%ADD37R,0.800000X1.000000*%
%ADD38R,1.500000X0.700000*%
%ADD39RoundRect,0.075000X-0.075000X0.700000X-0.075000X-0.700000X0.075000X-0.700000X0.075000X0.700000X0*%
%ADD40RoundRect,0.075000X-0.700000X0.075000X-0.700000X-0.075000X0.700000X-0.075000X0.700000X0.075000X0*%
%ADD41RoundRect,0.147500X-0.147500X-0.172500X0.147500X-0.172500X0.147500X0.172500X-0.147500X0.172500X0*%
%ADD42RoundRect,0.150000X-0.150000X0.512500X-0.150000X-0.512500X0.150000X-0.512500X0.150000X0.512500X0*%
%ADD43RoundRect,0.218750X0.381250X-0.218750X0.381250X0.218750X-0.381250X0.218750X-0.381250X-0.218750X0*%
%ADD44RoundRect,0.250000X-0.700000X0.275000X-0.700000X-0.275000X0.700000X-0.275000X0.700000X0.275000X0*%
G04 APERTURE END LIST*
D10*
%TO.C,C37*%
X194974000Y-74930000D03*
X192024000Y-74930000D03*
%TD*%
D11*
%TO.C,R10*%
X157795500Y-111145600D03*
X157795500Y-108220600D03*
%TD*%
D12*
%TO.C,C5*%
X147895500Y-70457600D03*
X147895500Y-73407600D03*
%TD*%
D13*
%TO.C,R5*%
X118831900Y-69333400D03*
X118831900Y-72258400D03*
%TD*%
D14*
%TO.C,R14*%
X124927900Y-89323000D03*
X122002900Y-89323000D03*
%TD*%
D12*
%TO.C,C25*%
X125258000Y-74357600D03*
X125258000Y-77307600D03*
%TD*%
D15*
%TO.C,C24*%
X110729300Y-86732200D03*
X110729300Y-83782200D03*
%TD*%
D11*
%TO.C,R12*%
X167625300Y-95927000D03*
X167625300Y-93002000D03*
%TD*%
D14*
%TO.C,R7*%
X106821700Y-118059200D03*
X103896700Y-118059200D03*
%TD*%
D16*
%TO.C,U4*%
X155475500Y-96612600D03*
X156125500Y-96612600D03*
X156775500Y-96612600D03*
X157425500Y-96612600D03*
X158075500Y-96612600D03*
X158725500Y-96612600D03*
X159375500Y-96612600D03*
X160025500Y-96612600D03*
X160675500Y-96612600D03*
X161325500Y-96612600D03*
X161975500Y-96612600D03*
X162625500Y-96612600D03*
X163275500Y-96612600D03*
X163925500Y-96612600D03*
X163925500Y-89602600D03*
X163275500Y-89602600D03*
X162625500Y-89602600D03*
X161975500Y-89602600D03*
X161325500Y-89602600D03*
X160675500Y-89602600D03*
X160025500Y-89602600D03*
X159375500Y-89602600D03*
X158725500Y-89602600D03*
X158075500Y-89602600D03*
X157425500Y-89602600D03*
X156775500Y-89602600D03*
X156125500Y-89602600D03*
X155475500Y-89602600D03*
%TD*%
D17*
%TO.C,C14*%
X146996900Y-95016200D03*
X149946900Y-95016200D03*
%TD*%
D12*
%TO.C,C2*%
X111567500Y-61582600D03*
X111567500Y-64532600D03*
%TD*%
D18*
%TO.C,J2*%
X96500100Y-53620000D03*
D19*
X94000100Y-53620000D03*
X92000100Y-53620000D03*
X89500100Y-53620000D03*
D20*
X86430100Y-50910000D03*
X99570100Y-50910000D03*
%TD*%
D17*
%TO.C,C16*%
X157817300Y-86719500D03*
X160767300Y-86719500D03*
%TD*%
D15*
%TO.C,C33*%
X166812500Y-89424600D03*
X166812500Y-86474600D03*
%TD*%
D14*
%TO.C,R19*%
X177183000Y-73882600D03*
X174258000Y-73882600D03*
%TD*%
D11*
%TO.C,R17*%
X137196100Y-94860200D03*
X137196100Y-91935200D03*
%TD*%
D21*
%TO.C,U7*%
X189995500Y-80975100D03*
X189995500Y-79705100D03*
X189995500Y-78435100D03*
X189995500Y-77165100D03*
X185045500Y-77165100D03*
X185045500Y-78435100D03*
X185045500Y-79705100D03*
X185045500Y-80975100D03*
D22*
X187520500Y-79070100D03*
%TD*%
D14*
%TO.C,R2*%
X117921500Y-79671000D03*
X114996500Y-79671000D03*
%TD*%
D17*
%TO.C,C9*%
X128001300Y-87164000D03*
X130951300Y-87164000D03*
%TD*%
D15*
%TO.C,C1*%
X106538300Y-75204400D03*
X106538300Y-72254400D03*
%TD*%
D17*
%TO.C,C13*%
X130893300Y-104436000D03*
X133843300Y-104436000D03*
%TD*%
D15*
%TO.C,C22*%
X133604000Y-83582600D03*
X133604000Y-80632600D03*
%TD*%
%TO.C,C6*%
X113929700Y-91815800D03*
X113929700Y-88865800D03*
%TD*%
D17*
%TO.C,C17*%
X144895500Y-83057600D03*
X147845500Y-83057600D03*
%TD*%
D10*
%TO.C,C19*%
X116317300Y-101972200D03*
X113367300Y-101972200D03*
%TD*%
D12*
%TO.C,C26*%
X175554500Y-112800600D03*
X175554500Y-115750600D03*
%TD*%
D10*
%TO.C,C11*%
X116342700Y-96130200D03*
X113392700Y-96130200D03*
%TD*%
D17*
%TO.C,C29*%
X161326100Y-100753000D03*
X164276100Y-100753000D03*
%TD*%
D23*
%TO.C,J1*%
X92517500Y-99229000D03*
X88617500Y-99229000D03*
X92517500Y-97959000D03*
X88617500Y-97959000D03*
X92517500Y-96689000D03*
X88617500Y-96689000D03*
X92517500Y-95419000D03*
X88617500Y-95419000D03*
X92517500Y-94149000D03*
X88617500Y-94149000D03*
%TD*%
D24*
%TO.C,R8*%
X83957700Y-76927800D03*
X86882700Y-76927800D03*
%TD*%
D21*
%TO.C,U3*%
X149695500Y-80662600D03*
X149695500Y-79392600D03*
X149695500Y-78122600D03*
X149695500Y-76852600D03*
X144745500Y-76852600D03*
X144745500Y-78122600D03*
X144745500Y-79392600D03*
X144745500Y-80662600D03*
D22*
X147220500Y-78757600D03*
%TD*%
D25*
%TO.C,Y1*%
X116993300Y-84676600D03*
X114793300Y-84676600D03*
X114793300Y-86376600D03*
X116993300Y-86376600D03*
%TD*%
D15*
%TO.C,C7*%
X118044500Y-91812200D03*
X118044500Y-88862200D03*
%TD*%
D26*
%TO.C,U1*%
X111440500Y-74834200D03*
X112390500Y-74834200D03*
X113340500Y-74834200D03*
X113340500Y-72559200D03*
X112390500Y-72559200D03*
X111440500Y-72559200D03*
%TD*%
D19*
%TO.C,J4*%
X174790500Y-48657600D03*
X182410500Y-53737600D03*
D27*
X182410500Y-62627600D03*
X174790500Y-62627600D03*
D28*
X178600500Y-62627600D03*
X178600500Y-57547600D03*
%TD*%
D11*
%TO.C,R9*%
X161605500Y-111145600D03*
X161605500Y-108220600D03*
%TD*%
D19*
%TO.C,J3*%
X143190500Y-53737600D03*
X135570500Y-48657600D03*
D27*
X143190500Y-62627600D03*
X135570500Y-62627600D03*
D28*
X139380500Y-62627600D03*
X139380500Y-57547600D03*
%TD*%
D15*
%TO.C,C36*%
X150556500Y-89326600D03*
X150556500Y-86376600D03*
%TD*%
D29*
%TO.C,D3*%
X109725000Y-118059200D03*
X112525000Y-118059200D03*
%TD*%
D30*
%TO.C,Y2*%
X172174500Y-112710600D03*
X172174500Y-110510600D03*
X170474500Y-110510600D03*
X170474500Y-112710600D03*
%TD*%
D31*
%TO.C,U6*%
X127653000Y-79307600D03*
X128923000Y-79307600D03*
X130193000Y-79307600D03*
X131463000Y-79307600D03*
X131463000Y-74357600D03*
X130193000Y-74357600D03*
X128923000Y-74357600D03*
X127653000Y-74357600D03*
D32*
X129558000Y-76832600D03*
%TD*%
D17*
%TO.C,C10*%
X128026700Y-89704000D03*
X130976700Y-89704000D03*
%TD*%
%TO.C,C30*%
X161326100Y-104817000D03*
X164276100Y-104817000D03*
%TD*%
D33*
%TO.C,D2*%
X109762100Y-68418800D03*
X106462100Y-68418800D03*
%TD*%
%TO.C,D1*%
X103208900Y-68876000D03*
X99908900Y-68876000D03*
%TD*%
D13*
%TO.C,R16*%
X184520500Y-70845100D03*
X184520500Y-73770100D03*
%TD*%
D14*
%TO.C,R3*%
X112765300Y-79696400D03*
X109840300Y-79696400D03*
%TD*%
D15*
%TO.C,C18*%
X142320500Y-82482600D03*
X142320500Y-79532600D03*
%TD*%
D34*
%TO.C,L3*%
X143190500Y-98162600D03*
X143190500Y-95012600D03*
%TD*%
D17*
%TO.C,C20*%
X128636300Y-106934000D03*
X131586300Y-106934000D03*
%TD*%
D15*
%TO.C,C41*%
X173228000Y-83771000D03*
X173228000Y-80821000D03*
%TD*%
D12*
%TO.C,C27*%
X166664500Y-112542600D03*
X166664500Y-115492600D03*
%TD*%
D24*
%TO.C,R15*%
X163997500Y-110510600D03*
X166922500Y-110510600D03*
%TD*%
D15*
%TO.C,C34*%
X172400500Y-89424600D03*
X172400500Y-86474600D03*
%TD*%
D17*
%TO.C,C15*%
X147000500Y-100248600D03*
X149950500Y-100248600D03*
%TD*%
%TO.C,C38*%
X185070500Y-83570100D03*
X188020500Y-83570100D03*
%TD*%
D10*
%TO.C,C32*%
X160767300Y-84306500D03*
X157817300Y-84306500D03*
%TD*%
D15*
%TO.C,C39*%
X182620500Y-82695100D03*
X182620500Y-79745100D03*
%TD*%
D12*
%TO.C,C23*%
X121041700Y-83785800D03*
X121041700Y-86735800D03*
%TD*%
D35*
%TO.C,F1*%
X103236300Y-61783400D03*
X103236300Y-64583400D03*
%TD*%
D31*
%TO.C,U8*%
X167215500Y-79287600D03*
X168485500Y-79287600D03*
X169755500Y-79287600D03*
X171025500Y-79287600D03*
X171025500Y-74337600D03*
X169755500Y-74337600D03*
X168485500Y-74337600D03*
X167215500Y-74337600D03*
D32*
X169120500Y-76812600D03*
%TD*%
D12*
%TO.C,C42*%
X164720500Y-74432600D03*
X164720500Y-77382600D03*
%TD*%
D14*
%TO.C,R13*%
X138008000Y-73832600D03*
X135083000Y-73832600D03*
%TD*%
D11*
%TO.C,R18*%
X133386100Y-94838800D03*
X133386100Y-91913800D03*
%TD*%
D12*
%TO.C,C12*%
X117663500Y-104080400D03*
X117663500Y-107030400D03*
%TD*%
D13*
%TO.C,R6*%
X144370500Y-70470100D03*
X144370500Y-73395100D03*
%TD*%
D12*
%TO.C,C3*%
X98080100Y-75835600D03*
X98080100Y-78785600D03*
%TD*%
D10*
%TO.C,C8*%
X155399000Y-75257600D03*
X152449000Y-75257600D03*
%TD*%
D36*
%TO.C,SW1*%
X77828900Y-77716600D03*
D37*
X76728900Y-79866600D03*
D36*
X77828900Y-74716600D03*
D37*
X76728900Y-72566600D03*
X78938900Y-79866600D03*
X78938900Y-72566600D03*
D38*
X79588900Y-73966600D03*
X79588900Y-76966600D03*
X79588900Y-78466600D03*
%TD*%
D12*
%TO.C,C31*%
X188420500Y-70820100D03*
X188420500Y-73770100D03*
%TD*%
D24*
%TO.C,R4*%
X112405700Y-69638200D03*
X115330700Y-69638200D03*
%TD*%
D39*
%TO.C,U5*%
X128042900Y-93198400D03*
X127542900Y-93198400D03*
X127042900Y-93198400D03*
X126542900Y-93198400D03*
X126042900Y-93198400D03*
X125542900Y-93198400D03*
X125042900Y-93198400D03*
X124542900Y-93198400D03*
X124042900Y-93198400D03*
X123542900Y-93198400D03*
X123042900Y-93198400D03*
X122542900Y-93198400D03*
X122042900Y-93198400D03*
X121542900Y-93198400D03*
X121042900Y-93198400D03*
X120542900Y-93198400D03*
D40*
X118617900Y-95123400D03*
X118617900Y-95623400D03*
X118617900Y-96123400D03*
X118617900Y-96623400D03*
X118617900Y-97123400D03*
X118617900Y-97623400D03*
X118617900Y-98123400D03*
X118617900Y-98623400D03*
X118617900Y-99123400D03*
X118617900Y-99623400D03*
X118617900Y-100123400D03*
X118617900Y-100623400D03*
X118617900Y-101123400D03*
X118617900Y-101623400D03*
X118617900Y-102123400D03*
X118617900Y-102623400D03*
D39*
X120542900Y-104548400D03*
X121042900Y-104548400D03*
X121542900Y-104548400D03*
X122042900Y-104548400D03*
X122542900Y-104548400D03*
X123042900Y-104548400D03*
X123542900Y-104548400D03*
X124042900Y-104548400D03*
X124542900Y-104548400D03*
X125042900Y-104548400D03*
X125542900Y-104548400D03*
X126042900Y-104548400D03*
X126542900Y-104548400D03*
X127042900Y-104548400D03*
X127542900Y-104548400D03*
X128042900Y-104548400D03*
D40*
X129967900Y-102623400D03*
X129967900Y-102123400D03*
X129967900Y-101623400D03*
X129967900Y-101123400D03*
X129967900Y-100623400D03*
X129967900Y-100123400D03*
X129967900Y-99623400D03*
X129967900Y-99123400D03*
X129967900Y-98623400D03*
X129967900Y-98123400D03*
X129967900Y-97623400D03*
X129967900Y-97123400D03*
X129967900Y-96623400D03*
X129967900Y-96123400D03*
X129967900Y-95623400D03*
X129967900Y-95123400D03*
%TD*%
D10*
%TO.C,C40*%
X177220500Y-77882600D03*
X174270500Y-77882600D03*
%TD*%
D41*
%TO.C,L2*%
X109886300Y-91837600D03*
X110856300Y-91837600D03*
%TD*%
D14*
%TO.C,R1*%
X118023100Y-75531000D03*
X115098100Y-75531000D03*
%TD*%
D17*
%TO.C,C28*%
X125908000Y-71932600D03*
X128858000Y-71932600D03*
%TD*%
D11*
%TO.C,R11*%
X153985500Y-111145600D03*
X153985500Y-108220600D03*
%TD*%
D17*
%TO.C,C43*%
X165445500Y-71932600D03*
X168395500Y-71932600D03*
%TD*%
D42*
%TO.C,U2*%
X93950100Y-66437600D03*
X93000100Y-66437600D03*
X92050100Y-66437600D03*
X92050100Y-68712600D03*
X93000100Y-68712600D03*
X93950100Y-68712600D03*
%TD*%
D15*
%TO.C,C35*%
X153096500Y-89326600D03*
X153096500Y-86376600D03*
%TD*%
D43*
%TO.C,FB1*%
X107986100Y-64041400D03*
X107986100Y-61916400D03*
%TD*%
D17*
%TO.C,C4*%
X104680500Y-78655000D03*
X107630500Y-78655000D03*
%TD*%
D44*
%TO.C,L1*%
X101356700Y-72254000D03*
X101356700Y-75404000D03*
%TD*%
D10*
%TO.C,C21*%
X137958000Y-77432600D03*
X135008000Y-77432600D03*
%TD*%
M02*
