%TF.GenerationSoftware,KiCad,Pcbnew,(5.99.0-9519-ga70106a3bd)*%
%TF.CreationDate,2021-04-02T22:42:04-07:00*%
%TF.ProjectId,UsbSound,55736253-6f75-46e6-942e-6b696361645f,rev?*%
%TF.SameCoordinates,Original*%
%TF.FileFunction,Copper,L4,Bot*%
%TF.FilePolarity,Positive*%
%FSLAX46Y46*%
G04 Gerber Fmt 4.6, Leading zero omitted, Abs format (unit mm)*
G04 Created by KiCad (PCBNEW (5.99.0-9519-ga70106a3bd)) date 2021-04-02 22:42:04*
%MOMM*%
%LPD*%
G01*
G04 APERTURE LIST*
%TA.AperFunction,ComponentPad*%
%ADD10R,1.600000X1.500000*%
%TD*%
%TA.AperFunction,ComponentPad*%
%ADD11C,1.600000*%
%TD*%
%TA.AperFunction,ComponentPad*%
%ADD12C,3.000000*%
%TD*%
%TA.AperFunction,ComponentPad*%
%ADD13C,3.400000*%
%TD*%
%TA.AperFunction,ComponentPad*%
%ADD14C,2.900000*%
%TD*%
%TA.AperFunction,ViaPad*%
%ADD15C,0.800000*%
%TD*%
%TA.AperFunction,Conductor*%
%ADD16C,0.250000*%
%TD*%
G04 APERTURE END LIST*
D10*
%TO.P,J2,1,VBUS*%
%TO.N,+5V*%
X96500100Y-53620000D03*
D11*
%TO.P,J2,2,D-*%
%TO.N,USB_CONN_D-*%
X94000100Y-53620000D03*
%TO.P,J2,3,D+*%
%TO.N,USB_CONN_D+*%
X92000100Y-53620000D03*
%TO.P,J2,4,GND*%
%TO.N,unconnected-(J2-Pad4)*%
X89500100Y-53620000D03*
D12*
%TO.P,J2,5,Shield*%
%TO.N,GND*%
X86430100Y-50910000D03*
X99570100Y-50910000D03*
%TD*%
D13*
%TO.P,J4,1*%
%TO.N,GND*%
X182410500Y-62627600D03*
%TO.P,J4,2*%
%TO.N,XLR_R+*%
X174790500Y-62627600D03*
D14*
%TO.P,J4,3*%
%TO.N,XLR_R-*%
X178600500Y-62627600D03*
%TO.P,J4,G*%
%TO.N,N/C*%
X178600500Y-57547600D03*
%TD*%
D13*
%TO.P,J3,1*%
%TO.N,GND*%
X143190500Y-62627600D03*
%TO.P,J3,2*%
%TO.N,XLR_L+*%
X135570500Y-62627600D03*
D14*
%TO.P,J3,3*%
%TO.N,XLR_L-*%
X139380500Y-62627600D03*
%TO.P,J3,G*%
%TO.N,N/C*%
X139380500Y-57547600D03*
%TD*%
D15*
%TO.N,GND*%
X143000000Y-89900000D03*
X175260000Y-98552000D03*
X127762000Y-95758000D03*
X177292000Y-102616000D03*
X97800000Y-94100000D03*
X173228000Y-102616000D03*
X177292000Y-104648000D03*
X112000000Y-100100000D03*
X158500000Y-93200000D03*
X98900000Y-91500000D03*
X142200000Y-89100000D03*
X133096000Y-108204000D03*
X177500000Y-85200000D03*
X174244000Y-102616000D03*
X153400000Y-71500000D03*
X169400000Y-84000000D03*
X112000000Y-97900000D03*
X136652000Y-83566000D03*
X179800000Y-86500000D03*
X112500000Y-76600000D03*
X141400000Y-88300000D03*
X159600000Y-92200000D03*
X165700000Y-92700000D03*
X152100000Y-71500000D03*
X150500000Y-82000000D03*
X175260000Y-102616000D03*
X176276000Y-99568000D03*
X160200000Y-98700000D03*
X175900000Y-85900000D03*
X133096000Y-107188000D03*
X135700000Y-87600000D03*
X174400000Y-85900000D03*
X175260000Y-104648000D03*
X175260000Y-100584000D03*
X153300000Y-92900000D03*
X173228000Y-103632000D03*
X155500000Y-85700000D03*
X154800000Y-80500000D03*
X144615094Y-88610906D03*
X143002000Y-86868000D03*
X143795047Y-87790858D03*
X151300000Y-92900000D03*
X137196100Y-88967400D03*
X152100000Y-83300000D03*
X177500000Y-89100000D03*
X96700000Y-91500000D03*
X122800000Y-91500000D03*
X140600000Y-87500000D03*
X134112000Y-107188000D03*
X176276000Y-100584000D03*
X175260000Y-101600000D03*
X107200000Y-83000000D03*
X169400000Y-86100000D03*
X154400000Y-78300000D03*
X110300000Y-76600000D03*
X153400000Y-69300000D03*
X192500000Y-69600000D03*
X109200000Y-76600000D03*
X177292000Y-98552000D03*
X105600000Y-99700000D03*
X89814400Y-67640200D03*
X154700000Y-69300000D03*
X164200000Y-92700000D03*
X139100000Y-85900000D03*
X173228000Y-100584000D03*
X160700000Y-93200000D03*
X175260000Y-103632000D03*
X179800000Y-89100000D03*
X133055900Y-89069000D03*
X95600000Y-94100000D03*
X156500000Y-85700000D03*
X177292000Y-100584000D03*
X152300000Y-92900000D03*
X105600000Y-100900000D03*
X176276000Y-104648000D03*
X176276000Y-101600000D03*
X143700000Y-90700000D03*
X129623000Y-83566000D03*
X165700000Y-97900000D03*
X98900000Y-94100000D03*
X155500000Y-86700000D03*
X165700000Y-96900000D03*
X164400000Y-98500000D03*
X95600000Y-91500000D03*
X176276000Y-84100000D03*
X106100000Y-83000000D03*
X120700000Y-96400000D03*
X173228000Y-98552000D03*
X135128000Y-106172000D03*
X120800000Y-73100000D03*
X105000000Y-83000000D03*
X152100000Y-69300000D03*
X177292000Y-99568000D03*
X120800000Y-75300000D03*
X169418000Y-82296000D03*
X177500000Y-87800000D03*
X157400000Y-93200000D03*
X174244000Y-103632000D03*
X111400000Y-76600000D03*
X179800000Y-85200000D03*
X174244000Y-98552000D03*
X121800000Y-91000000D03*
X96700000Y-94100000D03*
X176276000Y-98552000D03*
X154700000Y-71500000D03*
X177500000Y-86500000D03*
X97800000Y-91500000D03*
X176276000Y-102616000D03*
X163322000Y-87884000D03*
X163400000Y-98500000D03*
X156500000Y-86700000D03*
X176276000Y-103632000D03*
X176276000Y-82296000D03*
X173228000Y-101600000D03*
X192400000Y-71900000D03*
X194700000Y-69600000D03*
X112000000Y-99000000D03*
X160700000Y-92200000D03*
X156300000Y-93200000D03*
X174244000Y-99568000D03*
X108300000Y-83000000D03*
X173228000Y-99568000D03*
X152900000Y-82500000D03*
X120800000Y-74200000D03*
X173228000Y-104648000D03*
X101100000Y-94100000D03*
X179800000Y-87800000D03*
X120800000Y-76400000D03*
X100000000Y-91500000D03*
X138300000Y-85100000D03*
X139800000Y-86700000D03*
X179800000Y-90400000D03*
X105600000Y-98500000D03*
X174244000Y-104648000D03*
X134112000Y-106172000D03*
X174244000Y-100584000D03*
X174244000Y-101600000D03*
X153800000Y-81600000D03*
X151800000Y-78300000D03*
X161700000Y-93600000D03*
X155200000Y-93200000D03*
X162200000Y-87800000D03*
X162400000Y-98500000D03*
X159600000Y-93200000D03*
X177500000Y-90400000D03*
X153000000Y-78300000D03*
X101100000Y-91500000D03*
X133096000Y-106172000D03*
X142240000Y-86106000D03*
X158500000Y-92200000D03*
X175260000Y-99568000D03*
X170500000Y-86100000D03*
X105600000Y-97300000D03*
X100000000Y-94100000D03*
X177292000Y-101600000D03*
X194700000Y-71900000D03*
X177292000Y-103632000D03*
%TO.N,+3V3*%
X127950500Y-85436800D03*
X161326100Y-106290200D03*
X132384800Y-104343200D03*
X114046000Y-104140000D03*
X156540200Y-102412800D03*
X115366800Y-94132400D03*
X96048100Y-99203600D03*
X101788500Y-76801000D03*
X108544900Y-91812200D03*
X126767900Y-90373200D03*
X175554500Y-111653600D03*
X130169200Y-93198400D03*
X97993200Y-74015600D03*
X160121600Y-102463600D03*
X82027300Y-73956000D03*
X118019100Y-77309000D03*
X116840000Y-98298000D03*
%TO.N,Net-(C17-Pad2)*%
X143895500Y-75257600D03*
X149695500Y-83057600D03*
%TO.N,+5VA*%
X175448500Y-80788600D03*
X191196500Y-73168600D03*
X147000500Y-89424600D03*
X135824500Y-80788600D03*
X174432500Y-89932600D03*
X150300000Y-73400000D03*
X146289300Y-92929800D03*
X160513300Y-81766500D03*
%TO.N,-5VA*%
X168844500Y-69612600D03*
X129220500Y-69612600D03*
X180528500Y-78756600D03*
X140904500Y-77232600D03*
%TO.N,Net-(C25-Pad2)*%
X125308000Y-79032600D03*
X133108000Y-73432600D03*
%TO.N,Net-(C42-Pad2)*%
X164720500Y-79382600D03*
X172720500Y-73382600D03*
%TO.N,Net-(C38-Pad2)*%
X184020500Y-75570100D03*
X190020500Y-83570100D03*
%TO.N,LED_STATUS*%
X112522000Y-114706400D03*
X112496600Y-108331000D03*
%TO.N,+5V*%
X143190500Y-99940200D03*
X96479900Y-67580600D03*
%TO.N,NRST*%
X116672900Y-93387000D03*
X102499700Y-92929800D03*
%TO.N,SWO*%
X138237500Y-102348400D03*
X134935500Y-99848400D03*
%TO.N,BOOT0*%
X95082900Y-76978600D03*
X90714100Y-76978600D03*
%TO.N,I2C1_SCL*%
X137551700Y-98670200D03*
X137348500Y-96689000D03*
%TD*%
D16*
%TO.N,+3V3*%
X160096200Y-102489000D02*
X160121600Y-102463600D01*
X156540200Y-102412800D02*
X156616400Y-102489000D01*
X116840000Y-98298000D02*
X116840000Y-101346000D01*
X116840000Y-101346000D02*
X114046000Y-104140000D01*
%TO.N,Net-(C17-Pad2)*%
X149695500Y-79857600D02*
X145095500Y-75257600D01*
X145095500Y-75257600D02*
X143895500Y-75257600D01*
X149695500Y-83057600D02*
X149695500Y-79857600D01*
%TO.N,+5VA*%
X146289300Y-91304200D02*
X147000500Y-90593000D01*
X146289300Y-92929800D02*
X146289300Y-91304200D01*
X159600000Y-80853200D02*
X160513300Y-81766500D01*
X150300000Y-73400000D02*
X151200000Y-72500000D01*
X147000500Y-90593000D02*
X147000500Y-89424600D01*
X157400000Y-72500000D02*
X159600000Y-74700000D01*
X151200000Y-72500000D02*
X157400000Y-72500000D01*
X159600000Y-74700000D02*
X159600000Y-80853200D01*
%TO.N,Net-(C25-Pad2)*%
X128908000Y-79032600D02*
X133108000Y-74832600D01*
X133108000Y-74832600D02*
X133108000Y-73432600D01*
X125308000Y-79032600D02*
X128908000Y-79032600D01*
%TO.N,Net-(C42-Pad2)*%
X172720500Y-73382600D02*
X172720500Y-74382600D01*
X172720500Y-74382600D02*
X167720500Y-79382600D01*
X167720500Y-79382600D02*
X164720500Y-79382600D01*
%TO.N,Net-(C38-Pad2)*%
X184020500Y-75570100D02*
X185020500Y-75570100D01*
X185020500Y-75570100D02*
X190020500Y-80570100D01*
X190020500Y-80570100D02*
X190020500Y-83570100D01*
%TO.N,LED_STATUS*%
X112496600Y-114681000D02*
X112522000Y-114706400D01*
X112496600Y-108331000D02*
X112496600Y-114681000D01*
%TO.N,NRST*%
X116215700Y-92929800D02*
X102499700Y-92929800D01*
X116672900Y-93387000D02*
X116215700Y-92929800D01*
%TO.N,SWO*%
X138237500Y-101540400D02*
X136545500Y-99848400D01*
X136545500Y-99848400D02*
X134935500Y-99848400D01*
X138237500Y-102348400D02*
X138237500Y-101540400D01*
%TO.N,BOOT0*%
X90714100Y-76978600D02*
X95082900Y-76978600D01*
%TO.N,I2C1_SCL*%
X137094500Y-96689000D02*
X137348500Y-96689000D01*
X136738900Y-97857400D02*
X136738900Y-97044600D01*
X137551700Y-98670200D02*
X136738900Y-97857400D01*
X136738900Y-97044600D02*
X137094500Y-96689000D01*
%TD*%
M02*
